<svg width="18" height="17" viewBox="0 0 18 17" fill="none" xmlns="http://www.w3.org/2000/svg">
<path d="M17.9958 11.2174C17.9958 11.1958 18 11.1748 18 11.1532V11.0878L17.8896 4.0183C17.9139 3.20246 17.6525 2.40377 17.1505 1.76018C16.8823 1.44426 16.5464 1.19278 16.1678 1.02443C15.7891 0.856079 15.3774 0.775167 14.9632 0.787702C14.752 0.787702 14.5246 0.8015 14.3135 0.814098C13.9144 0.857192 13.5115 0.852156 13.1136 0.7991H13.104L13.0752 0.787702C13.0435 0.776643 13.0123 0.764233 12.9816 0.750506C12.8824 0.706421 12.7842 0.660014 12.6871 0.611324C12.0338 0.246099 11.3049 0.0368748 10.5573 0C9.94204 0.0166183 9.34059 0.186311 8.80735 0.493738C8.24485 0.822932 7.5985 0.980768 6.94758 0.947881C6.34868 0.905801 5.7479 0.997199 5.18861 1.21548C4.62932 1.43376 4.12546 1.77348 3.71339 2.21012C3.36444 2.52624 2.94081 2.74838 2.48234 2.85564C2.17183 2.95362 1.87067 3.0791 1.58246 3.2306L1.57346 3.23599L1.56446 3.24019C1.08488 3.53859 0.690151 3.95537 0.418238 4.45045C0.146325 4.94552 0.00637572 5.50223 0.0118516 6.06704V10.0751C-0.0508593 10.9619 0.13619 11.8485 0.551784 12.6344C0.793114 12.9854 1.11391 13.2745 1.48805 13.4781C1.8622 13.6817 2.27913 13.794 2.70491 13.8061C3.2276 13.8769 3.75935 13.7825 4.22572 13.5361C4.3713 13.455 4.50785 13.3587 4.63307 13.2487C4.74706 13.4089 4.87604 13.5577 5.01763 13.6939C5.45275 14.1272 6.03467 14.3813 6.64822 14.406C6.88318 14.4072 7.11799 14.394 7.35133 14.3664H7.38733C7.64064 15.0061 8.11987 15.5306 8.73416 15.8404C9.12416 16.0209 9.54707 16.1193 9.97668 16.1296C10.4063 16.14 10.8334 16.0619 11.2316 15.9004L15.8061 14.3112C15.8625 14.292 15.9183 14.271 15.9729 14.2512C16.4259 14.1132 16.8327 13.8541 17.1493 13.5019C17.3215 13.3333 17.4685 13.1408 17.5855 12.9302C17.7778 12.5663 17.9016 12.1702 17.9508 11.7615C17.9586 11.7099 17.964 11.6577 17.97 11.6055C17.9838 11.4568 17.9934 11.3296 17.9958 11.2174ZM5.83772 12.815C5.63358 12.6405 5.48316 12.4117 5.40398 12.1551C5.39575 12.129 5.38573 12.1036 5.37398 12.0789V6.56978C5.37398 6.41067 5.31077 6.25807 5.19827 6.14557C5.08576 6.03306 4.93317 5.96985 4.77406 5.96985C4.61495 5.96985 4.46235 6.03306 4.34984 6.14557C4.23734 6.25807 4.17413 6.41067 4.17413 6.56978V12.0093C4.15073 12.0351 4.12194 12.0627 4.10334 12.0837C3.97591 12.2416 3.82205 12.3762 3.6486 12.4814C3.20465 12.7064 2.56393 12.671 2.12119 12.4544C1.90033 12.3466 1.70873 12.1871 1.56266 11.9895C1.27525 11.3947 1.15399 10.7332 1.2117 10.0751V6.06704C1.20654 5.715 1.28999 5.36731 1.45437 5.05595C1.61875 4.7446 1.85878 4.47958 2.15238 4.28526L2.17038 4.27567C2.39681 4.15939 2.63311 4.06342 2.87649 3.9889C3.54235 3.81636 4.1495 3.46782 4.63427 2.97983C4.92777 2.68525 5.28176 2.45795 5.67176 2.31365C6.06175 2.16936 6.47844 2.11152 6.89299 2.14413C7.74642 2.18735 8.59459 1.98743 9.33889 1.5676C9.70735 1.3436 10.1265 1.21647 10.5573 1.19805C11.1222 1.23703 11.6708 1.40468 12.1609 1.68819C12.3876 1.8112 12.6281 1.90705 12.8772 1.97375C13.3765 2.04899 13.8832 2.06128 14.3855 2.01035C14.6056 1.99715 14.7952 1.98575 14.9632 1.98575C15.2012 1.97313 15.439 2.01524 15.6582 2.10884C15.8774 2.20244 16.0723 2.34504 16.2278 2.52568C16.5518 2.95703 16.715 3.48736 16.6898 4.0255V4.0351L16.7996 11.1064C16.7996 11.143 16.7996 11.1856 16.7954 11.2264C16.7954 11.305 16.7882 11.3812 16.7798 11.4556C16.7756 11.5 16.7696 11.5456 16.7636 11.5912C16.7076 11.9849 16.5412 12.3548 16.2836 12.6578C16.2236 12.7184 16.1564 12.7724 16.0844 12.818C15.8063 12.9682 15.4926 13.0404 15.1768 13.0268C14.9155 13.0394 14.6561 12.9769 14.4292 12.8468C14.2709 12.7441 14.145 12.5984 14.0663 12.4268C13.8934 12.0037 13.818 11.5471 13.8455 11.0908C13.8434 11.0749 13.8404 11.059 13.8365 11.0434V5.6321C13.8365 5.47299 13.7733 5.32039 13.6608 5.20788C13.5483 5.09538 13.3957 5.03217 13.2366 5.03217C13.0775 5.03217 12.9249 5.09538 12.8124 5.20788C12.6999 5.32039 12.6367 5.47299 12.6367 5.6321V11.7627C12.6242 12.0988 12.5034 12.4218 12.2923 12.6836C12.167 12.8411 12.0066 12.967 11.8238 13.0513C11.6411 13.1356 11.4412 13.1759 11.24 13.169C10.7952 13.2125 10.3482 13.1104 9.96641 12.878C9.83342 12.7508 9.73089 12.5953 9.66648 12.4229C9.60207 12.2506 9.57745 12.0659 9.59445 11.8827C9.59445 11.8431 9.60405 11.8011 9.60405 11.7627V5.6321C9.60405 5.47299 9.54084 5.32039 9.42834 5.20788C9.31583 5.09538 9.16324 5.03217 9.00413 5.03217C8.84502 5.03217 8.69242 5.09538 8.57992 5.20788C8.46741 5.32039 8.4042 5.47299 8.4042 5.6321V11.6913C8.39811 11.7142 8.3935 11.7375 8.3904 11.7609C8.3904 11.7909 8.3964 11.8167 8.397 11.8467C8.372 12.1591 8.26773 12.46 8.09404 12.7208C7.99358 12.8757 7.85384 13.0011 7.68909 13.0844C7.66053 13.0851 7.63206 13.0879 7.6039 13.0928C7.29134 13.1768 6.96798 13.2151 6.64402 13.2043C6.33692 13.1767 6.05034 13.0383 5.83772 12.815ZM10.8387 14.7678L10.8219 14.7738C10.5753 14.8798 10.3094 14.9336 10.0409 14.9318C9.77249 14.9301 9.50732 14.8728 9.26209 14.7636C8.93253 14.5971 8.6709 14.3214 8.52179 13.9837C8.68977 13.8607 8.83975 13.7167 8.96933 13.5541C9.04552 13.6501 9.13131 13.7395 9.2243 13.8193C9.81643 14.2224 10.5261 14.4162 11.2412 14.3682C11.6213 14.3751 11.9979 14.2948 12.342 14.1334C12.6862 13.972 12.9887 13.7338 13.2264 13.4371C13.2402 13.4203 13.2486 13.4011 13.2618 13.3843C13.3818 13.5343 13.521 13.6681 13.6769 13.7803L10.8387 14.766V14.7678Z" fill="#545454"/>
</svg>
