<svg width="32" height="32" viewBox="0 0 32 32" fill="none" xmlns="http://www.w3.org/2000/svg">
<path d="M12.2663 20.8001L15.9997 18.0001L19.6663 20.8001L18.2663 16.2667L21.9997 13.3334H17.4663L15.9997 8.80008L14.533 13.3334H9.99967L13.6663 16.2667L12.2663 20.8001ZM15.9997 29.3334C12.9108 28.5556 10.361 26.7832 8.35034 24.0161C6.33879 21.2499 5.33301 18.1779 5.33301 14.8001V6.66675L15.9997 2.66675L26.6663 6.66675V14.8001C26.6663 18.1779 25.661 21.2499 23.6503 24.0161C21.6388 26.7832 19.0886 28.5556 15.9997 29.3334ZM15.9997 26.5334C18.3108 25.8001 20.2219 24.3334 21.733 22.1334C23.2441 19.9334 23.9997 17.489 23.9997 14.8001V8.50008L15.9997 5.50008L7.99967 8.50008V14.8001C7.99967 17.489 8.75523 19.9334 10.2663 22.1334C11.7775 24.3334 13.6886 25.8001 15.9997 26.5334Z" fill="#545454"/>
</svg>
