<svg width="185" height="115" viewBox="0 0 185 115" fill="none" xmlns="http://www.w3.org/2000/svg">
<path d="M169.368 57.4345L169.796 54.8892C169.589 54.5169 169.35 54.1635 169.081 53.8332C168.8 53.5354 168.085 48.4178 168.085 48.4178L172.721 47.4268C172.721 47.4268 173.154 52.4685 173.154 52.9613C173.154 53.4541 172.011 54.808 172.011 54.808L171.513 57.8786L169.368 57.4345Z" fill="#E4897B"/>
<path d="M156.805 59.1344C159.122 59.2102 166.406 67.0139 166.406 67.0139L169.081 56.4375L172.726 57.2336C172.726 57.2336 171.643 70.3985 169.509 72.2506C167.376 74.1027 156.149 67.5175 156.149 67.5175L156.805 59.1344Z" fill="#348DAA"/>
<path opacity="0.2" d="M172.72 57.2344C172.72 57.2344 171.637 70.3993 169.509 72.2514C168.323 73.2749 164.354 71.7098 161.045 70.1177C159.155 69.2025 157.476 68.2764 156.664 67.8161L156.122 67.5183L156.382 64.269L156.485 62.9206L156.783 59.1568C159.095 59.2327 166.379 67.0363 166.379 67.0363L169.06 56.46L172.72 57.2344Z" fill="black"/>
<path opacity="0.2" d="M161.045 70.1172C159.155 69.202 157.476 68.276 156.664 67.8156C156.483 66.6348 156.396 65.4415 156.404 64.2469C156.404 63.7955 156.439 63.3447 156.507 62.8984C156.507 62.8984 160.205 65.6224 161.045 70.1172Z" fill="black"/>
<path d="M138.037 87.5283H158.821C160.803 98.3213 166.987 142.143 162.547 176.174H155.507C155.507 176.174 156.178 124.494 149.951 107.793C149.236 116.728 141.968 176.136 141.968 176.136H134.825C134.825 176.136 135.908 153.792 136.964 132.682C137.641 119.387 138.037 90.2577 138.037 87.5283Z" fill="#348DAA"/>
<path opacity="0.6" d="M138.037 87.5283H158.821C160.803 98.3213 166.987 142.143 162.547 176.174H155.507C155.507 176.174 156.178 124.494 149.951 107.793C149.236 116.728 141.968 176.136 141.968 176.136H134.825C134.825 176.136 135.908 153.792 136.964 132.682C137.641 119.387 138.037 90.2577 138.037 87.5283Z" fill="white"/>
<path opacity="0.2" d="M149.949 107.793C150.972 110.721 151.749 113.73 152.272 116.788C152.852 108.832 150.529 100.395 150.529 100.395L149.949 107.793Z" fill="black"/>
<path d="M155.401 90.0568L145.562 90.1759V87.7769H155.401V90.0568Z" fill="black"/>
<path d="M144.814 87.7769V90.1867L138.088 90.268V87.7769H144.814Z" fill="black"/>
<path d="M156.149 87.7769H159.014L159.28 90.008L156.149 90.0459V87.7769Z" fill="black"/>
<path d="M149.472 90.1279H153.344V87.339H149.472V90.1279Z" fill="white"/>
<path d="M134.84 59.1348C134.991 60.3966 135.154 61.8425 135.338 63.3805C135.452 64.3661 135.576 65.4058 135.701 66.4889C135.901 68.1731 136.107 69.9602 136.324 71.834C136.378 72.3214 136.437 72.8033 136.492 73.3016C137.033 77.8884 137.575 82.8598 138.116 87.7716H159.036C159.036 87.7716 160.634 72.7384 156.832 59.1348H134.84Z" fill="#348DAA"/>
<path d="M148.069 62.4979C148.069 62.4979 139.091 61.7073 137.59 59.3678C136.09 57.0283 144.241 54.0823 149.477 54.9867C154.714 55.8911 159.382 59.4599 148.069 62.4979Z" fill="#348DAA"/>
<path opacity="0.2" d="M148.069 62.4979C148.069 62.4979 139.091 61.7073 137.59 59.3678C136.09 57.0283 144.241 54.0823 149.477 54.9867C154.714 55.8911 159.382 59.4599 148.069 62.4979Z" fill="black"/>
<path d="M146.769 70.7731H146.71C146.677 70.7568 146.652 70.7285 146.64 70.6942C146.628 70.6598 146.63 70.6221 146.645 70.589C148.865 66.0129 145.854 62.1301 145.821 62.0922C145.803 62.0639 145.795 62.0297 145.8 61.9961C145.806 61.9626 145.823 61.9323 145.85 61.9112C145.877 61.8901 145.91 61.8798 145.944 61.8822C145.978 61.8846 146.009 61.8996 146.033 61.9243C146.065 61.9622 149.184 65.975 146.888 70.7081C146.876 70.7289 146.859 70.7459 146.838 70.7574C146.817 70.7689 146.793 70.7743 146.769 70.7731Z" fill="white"/>
<path d="M146.846 70.4746C146.71 70.4753 146.577 70.5177 146.466 70.5961C146.355 70.6746 146.27 70.7852 146.224 70.9133L146.765 71.2328C146.854 71.1295 146.909 71.0017 146.924 70.8663C146.938 70.7309 146.911 70.5943 146.846 70.4746Z" fill="white"/>
<path d="M153.257 66.9061C153.298 67.0358 153.377 67.1499 153.484 67.2331C153.592 67.3164 153.722 67.3648 153.858 67.3718L154.01 66.7599C153.884 66.7045 153.745 66.6888 153.61 66.715C153.476 66.7411 153.352 66.8078 153.257 66.9061Z" fill="white"/>
<path d="M153.403 67.0301C149.304 66.8406 149.255 62.0425 149.255 61.9938C149.255 61.9579 149.269 61.9234 149.295 61.8981C149.32 61.8727 149.354 61.8584 149.39 61.8584C149.426 61.8584 149.461 61.8727 149.486 61.8981C149.511 61.9234 149.526 61.9579 149.526 61.9938C149.526 62.1833 149.574 66.5807 153.414 66.7594C153.45 66.7622 153.484 66.779 153.508 66.8062C153.533 66.8335 153.545 66.8691 153.544 66.9056C153.541 66.9405 153.525 66.9731 153.499 66.9963C153.472 67.0195 153.438 67.0317 153.403 67.0301Z" fill="white"/>
<path d="M143.038 58.241C142.968 58.7112 142.754 59.1482 142.426 59.492L148.069 62.4813L150.63 59.7303C149.679 58.8802 148.909 57.8469 148.367 56.6922C147.691 55.3338 147.259 53.8675 147.089 52.3599L141.917 55.8582C141.917 55.8582 143.206 56.9197 143.038 58.241Z" fill="#E4897B"/>
<path opacity="0.2" d="M143.038 58.241C143.983 58.496 144.98 58.4864 145.919 58.2132C146.859 57.9401 147.706 57.4139 148.367 56.6922C147.691 55.3338 147.259 53.8675 147.089 52.3599L141.917 55.8582C141.917 55.8582 143.206 56.9197 143.038 58.241Z" fill="black"/>
<path d="M136.155 46.0184C136.155 46.0184 136.155 51.2443 139.166 52.7985C142.177 54.3528 140.742 44.8433 140.742 44.8433L136.155 46.0184Z" fill="#263238"/>
<path d="M147.659 55.6633C147.218 56.5908 146.485 57.3479 145.572 57.8185C144.659 58.289 143.617 58.447 142.606 58.2681C141.294 58.0625 140.109 57.3656 139.292 56.3185C139.178 56.1723 139.075 56.0207 138.972 55.8636C137.164 52.9447 135.907 47.5455 138.896 45.0003C139.554 44.4338 140.346 44.045 141.196 43.8707C142.047 43.6964 142.928 43.7426 143.755 44.0047C144.583 44.2668 145.33 44.7362 145.925 45.3683C146.52 46.0003 146.943 46.7741 147.155 47.6159C148.114 51.201 148.866 53.2697 147.659 55.6633Z" fill="#E4897B"/>
<path d="M142.129 50.3782C142.189 50.4849 142.205 50.6107 142.174 50.729C142.142 50.8472 142.066 50.9487 141.961 51.0118C141.767 51.0714 141.544 50.8873 141.447 50.6002C141.35 50.3132 141.447 50.0587 141.615 49.972C141.783 49.8854 142.032 50.1183 142.129 50.3782Z" fill="#263238"/>
<path d="M138.879 51.4555C138.993 51.7317 138.879 52.0242 138.711 52.0837C138.543 52.1433 138.294 51.9646 138.197 51.6776C138.099 51.3906 138.197 51.136 138.37 51.044C138.543 50.9519 138.793 51.201 138.879 51.4555Z" fill="#263238"/>
<path d="M139.958 51.2559C139.913 52.2457 139.731 53.2245 139.416 54.1639C139.66 54.2399 139.918 54.2614 140.172 54.2268C140.426 54.1922 140.669 54.1023 140.884 53.9636L139.958 51.2559Z" fill="#DE5753"/>
<path d="M137.255 50.5135C137.287 50.5179 137.319 50.5137 137.349 50.5013C137.378 50.4889 137.404 50.4688 137.423 50.4431C137.549 50.2591 137.715 50.1066 137.91 49.9976C138.104 49.8886 138.321 49.8261 138.544 49.8149C138.567 49.8164 138.59 49.8131 138.612 49.8054C138.634 49.7977 138.655 49.7857 138.672 49.77C138.689 49.7543 138.703 49.7354 138.712 49.7143C138.722 49.6931 138.727 49.6703 138.728 49.647C138.73 49.6238 138.726 49.6006 138.719 49.5786C138.711 49.5567 138.699 49.5365 138.683 49.5194C138.668 49.5022 138.649 49.4883 138.628 49.4786C138.606 49.4689 138.584 49.4636 138.56 49.4629C138.279 49.4691 138.003 49.542 137.755 49.6757C137.508 49.8094 137.296 50.0001 137.136 50.2319C137.108 50.2693 137.095 50.3165 137.101 50.3631C137.107 50.4097 137.131 50.4521 137.169 50.481C137.195 50.497 137.225 50.508 137.255 50.5135Z" fill="#263238"/>
<path d="M142.367 48.8783C142.399 48.8629 142.427 48.8407 142.449 48.8133C142.458 48.792 142.464 48.769 142.464 48.7456C142.465 48.7222 142.461 48.699 142.452 48.6772C142.444 48.6554 142.431 48.6356 142.414 48.619C142.398 48.6024 142.378 48.5893 142.357 48.5804C142.098 48.4643 141.816 48.4121 141.533 48.4281C141.25 48.4441 140.975 48.528 140.732 48.6725C140.693 48.6998 140.667 48.7409 140.658 48.7873C140.649 48.8337 140.658 48.8818 140.683 48.9216C140.71 48.9589 140.751 48.9842 140.796 48.9923C140.842 49.0004 140.888 48.9906 140.927 48.9649C141.122 48.8576 141.34 48.7969 141.562 48.7875C141.785 48.7781 142.007 48.8203 142.21 48.9108C142.237 48.9172 142.265 48.9176 142.292 48.912C142.32 48.9063 142.345 48.8948 142.367 48.8783Z" fill="#263238"/>
<path d="M143.109 44.0799L142.984 44.8435C144.273 44.8977 144.425 46.3382 144.36 47.0097C144.219 48.4773 145.546 50.3239 146.797 50.8601C146.797 50.8601 146.667 50.2752 147.187 50.2752C147.707 50.2752 148.411 53.3078 147.864 54.9975C147.864 54.9975 148.947 53.3079 148.866 49.9394C148.801 46.8256 148.216 44.3778 147.306 43.4409L143.109 44.0799Z" fill="#263238"/>
<path d="M149.649 49.9994C149.52 50.9256 149.032 51.7639 148.29 52.3334C147.299 53.0753 146.351 52.2955 146.248 51.1258C146.167 50.086 146.568 48.4181 147.748 48.1419C148.006 48.0816 148.275 48.0874 148.531 48.1586C148.786 48.2298 149.019 48.3642 149.208 48.5494C149.398 48.7345 149.537 48.9644 149.615 49.2179C149.692 49.4713 149.704 49.7401 149.649 49.9994Z" fill="#E4897B"/>
<path d="M141.371 55.0247C141.812 55.331 142.231 55.6694 142.622 56.0374L142.85 55.8641C143.857 55.0734 144.068 54.3694 143.987 53.8333C143.945 53.5725 143.841 53.3255 143.683 53.1131C143.598 52.988 143.494 52.8766 143.375 52.7827C142.971 53.5513 142.403 54.2223 141.712 54.7485C141.512 54.9218 141.371 55.0247 141.371 55.0247Z" fill="#263238"/>
<path d="M141.712 54.7485L142.091 55.0355C143.039 54.2882 143.607 53.6329 143.683 53.1131C143.598 52.988 143.493 52.8766 143.374 52.7827C142.97 53.5513 142.403 54.2223 141.712 54.7485Z" fill="white"/>
<path d="M142.849 55.8638C143.856 55.0731 144.067 54.3691 143.986 53.833C143.609 54.136 143.289 54.5025 143.038 54.9161C142.876 55.2038 142.81 55.5358 142.849 55.8638Z" fill="#DE5753"/>
<path d="M148.422 45.45C148.422 45.45 148.839 42.0436 144.398 40.7548C139.958 39.4659 136.41 42.6014 136.123 44.1611C136.123 44.1611 133.909 45.894 136.318 47.7623L137.331 45.6936C137.331 45.6936 141.945 48.6721 148.422 45.45Z" fill="#263238"/>
<path d="M106.625 45.894L107.649 42.7747C108.149 42.3112 108.582 41.7787 108.932 41.1934C109.241 40.5273 109.555 35.4692 109.555 35.4692L105.223 35.8971C105.223 35.8971 104.199 40.8955 105.434 41.8215L104.389 44.9842L106.625 45.894Z" fill="#EEC1BB"/>
<path d="M138.434 85.5024L136.869 88.443C136.285 88.8211 135.758 89.2806 135.304 89.8077C134.882 90.4197 133.68 95.429 133.68 95.429L138.099 95.7539C138.099 95.7539 139.994 90.9287 138.922 89.7969L140.519 86.813L138.434 85.5024Z" fill="#EEC1BB"/>
<path d="M112.072 69.3647C111.67 69.5199 111.224 69.5199 110.821 69.3647C109.37 68.9369 107.436 67.7888 105.595 66.4187C102.801 64.3392 100.212 61.7452 99.8224 60.3859C99.1779 58.1277 103.57 42.5962 103.57 42.5962L108.14 44.432C108.14 44.432 104.323 56.9634 105.07 58.5826C105.817 60.2018 110.393 62.1893 112.868 62.877C112.868 62.8987 114.038 68.4657 112.072 69.3647Z" fill="#348DAA"/>
<path opacity="0.6" d="M105.064 56.7847L99.9248 57.9707C99.7559 58.7717 99.7211 59.5952 99.8219 60.4076C100.026 60.9511 100.323 61.4551 100.699 61.8968L104.983 58.171C104.97 57.7074 104.997 57.2436 105.064 56.7847Z" fill="white"/>
<path opacity="0.6" d="M107.973 45.022L103.418 43.1753C103.272 43.7168 103.034 44.5725 102.741 45.6664L107.285 47.3831C107.572 46.3704 107.815 45.5364 107.973 45.022Z" fill="white"/>
<path opacity="0.6" d="M106.17 51.5475L101.524 50.3994C101.307 51.2713 101.096 52.1648 100.896 53.0367L105.769 53.21C105.889 52.6631 106.029 52.1053 106.17 51.5475Z" fill="white"/>
<path opacity="0.6" d="M105.482 59.1782L101.404 62.7253C102.116 63.491 102.872 64.2143 103.668 64.8915L106.516 60.0176C106.144 59.774 105.797 59.4927 105.482 59.1782Z" fill="white"/>
<path opacity="0.6" d="M107.432 60.6128L104.513 65.595C105.363 66.2828 106.256 66.938 107.139 67.5175L110.091 61.9125C109.179 61.5339 108.291 61.0998 107.432 60.6128Z" fill="white"/>
<path opacity="0.6" d="M112.868 62.8988C112.354 62.758 111.747 62.5522 111.103 62.314L108.06 68.0922C108.925 68.6331 109.852 69.0677 110.821 69.3865C114.466 70.4588 112.868 62.8988 112.868 62.8988Z" fill="white"/>
<path opacity="0.6" d="M105.249 55.6306C105.33 55.2082 105.422 54.7533 105.52 54.2821L100.646 54.1143C100.44 55.0728 100.251 55.988 100.104 56.822L105.249 55.6306Z" fill="white"/>
<path opacity="0.6" d="M106.435 50.4973C106.624 49.7824 106.814 49.0838 106.976 48.4286L102.444 46.7173C102.232 47.535 101.999 48.4231 101.767 49.3492L106.435 50.4973Z" fill="white"/>
<path opacity="0.2" d="M112.072 69.3642C111.669 69.5195 111.223 69.5195 110.821 69.3642C109.369 68.9364 107.436 67.7884 105.595 66.4182C107.945 65.5897 111.985 66.6565 111.985 66.6565C112.149 67.5497 112.178 68.4624 112.072 69.3642Z" fill="black"/>
<path d="M127.57 88.8926H107.089C105.14 99.5285 99.0472 142.706 103.418 176.233H110.355C110.355 176.233 109.71 125.328 115.83 108.859C116.534 117.665 123.693 176.195 123.693 176.195H130.733C130.733 176.195 129.682 154.181 128.626 133.38C127.977 120.286 127.597 91.5841 127.57 88.8926Z" fill="#263238"/>
<path opacity="0.2" d="M115.831 108.859C114.824 111.743 114.059 114.707 113.545 117.718C112.971 109.882 115.289 101.564 115.289 101.564L115.831 108.859Z" fill="black"/>
<path d="M109.738 91.3782L106.656 91.3403L106.916 89.1416H109.738V91.3782Z" fill="black"/>
<path d="M120.904 89.1416H127.533V91.5948L120.904 91.5136V89.1416Z" fill="black"/>
<path d="M120.167 91.5027L110.474 91.389V89.1416H120.167V91.5027Z" fill="black"/>
<path d="M115.69 91.9679H113.123C112.886 91.9679 112.659 91.8737 112.491 91.7062C112.324 91.5386 112.229 91.3113 112.229 91.0743V89.5688C112.229 89.3319 112.324 89.1046 112.491 88.937C112.659 88.7694 112.886 88.6753 113.123 88.6753H115.69C115.927 88.6753 116.154 88.7694 116.322 88.937C116.489 89.1046 116.584 89.3319 116.584 89.5688V91.0743C116.584 91.3113 116.489 91.5386 116.322 91.7062C116.154 91.8737 115.927 91.9679 115.69 91.9679ZM113.123 89.2168C113.03 89.2168 112.94 89.2539 112.874 89.3199C112.808 89.386 112.771 89.4755 112.771 89.5688V91.0743C112.771 91.1677 112.808 91.2572 112.874 91.3232C112.94 91.3893 113.03 91.4263 113.123 91.4263H115.69C115.783 91.4263 115.873 91.3893 115.939 91.3232C116.005 91.2572 116.042 91.1677 116.042 91.0743V89.5688C116.042 89.4755 116.005 89.386 115.939 89.3199C115.873 89.2539 115.783 89.2168 115.69 89.2168H113.123Z" fill="white"/>
<path d="M115.829 90.5284H114.638C114.566 90.5284 114.497 90.4998 114.446 90.4491C114.396 90.3983 114.367 90.3294 114.367 90.2576C114.369 90.1862 114.398 90.1181 114.448 90.0677C114.499 90.0172 114.567 89.9882 114.638 89.9868H115.829C115.901 89.9868 115.97 90.0153 116.021 90.0661C116.072 90.1169 116.1 90.1858 116.1 90.2576C116.1 90.3294 116.072 90.3983 116.021 90.4491C115.97 90.4998 115.901 90.5284 115.829 90.5284Z" fill="white"/>
<path d="M134.579 68.303C134.2 69.0991 133.751 70.1497 133.263 71.4332C132.722 72.8953 132.093 74.6554 131.482 76.6591C130.019 81.4674 128.918 86.3785 128.189 91.3512L106.191 88.7355C106.191 88.7355 107.735 74.4279 112.869 62.8984L133.447 66.1856C133.679 66.2188 133.899 66.306 134.091 66.4401C134.282 66.5742 134.439 66.7516 134.549 66.9577C134.66 67.1639 134.72 67.3931 134.725 67.6268C134.73 67.8606 134.68 68.0922 134.579 68.303Z" fill="#348DAA"/>
<path opacity="0.6" d="M108.179 77.4986L129.976 82.1884C130.192 81.3057 130.409 80.45 130.637 79.6269L108.975 74.2114C108.688 75.3541 108.422 76.448 108.179 77.4986Z" fill="white"/>
<path opacity="0.6" d="M134.578 68.3033C134.264 68.964 133.901 69.8088 133.495 70.8107L111.411 66.4783C111.772 65.518 112.149 64.5721 112.543 63.6406L119.188 64.6966C119.275 65.282 119.542 65.8259 119.951 66.2536C120.36 66.6812 120.892 66.9716 121.473 67.0848C123.458 67.4595 125.511 67.052 127.203 65.9476L134.616 67.1227C134.693 67.3112 134.729 67.5137 134.723 67.7171C134.716 67.9204 134.667 68.1202 134.578 68.3033Z" fill="white"/>
<path opacity="0.6" d="M110.383 69.446L132.158 74.5528C132.483 73.5672 132.808 72.6574 133.117 71.845L111.049 67.5127C110.816 68.1409 110.599 68.7962 110.383 69.446Z" fill="white"/>
<path opacity="0.6" d="M106.526 86.2066L128.529 89.2176C128.648 88.4973 128.778 87.7879 128.914 87.0947L107.052 83.0386C106.83 84.2625 106.662 85.3185 106.526 86.2066Z" fill="white"/>
<path opacity="0.6" d="M106.376 87.2793C106.246 88.2053 106.191 88.7361 106.191 88.7361L128.194 91.3517C128.243 90.9943 128.303 90.6423 128.362 90.2686L106.376 87.2793Z" fill="white"/>
<path opacity="0.6" d="M110.057 70.4849C109.776 71.3947 109.512 72.2972 109.267 73.1926L130.928 78.5809C131.228 77.5267 131.528 76.5285 131.827 75.5862L110.057 70.4849Z" fill="white"/>
<path opacity="0.6" d="M107.94 78.5601C107.675 79.7677 107.442 80.9212 107.247 81.9772L129.12 86.0279C129.315 85.0748 129.517 84.147 129.727 83.2444L107.94 78.5601Z" fill="white"/>
<path opacity="0.2" d="M133.261 71.4331C132.72 72.8952 132.092 74.6552 131.48 76.659C130.397 73.8808 131.902 70.3066 131.902 70.3066C132.437 70.5713 132.902 70.957 133.261 71.4331Z" fill="black"/>
<path d="M133.457 66.186C137.161 67.1392 146.514 70.1393 148.745 73.8868C150.976 77.6343 141.104 88.5951 141.104 88.5951L137.004 86.7431C137.004 86.7431 141.976 78.2191 142.301 77.3906C142.561 76.7245 135.661 74.58 132.97 73.7677C132.659 73.6714 132.387 73.4791 132.192 73.2183C131.997 72.9575 131.89 72.6417 131.887 72.3163C131.887 71.7152 131.887 70.9191 131.935 70.031C132.022 68.1031 133.457 66.186 133.457 66.186Z" fill="#348DAA"/>
<path opacity="0.6" d="M145.978 82.3232L140.411 80.834L139.116 83.1031L143.855 85.2692C144.532 84.3757 145.279 83.3684 145.978 82.3232Z" fill="white"/>
<path opacity="0.6" d="M148.746 73.8866C148.649 73.7252 148.542 73.5697 148.427 73.4209L142.302 77.3688L148.567 77.5637C149.12 76.1124 149.282 74.7802 148.746 73.8866Z" fill="white"/>
<path opacity="0.6" d="M139.762 76.0094C141.067 73.7836 142.431 71.4658 143.417 69.8033C142.464 69.3321 141.462 68.8935 140.46 68.4873L137.092 75.0671C138.034 75.3758 138.949 75.7007 139.762 76.0094Z" fill="white"/>
<path opacity="0.6" d="M141.37 76.6806L147.689 72.6082C146.688 71.7014 145.574 70.9278 144.375 70.3066C143.39 71.9746 141.992 74.3411 140.779 76.4153C140.996 76.5073 141.196 76.594 141.37 76.6806Z" fill="white"/>
<path opacity="0.6" d="M141.76 78.4409L140.964 79.8652L146.601 81.3707C147.161 80.49 147.667 79.5768 148.118 78.6359L141.76 78.4409Z" fill="white"/>
<path opacity="0.6" d="M136.1 66.9442C135.071 66.6247 134.162 66.3702 133.458 66.186C133.458 66.186 132.022 68.1031 131.92 70.031C131.871 70.9191 131.865 71.7206 131.871 72.3217C131.876 72.6462 131.983 72.9608 132.178 73.2205C132.372 73.4802 132.644 73.6717 132.954 73.7677L133.371 73.8922L136.1 66.9442Z" fill="white"/>
<path opacity="0.6" d="M134.422 74.2116L136.047 74.7261L139.442 68.0976C138.651 67.7943 137.872 67.5235 137.13 67.2744L134.422 74.2116Z" fill="white"/>
<path opacity="0.6" d="M138.576 84.0454L137.195 86.4282L141.349 88.3236C141.685 87.9391 142.362 87.1539 143.174 86.1574L138.576 84.0454Z" fill="white"/>
<path d="M113.004 65.3677L111.049 67.4905C110.686 67.3966 110.307 67.3759 109.935 67.4299C109.563 67.4838 109.205 67.6112 108.883 67.8046C107.881 68.4761 105.39 70.4474 105.536 70.8535C105.683 71.2597 107.99 74.2382 107.99 74.2382C107.99 74.2382 111.629 70.8156 111.9 70.6369C112.17 70.4582 112.441 69.0123 112.441 69.0123L114.472 66.4237L113.004 65.3677Z" fill="#E4897B"/>
<path d="M134.838 59.1351C134.838 59.1351 123.103 58.9456 120.168 59.4546C117.232 59.9637 111.633 65.9044 111.633 65.9044L114.406 67.529C114.406 67.529 119.496 63.3213 122.068 63.6354C123.969 63.8682 135.699 66.5001 135.699 66.5001C135.699 66.5001 136.804 61.8428 134.838 59.1351Z" fill="#348DAA"/>
<path opacity="0.2" d="M134.838 59.1351C134.838 59.1351 123.103 58.9456 120.168 59.4546C117.232 59.9637 111.633 65.9044 111.633 65.9044L114.406 67.529C114.406 67.529 119.496 63.3213 122.068 63.6354C123.969 63.8682 135.699 66.5001 135.699 66.5001C135.699 66.5001 136.804 61.8428 134.838 59.1351Z" fill="black"/>
<path d="M120.812 66.2236C120.812 66.2236 125.118 67.0088 126.959 65.4817C126.125 64.4852 125.99 62.774 126.163 60.9815C126.301 59.7148 126.542 58.4615 126.883 57.234C126.986 56.8386 127.1 56.4704 127.203 56.1509L121.668 59.8659C121.668 59.9525 121.668 60.0337 121.701 60.1258C121.728 60.3803 121.755 60.6674 121.76 60.8894C121.798 61.5042 121.715 62.1205 121.516 62.7036C121.423 63.1094 121.268 63.4985 121.056 63.857C120.702 64.1625 120.246 64.3247 119.778 64.312C119.172 65.1351 120.812 66.2236 120.812 66.2236Z" fill="#EEC1BB"/>
<path opacity="0.2" d="M121.056 63.8575C123.04 63.5212 124.846 62.5045 126.162 60.9819C126.3 59.7152 126.541 58.4619 126.883 57.2344L121.7 60.1262C121.727 60.3807 121.754 60.6678 121.76 60.8898C121.797 61.5046 121.715 62.1209 121.516 62.704C121.423 63.1098 121.267 63.4989 121.056 63.8575Z" fill="black"/>
<path d="M128.166 56.6861C128.166 56.6861 129.449 57.1735 129.753 56.437C130.056 55.7005 129.579 54.6553 130.153 54.3954C130.727 54.1355 132.033 53.973 131.876 53.2473C131.719 52.5217 130.83 52.018 131.334 51.4819C131.838 50.9458 132.959 50.1714 132.374 49.6461C131.789 49.1208 131.226 48.2272 131.648 47.8427C132.071 47.4582 131.28 45.5574 130.132 45.8065C128.984 46.0556 129.087 45.0863 129.049 44.2631C129.011 43.44 127.197 42.893 126.883 43.7649C126.568 44.6368 125.561 43.6674 125.258 42.9526C124.955 42.2377 124.413 42.0319 123.427 42.6601C122.442 43.2883 122.458 45.0375 121.803 44.0844C121.148 43.1313 119.913 42.606 119.393 43.2288C118.873 43.8515 119.29 44.5339 118.375 44.588C117.46 44.6422 116.366 46.4076 116.837 46.6188C117.308 46.83 117.286 47.2903 116.723 47.8427C116.16 48.3951 115.532 49.2778 116.366 49.5648C117.2 49.8518 117.211 50.4313 116.994 50.6912C116.777 50.9512 117.611 52.0343 118.684 51.8556C119.756 51.6769 128.166 56.6861 128.166 56.6861Z" fill="#263238"/>
<path d="M117.682 47.2266C117.682 47.2266 116.117 52.2954 118.57 54.6999C121.024 57.1043 122.47 47.454 122.47 47.454L117.682 47.2266Z" fill="#263238"/>
<path d="M125.947 60.0174C125.244 60.7861 124.307 61.3023 123.282 61.4862C122.256 61.6702 121.198 61.5118 120.272 61.0355C119.059 60.4438 118.117 59.4114 117.64 58.149C117.572 57.9719 117.514 57.7911 117.467 57.6075C116.584 54.2337 116.985 48.6233 120.645 47.0474C121.453 46.6953 122.337 46.5555 123.214 46.6413C124.09 46.727 124.931 47.0355 125.654 47.5375C126.378 48.0394 126.962 48.7181 127.35 49.5091C127.737 50.3001 127.916 51.177 127.87 52.0567C127.745 55.8367 127.821 58.057 125.947 60.0174Z" fill="#EEC1BB"/>
<path d="M122.166 53.2427C122.193 53.546 122.02 53.7843 121.814 53.7843C121.608 53.7843 121.446 53.5406 121.441 53.2427C121.435 52.9449 121.592 52.7012 121.793 52.7012C121.993 52.7012 122.161 52.9286 122.166 53.2427Z" fill="#263238"/>
<path d="M118.7 53.3125C118.727 53.6158 118.543 53.8541 118.343 53.8541C118.143 53.8541 117.98 53.6104 117.969 53.3125C117.958 53.0147 118.121 52.771 118.321 52.771C118.522 52.771 118.69 53.0201 118.7 53.3125Z" fill="#263238"/>
<path d="M119.805 53.4375C119.458 54.3845 118.982 55.2792 118.392 56.0965C118.605 56.243 118.848 56.3408 119.104 56.3829C119.359 56.4251 119.621 56.4105 119.87 56.3402L119.805 53.4375Z" fill="#D4827D"/>
<path d="M117.4 51.916C117.429 51.9316 117.462 51.9398 117.495 51.9398C117.528 51.9398 117.56 51.9316 117.589 51.916C117.766 51.775 117.973 51.677 118.194 51.63C118.415 51.583 118.643 51.5882 118.862 51.6452C118.885 51.6553 118.909 51.6606 118.934 51.6608C118.958 51.6611 118.983 51.6562 119.005 51.6465C119.028 51.6367 119.048 51.6224 119.065 51.6044C119.082 51.5865 119.095 51.5652 119.103 51.5419C119.112 51.5186 119.115 51.4939 119.113 51.4693C119.112 51.4447 119.105 51.4207 119.093 51.3989C119.082 51.3771 119.066 51.3578 119.047 51.3425C119.027 51.3271 119.005 51.3158 118.981 51.3095C118.705 51.2263 118.412 51.212 118.129 51.2677C117.846 51.3233 117.581 51.4474 117.357 51.629C117.337 51.642 117.32 51.6589 117.307 51.6787C117.294 51.6985 117.285 51.7208 117.281 51.7442C117.277 51.7675 117.278 51.7914 117.283 51.8145C117.289 51.8375 117.299 51.8592 117.313 51.8781C117.34 51.8944 117.369 51.9071 117.4 51.916Z" fill="#263238"/>
<path d="M122.822 51.8453C122.858 51.8442 122.892 51.8308 122.919 51.8074C122.936 51.7913 122.949 51.7719 122.959 51.7505C122.968 51.7291 122.972 51.7061 122.972 51.6829C122.972 51.6596 122.968 51.6366 122.959 51.6152C122.949 51.5938 122.936 51.5745 122.919 51.5583C122.704 51.3694 122.447 51.2352 122.169 51.1674C121.89 51.0995 121.6 51.0998 121.322 51.1684C121.277 51.1822 121.239 51.2132 121.217 51.2548C121.194 51.2964 121.189 51.3452 121.203 51.3904C121.219 51.4352 121.251 51.4723 121.293 51.4944C121.335 51.5165 121.384 51.5219 121.43 51.5096C121.652 51.4632 121.881 51.4689 122.1 51.5263C122.319 51.5836 122.522 51.6909 122.692 51.8399C122.712 51.8494 122.734 51.8548 122.756 51.8557C122.779 51.8567 122.801 51.8531 122.822 51.8453Z" fill="#263238"/>
<path d="M125.004 47.4097L124.657 48.1191C125.892 48.5577 125.605 49.9928 125.334 50.6427C124.76 52.0236 125.497 54.2169 126.547 55.105C126.547 55.105 126.596 54.5039 127.089 54.6609C127.582 54.818 127.37 57.9644 126.336 59.4428C126.336 59.4428 127.879 58.1214 128.816 54.8342C129.688 51.7962 129.856 49.2509 129.255 48.0487L125.004 47.4097Z" fill="#263238"/>
<path d="M129.574 55.1221C129.378 55.5495 129.099 55.9337 128.753 56.2525C128.407 56.5714 128.001 56.8185 127.559 56.9796C126.373 57.4074 125.691 56.3676 125.935 55.1979C126.168 54.1635 127.061 52.6634 128.285 52.7555C128.55 52.7805 128.805 52.8703 129.027 53.0168C129.249 53.1633 129.432 53.3622 129.559 53.5959C129.686 53.8296 129.754 54.091 129.757 54.3571C129.76 54.6232 129.697 54.8859 129.574 55.1221Z" fill="#EEC1BB"/>
<path d="M120.64 58.0138C120.975 58.4426 121.279 58.8951 121.549 59.3677C121.641 59.34 121.732 59.3075 121.82 59.2702C123.039 58.8045 123.445 58.1871 123.531 57.6456C123.57 57.3794 123.542 57.1077 123.45 56.8549C123.405 56.7091 123.34 56.5705 123.255 56.4434C122.63 57.0654 121.878 57.5456 121.051 57.8514C120.802 57.9543 120.64 58.0138 120.64 58.0138Z" fill="#263238"/>
<path d="M121.051 57.845L121.332 58.2404C122.475 57.7963 123.222 57.3306 123.45 56.8486C123.405 56.7027 123.339 56.5641 123.255 56.437C122.63 57.059 121.878 57.5392 121.051 57.845Z" fill="white"/>
<path d="M121.82 59.2701C123.039 58.8044 123.445 58.1871 123.532 57.6455C123.073 57.8314 122.651 58.0973 122.286 58.4308C122.047 58.6549 121.884 58.9485 121.82 59.2701Z" fill="#DE5753"/>
<path d="M122.068 45.4771C122.068 45.4771 120.049 45.6829 119.101 46.6197C118.153 47.5566 117.59 48.943 117.969 49.0242C118.348 49.1054 119.35 48.396 119.642 48.4826C119.935 48.5693 120.086 50.1993 121.05 49.5657C122.014 48.9321 121.44 48.9809 122.253 48.6884C123.065 48.396 123.628 49.387 123.969 49.2841C124.222 49.1887 124.455 49.0474 124.657 48.8671C124.657 48.8671 123.525 48.6126 123.422 48.2714C123.319 47.9303 122.253 47.8436 122.253 47.8436C122.253 47.8436 123.52 47.2696 123.969 47.5945C124.419 47.9194 124.256 48.7643 125.329 48.6289C126.401 48.4935 128.161 49.2787 128.193 47.8978C128.226 46.5168 124.419 44.329 122.068 45.4771Z" fill="#263238"/>
<path d="M42.4717 67.9888C42.4717 67.9888 37.5436 69.7759 38.4047 72.2724C39.2658 74.7689 45.1523 71.3951 45.1523 71.3951L42.4717 67.9888Z" fill="#EBB376"/>
<path opacity="0.2" d="M42.4717 67.9888C42.4717 67.9888 37.5436 69.7759 38.4047 72.2724C39.2658 74.7689 45.1523 71.3951 45.1523 71.3951L42.4717 67.9888Z" fill="black"/>
<path d="M50.9915 62.4868C48.2567 63.0663 41.2979 67.8048 41.2979 67.8048L43.6536 73.4531L49.9571 71.3736L50.9915 62.4868Z" fill="#263238"/>
<path d="M48.0458 84.7764C48.0458 84.7764 36.8791 121.802 37.4911 132.806C38.1626 144.872 54.3818 170.254 54.3818 170.254L60.4959 166.392C60.4959 166.392 49.0368 141.384 48.609 132.124C49.2426 118.726 63.1711 86.1844 63.1711 86.1844L48.0458 84.7764Z" fill="#348DAA"/>
<path opacity="0.2" d="M56.9095 97.7734C53.5303 99.8421 52.1926 108.653 52.9075 113.126C54.7325 107.462 56.8174 101.878 58.4854 97.5947C58.2301 97.4836 57.9501 97.4416 57.6735 97.473C57.3969 97.5044 57.1334 97.608 56.9095 97.7734Z" fill="black"/>
<path d="M53.2227 85.5024C53.2227 85.5024 56.3095 121.786 57.9124 132.779C59.667 144.845 63.4145 171.169 63.4145 171.169H70.3409C70.3409 171.169 68.922 145.971 68.2668 134.117C67.514 120.578 67.1512 86.6451 67.1512 86.6451L53.2227 85.5024Z" fill="#348DAA"/>
<path d="M50.3252 91.2806L60.0459 91.3998V89.0278H50.3252V91.2806Z" fill="black"/>
<path d="M60.7822 89.0278V91.4052L67.427 91.4864V89.0278H60.7822Z" fill="black"/>
<path d="M49.5883 89.0278H46.7615L46.4961 91.2319L49.5883 91.2698V89.0278Z" fill="black"/>
<path d="M56.1798 88.5947H52.3564V91.3512H56.1798V88.5947Z" fill="white"/>
<path d="M46.9297 88.6927L67.6329 90.0628C68.7647 80.0388 72.0627 69.7278 73.0484 66.0832C73.117 65.8312 73.084 65.5623 72.9564 65.3344C72.8287 65.1066 72.6168 64.9379 72.366 64.8647C71.3425 64.5669 70.2811 64.3232 69.2088 64.0633C64.3754 63.0484 59.4738 62.3914 54.5438 62.0975C53.3565 61.9882 52.1594 62.119 51.0238 62.482C47.8882 71.2766 47.1571 82.0263 46.9297 88.6927Z" fill="#263238"/>
<path opacity="0.6" d="M71.088 72.9328C70.893 73.6801 70.6818 74.4653 70.476 75.2777C69.1846 80.1348 68.2257 85.0743 67.6058 90.0618L46.9297 88.6917C47.0819 82.456 47.7466 76.2434 48.9172 70.1167C50.9859 65.3728 56.1738 63.3149 56.1738 63.3149C56.1738 63.3149 56.7479 64.5388 59.3202 64.8962C61.8925 65.2537 65.3259 64.4522 65.3259 64.4522C69.3334 67.6094 70.3406 73.4039 70.3406 73.4039L71.088 72.9328Z" fill="white"/>
<path opacity="0.2" d="M72.1934 68.991C71.7006 70.7131 71.1103 72.8576 70.4767 75.2783C68.213 72.094 70.233 67.4692 70.233 67.4692C71.0172 67.7809 71.697 68.3086 72.1934 68.991Z" fill="black"/>
<path d="M65.4671 63.4283C63.6909 65.053 59.3423 64.441 59.3423 64.441C59.3423 64.441 56.6346 63.6991 57.1761 62.8489C58.8007 62.5889 59.5535 61.8416 59.8838 60.8831C60.0572 60.2913 60.1124 59.6712 60.0463 59.0581C60.0463 58.9064 60.0192 58.7548 59.9975 58.6086C59.9759 58.4624 59.9434 58.2295 59.9109 58.04L65.2884 54.0542C65.0935 54.7799 64.8877 55.6788 64.7469 56.6374C64.3678 58.8956 64.2487 61.5113 65.1585 62.9843C65.2461 63.1423 65.3495 63.2911 65.4671 63.4283Z" fill="#EBB376"/>
<path opacity="0.2" d="M65.1429 62.9851C63.9116 62.9652 62.7256 62.5178 61.788 61.7195C60.8504 60.9212 60.2196 59.8217 60.0036 58.6094C59.9639 58.4217 59.9349 58.2318 59.917 58.0408C61.4515 57.3592 63.0708 56.8874 64.7313 56.6382C64.3522 58.8964 64.2331 61.4904 65.1429 62.9851Z" fill="black"/>
<path d="M66.9835 45.3687C66.9835 45.3687 69.4746 49.9772 67.5575 52.7824C65.6404 55.5876 62.3857 46.5113 62.3857 46.5113L66.9835 45.3687Z" fill="#263238"/>
<path d="M69.1865 55.3921C69.1753 55.5737 69.1536 55.7545 69.1216 55.9336C68.9019 57.2455 68.1914 58.4246 67.1341 59.2316C66.1835 59.9651 64.9956 60.3218 63.7982 60.2335C62.9434 60.1537 62.1258 59.8451 61.4316 59.3399C59.2655 57.7965 58.908 55.625 58.0416 52.002C57.8322 51.1607 57.8408 50.2799 58.0664 49.4428C58.292 48.6057 58.7272 47.8399 59.331 47.2177C59.9347 46.5955 60.6871 46.1375 61.517 45.8868C62.347 45.6362 63.2271 45.6011 64.0744 45.7851C67.9247 46.5974 69.3923 51.9587 69.1865 55.3921Z" fill="#EBB376"/>
<path d="M63.7928 52.0561C63.8199 52.3594 64.0419 52.5706 64.2423 52.5327C64.4426 52.4948 64.551 52.2294 64.4968 51.9316C64.4426 51.6337 64.2423 51.4171 64.0473 51.455C63.8524 51.4929 63.7386 51.742 63.7928 52.0561Z" fill="#263238"/>
<path d="M67.1672 51.4609C67.1997 51.7587 67.4217 51.97 67.6167 51.9375C67.8116 51.905 67.9253 51.6288 67.8766 51.3309C67.8279 51.0331 67.6167 50.8219 67.4271 50.8544C67.2376 50.8869 67.1184 51.201 67.1672 51.4609Z" fill="#263238"/>
<path d="M66.1221 51.7969C66.638 52.648 67.2705 53.4227 68.0012 54.0984C67.8234 54.2855 67.6064 54.4311 67.3658 54.5247C67.1253 54.6183 66.867 54.6577 66.6095 54.64L66.1221 51.7969Z" fill="#D58745"/>
<path d="M68.1745 49.7985C68.1493 49.8195 68.1188 49.8331 68.0863 49.8379C68.0538 49.8426 68.0206 49.8384 67.9904 49.8255C67.7854 49.7371 67.5626 49.6979 67.3397 49.711C67.1168 49.7242 66.9001 49.7894 66.707 49.9014C66.6878 49.9149 66.6661 49.9245 66.6432 49.9296C66.6203 49.9348 66.5966 49.9353 66.5734 49.9313C66.5503 49.9273 66.5282 49.9187 66.5084 49.9062C66.4885 49.8936 66.4714 49.8772 66.4579 49.858C66.4322 49.8197 66.4224 49.7729 66.4305 49.7275C66.4386 49.6821 66.4639 49.6415 66.5012 49.6143C66.7422 49.4646 67.0159 49.3755 67.2988 49.3548C67.5818 49.334 67.8656 49.3822 68.1258 49.4952C68.1478 49.503 68.1679 49.5152 68.1851 49.5309C68.2022 49.5467 68.216 49.5658 68.2256 49.587C68.2352 49.6083 68.2404 49.6312 68.241 49.6545C68.2415 49.6778 68.2373 49.701 68.2287 49.7226C68.2167 49.7517 68.1982 49.7777 68.1745 49.7985Z" fill="#263238"/>
<path d="M62.882 50.8275C62.8485 50.8379 62.8126 50.8379 62.7791 50.8275C62.7467 50.7941 62.7285 50.7494 62.7285 50.7029C62.7285 50.6564 62.7467 50.6117 62.7791 50.5784C62.9555 50.3569 63.1821 50.1805 63.44 50.0638C63.698 49.947 63.9801 49.8932 64.2629 49.9069C64.3094 49.9123 64.3519 49.9358 64.3813 49.9722C64.4106 50.0087 64.4245 50.0552 64.42 50.1018C64.4132 50.1488 64.3886 50.1913 64.3513 50.2205C64.314 50.2498 64.2668 50.2635 64.2196 50.2589C63.9969 50.2533 63.776 50.2994 63.574 50.3933C63.372 50.4872 63.1945 50.6266 63.0553 50.8004C63.0314 50.8199 63.0028 50.8327 62.9723 50.8375C62.9418 50.8422 62.9106 50.8388 62.882 50.8275Z" fill="#263238"/>
<path d="M59.9271 46.9663L60.4686 48.526C60.2301 48.7153 60.0711 48.9871 60.023 49.2878C59.9749 49.5885 60.0411 49.8963 60.2086 50.1506C61.0318 51.3799 60.7502 53.6435 59.8946 54.7104C59.8946 54.7104 59.7321 54.1364 59.2718 54.3855C58.8115 54.6346 59.6346 57.6347 60.8964 58.8749C60.8964 58.8749 59.1472 57.8893 57.6038 54.8891C56.1741 52.111 55.5243 49.674 55.8709 48.3906L59.9271 46.9663Z" fill="#263238"/>
<path d="M56.9756 55.3115C57.5311 56.0668 58.3619 56.5727 59.288 56.7195C60.5173 56.9037 60.9776 55.7664 60.5119 54.6833C60.084 53.7248 58.936 52.4413 57.7662 52.7663C57.5101 52.8364 57.2757 52.9699 57.0848 53.1545C56.8939 53.3391 56.7525 53.5687 56.6737 53.8223C56.5949 54.0759 56.5813 54.3453 56.6341 54.6056C56.6868 54.8658 56.8043 55.1086 56.9756 55.3115Z" fill="#EBB376"/>
<path d="M55.8226 49.1975C55.8226 49.1975 54.9778 47.1775 57.9347 44.8109C60.8915 42.4444 64.926 43.5437 66.8322 41.6537C68.7385 39.7637 70.0815 45.5583 65.4892 47.2371C62.3645 48.3028 59.1156 48.9617 55.8226 49.1975Z" fill="#263238"/>
<path d="M66.5495 55.7122C66.214 56.1314 65.9099 56.5749 65.6397 57.0389L65.3744 56.9361C64.1776 56.4649 63.7822 55.853 63.701 55.3114C63.6608 54.8968 63.7619 54.4807 63.988 54.1309C64.6016 54.7504 65.34 55.2323 66.1542 55.5443C66.3817 55.6526 66.5495 55.7122 66.5495 55.7122Z" fill="#263238"/>
<path d="M66.1384 55.5331L65.8622 55.9176C64.7358 55.4681 64.0047 55.0023 63.7881 54.5204C63.8344 54.3785 63.9 54.2436 63.983 54.1196C64.5934 54.7379 65.3281 55.2197 66.1384 55.5331Z" fill="white"/>
<path d="M65.3697 56.9362C64.1729 56.465 63.7775 55.8531 63.6963 55.3115C64.1481 55.5 64.5626 55.7678 64.9202 56.1022C65.154 56.326 65.3113 56.6178 65.3697 56.9362Z" fill="#DE5753"/>
<path d="M38.389 71.2386C40.0137 68.9263 41.752 69.4949 51.8193 68.493C51.8193 68.493 52.3934 67.3016 52.7508 67.2258C53.1082 67.15 58.5128 67.02 58.5128 67.02L57.8846 72.3217C57.8846 72.3217 54.1426 72.7658 53.2219 72.6142C52.8374 72.5546 51.7923 71.4607 51.7923 71.4607C51.7923 71.4607 41.2971 74.3634 39.8783 74.228C38.4594 74.0926 37.3059 72.7658 38.389 71.2386Z" fill="#EBB376"/>
<path d="M80.1647 72.5815C80.1647 72.5815 84.7245 76.302 83.7984 79.5404C82.8724 82.7788 72.1932 88.9741 72.1932 88.9741C72.1932 88.9741 73.0975 90.55 73.0488 91.2702C73.0001 91.9905 72.1932 95.7542 72.1932 95.7542L68.2236 93.8101C68.2236 93.8101 68.5811 90.5283 68.5973 89.651C68.6135 88.7737 70.0324 87.7719 70.0324 87.7719C70.0324 87.7719 79.1087 79.6487 79.1087 78.923C79.1087 78.1974 76.363 75.4951 76.363 75.4951L80.1647 72.5815Z" fill="#EBB376"/>
<path d="M72.3338 64.8584C75.361 66.2827 81.3884 73.404 81.3884 73.404L76.8936 78.5865L70.3409 73.404C70.3409 73.404 69.6965 69.2774 70.2163 67.447C70.5589 66.3417 71.3183 65.4133 72.3338 64.8584Z" fill="#263238"/>
<path d="M65.6774 73.6103C65.6774 74.011 69.1162 74.5526 69.1162 74.5526C69.1162 74.5526 72.1759 84.7174 73.5297 84.7499C74.3475 84.7499 77.613 82.9303 80.0878 81.4681C81.3117 80.7424 82.3407 80.1088 82.7956 79.8435L83.023 79.7027L83.1205 78.3109L83.2234 76.9083L83.3913 74.5526C81.3984 75.0941 75.3764 80.1088 74.4937 80.5096C73.611 80.9103 70.7462 73.2637 70.7462 73.2637C70.7462 73.2637 70.9628 72.538 70.7462 72.2294C70.1613 71.3737 65.829 70.6047 65.6936 70.4856C65.5582 70.3664 65.6774 73.1987 65.6774 73.6103Z" fill="#E4897B"/>
<path opacity="0.2" d="M80.0869 81.4675C81.3108 80.7418 82.3397 80.1082 82.7946 79.8429C82.9246 79.3013 83.0329 78.7598 83.1196 78.3103C83.2929 77.4222 83.3903 76.7886 83.3903 76.7886L83.2225 76.9077C82.5564 77.3626 80.1952 79.1876 80.0869 81.4675Z" fill="black"/>
<path d="M97.9957 56.2642C103.92 57.7155 104.424 63.8458 102.501 67.6366C100.579 71.4274 98.0011 70.783 97.6274 73.0249C97.2537 75.2669 95.9486 74.4221 95.9486 74.4221L96.0082 73.5827C96.0082 73.5827 95.2013 74.8987 93.3005 74.3517C92.3375 74.1308 91.421 73.7422 90.5927 73.2037L89.8617 73.6152C89.8617 73.6152 88.3453 73.1874 88.8977 71.7469C89.4501 70.3064 87.3002 65.4325 87.7171 61.9991C88.1341 58.5657 90.9664 58.1433 95.0009 58.8961L97.9957 56.2642Z" fill="#263238"/>
<path d="M69.1152 169.869L74.2057 170.768C79.345 157.96 83.0004 147.275 85.5782 138.405C86.9699 133.618 88.1288 129.361 88.9628 125.587L88.8058 139.526V170.936H93.8259C106.406 111.014 97.4921 97.3614 97.4921 97.3614L82.4372 94.854C81.841 97.6394 81.4178 100.459 81.17 103.297L80.4877 108.29L74.6065 138.681L69.1152 169.869Z" fill="#348DAA"/>
<g opacity="0.6">
<path d="M69.1152 169.868L74.2057 170.767C79.345 157.96 83.0004 147.275 85.5782 138.404C86.9699 133.617 88.1288 129.361 88.9628 125.586L88.8058 139.525V170.935H93.8259C106.406 111.013 97.4921 97.3609 97.4921 97.3609L82.4372 94.8535C81.841 97.6389 81.4178 100.459 81.17 103.296L80.4877 108.289L74.6065 138.681L69.1152 169.868Z" fill="white"/>
</g>
<path opacity="0.2" d="M85.583 138.389C86.9748 133.601 88.0579 129.345 88.8918 125.57C88.8194 121.1 88.494 116.638 87.9171 112.205C87.9171 112.205 85.713 129.459 85.583 138.389Z" fill="black"/>
<path d="M82.0807 93.6845L97.4605 95.4662C97.6062 92.1868 98.1333 88.9355 99.031 85.778C99.1989 85.1931 99.383 84.5757 99.5725 83.915C99.8108 83.1569 100.082 82.3428 100.385 81.4727C100.618 80.8012 100.872 80.0863 101.154 79.3065C101.23 79.0845 101.316 78.857 101.403 78.6296C101.685 77.866 101.988 77.0537 102.324 76.198C100.309 75.6272 98.2592 75.1858 96.1879 74.8767C93.9881 74.5306 91.7689 74.3226 89.5431 74.2539C86.6675 74.2539 83.3587 74.5193 83.3587 74.5193C83.3587 74.5193 82.893 74.6222 82.5951 77.3407C81.8263 82.7534 81.6538 88.2342 82.0807 93.6845Z" fill="#348DAA"/>
<path d="M89.7274 75.1424C89.8726 75.0689 90.0228 75.0056 90.1769 74.9529C90.5181 74.6821 90.935 74.0323 90.9134 72.4564C90.902 71.8376 90.8459 71.2204 90.7455 70.6097L95.132 69.792C95.132 69.792 93.6319 72.7434 94.8829 74.9367C95.3107 75.1262 95.5707 75.397 95.5219 75.7544C95.1916 78.2888 90.361 78.787 90.361 78.787C90.361 78.787 87.0847 76.5992 89.7274 75.1424Z" fill="#E4897B"/>
<path opacity="0.2" d="M90.7393 70.6097C90.8439 71.22 90.9018 71.8373 90.9126 72.4564C93.8748 72.4564 95.1312 69.792 95.1312 69.792L90.7393 70.6097Z" fill="black"/>
<path d="M95.5754 56.4969C95.5754 56.4969 90.8207 54.4282 88.752 58.1216C88.1581 59.1744 87.8758 60.3745 87.9382 61.5817C88.0005 62.7889 88.4048 63.9535 89.104 64.9396L95.5754 56.4969Z" fill="#263238"/>
<path d="M95.4076 58.7445C91.8063 57.4773 89.9921 58.9991 88.3946 62.6166C86.4288 67.1385 86.2988 70.7993 91.151 71.395C97.747 72.2019 101.392 60.8511 95.4076 58.7445Z" fill="#E4897B"/>
<path d="M90.7937 63.2334C90.3168 63.6724 89.7875 64.0507 89.2178 64.3598C89.2741 64.5441 89.3786 64.71 89.5204 64.8404C89.6623 64.9708 89.8363 65.061 90.0247 65.1017L90.7937 63.2334Z" fill="#DE5753"/>
<path d="M93.0839 63.7155C92.9702 64.0133 93.0406 64.3112 93.2355 64.3816C93.4305 64.452 93.6796 64.2787 93.7771 63.9863C93.8745 63.6938 93.8204 63.396 93.6254 63.3202C93.4305 63.2444 93.2138 63.4231 93.0839 63.7155Z" fill="#263238"/>
<path d="M93.7339 63.3634L93.1924 62.8706C93.1924 62.8706 93.3061 63.5313 93.7339 63.3634Z" fill="#263238"/>
<path d="M89.4774 62.2747C89.3637 62.5672 89.4341 62.865 89.6291 62.9408C89.824 63.0167 90.0731 62.838 90.1706 62.5401C90.2681 62.2423 90.2139 61.9498 90.019 61.8794C89.824 61.809 89.5857 61.9823 89.4774 62.2747Z" fill="#263238"/>
<path d="M90.1109 61.9225L89.5693 61.4297C89.5693 61.4297 89.6776 62.085 90.1109 61.9225Z" fill="#263238"/>
<path d="M95.3875 62.5237C95.3492 62.5235 95.312 62.5114 95.2809 62.4891C95.2499 62.4668 95.2265 62.4353 95.2142 62.3991C95.0947 62.1544 94.9217 61.9397 94.708 61.771C94.4942 61.6022 94.2452 61.4838 93.9795 61.4244C93.9556 61.4194 93.933 61.4098 93.9129 61.3961C93.8928 61.3823 93.8756 61.3648 93.8623 61.3444C93.849 61.3241 93.8398 61.3013 93.8353 61.2774C93.8307 61.2534 93.831 61.2289 93.8359 61.205C93.8409 61.1812 93.8505 61.1586 93.8643 61.1385C93.878 61.1184 93.8955 61.1012 93.9159 61.0879C93.9363 61.0745 93.9591 61.0654 93.983 61.0608C94.0069 61.0563 94.0314 61.0566 94.0553 61.0615C94.383 61.1333 94.6896 61.2803 94.9509 61.4908C95.2121 61.7013 95.4209 61.9696 95.5608 62.2746C95.5694 62.2973 95.5735 62.3216 95.5727 62.3459C95.572 62.3702 95.5664 62.3942 95.5563 62.4163C95.5463 62.4385 95.5319 62.4584 95.5141 62.475C95.4962 62.4916 95.4753 62.5044 95.4525 62.5129L95.3875 62.5237Z" fill="#263238"/>
<path d="M91.4598 60.3525C91.4389 60.3532 91.4181 60.3497 91.3986 60.3423C91.3791 60.3348 91.3612 60.3236 91.3461 60.3092C91.1431 60.1798 90.9139 60.0971 90.6751 60.0671C90.4363 60.0372 90.1938 60.0606 89.9652 60.1359C89.942 60.1424 89.9178 60.1441 89.894 60.1411C89.8702 60.138 89.8472 60.1302 89.8265 60.118C89.8058 60.1059 89.7877 60.0897 89.7734 60.0705C89.7591 60.0512 89.7488 60.0292 89.7431 60.0059C89.7366 59.9824 89.7347 59.9579 89.7377 59.9337C89.7407 59.9095 89.7485 59.8862 89.7606 59.865C89.7727 59.8439 89.7888 59.8253 89.8082 59.8104C89.8275 59.7956 89.8495 59.7847 89.8731 59.7784C90.1572 59.6864 90.4586 59.6606 90.7542 59.7028C91.0499 59.745 91.332 59.8543 91.5789 60.0221C91.6175 60.0539 91.642 60.0996 91.6471 60.1492C91.6521 60.1989 91.6374 60.2486 91.606 60.2875C91.5876 60.308 91.5651 60.3245 91.5399 60.3357C91.5147 60.3469 91.4874 60.3526 91.4598 60.3525Z" fill="#263238"/>
<path d="M97.2052 66.2016C97.2052 66.2016 96.5662 62.6491 97.6222 60.4558C97.6222 60.4558 91.5136 55.0404 88.6055 62.1455C88.6055 62.1455 90.176 55.4682 96.42 57.5044C102.664 59.5406 99.4472 68.5953 95.299 70.1657C95.299 70.1549 97.5951 68.422 97.2052 66.2016Z" fill="#263238"/>
<path d="M95.0344 56.0256C95.0344 56.0256 92.24 54.401 91.1569 54.9426C90.0738 55.4841 94.5091 62.8816 97.5255 64.3762C97.5255 64.3762 97.5742 68.2158 96.242 69.613C96.242 69.613 100.184 69.4072 101.944 64.0026C103.704 58.598 98.5707 54.9046 95.0344 56.0256Z" fill="#263238"/>
<path d="M96.3335 66.759C96.5148 66.3541 96.8489 66.0374 97.2629 65.8781C97.6769 65.7188 98.1371 65.7298 98.543 65.9088C99.6261 66.4503 99.3445 68.9035 96.3769 68.4811C95.9599 68.4161 95.8732 67.9504 96.3335 66.759Z" fill="#E4897B"/>
<path d="M95.2503 63.8615C95.2109 63.862 95.1725 63.8485 95.142 63.8236C91.3025 61.0292 91.1563 55.3863 91.1563 55.3267C91.1562 55.2774 91.1755 55.23 91.2098 55.1946C91.2442 55.1592 91.291 55.1386 91.3404 55.1372C91.3897 55.1372 91.4371 55.1564 91.4725 55.1908C91.5079 55.2252 91.5285 55.272 91.5299 55.3213C91.5299 55.3755 91.6707 60.8397 95.3641 63.5257C95.4027 63.5558 95.4283 63.5996 95.4353 63.6481C95.4424 63.6965 95.4304 63.7458 95.402 63.7857C95.3846 63.8095 95.3618 63.8289 95.3354 63.8421C95.309 63.8553 95.2798 63.8619 95.2503 63.8615Z" fill="#263238"/>
<path d="M89.2227 66.2545C89.3161 66.7914 89.3704 67.3344 89.3851 67.8792L89.6667 67.9171C90.9394 68.0741 91.5838 67.7275 91.9141 67.2943C92.066 67.078 92.1661 66.8297 92.2066 66.5686C92.2274 66.4195 92.2274 66.2682 92.2066 66.1191C91.3776 66.3721 90.5037 66.4423 89.6451 66.3249C89.3905 66.2816 89.2227 66.2545 89.2227 66.2545Z" fill="#263238"/>
<path d="M89.6621 66.3044L89.7217 66.7756C90.9185 66.9218 91.785 66.8622 92.2074 66.5481C92.2282 66.399 92.2282 66.2477 92.2074 66.0986C91.3836 66.3492 90.5155 66.4194 89.6621 66.3044Z" fill="white"/>
<path d="M89.667 67.8958C90.9396 68.0529 91.5841 67.7063 91.9144 67.2731C91.4283 67.2224 90.9371 67.2572 90.4631 67.376C90.1484 67.4583 89.869 67.6408 89.667 67.8958Z" fill="#DE5753"/>
<path d="M97.4338 95.2389L82.0811 93.9121V96.544L97.8021 97.9304L97.4338 95.2389Z" fill="black"/>
<path d="M86.3633 95.0655V96.284C86.3624 96.5218 86.451 96.7514 86.6116 96.9269C86.7721 97.1025 86.9927 97.2113 87.2298 97.2317L89.1468 97.405H89.2335C89.3588 97.4057 89.4831 97.3815 89.5991 97.3339C89.715 97.2862 89.8204 97.216 89.909 97.1274C89.9977 97.0387 90.0679 96.9334 90.1155 96.8174C90.1632 96.7015 90.1873 96.5772 90.1866 96.4518V95.2279C90.1874 94.9892 90.098 94.7589 89.9363 94.5832C89.7747 94.4075 89.5527 94.2993 89.3147 94.2802L87.3976 94.1124C87.2658 94.1011 87.1331 94.1174 87.0079 94.1602C86.8827 94.203 86.7678 94.2714 86.6705 94.3611C86.5732 94.4508 86.4957 94.5597 86.4428 94.681C86.3899 94.8022 86.3628 94.9332 86.3633 95.0655ZM86.8561 96.284V95.8832L87.3976 95.9265C87.4827 95.9311 87.5662 95.9027 87.6307 95.8472C87.6953 95.7917 87.736 95.7134 87.7442 95.6287C87.7479 95.586 87.7432 95.543 87.7302 95.5021C87.7172 95.4613 87.6962 95.4234 87.6686 95.3907C87.6409 95.358 87.607 95.3311 87.5689 95.3115C87.5307 95.2919 87.4891 95.2801 87.4464 95.2767L86.9048 95.2334H86.8344V95.0655C86.8328 95.0014 86.8449 94.9378 86.8702 94.8789C86.8954 94.82 86.9331 94.7673 86.9806 94.7243C87.0652 94.6435 87.1778 94.5988 87.2947 94.5998H87.3327L89.2497 94.7622C89.3651 94.7717 89.4727 94.8244 89.551 94.9097C89.6293 94.995 89.6725 95.1067 89.6721 95.2225V96.4464C89.6728 96.5108 89.6596 96.5746 89.6334 96.6335C89.6072 96.6924 89.5687 96.7449 89.5205 96.7876C89.475 96.8333 89.4196 96.8679 89.3585 96.8885C89.2974 96.9092 89.2324 96.9154 89.1685 96.9067L87.2514 96.7388C87.1437 96.7235 87.0448 96.6705 86.9725 96.5892C86.9001 96.5079 86.8589 96.4036 86.8561 96.2948V96.284Z" fill="white"/>
<path d="M85.8154 74.5299C85.8429 75.0836 85.9791 75.6264 86.2162 76.1275C86.3871 76.5117 86.6154 76.8677 86.8931 77.1835C87.795 78.1751 89.027 78.8046 90.359 78.9543C92 79.2498 93.6922 79.0264 95.2004 78.3153C95.5061 78.1671 95.8027 78.0008 96.0885 77.8171C96.9586 77.2656 97.7112 76.5479 98.3034 75.7051C97.9639 75.5663 97.6168 75.447 97.2637 75.3476C97.0362 75.2827 96.7979 75.2231 96.5488 75.1744C93.9007 74.6834 91.2108 74.4531 88.5177 74.4866H87.6675C86.5357 74.4866 85.8154 74.5299 85.8154 74.5299Z" fill="#E4897B"/>
<path d="M86.2178 76.1112C86.3887 76.4954 86.617 76.8514 86.8947 77.1672C86.9218 76.617 87.0842 76.082 87.3676 75.6097C87.651 75.1373 88.0466 74.7423 88.5193 74.4595H87.6691C87.3138 74.6003 86.9969 74.8235 86.7446 75.1106C86.4923 75.3977 86.3117 75.7407 86.2178 76.1112Z" fill="#263238"/>
<path d="M95.1901 78.2774V78.3153C95.4958 78.1671 95.7924 78.0007 96.0782 77.817C96.0979 77.3475 96.2121 76.8869 96.414 76.4625C96.616 76.0382 96.9014 75.659 97.2533 75.3476C97.0259 75.2826 96.7876 75.2231 96.5385 75.1743C95.0872 75.9812 95.1901 78.2774 95.1901 78.2774Z" fill="#263238"/>
<path opacity="0.2" d="M99.5834 83.9152C99.8217 83.157 100.092 82.3429 100.396 81.4728C100.629 80.8013 100.883 80.0865 101.165 79.3066C101.027 78.9687 100.818 78.664 100.553 78.4131C100.553 78.4131 99.4318 81.527 99.5834 83.9152Z" fill="black"/>
<path d="M102.34 76.2252C104.305 77.1946 110.176 86.5146 108.502 89.6501C106.829 92.7856 99.2962 95.5421 99.2962 95.5421C99.2962 95.5421 102.437 97.2696 102.329 97.7083C102.221 98.1469 99.6211 99.8745 99.2962 99.8745C98.3926 99.1845 97.5451 98.424 96.7618 97.6C96.3881 97.1776 96.713 95.4013 96.713 95.4013C98.8359 93.6738 104.668 89.5147 105.026 88.5833C105.383 87.6518 100.466 81.2345 100.466 81.2345C100.466 81.2345 100.325 78.5701 100.915 77.3787C101.506 76.1873 102.34 76.2252 102.34 76.2252Z" fill="#E4897B"/>
</svg>
