<svg width="310" height="160" viewBox="0 0 310 160" fill="none" xmlns="http://www.w3.org/2000/svg">
<g clip-path="url(#clip0_11_258)">
<g filter="url(#filter0_d_11_258)">
<rect x="23.373" width="263.254" height="160" rx="24" fill="#F7F8F9"/>
</g>
<rect width="310" height="160" rx="24" fill="#F7F8F9"/>
<path d="M238 94.6815H72V94.7627H238V94.6815Z" fill="#E6E6E6"/>
<path d="M97.1988 97.7722H93.6763V97.8534H97.1988V97.7722Z" fill="#E6E6E6"/>
<path d="M113.962 97.7336H99.6357V97.8148H113.962V97.7336Z" fill="#E6E6E6"/>
<path d="M120.581 99.5976H109.244V99.6788H120.581V99.5976Z" fill="#E6E6E6"/>
<path d="M148.4 97.1025H123.131V97.1837H148.4V97.1025Z" fill="#E6E6E6"/>
<path d="M205.886 98.4612H187.978V98.5424H205.886V98.4612Z" fill="#E6E6E6"/>
<path d="M186.135 98.4612H183.605V98.5424H186.135V98.4612Z" fill="#E6E6E6"/>
<path d="M214.667 97.0607H197.107V97.1419H214.667V97.0607Z" fill="#E6E6E6"/>
<path d="M150.684 80.3227H86.5779C86.0757 80.3218 85.5944 80.1278 85.2396 79.7831C84.8848 79.4385 84.6855 78.9714 84.6855 78.4844V-8.90153C84.6899 -9.38573 84.8911 -9.84871 85.2454 -10.1899C85.5998 -10.5311 86.0786 -10.7229 86.5779 -10.7238H150.684C151.187 -10.7238 151.669 -10.5301 152.024 -10.1853C152.38 -9.84057 152.58 -9.37299 152.58 -8.88544V78.4844C152.58 78.9719 152.38 79.4395 152.024 79.7843C151.669 80.129 151.187 80.3227 150.684 80.3227ZM86.5779 -10.6594C86.0978 -10.6585 85.6375 -10.4729 85.2983 -10.1434C84.9591 -9.81381 84.7685 -9.36718 84.7685 -8.90153V78.4844C84.7685 78.95 84.9591 79.3966 85.2983 79.7262C85.6375 80.0558 86.0978 80.2413 86.5779 80.2422H150.684C151.164 80.2413 151.625 80.0559 151.965 79.7264C152.304 79.3969 152.496 78.9503 152.497 78.4844V-8.90153C152.496 -9.36748 152.304 -9.81409 151.965 -10.1436C151.625 -10.473 151.164 -10.6585 150.684 -10.6594H86.5779Z" fill="#E6E6E6"/>
<path d="M222.499 80.3227H158.39C157.887 80.3218 157.406 80.1279 157.05 79.7833C156.695 79.4388 156.495 78.9717 156.494 78.4844V-8.90153C156.499 -9.38603 156.701 -9.849 157.056 -10.1901C157.411 -10.5312 157.89 -10.7229 158.39 -10.7238H222.499C222.998 -10.7221 223.476 -10.5299 223.829 -10.1888C224.183 -9.84767 224.384 -9.38518 224.388 -8.90153V78.4844C224.388 78.9708 224.189 79.4374 223.835 79.782C223.481 80.1265 223.001 80.321 222.499 80.3227ZM158.39 -10.6594C157.909 -10.6585 157.449 -10.473 157.109 -10.1436C156.769 -9.81409 156.578 -9.36748 156.577 -8.90153V78.4844C156.578 78.9503 156.769 79.3969 157.109 79.7264C157.449 80.0559 157.909 80.2413 158.39 80.2422H222.499C222.98 80.2413 223.44 80.0559 223.78 79.7264C224.12 79.3969 224.311 78.9503 224.312 78.4844V-8.90153C224.311 -9.36748 224.12 -9.81409 223.78 -10.1436C223.44 -10.473 222.98 -10.6585 222.499 -10.6594H158.39Z" fill="#E6E6E6"/>
<path d="M174.568 94.6815H139.217C140.733 89.1317 141.194 83.3606 140.578 77.6505C139.804 70.2618 137.278 62.841 133.001 55.7163H168.35C172.626 62.8345 175.152 70.2618 175.929 77.6505C176.545 83.3606 176.084 89.1317 174.568 94.6815Z" fill="#E0E0E0"/>
<path d="M173.794 94.6815H138.443C139.959 89.1317 140.42 83.3606 139.804 77.6505C139.031 70.2618 136.504 62.841 132.228 55.7163H167.576C171.852 62.8345 174.379 70.2618 175.156 77.6505C175.772 83.3606 175.31 89.1317 173.794 94.6815Z" fill="#F5F5F5"/>
<path d="M175.156 77.6505H139.804C139.031 70.2618 136.504 62.841 132.228 55.7163H167.576C171.852 62.8345 174.379 70.2618 175.156 77.6505Z" fill="#E0E0E0"/>
<path d="M208.94 2.53079H99.8249C97.9546 2.53079 96.4385 4.00102 96.4385 5.81464V71.0345C96.4385 72.8482 97.9546 74.3184 99.8249 74.3184H208.94C210.81 74.3184 212.326 72.8482 212.326 71.0345V5.81464C212.326 4.00102 210.81 2.53079 208.94 2.53079Z" fill="#E0E0E0"/>
<path d="M208.336 2.53079H99.2209C97.3506 2.53079 95.8345 4.00102 95.8345 5.81464V71.0345C95.8345 72.8482 97.3506 74.3184 99.2209 74.3184H208.336C210.206 74.3184 211.722 72.8482 211.722 71.0345V5.81464C211.722 4.00102 210.206 2.53079 208.336 2.53079Z" fill="#EBEBEB"/>
<path d="M211.722 6.30399H95.8345V63.1082H211.722V6.30399Z" fill="white"/>
<path d="M169.704 91.9771H129.353C128.612 91.9771 127.901 92.2627 127.376 92.7711C126.852 93.2795 126.558 93.969 126.558 94.6879H172.5C172.5 93.969 172.205 93.2795 171.681 92.7711C171.157 92.2627 170.446 91.9771 169.704 91.9771Z" fill="#F5F5F5"/>
<path d="M179.319 91.9771H172.095C171.353 91.9771 170.642 92.2627 170.118 92.7711C169.594 93.2795 169.299 93.969 169.299 94.6879H182.115C182.115 93.969 181.82 93.2795 181.296 92.7711C180.771 92.2627 180.06 91.9771 179.319 91.9771Z" fill="#E0E0E0"/>
<path d="M136.833 47.6548L205.149 47.6548C205.946 47.6548 206.593 47.0278 206.593 46.2543V-3.5862C206.593 -4.35966 205.946 -4.98667 205.149 -4.98667L136.833 -4.98667C136.035 -4.98667 135.389 -4.35966 135.389 -3.5862V46.2543C135.389 47.0278 136.035 47.6548 136.833 47.6548Z" fill="#E0E0E0"/>
<path d="M136.451 47.6548L204.767 47.6548C205.564 47.6548 206.211 47.0278 206.211 46.2543V-3.5862C206.211 -4.35966 205.564 -4.98667 204.767 -4.98667L136.451 -4.98667C135.653 -4.98667 135.007 -4.35966 135.007 -3.5862V46.2543C135.007 47.0278 135.653 47.6548 136.451 47.6548Z" fill="#EBEBEB"/>
<path d="M206.211 -1.36477V46.2608C206.21 46.6319 206.058 46.9876 205.787 47.2501C205.516 47.5126 205.149 47.6604 204.767 47.6612H136.451C136.068 47.6604 135.701 47.5126 135.431 47.2501C135.16 46.9876 135.008 46.6319 135.007 46.2608V-1.36477H206.211Z" fill="#F0F0F0"/>
<path d="M205.945 0.496082H135.276V45.7907H205.945V0.496082Z" fill="white"/>
<path d="M129.934 54.3416L198.25 54.3416C199.047 54.3416 199.694 53.7146 199.694 52.9412V3.10064C199.694 2.32718 199.047 1.70018 198.25 1.70018L129.934 1.70018C129.136 1.70018 128.49 2.32718 128.49 3.10064V52.9412C128.49 53.7146 129.136 54.3416 129.934 54.3416Z" fill="#E0E0E0"/>
<path d="M129.552 54.3416L197.868 54.3416C198.665 54.3416 199.312 53.7146 199.312 52.9412V3.10064C199.312 2.32718 198.665 1.70018 197.868 1.70018L129.552 1.70018C128.755 1.70018 128.108 2.32718 128.108 3.10064V52.9412C128.108 53.7146 128.755 54.3416 129.552 54.3416Z" fill="#EBEBEB"/>
<path d="M199.312 5.32528V52.9411C199.311 53.3129 199.158 53.6691 198.887 53.9316C198.615 54.1942 198.248 54.3416 197.864 54.3416H129.552C129.169 54.3408 128.803 54.1929 128.532 53.9305C128.261 53.668 128.109 53.3123 128.108 52.9411V5.32528H199.312Z" fill="#F0F0F0"/>
<path d="M199.043 7.18612H128.374V52.4808H199.043V7.18612Z" fill="white"/>
<path d="M196.141 4.26607C196.565 4.26607 196.908 3.93311 196.908 3.52238C196.908 3.11165 196.565 2.77868 196.141 2.77868C195.718 2.77868 195.375 3.11165 195.375 3.52238C195.375 3.93311 195.718 4.26607 196.141 4.26607Z" fill="white"/>
<path d="M192.649 3.52238C192.648 3.67024 192.693 3.81496 192.777 3.93821C192.861 4.06147 192.981 4.1577 193.122 4.21473C193.263 4.27176 193.418 4.28701 193.567 4.25855C193.717 4.2301 193.855 4.15922 193.963 4.05489C194.071 3.95056 194.144 3.81748 194.174 3.6725C194.204 3.52753 194.189 3.37718 194.131 3.24051C194.073 3.10384 193.974 2.987 193.847 2.90479C193.721 2.82257 193.572 2.77868 193.419 2.77868C193.215 2.77868 193.02 2.85693 192.876 2.99631C192.731 3.13569 192.65 3.32484 192.649 3.52238Z" fill="white"/>
<path d="M190.697 4.26607C191.12 4.26607 191.464 3.93311 191.464 3.52238C191.464 3.11165 191.12 2.77868 190.697 2.77868C190.273 2.77868 189.93 3.11165 189.93 3.52238C189.93 3.93311 190.273 4.26607 190.697 4.26607Z" fill="white"/>
<path d="M128.108 5.41544L199.312 5.41544V5.22871L128.108 5.22871V5.41544Z" fill="#E0E0E0"/>
<path d="M186.909 28.9787C184.329 28.9787 183.081 26.4289 181.869 23.966C180.697 21.5771 179.591 19.3203 177.43 19.3203C175.269 19.3203 174.163 21.5739 172.991 23.966C171.783 26.4289 170.531 28.9787 167.951 28.9787C165.372 28.9787 164.123 26.4289 162.915 23.966C161.743 21.5771 160.634 19.3203 158.476 19.3203C156.318 19.3203 155.209 21.5739 154.037 23.966C152.829 26.4289 151.577 28.9787 149.001 28.9787C146.424 28.9787 145.17 26.4289 143.961 23.966C142.789 21.5771 141.684 19.3203 139.522 19.3203C137.361 19.3203 136.255 21.5739 135.083 23.966C133.875 26.4289 132.627 28.9787 130.047 28.9787C127.467 28.9787 126.219 26.4289 125.007 23.966C123.839 21.5771 122.73 19.3203 120.572 19.3203C118.414 19.3203 117.305 21.5739 116.133 23.966C114.924 26.4289 113.676 28.9787 111.096 28.9787C108.517 28.9787 107.268 26.4289 106.06 23.966C104.888 21.5771 103.779 19.3203 101.621 19.3203V18.6764C104.201 18.6764 105.449 21.2262 106.658 23.6891C107.829 26.0779 108.938 28.3348 111.096 28.3348C113.254 28.3348 114.363 26.0812 115.535 23.6891C116.744 21.2262 117.992 18.6764 120.572 18.6764C123.151 18.6764 124.4 21.2262 125.608 23.6891C126.78 26.0779 127.886 28.3348 130.047 28.3348C132.208 28.3348 133.314 26.0812 134.486 23.6891C135.694 21.2262 136.943 18.6764 139.522 18.6764C142.102 18.6764 143.35 21.2262 144.562 23.6891C145.734 26.0779 146.839 28.3348 149.001 28.3348C151.162 28.3348 152.264 26.0812 153.436 23.6891C154.648 21.2262 155.896 18.6764 158.476 18.6764C161.056 18.6764 162.304 21.2262 163.516 23.6891C164.688 26.0779 165.793 28.3348 167.951 28.3348C170.109 28.3348 171.222 26.0812 172.394 23.6891C173.602 21.2262 174.85 18.6764 177.43 18.6764C180.01 18.6764 181.261 21.2262 182.47 23.6891C183.642 26.0779 184.751 28.3348 186.909 28.3348V28.9787Z" fill="#FAFAFA"/>
<path d="M186.909 43.7914C184.329 43.7914 183.081 41.2448 181.869 38.7787C180.697 36.3899 179.591 34.133 177.43 34.133C175.269 34.133 174.163 36.3866 172.991 38.7787C171.783 41.2448 170.531 43.7914 167.951 43.7914C165.372 43.7914 164.123 41.2448 162.915 38.7787C161.743 36.3899 160.634 34.133 158.476 34.133C156.318 34.133 155.209 36.3866 154.037 38.7787C152.829 41.2448 151.577 43.7914 149.001 43.7914C146.424 43.7914 145.17 41.2448 143.961 38.7787C142.789 36.3899 141.684 34.133 139.522 34.133C137.361 34.133 136.255 36.3866 135.083 38.7787C133.875 41.2448 132.627 43.7914 130.047 43.7914C127.467 43.7914 126.219 41.2448 125.007 38.7787C123.839 36.3899 122.73 34.133 120.572 34.133C118.414 34.133 117.305 36.3866 116.133 38.7787C114.924 41.2448 113.676 43.7914 111.096 43.7914C108.517 43.7914 107.268 41.2448 106.06 38.7787C104.888 36.3899 103.779 34.133 101.621 34.133V33.4891C104.201 33.4891 105.449 36.0389 106.658 38.5018C107.829 40.8907 108.938 43.1475 111.096 43.1475C113.254 43.1475 114.363 40.8939 115.535 38.5018C116.744 36.0389 117.992 33.4891 120.572 33.4891C123.151 33.4891 124.4 36.0389 125.608 38.5018C126.78 40.8907 127.886 43.1475 130.047 43.1475C132.208 43.1475 133.314 40.8939 134.486 38.5018C135.694 36.0389 136.943 33.4891 139.522 33.4891C142.102 33.4891 143.35 36.0389 144.562 38.5018C145.734 40.8907 146.839 43.1475 149.001 43.1475C151.162 43.1475 152.264 40.8939 153.436 38.5018C154.648 36.0389 155.896 33.4891 158.476 33.4891C161.056 33.4891 162.304 36.0389 163.516 38.5018C164.688 40.8907 165.793 43.1475 167.951 43.1475C170.109 43.1475 171.222 40.8939 172.394 38.5018C173.602 36.0389 174.85 33.4891 177.43 33.4891C180.01 33.4891 181.261 36.0389 182.47 38.5018C183.642 40.8907 184.751 43.1475 186.909 43.1475V43.7914Z" fill="#FAFAFA"/>
<path d="M155 109.221C190.551 109.221 219.371 107.589 219.371 105.576C219.371 103.563 190.551 101.932 155 101.932C119.449 101.932 90.6284 103.563 90.6284 105.576C90.6284 107.589 119.449 109.221 155 109.221Z" fill="#F5F5F5"/>
<path d="M175.916 6.964H158.22C157.597 6.96413 156.988 7.14632 156.473 7.48684C155.957 7.82737 155.56 8.31044 155.332 8.87314L153.755 12.7365H180.385L178.808 8.87314C178.579 8.30992 178.181 7.8265 177.665 7.48594C177.15 7.14537 176.54 6.96348 175.916 6.964Z" fill="#38768A"/>
<path opacity="0.4" d="M175.916 6.964H158.22C157.597 6.96413 156.988 7.14632 156.473 7.48684C155.957 7.82737 155.56 8.31044 155.332 8.87314L153.755 12.7365H180.385L178.808 8.87314C178.579 8.30992 178.181 7.8265 177.665 7.48594C177.15 7.14537 176.54 6.96348 175.916 6.964Z" fill="white"/>
<path d="M125.678 6.964H107.982C107.358 6.96392 106.748 7.14599 106.233 7.48649C105.717 7.827 105.319 8.31018 105.09 8.87314L103.513 12.7365H130.146L128.569 8.87314C128.341 8.31018 127.942 7.827 127.427 7.48649C126.911 7.14599 126.301 6.96392 125.678 6.964Z" fill="#38768A"/>
<path opacity="0.2" d="M125.678 6.964H107.982C107.358 6.96392 106.748 7.14599 106.233 7.48649C105.717 7.827 105.319 8.31018 105.09 8.87314L103.513 12.7365H130.146L128.569 8.87314C128.341 8.31018 127.942 7.827 127.427 7.48649C126.911 7.14599 126.301 6.96392 125.678 6.964Z" fill="black"/>
<path d="M207.034 12.3115H155.093L153.692 8.87314C153.463 8.31044 153.065 7.8275 152.549 7.48705C152.033 7.1466 151.424 6.96436 150.8 6.964H133.105C132.48 6.96348 131.871 7.14537 131.355 7.48594C130.839 7.8265 130.441 8.30992 130.213 8.87314L128.812 12.3115H102.966C102.004 12.3166 101.083 12.6893 100.403 13.3487C99.7231 14.0082 99.3387 14.9011 99.3335 15.8336V83.0303C99.3387 83.9628 99.7231 84.8557 100.403 85.5152C101.083 86.1746 102.004 86.5473 102.966 86.5524H207.034C207.996 86.5473 208.917 86.1746 209.597 85.5152C210.277 84.8557 210.661 83.9628 210.666 83.0303V15.8336C210.661 14.9011 210.277 14.0082 209.597 13.3487C208.917 12.6893 207.996 12.3166 207.034 12.3115Z" fill="#38768A"/>
<path d="M208.342 83.0979V22.4625C208.342 21.7993 207.788 21.2616 207.104 21.2616L102.899 21.2616C102.215 21.2616 101.661 21.7993 101.661 22.4625V83.0979C101.661 83.7611 102.215 84.2987 102.899 84.2987H207.104C207.788 84.2987 208.342 83.7611 208.342 83.0979Z" fill="white"/>
<path d="M156.149 37.932H138.33V43.0542H156.149V37.932Z" fill="#38768A"/>
<path d="M171.67 37.932H159.163V43.0542H171.67V37.932Z" fill="#38768A"/>
<path d="M98.5034 34.2586H98.1714V40.4947H98.5034V34.2586Z" fill="#38768A"/>
<path d="M98.5034 42.861H98.1714V45.15H98.5034V42.861Z" fill="#38768A"/>
<path d="M116.833 23.3575H111.172V24.5809H116.833V23.3575Z" fill="#38768A"/>
<path d="M109.602 23.3575H103.941V24.5809H109.602V23.3575Z" fill="#38768A"/>
<path d="M182.39 57.4258H127.61V47.6516H182.39V57.4258ZM127.942 57.1039H182.058V47.9735H127.942V57.1039Z" fill="#38768A"/>
<path d="M129.824 50.0951H129.492V54.9855H129.824V50.0951Z" fill="#38768A"/>
<path d="M169.203 60.5391H140.797V61.7625H169.203V60.5391Z" fill="#38768A"/>
<path d="M176.274 54.4028C175.871 54.4032 175.474 54.3071 175.119 54.1232C174.763 53.9393 174.46 53.6732 174.236 53.3484C174.012 53.0236 173.874 52.6503 173.834 52.2614C173.794 51.8725 173.854 51.4801 174.008 51.119C174.162 50.7578 174.405 50.4391 174.717 50.191C175.028 49.9429 175.398 49.7732 175.793 49.6967C176.188 49.6203 176.597 49.6396 176.982 49.7529C177.368 49.8662 177.719 50.07 178.004 50.3463C178.347 50.6784 178.58 51.1015 178.675 51.5623C178.77 52.023 178.721 52.5006 178.536 52.9347C178.351 53.3689 178.037 53.7401 177.635 54.0014C177.232 54.2627 176.759 54.4024 176.274 54.4028ZM176.274 50.2948C175.861 50.2941 175.46 50.4325 175.14 50.6863C174.821 50.94 174.601 51.2935 174.52 51.6865C174.439 52.0794 174.501 52.4875 174.695 52.8412C174.889 53.1949 175.204 53.4723 175.586 53.6262C175.967 53.78 176.392 53.8008 176.788 53.685C177.183 53.5691 177.525 53.3238 177.755 52.9909C177.985 52.658 178.089 52.258 178.049 51.8591C178.009 51.4602 177.828 51.0871 177.536 50.8034C177.201 50.4785 176.748 50.2955 176.274 50.2948Z" fill="#38768A"/>
<path d="M179.448 55.4266C179.405 55.4268 179.361 55.4187 179.321 55.4027C179.281 55.3867 179.244 55.3631 179.213 55.3332L177.536 53.7074C177.474 53.6468 177.438 53.5646 177.438 53.4788C177.438 53.3931 177.474 53.3109 177.536 53.2502C177.599 53.1896 177.683 53.1556 177.772 53.1556C177.86 53.1556 177.945 53.1896 178.008 53.2502L179.684 54.8793C179.746 54.9396 179.781 55.0212 179.781 55.1063C179.781 55.1913 179.746 55.2729 179.684 55.3332C179.653 55.3631 179.616 55.3867 179.576 55.4027C179.535 55.4187 179.492 55.4268 179.448 55.4266Z" fill="#38768A"/>
<path opacity="0.6" d="M182.39 57.4258H127.61V47.6516H182.39V57.4258ZM127.942 57.1039H182.058V47.9735H127.942V57.1039Z" fill="white"/>
<path opacity="0.6" d="M129.824 50.0951H129.492V54.9855H129.824V50.0951Z" fill="white"/>
<path opacity="0.6" d="M169.203 60.5391H140.797V61.7625H169.203V60.5391Z" fill="white"/>
<path opacity="0.6" d="M116.833 23.3575H111.172V24.5809H116.833V23.3575Z" fill="white"/>
<path opacity="0.6" d="M109.602 23.3575H103.941V24.5809H109.602V23.3575Z" fill="white"/>
<g opacity="0.6">
<path opacity="0.6" d="M176.274 54.4028C175.871 54.4032 175.474 54.3071 175.119 54.1232C174.763 53.9393 174.46 53.6732 174.236 53.3484C174.012 53.0236 173.874 52.6503 173.834 52.2614C173.794 51.8725 173.854 51.4801 174.008 51.119C174.162 50.7578 174.405 50.4391 174.717 50.191C175.028 49.9429 175.398 49.7732 175.793 49.6967C176.188 49.6203 176.597 49.6396 176.982 49.7529C177.368 49.8662 177.719 50.07 178.004 50.3463C178.347 50.6784 178.58 51.1015 178.675 51.5623C178.77 52.023 178.721 52.5006 178.536 52.9347C178.351 53.3689 178.037 53.7401 177.635 54.0014C177.232 54.2627 176.759 54.4024 176.274 54.4028ZM176.274 50.2948C175.861 50.2941 175.46 50.4325 175.14 50.6863C174.821 50.94 174.601 51.2935 174.52 51.6865C174.439 52.0794 174.501 52.4875 174.695 52.8412C174.889 53.1949 175.204 53.4723 175.586 53.6262C175.967 53.78 176.392 53.8008 176.788 53.685C177.183 53.5691 177.525 53.3238 177.755 52.9909C177.985 52.658 178.089 52.258 178.049 51.8591C178.009 51.4602 177.828 51.0871 177.536 50.8034C177.201 50.4785 176.748 50.2955 176.274 50.2948Z" fill="white"/>
<path opacity="0.6" d="M179.448 55.4266C179.404 55.4268 179.361 55.4187 179.32 55.4027C179.28 55.3867 179.243 55.3631 179.212 55.3332L177.536 53.7074C177.473 53.6468 177.438 53.5646 177.438 53.4788C177.438 53.3931 177.473 53.3109 177.536 53.2502C177.598 53.1896 177.683 53.1556 177.771 53.1556C177.86 53.1556 177.945 53.1896 178.007 53.2502L179.684 54.8793C179.746 54.9396 179.78 55.0212 179.78 55.1063C179.78 55.1913 179.746 55.2729 179.684 55.3332C179.653 55.3631 179.616 55.3867 179.575 55.4027C179.535 55.4187 179.492 55.4268 179.448 55.4266Z" fill="white"/>
</g>
<path d="M193.964 19.2398C193.632 20.8495 192.968 24.069 194.113 25.1475C194.113 25.1475 193.665 26.7573 190.597 26.7573C187.224 26.7573 188.987 25.1475 188.987 25.1475C190.826 24.7226 190.78 23.3994 190.458 22.1534L193.964 19.2398Z" fill="#E4897B"/>
<path d="M188.795 25.6723C188.34 25.7367 188.761 24.729 188.951 24.6228C189.386 24.3716 194.927 23.8662 194.864 24.4328C194.826 24.7684 194.674 25.0822 194.432 25.3246C194.176 25.4952 192.782 25.0509 188.795 25.6723Z" fill="#38768A"/>
<path opacity="0.6" d="M188.795 25.6723C188.34 25.7367 188.761 24.729 188.951 24.6228C189.386 24.3716 194.927 23.8662 194.864 24.4328C194.826 24.7684 194.674 25.0822 194.432 25.3246C194.176 25.4952 192.782 25.0509 188.795 25.6723Z" fill="white"/>
<path d="M200.152 28.8982C200.325 29.5421 200.514 30.2504 200.72 30.9265C200.926 31.6025 201.122 32.298 201.338 32.9805C201.553 33.663 201.772 34.352 202.002 35.0313L202.334 36.0551L202.42 36.3094L202.453 36.3995C202.458 36.4183 202.465 36.4366 202.473 36.4543C202.513 36.5466 202.565 36.6341 202.626 36.7151C202.994 37.1739 203.444 37.5654 203.954 37.8708C204.539 38.2452 205.151 38.5807 205.783 38.8753C207.1 39.4895 208.45 40.0344 209.827 40.5076L209.495 41.8372C207.954 41.6106 206.438 41.2463 204.966 40.749C204.205 40.4915 203.465 40.1794 202.752 39.8154C201.944 39.4124 201.221 38.8664 200.62 38.2057C200.446 38.0014 200.293 37.7802 200.166 37.5457C200.129 37.4845 200.099 37.4201 200.066 37.3525L199.996 37.1883L199.883 36.9308C199.734 36.5895 199.585 36.2482 199.445 35.9005C199.166 35.2083 198.887 34.5162 198.642 33.8111C198.396 33.106 198.15 32.401 197.928 31.6863L197.616 30.6045C197.513 30.2343 197.427 29.8866 197.337 29.4809L200.152 28.8982Z" fill="#E4897B"/>
<path d="M201.301 30.0379L198.509 32.1949L196.832 33.4827C196.832 33.4827 196.656 33.0288 196.444 32.3784C196.039 31.1228 195.511 29.1332 195.876 28.2189C196.45 26.7701 197.536 25.463 198.911 25.7528C200.066 26.0071 201.301 30.0379 201.301 30.0379Z" fill="#38768A"/>
<path opacity="0.2" d="M201.301 30.0379L198.509 32.1949L196.832 33.4827C196.832 33.4827 196.656 33.0288 196.444 32.3784C196.039 31.1228 195.511 29.1332 195.876 28.2189C196.45 26.7701 197.536 25.463 198.911 25.7528C200.066 26.0071 201.301 30.0379 201.301 30.0379Z" fill="white"/>
<path opacity="0.1" d="M198.509 32.1949L196.832 33.4827C196.832 33.4827 196.656 33.0288 196.444 32.3784L197.44 27.5975L198.509 32.1949Z" fill="black"/>
<path d="M184.286 25.8397C184.286 25.8397 182.958 26.2905 185.614 42.1141H196.902C196.712 37.6584 196.706 34.909 198.894 25.7592C197.312 25.4428 195.709 25.2383 194.096 25.1475C192.39 25.0283 190.677 25.0283 188.97 25.1475C186.782 25.3343 184.286 25.8397 184.286 25.8397Z" fill="#38768A"/>
<path opacity="0.2" d="M184.286 25.8397C184.286 25.8397 182.958 26.2905 185.614 42.1141H196.902C196.712 37.6584 196.706 34.909 198.894 25.7592C197.312 25.4428 195.709 25.2383 194.096 25.1475C192.39 25.0283 190.677 25.0283 188.97 25.1475C186.782 25.3343 184.286 25.8397 184.286 25.8397Z" fill="white"/>
<path d="M211.53 42.4908L210.667 44.1971L210.096 42.3974L211.357 40.7136L211.53 42.4908Z" fill="#E4897B"/>
<path d="M179.127 102.804L176.417 102.196L177.686 96.0691L180.395 96.6776L179.127 102.804Z" fill="#E4897B"/>
<path d="M197.443 102.824H194.661L194.88 96.5778H197.662L197.443 102.824Z" fill="#E4897B"/>
<path d="M177.685 96.0723L177.005 99.353L179.741 99.8359L180.398 96.6808L177.685 96.0723Z" fill="#CE6F64"/>
<path d="M197.662 96.5778H194.88L194.771 99.7973H197.553L197.662 96.5778Z" fill="#CE6F64"/>
<path d="M185.614 42.1141C185.614 42.1141 182.48 62.8796 181.378 71.0378C180.232 79.521 176.886 98.5416 176.886 98.5416L180.601 99.0922C180.601 99.0922 186.481 80.9505 188.117 72.6926C189.903 63.6942 193.884 42.1077 193.884 42.1077L185.614 42.1141Z" fill="#38768A"/>
<path opacity="0.7" d="M185.614 42.1141C185.614 42.1141 182.48 62.8796 181.378 71.0378C180.232 79.521 176.886 98.5416 176.886 98.5416L180.601 99.0922C180.601 99.0922 186.481 80.9505 188.117 72.6926C189.903 63.6942 193.884 42.1077 193.884 42.1077L185.614 42.1141Z" fill="black"/>
<path d="M188.595 42.1141C188.595 42.1141 190.212 60.6228 191.885 71.0539C193.237 79.4792 194.306 99.1759 194.306 99.1759H198.097C198.097 99.1759 199.903 80.1553 199.216 71.8104C197.48 50.7262 200.527 46.9916 196.908 42.1044L188.595 42.1141Z" fill="#38768A"/>
<path opacity="0.7" d="M188.595 42.1141C188.595 42.1141 190.212 60.6228 191.885 71.0539C193.237 79.4792 194.306 99.1759 194.306 99.1759H198.097C198.097 99.1759 199.903 80.1553 199.216 71.8104C197.48 50.7262 200.527 46.9916 196.908 42.1044L188.595 42.1141Z" fill="black"/>
<path d="M209.398 40.411L211.357 40.7136L210.112 42.3974C210.112 42.3974 208.193 41.7246 208.269 40.6074L209.398 40.411Z" fill="#E4897B"/>
<path d="M193.492 102.981C193.303 102.997 193.115 102.947 192.961 102.84C192.915 102.797 192.88 102.744 192.861 102.684C192.842 102.625 192.839 102.562 192.852 102.502C192.855 102.463 192.869 102.426 192.891 102.395C192.914 102.363 192.945 102.338 192.981 102.321C193.313 102.18 194.15 102.708 194.246 102.769C194.257 102.776 194.265 102.785 194.271 102.797C194.276 102.808 194.278 102.821 194.276 102.833C194.273 102.845 194.267 102.856 194.258 102.865C194.249 102.874 194.238 102.881 194.226 102.885C193.986 102.943 193.74 102.975 193.492 102.981ZM193.12 102.424C193.093 102.419 193.065 102.419 193.037 102.424C193.022 102.432 193.008 102.443 192.998 102.457C192.988 102.471 192.982 102.488 192.981 102.505C192.971 102.545 192.973 102.588 192.985 102.628C192.997 102.668 193.02 102.704 193.051 102.733C193.19 102.859 193.555 102.875 194.047 102.782C193.767 102.601 193.452 102.479 193.12 102.424Z" fill="#38768A"/>
<path d="M194.209 102.885C194.198 102.888 194.187 102.888 194.176 102.885C193.91 102.737 193.406 102.157 193.469 101.851C193.479 101.802 193.507 101.757 193.548 101.725C193.588 101.692 193.639 101.675 193.691 101.674C193.741 101.668 193.792 101.672 193.84 101.686C193.888 101.701 193.933 101.725 193.97 101.758C194.272 102.019 194.276 102.795 194.276 102.83C194.275 102.841 194.272 102.852 194.266 102.861C194.26 102.871 194.252 102.879 194.242 102.885C194.232 102.888 194.22 102.888 194.209 102.885ZM193.738 101.793H193.708C193.622 101.793 193.605 101.842 193.598 101.871C193.558 102.057 193.874 102.492 194.139 102.698C194.146 102.395 194.056 102.098 193.88 101.848C193.862 101.83 193.839 101.816 193.815 101.807C193.79 101.797 193.764 101.793 193.738 101.793Z" fill="#38768A"/>
<path d="M176.179 101.79C175.73 101.703 174.95 101.504 174.778 101.146C174.751 101.097 174.737 101.041 174.737 100.985C174.737 100.929 174.751 100.874 174.778 100.824C174.793 100.793 174.817 100.765 174.846 100.746C174.876 100.726 174.911 100.714 174.947 100.712C175.325 100.666 176.139 101.587 176.232 101.677C176.239 101.687 176.243 101.699 176.244 101.711C176.245 101.723 176.243 101.735 176.237 101.746C176.232 101.756 176.224 101.766 176.213 101.772C176.203 101.779 176.191 101.783 176.179 101.784V101.79ZM174.977 100.824H174.96C174.946 100.826 174.932 100.831 174.92 100.84C174.909 100.848 174.899 100.86 174.894 100.873C174.875 100.906 174.865 100.943 174.865 100.98C174.865 101.018 174.875 101.055 174.894 101.088C174.993 101.288 175.405 101.481 176.013 101.619C175.671 101.265 175.193 100.827 174.977 100.827V100.824Z" fill="#38768A"/>
<path d="M176.178 101.79C176.161 101.789 176.144 101.781 176.132 101.768C175.883 101.51 175.508 100.731 175.674 100.48C175.707 100.434 175.755 100.402 175.811 100.388C175.866 100.375 175.925 100.381 175.976 100.406C176.039 100.424 176.097 100.454 176.148 100.495C176.198 100.536 176.239 100.587 176.268 100.644C176.481 101.033 176.252 101.729 176.242 101.758C176.239 101.768 176.233 101.778 176.225 101.785C176.216 101.793 176.206 101.798 176.195 101.8L176.178 101.79ZM175.846 100.502C175.793 100.502 175.78 100.525 175.773 100.534C175.674 100.692 175.903 101.281 176.135 101.59C176.233 101.298 176.233 100.982 176.135 100.689C176.114 100.647 176.083 100.61 176.046 100.58C176.009 100.55 175.966 100.528 175.92 100.515C175.9 100.509 175.88 100.504 175.86 100.502H175.846Z" fill="#38768A"/>
<path d="M187.267 15.8079C187.246 15.8081 187.226 15.8036 187.207 15.7946C187.189 15.7857 187.173 15.7725 187.161 15.7563C187.067 15.6234 186.943 15.5139 186.798 15.4367C186.652 15.3594 186.49 15.3167 186.324 15.3121C186.305 15.315 186.286 15.3139 186.267 15.3089C186.249 15.3038 186.232 15.295 186.217 15.2829C186.202 15.2708 186.191 15.2558 186.183 15.2388C186.175 15.2219 186.17 15.2035 186.17 15.1849C186.17 15.1663 186.175 15.1479 186.183 15.1309C186.191 15.114 186.202 15.099 186.217 15.0869C186.232 15.0748 186.249 15.066 186.267 15.0609C186.286 15.0559 186.305 15.0548 186.324 15.0577C186.533 15.0619 186.737 15.1137 186.921 15.2087C187.105 15.3038 187.263 15.4396 187.383 15.605C187.394 15.6188 187.401 15.6343 187.405 15.6508C187.409 15.6673 187.41 15.6844 187.407 15.7012C187.404 15.718 187.398 15.734 187.389 15.7484C187.38 15.7629 187.368 15.7754 187.353 15.7853C187.328 15.8025 187.298 15.8105 187.267 15.8079Z" fill="#263238"/>
<path d="M186.54 17.3435C186.361 17.8479 186.111 18.3257 185.796 18.7633C185.914 18.8375 186.047 18.886 186.185 18.9055C186.324 18.9249 186.465 18.9149 186.6 18.876L186.54 17.3435Z" fill="#DE5753"/>
<path d="M186.716 16.9637C186.716 17.1826 186.613 17.3629 186.464 17.3661C186.314 17.3693 186.191 17.2019 186.185 16.983C186.178 16.7641 186.288 16.587 186.434 16.5805C186.58 16.5741 186.706 16.748 186.716 16.9637Z" fill="#263238"/>
<path d="M186.5 16.5902L185.956 16.4614C185.956 16.4614 186.248 16.8574 186.5 16.5902Z" fill="#263238"/>
<path d="M194.442 102.511H197.566C197.62 102.51 197.672 102.528 197.713 102.562C197.754 102.596 197.781 102.643 197.788 102.695L198.144 105.09C198.151 105.151 198.144 105.212 198.125 105.27C198.106 105.328 198.074 105.381 198.032 105.427C197.99 105.472 197.939 105.508 197.881 105.533C197.824 105.558 197.762 105.57 197.699 105.57C196.61 105.554 196.085 105.489 194.711 105.489C193.864 105.489 192.629 105.576 191.464 105.576C190.298 105.576 190.235 104.456 190.72 104.356C192.898 103.899 193.243 103.274 193.977 102.675C194.108 102.57 194.272 102.512 194.442 102.511Z" fill="#263238"/>
<path d="M176.471 101.504L179.356 102.666C179.406 102.685 179.447 102.721 179.471 102.767C179.496 102.813 179.502 102.867 179.488 102.917L178.871 105.264C178.853 105.322 178.823 105.377 178.783 105.423C178.742 105.47 178.691 105.507 178.635 105.533C178.578 105.559 178.516 105.574 178.453 105.575C178.39 105.576 178.328 105.565 178.27 105.541C177.274 105.119 176.809 104.868 175.541 104.356C174.761 104.034 173.111 103.471 172.032 103.036C170.953 102.601 171.341 101.545 171.829 101.632C174.02 102.025 175.063 101.764 175.976 101.484C176.138 101.434 176.313 101.441 176.471 101.504Z" fill="#263238"/>
<path d="M185.392 29.5196C184.74 31.1106 184 32.6668 183.177 34.1813C182.769 34.9411 182.337 35.6977 181.849 36.435C181.736 36.6217 181.603 36.8052 181.481 36.9887C181.358 37.1722 181.228 37.3589 181.085 37.5392C180.943 37.7195 180.823 37.9063 180.664 38.0865L180.438 38.357L180.325 38.4922L180.249 38.5759L180.159 38.6693C179.718 39.0966 179.18 39.4185 178.589 39.6093C178.101 39.7663 177.598 39.8742 177.088 39.9313C176.16 40.0376 175.224 40.0527 174.293 39.9764C172.515 39.8394 170.755 39.5309 169.041 39.0556L169.326 37.7163C170.149 37.7904 171.006 37.858 171.843 37.8902C172.679 37.9223 173.519 37.9449 174.339 37.9127C175.131 37.894 175.919 37.81 176.696 37.6616C177.038 37.5951 177.372 37.4947 177.692 37.3622C177.918 37.2757 178.12 37.1402 178.283 36.9662L178.579 36.567C178.692 36.4221 178.795 36.245 178.911 36.0905C179.123 35.7685 179.329 35.424 179.532 35.0796C179.933 34.3874 180.309 33.6598 180.68 32.9354C181.052 32.211 181.398 31.4609 181.746 30.714C182.095 29.9671 182.433 29.2073 182.742 28.4604L185.392 29.5196Z" fill="#E4897B"/>
<path d="M169.479 39.1779L166.64 38.7047L167.822 36.6925C167.822 36.6925 169.794 37.2044 170.246 38.2346L169.479 39.1779Z" fill="#E4897B"/>
<path d="M164.768 38.0511L165.508 36.8406L167.822 36.6861L166.64 38.7014L164.768 38.0511Z" fill="#E4897B"/>
<path d="M194.219 15.9302C194.159 18.6056 194.193 19.7388 192.858 21.1618C190.866 23.3028 187.473 22.646 186.709 20.0061C186.022 17.6301 186.238 13.654 188.887 12.4886C189.471 12.2292 190.113 12.1188 190.752 12.1677C191.392 12.2166 192.008 12.4233 192.543 12.7681C193.077 13.1129 193.511 13.5844 193.805 14.1378C194.098 14.6913 194.241 15.3083 194.219 15.9302Z" fill="#E4897B"/>
<path d="M197.539 15.8819C197.293 13.9502 196.321 12.0508 195.235 11.1171C192.619 8.86349 189.106 10.6664 187.373 12.0443C185.561 13.4866 186.809 15.7725 187.918 16.9186C187.936 17.3288 188 17.7358 188.11 18.1323C187.938 19.1883 187.211 20.2346 186.191 21.0781C189.641 22.044 194.691 22.1245 196.556 21.4516C198.967 20.5856 197.994 19.903 197.539 15.8819Z" fill="#263238"/>
<path d="M188.927 17.1697C188.88 17.6737 188.658 18.1472 188.297 18.5122C187.805 19.0048 187.301 18.7215 187.211 18.1387C187.135 17.614 187.297 16.7254 187.895 16.4453C188.492 16.1652 188.967 16.5741 188.927 17.1697Z" fill="#E4897B"/>
<path d="M176.338 98.5545L181.099 99.3401L181.64 97.5984L176.544 96.7516L176.338 98.5545Z" fill="#38768A"/>
<path d="M193.784 99.2467H198.615L198.867 97.6048L193.758 97.4373L193.784 99.2467Z" fill="#38768A"/>
<path d="M197.078 41.4734L197.586 42.4393C197.626 42.5165 197.533 42.5938 197.403 42.5938H185.544C185.445 42.5938 185.358 42.5455 185.352 42.4811L185.252 41.5153C185.252 41.4477 185.332 41.3897 185.445 41.3897H196.882C196.919 41.3842 196.958 41.3891 196.992 41.4039C197.027 41.4187 197.057 41.4429 197.078 41.4734Z" fill="#38768A"/>
<path opacity="0.6" d="M197.078 41.4734L197.586 42.4393C197.626 42.5165 197.533 42.5938 197.403 42.5938H185.544C185.445 42.5938 185.358 42.5455 185.352 42.4811L185.252 41.5153C185.252 41.4477 185.332 41.3897 185.445 41.3897H196.882C196.919 41.3842 196.958 41.3891 196.992 41.4039C197.027 41.4187 197.057 41.4429 197.078 41.4734Z" fill="white"/>
<path d="M195.54 42.7193H195.836C195.896 42.7193 195.942 42.6872 195.939 42.6517L195.793 41.364C195.793 41.3253 195.736 41.2963 195.676 41.2963H195.368C195.308 41.2963 195.261 41.3253 195.265 41.364L195.411 42.6517C195.427 42.6807 195.481 42.7193 195.54 42.7193Z" fill="#38768A"/>
<path d="M188.117 42.7193H188.422C188.482 42.7193 188.532 42.6872 188.525 42.6517L188.383 41.364C188.383 41.3253 188.326 41.2963 188.263 41.2963H187.958C187.898 41.2963 187.851 41.3253 187.855 41.364L187.997 42.6517C188.001 42.6807 188.054 42.7193 188.117 42.7193Z" fill="#38768A"/>
<path opacity="0.7" d="M195.54 42.7193H195.836C195.896 42.7193 195.942 42.6872 195.939 42.6517L195.793 41.364C195.793 41.3253 195.736 41.2963 195.676 41.2963H195.368C195.308 41.2963 195.261 41.3253 195.265 41.364L195.411 42.6517C195.427 42.6807 195.481 42.7193 195.54 42.7193Z" fill="black"/>
<path opacity="0.7" d="M188.117 42.7193H188.422C188.482 42.7193 188.532 42.6872 188.525 42.6517L188.383 41.364C188.383 41.3253 188.326 41.2963 188.263 41.2963H187.958C187.898 41.2963 187.851 41.3253 187.855 41.364L187.997 42.6517C188.001 42.6807 188.054 42.7193 188.117 42.7193Z" fill="black"/>
<path d="M184.286 25.8397C182.901 26.1617 181.202 29.8447 181.202 29.8447L184.492 33.9334C184.492 33.9334 187.891 29.2684 187.437 27.8454C186.965 26.3613 185.963 25.4437 184.286 25.8397Z" fill="#38768A"/>
<path opacity="0.2" d="M184.286 25.8397C182.901 26.1617 181.202 29.8447 181.202 29.8447L184.492 33.9334C184.492 33.9334 187.891 29.2684 187.437 27.8454C186.965 26.3613 185.963 25.4437 184.286 25.8397Z" fill="white"/>
<path d="M80.206 128.822V131H71.332V118.22H80.044V120.398H73.816V123.476H79.198V125.492H73.816V128.822H80.206ZM83.4565 121.568L85.4365 124.52L85.5805 124.844L85.7605 124.52L87.7225 121.568H90.2605L86.9845 126.266L90.3145 131H87.7765L85.7425 128.066L85.5805 127.76L85.4365 128.066L83.4205 131H80.8825L84.2125 126.32L80.9365 121.568H83.4565ZM97.123 131.18C96.391 131.18 95.743 131.018 95.179 130.694C94.627 130.358 94.195 129.908 93.883 129.344V134.834H91.471V121.568H93.577V123.188C93.937 122.636 94.393 122.204 94.945 121.892C95.497 121.568 96.127 121.406 96.835 121.406C97.471 121.406 98.053 121.532 98.581 121.784C99.121 122.036 99.589 122.39 99.985 122.846C100.381 123.29 100.687 123.806 100.903 124.394C101.131 124.97 101.245 125.594 101.245 126.266C101.245 127.178 101.065 128.006 100.705 128.75C100.357 129.494 99.871 130.088 99.247 130.532C98.635 130.964 97.927 131.18 97.123 131.18ZM96.313 129.128C96.685 129.128 97.021 129.05 97.321 128.894C97.621 128.738 97.879 128.528 98.095 128.264C98.323 127.988 98.491 127.682 98.599 127.346C98.719 126.998 98.779 126.638 98.779 126.266C98.779 125.87 98.713 125.504 98.581 125.168C98.461 124.832 98.281 124.538 98.041 124.286C97.801 124.022 97.519 123.818 97.195 123.674C96.883 123.53 96.541 123.458 96.169 123.458C95.941 123.458 95.707 123.5 95.467 123.584C95.239 123.656 95.017 123.764 94.801 123.908C94.585 124.052 94.393 124.22 94.225 124.412C94.069 124.604 93.955 124.814 93.883 125.042V127.256C94.027 127.604 94.219 127.922 94.459 128.21C94.711 128.498 94.999 128.726 95.323 128.894C95.647 129.05 95.977 129.128 96.313 129.128ZM102.861 117.86H105.273V127.976C105.273 128.408 105.345 128.702 105.489 128.858C105.633 129.002 105.831 129.074 106.083 129.074C106.275 129.074 106.473 129.05 106.677 129.002C106.881 128.954 107.061 128.894 107.217 128.822L107.541 130.658C107.217 130.814 106.839 130.934 106.407 131.018C105.975 131.102 105.585 131.144 105.237 131.144C104.481 131.144 103.893 130.946 103.473 130.55C103.065 130.142 102.861 129.566 102.861 128.822V117.86ZM112.948 131.18C112.18 131.18 111.49 131.054 110.878 130.802C110.266 130.538 109.744 130.178 109.312 129.722C108.892 129.266 108.568 128.744 108.34 128.156C108.112 127.568 107.998 126.95 107.998 126.302C107.998 125.642 108.112 125.018 108.34 124.43C108.568 123.842 108.892 123.32 109.312 122.864C109.744 122.408 110.266 122.054 110.878 121.802C111.49 121.538 112.18 121.406 112.948 121.406C113.716 121.406 114.4 121.538 115 121.802C115.612 122.054 116.134 122.408 116.566 122.864C116.998 123.32 117.322 123.842 117.538 124.43C117.766 125.018 117.88 125.642 117.88 126.302C117.88 126.95 117.766 127.568 117.538 128.156C117.322 128.744 116.998 129.266 116.566 129.722C116.146 130.178 115.63 130.538 115.018 130.802C114.406 131.054 113.716 131.18 112.948 131.18ZM110.482 126.302C110.482 126.854 110.59 127.346 110.806 127.778C111.022 128.198 111.316 128.528 111.688 128.768C112.06 129.008 112.48 129.128 112.948 129.128C113.404 129.128 113.818 129.008 114.19 128.768C114.562 128.516 114.856 128.18 115.072 127.76C115.3 127.328 115.414 126.836 115.414 126.284C115.414 125.744 115.3 125.258 115.072 124.826C114.856 124.394 114.562 124.058 114.19 123.818C113.818 123.578 113.404 123.458 112.948 123.458C112.48 123.458 112.06 123.584 111.688 123.836C111.316 124.076 111.022 124.412 110.806 124.844C110.59 125.264 110.482 125.75 110.482 126.302ZM125.124 123.656C124.392 123.656 123.738 123.8 123.162 124.088C122.586 124.364 122.172 124.766 121.92 125.294V131H119.508V121.568H121.722V123.584C122.058 122.936 122.484 122.426 123 122.054C123.516 121.682 124.062 121.478 124.638 121.442C124.77 121.442 124.872 121.442 124.944 121.442C125.016 121.442 125.076 121.448 125.124 121.46V123.656ZM130.72 131.18C129.964 131.18 129.28 131.054 128.668 130.802C128.056 130.538 127.534 130.184 127.102 129.74C126.67 129.284 126.334 128.768 126.094 128.192C125.866 127.604 125.752 126.986 125.752 126.338C125.752 125.438 125.95 124.616 126.346 123.872C126.754 123.128 127.33 122.534 128.074 122.09C128.83 121.634 129.718 121.406 130.738 121.406C131.77 121.406 132.652 121.634 133.384 122.09C134.116 122.534 134.674 123.128 135.058 123.872C135.454 124.604 135.652 125.396 135.652 126.248C135.652 126.392 135.646 126.542 135.634 126.698C135.622 126.842 135.61 126.962 135.598 127.058H128.308C128.356 127.538 128.494 127.958 128.722 128.318C128.962 128.678 129.262 128.954 129.622 129.146C129.994 129.326 130.39 129.416 130.81 129.416C131.29 129.416 131.74 129.302 132.16 129.074C132.592 128.834 132.886 128.522 133.042 128.138L135.112 128.714C134.884 129.194 134.554 129.62 134.122 129.992C133.702 130.364 133.204 130.658 132.628 130.874C132.052 131.078 131.416 131.18 130.72 131.18ZM128.254 125.528H133.186C133.138 125.048 133 124.634 132.772 124.286C132.556 123.926 132.268 123.65 131.908 123.458C131.548 123.254 131.146 123.152 130.702 123.152C130.27 123.152 129.874 123.254 129.514 123.458C129.166 123.65 128.878 123.926 128.65 124.286C128.434 124.634 128.302 125.048 128.254 125.528ZM141.68 131V118.22H144.164V131H141.68ZM155.362 131H152.95V125.708C152.95 124.952 152.818 124.4 152.554 124.052C152.29 123.704 151.924 123.53 151.456 123.53C151.132 123.53 150.802 123.614 150.466 123.782C150.142 123.95 149.848 124.184 149.584 124.484C149.32 124.772 149.128 125.108 149.008 125.492V131H146.596V121.568H148.774V123.314C149.014 122.906 149.32 122.564 149.692 122.288C150.064 122 150.49 121.784 150.97 121.64C151.462 121.484 151.978 121.406 152.518 121.406C153.106 121.406 153.586 121.514 153.958 121.73C154.342 121.934 154.63 122.216 154.822 122.576C155.026 122.924 155.164 123.32 155.236 123.764C155.32 124.208 155.362 124.658 155.362 125.114V131ZM157.983 131V123.908H156.741V122.072H157.983V121.496C157.983 120.716 158.109 120.044 158.361 119.48C158.625 118.904 158.991 118.46 159.459 118.148C159.939 117.836 160.497 117.68 161.133 117.68C161.517 117.68 161.901 117.728 162.285 117.824C162.681 117.92 163.071 118.058 163.455 118.238L162.969 120.056C162.789 119.96 162.579 119.882 162.339 119.822C162.099 119.75 161.871 119.714 161.655 119.714C161.247 119.714 160.935 119.858 160.719 120.146C160.503 120.434 160.395 120.854 160.395 121.406V122.072H162.699V123.908H160.395V131H157.983ZM168.302 131.18C167.534 131.18 166.844 131.054 166.232 130.802C165.62 130.538 165.098 130.178 164.666 129.722C164.246 129.266 163.922 128.744 163.694 128.156C163.466 127.568 163.352 126.95 163.352 126.302C163.352 125.642 163.466 125.018 163.694 124.43C163.922 123.842 164.246 123.32 164.666 122.864C165.098 122.408 165.62 122.054 166.232 121.802C166.844 121.538 167.534 121.406 168.302 121.406C169.07 121.406 169.754 121.538 170.354 121.802C170.966 122.054 171.488 122.408 171.92 122.864C172.352 123.32 172.676 123.842 172.892 124.43C173.12 125.018 173.234 125.642 173.234 126.302C173.234 126.95 173.12 127.568 172.892 128.156C172.676 128.744 172.352 129.266 171.92 129.722C171.5 130.178 170.984 130.538 170.372 130.802C169.76 131.054 169.07 131.18 168.302 131.18ZM165.836 126.302C165.836 126.854 165.944 127.346 166.16 127.778C166.376 128.198 166.67 128.528 167.042 128.768C167.414 129.008 167.834 129.128 168.302 129.128C168.758 129.128 169.172 129.008 169.544 128.768C169.916 128.516 170.21 128.18 170.426 127.76C170.654 127.328 170.768 126.836 170.768 126.284C170.768 125.744 170.654 125.258 170.426 124.826C170.21 124.394 169.916 124.058 169.544 123.818C169.172 123.578 168.758 123.458 168.302 123.458C167.834 123.458 167.414 123.584 167.042 123.836C166.67 124.076 166.376 124.412 166.16 124.844C165.944 125.264 165.836 125.75 165.836 126.302ZM180.478 123.656C179.746 123.656 179.092 123.8 178.516 124.088C177.94 124.364 177.526 124.766 177.274 125.294V131H174.862V121.568H177.076V123.584C177.412 122.936 177.838 122.426 178.354 122.054C178.87 121.682 179.416 121.478 179.992 121.442C180.124 121.442 180.226 121.442 180.298 121.442C180.37 121.442 180.43 121.448 180.478 121.46V123.656ZM196.475 131H194.063V125.708C194.063 124.964 193.931 124.418 193.667 124.07C193.415 123.71 193.061 123.53 192.605 123.53C192.137 123.53 191.687 123.716 191.255 124.088C190.835 124.448 190.535 124.922 190.355 125.51V131H187.943V125.708C187.943 124.952 187.811 124.4 187.547 124.052C187.295 123.704 186.941 123.53 186.485 123.53C186.017 123.53 185.567 123.71 185.135 124.07C184.715 124.43 184.415 124.904 184.235 125.492V131H181.823V121.568H184.001V123.314C184.361 122.702 184.841 122.234 185.441 121.91C186.041 121.574 186.731 121.406 187.511 121.406C188.291 121.406 188.897 121.598 189.329 121.982C189.773 122.366 190.055 122.84 190.175 123.404C190.559 122.756 191.045 122.264 191.633 121.928C192.233 121.58 192.905 121.406 193.649 121.406C194.237 121.406 194.711 121.514 195.071 121.73C195.443 121.934 195.731 122.216 195.935 122.576C196.139 122.924 196.277 123.32 196.349 123.764C196.433 124.208 196.475 124.658 196.475 125.114V131ZM197.927 128.21C197.927 127.598 198.095 127.064 198.431 126.608C198.779 126.14 199.259 125.78 199.871 125.528C200.483 125.276 201.185 125.15 201.977 125.15C202.373 125.15 202.775 125.18 203.183 125.24C203.591 125.3 203.945 125.396 204.245 125.528V125.024C204.245 124.424 204.065 123.962 203.705 123.638C203.357 123.314 202.835 123.152 202.139 123.152C201.623 123.152 201.131 123.242 200.663 123.422C200.195 123.602 199.703 123.866 199.187 124.214L198.413 122.63C199.037 122.222 199.673 121.916 200.321 121.712C200.981 121.508 201.671 121.406 202.391 121.406C203.735 121.406 204.779 121.742 205.523 122.414C206.279 123.086 206.657 124.046 206.657 125.294V128.3C206.657 128.552 206.699 128.732 206.783 128.84C206.879 128.948 207.029 129.014 207.233 129.038V131C207.017 131.036 206.819 131.066 206.639 131.09C206.471 131.114 206.327 131.126 206.207 131.126C205.727 131.126 205.361 131.018 205.109 130.802C204.869 130.586 204.719 130.322 204.659 130.01L204.605 129.524C204.197 130.052 203.687 130.46 203.075 130.748C202.463 131.036 201.839 131.18 201.203 131.18C200.579 131.18 200.015 131.054 199.511 130.802C199.019 130.538 198.629 130.184 198.341 129.74C198.065 129.284 197.927 128.774 197.927 128.21ZM203.795 128.696C203.927 128.552 204.035 128.408 204.119 128.264C204.203 128.12 204.245 127.988 204.245 127.868V126.914C203.957 126.794 203.645 126.704 203.309 126.644C202.973 126.572 202.655 126.536 202.355 126.536C201.731 126.536 201.215 126.674 200.807 126.95C200.411 127.214 200.213 127.568 200.213 128.012C200.213 128.252 200.279 128.48 200.411 128.696C200.543 128.912 200.735 129.086 200.987 129.218C201.239 129.35 201.539 129.416 201.887 129.416C202.247 129.416 202.601 129.35 202.949 129.218C203.297 129.074 203.579 128.9 203.795 128.696ZM214.475 130.514C214.271 130.598 214.025 130.694 213.737 130.802C213.449 130.91 213.137 130.994 212.801 131.054C212.477 131.126 212.147 131.162 211.811 131.162C211.367 131.162 210.959 131.084 210.587 130.928C210.215 130.772 209.915 130.526 209.687 130.19C209.471 129.842 209.363 129.392 209.363 128.84V123.422H208.121V121.568H209.363V118.508H211.775V121.568H213.755V123.422H211.775V128.03C211.787 128.354 211.877 128.588 212.045 128.732C212.213 128.876 212.423 128.948 212.675 128.948C212.927 128.948 213.173 128.906 213.413 128.822C213.653 128.738 213.845 128.666 213.989 128.606L214.475 130.514ZM215.731 131V121.568H218.143V131H215.731ZM215.731 120.254V117.86H218.143V120.254H215.731ZM224.675 131.18C223.907 131.18 223.217 131.054 222.605 130.802C221.993 130.538 221.471 130.178 221.039 129.722C220.619 129.266 220.295 128.744 220.067 128.156C219.839 127.568 219.725 126.95 219.725 126.302C219.725 125.642 219.839 125.018 220.067 124.43C220.295 123.842 220.619 123.32 221.039 122.864C221.471 122.408 221.993 122.054 222.605 121.802C223.217 121.538 223.907 121.406 224.675 121.406C225.443 121.406 226.127 121.538 226.727 121.802C227.339 122.054 227.861 122.408 228.293 122.864C228.725 123.32 229.049 123.842 229.265 124.43C229.493 125.018 229.607 125.642 229.607 126.302C229.607 126.95 229.493 127.568 229.265 128.156C229.049 128.744 228.725 129.266 228.293 129.722C227.873 130.178 227.357 130.538 226.745 130.802C226.133 131.054 225.443 131.18 224.675 131.18ZM222.209 126.302C222.209 126.854 222.317 127.346 222.533 127.778C222.749 128.198 223.043 128.528 223.415 128.768C223.787 129.008 224.207 129.128 224.675 129.128C225.131 129.128 225.545 129.008 225.917 128.768C226.289 128.516 226.583 128.18 226.799 127.76C227.027 127.328 227.141 126.836 227.141 126.284C227.141 125.744 227.027 125.258 226.799 124.826C226.583 124.394 226.289 124.058 225.917 123.818C225.545 123.578 225.131 123.458 224.675 123.458C224.207 123.458 223.787 123.584 223.415 123.836C223.043 124.076 222.749 124.412 222.533 124.844C222.317 125.264 222.209 125.75 222.209 126.302ZM240.001 131H237.589V125.708C237.589 124.952 237.457 124.4 237.193 124.052C236.929 123.704 236.563 123.53 236.095 123.53C235.771 123.53 235.441 123.614 235.105 123.782C234.781 123.95 234.487 124.184 234.223 124.484C233.959 124.772 233.767 125.108 233.647 125.492V131H231.235V121.568H233.413V123.314C233.653 122.906 233.959 122.564 234.331 122.288C234.703 122 235.129 121.784 235.609 121.64C236.101 121.484 236.617 121.406 237.157 121.406C237.745 121.406 238.225 121.514 238.597 121.73C238.981 121.934 239.269 122.216 239.461 122.576C239.665 122.924 239.803 123.32 239.875 123.764C239.959 124.208 240.001 124.658 240.001 125.114V131Z" fill="#37474F"/>
</g>
<defs>
<filter id="filter0_d_11_258" x="2.37305" y="-11" width="305.254" height="202" filterUnits="userSpaceOnUse" color-interpolation-filters="sRGB">
<feFlood flood-opacity="0" result="BackgroundImageFix"/>
<feColorMatrix in="SourceAlpha" type="matrix" values="0 0 0 0 0 0 0 0 0 0 0 0 0 0 0 0 0 0 127 0" result="hardAlpha"/>
<feMorphology radius="1" operator="dilate" in="SourceAlpha" result="effect1_dropShadow_11_258"/>
<feOffset dy="10"/>
<feGaussianBlur stdDeviation="10"/>
<feComposite in2="hardAlpha" operator="out"/>
<feColorMatrix type="matrix" values="0 0 0 0 0.215686 0 0 0 0 0.278431 0 0 0 0 0.309804 0 0 0 0.25 0"/>
<feBlend mode="normal" in2="BackgroundImageFix" result="effect1_dropShadow_11_258"/>
<feBlend mode="normal" in="SourceGraphic" in2="effect1_dropShadow_11_258" result="shape"/>
</filter>
<clipPath id="clip0_11_258">
<rect width="310" height="160" fill="white"/>
</clipPath>
</defs>
</svg>
