<svg width="310" height="160" viewBox="0 0 310 160" fill="none" xmlns="http://www.w3.org/2000/svg">
<g clip-path="url(#clip0_426_838)">
<g filter="url(#filter0_d_426_838)">
<rect x="23.373" width="263.254" height="160" rx="24" fill="#F7F8F9"/>
</g>
<rect width="310" height="160" rx="24" fill="#F7F8F9"/>
<path d="M238 94.6815H72V94.7627H238V94.6815Z" fill="#E6E6E6"/>
<path d="M97.1988 97.7722H93.6763V97.8534H97.1988V97.7722Z" fill="#E6E6E6"/>
<path d="M113.962 97.7336H99.6357V97.8148H113.962V97.7336Z" fill="#E6E6E6"/>
<path d="M120.581 99.5977H109.244V99.6789H120.581V99.5977Z" fill="#E6E6E6"/>
<path d="M148.4 97.1025H123.131V97.1837H148.4V97.1025Z" fill="#E6E6E6"/>
<path d="M205.886 98.4612H187.978V98.5424H205.886V98.4612Z" fill="#E6E6E6"/>
<path d="M186.135 98.4612H183.605V98.5424H186.135V98.4612Z" fill="#E6E6E6"/>
<path d="M214.667 97.0607H197.107V97.1419H214.667V97.0607Z" fill="#E6E6E6"/>
<path d="M150.684 80.3227H86.5779C86.0757 80.3218 85.5944 80.1278 85.2396 79.7831C84.8848 79.4385 84.6855 78.9714 84.6855 78.4844V-8.90154C84.6899 -9.38574 84.8911 -9.84871 85.2454 -10.1899C85.5998 -10.5311 86.0786 -10.7229 86.5779 -10.7238H150.684C151.187 -10.7238 151.669 -10.5301 152.024 -10.1853C152.38 -9.84057 152.58 -9.37299 152.58 -8.88544V78.4844C152.58 78.9719 152.38 79.4395 152.024 79.7843C151.669 80.129 151.187 80.3227 150.684 80.3227ZM86.5779 -10.6594C86.0978 -10.6585 85.6375 -10.4729 85.2983 -10.1434C84.9591 -9.81381 84.7685 -9.36719 84.7685 -8.90154V78.4844C84.7685 78.95 84.9591 79.3966 85.2983 79.7262C85.6375 80.0558 86.0978 80.2413 86.5779 80.2422H150.684C151.164 80.2413 151.625 80.0559 151.965 79.7264C152.304 79.3969 152.496 78.9503 152.497 78.4844V-8.90154C152.496 -9.36748 152.304 -9.8141 151.965 -10.1436C151.625 -10.473 151.164 -10.6585 150.684 -10.6594H86.5779Z" fill="#E6E6E6"/>
<path d="M222.499 80.3227H158.39C157.887 80.3218 157.406 80.1279 157.05 79.7833C156.695 79.4388 156.495 78.9717 156.494 78.4844V-8.90154C156.499 -9.38603 156.701 -9.849 157.056 -10.1901C157.411 -10.5312 157.89 -10.7229 158.39 -10.7238H222.499C222.998 -10.7221 223.476 -10.5299 223.829 -10.1888C224.183 -9.84767 224.384 -9.38518 224.388 -8.90154V78.4844C224.388 78.9708 224.189 79.4374 223.835 79.782C223.481 80.1265 223.001 80.321 222.499 80.3227ZM158.39 -10.6594C157.909 -10.6585 157.449 -10.473 157.109 -10.1436C156.769 -9.8141 156.578 -9.36748 156.577 -8.90154V78.4844C156.578 78.9503 156.769 79.3969 157.109 79.7264C157.449 80.0559 157.909 80.2413 158.39 80.2422H222.499C222.98 80.2413 223.44 80.0559 223.78 79.7264C224.12 79.3969 224.311 78.9503 224.312 78.4844V-8.90154C224.311 -9.36748 224.12 -9.8141 223.78 -10.1436C223.44 -10.473 222.98 -10.6585 222.499 -10.6594H158.39Z" fill="#E6E6E6"/>
<path d="M174.568 94.6815H139.217C140.733 89.1317 141.194 83.3606 140.578 77.6505C139.804 70.2618 137.278 62.841 133.001 55.7163H168.35C172.626 62.8345 175.152 70.2618 175.929 77.6505C176.545 83.3606 176.084 89.1317 174.568 94.6815Z" fill="#E0E0E0"/>
<path d="M173.794 94.6815H138.443C139.959 89.1317 140.42 83.3606 139.804 77.6505C139.031 70.2618 136.504 62.841 132.228 55.7163H167.576C171.852 62.8345 174.379 70.2618 175.156 77.6505C175.772 83.3606 175.31 89.1317 173.794 94.6815Z" fill="#F5F5F5"/>
<path d="M175.156 77.6505H139.804C139.031 70.2618 136.504 62.841 132.228 55.7163H167.576C171.852 62.8345 174.379 70.2618 175.156 77.6505Z" fill="#E0E0E0"/>
<path d="M208.94 2.53082H99.8249C97.9546 2.53082 96.4385 4.00106 96.4385 5.81468V71.0346C96.4385 72.8482 97.9546 74.3184 99.8249 74.3184H208.94C210.81 74.3184 212.326 72.8482 212.326 71.0346V5.81468C212.326 4.00106 210.81 2.53082 208.94 2.53082Z" fill="#E0E0E0"/>
<path d="M208.336 2.53082H99.2209C97.3506 2.53082 95.8345 4.00106 95.8345 5.81468V71.0346C95.8345 72.8482 97.3506 74.3184 99.2209 74.3184H208.336C210.206 74.3184 211.722 72.8482 211.722 71.0346V5.81468C211.722 4.00106 210.206 2.53082 208.336 2.53082Z" fill="#EBEBEB"/>
<path d="M211.722 6.30402H95.8345V63.1082H211.722V6.30402Z" fill="white"/>
<path d="M169.704 91.9772H129.353C128.612 91.9772 127.901 92.2628 127.376 92.7711C126.852 93.2795 126.558 93.969 126.558 94.688H172.5C172.5 93.969 172.205 93.2795 171.681 92.7711C171.157 92.2628 170.446 91.9772 169.704 91.9772Z" fill="#F5F5F5"/>
<path d="M179.319 91.9772H172.095C171.353 91.9772 170.642 92.2628 170.118 92.7711C169.594 93.2795 169.299 93.969 169.299 94.688H182.115C182.115 93.969 181.82 93.2795 181.296 92.7711C180.771 92.2628 180.06 91.9772 179.319 91.9772Z" fill="#E0E0E0"/>
<path d="M136.833 47.6548L205.149 47.6548C205.946 47.6548 206.593 47.0278 206.593 46.2543V-3.5862C206.593 -4.35965 205.946 -4.98667 205.149 -4.98667L136.833 -4.98667C136.035 -4.98667 135.389 -4.35965 135.389 -3.5862V46.2543C135.389 47.0278 136.035 47.6548 136.833 47.6548Z" fill="#E0E0E0"/>
<path d="M136.451 47.6548L204.767 47.6548C205.564 47.6548 206.211 47.0278 206.211 46.2543V-3.5862C206.211 -4.35965 205.564 -4.98667 204.767 -4.98667L136.451 -4.98667C135.653 -4.98667 135.007 -4.35965 135.007 -3.5862V46.2543C135.007 47.0278 135.653 47.6548 136.451 47.6548Z" fill="#EBEBEB"/>
<path d="M206.211 -1.36475V46.2608C206.21 46.632 206.058 46.9877 205.787 47.2501C205.516 47.5126 205.149 47.6604 204.767 47.6613H136.451C136.068 47.6604 135.701 47.5126 135.431 47.2501C135.16 46.9877 135.008 46.632 135.007 46.2608V-1.36475H206.211Z" fill="#F0F0F0"/>
<path d="M205.945 0.496094H135.276V45.7907H205.945V0.496094Z" fill="white"/>
<path d="M129.934 54.3416L198.25 54.3416C199.047 54.3416 199.694 53.7146 199.694 52.9411V3.10063C199.694 2.32717 199.047 1.70017 198.25 1.70017L129.934 1.70017C129.136 1.70017 128.49 2.32717 128.49 3.10063V52.9411C128.49 53.7146 129.136 54.3416 129.934 54.3416Z" fill="#E0E0E0"/>
<path d="M129.552 54.3416L197.868 54.3416C198.665 54.3416 199.312 53.7146 199.312 52.9411V3.10063C199.312 2.32717 198.665 1.70017 197.868 1.70017L129.552 1.70017C128.755 1.70017 128.108 2.32717 128.108 3.10063V52.9411C128.108 53.7146 128.755 54.3416 129.552 54.3416Z" fill="#EBEBEB"/>
<path d="M199.312 5.32532V52.9412C199.311 53.3129 199.158 53.6691 198.887 53.9317C198.615 54.1942 198.248 54.3417 197.864 54.3417H129.552C129.169 54.3408 128.803 54.193 128.532 53.9305C128.261 53.6681 128.109 53.3124 128.108 52.9412V5.32532H199.312Z" fill="#F0F0F0"/>
<path d="M199.043 7.18616H128.374V52.4808H199.043V7.18616Z" fill="white"/>
<path d="M196.141 4.26608C196.565 4.26608 196.908 3.93311 196.908 3.52238C196.908 3.11165 196.565 2.77869 196.141 2.77869C195.718 2.77869 195.375 3.11165 195.375 3.52238C195.375 3.93311 195.718 4.26608 196.141 4.26608Z" fill="white"/>
<path d="M192.649 3.52238C192.648 3.67024 192.693 3.81497 192.777 3.93822C192.861 4.06147 192.981 4.15771 193.122 4.21473C193.263 4.27176 193.418 4.28701 193.567 4.25856C193.717 4.2301 193.855 4.15922 193.963 4.05489C194.071 3.95056 194.144 3.81748 194.174 3.67251C194.204 3.52753 194.189 3.37719 194.131 3.24052C194.073 3.10385 193.974 2.98701 193.847 2.90479C193.721 2.82258 193.572 2.77869 193.419 2.77869C193.215 2.77868 193.02 2.85693 192.876 2.99631C192.731 3.13569 192.65 3.32485 192.649 3.52238Z" fill="white"/>
<path d="M190.697 4.26608C191.12 4.26608 191.464 3.93311 191.464 3.52238C191.464 3.11165 191.12 2.77869 190.697 2.77869C190.273 2.77869 189.93 3.11165 189.93 3.52238C189.93 3.93311 190.273 4.26608 190.697 4.26608Z" fill="white"/>
<path d="M128.108 5.41547L199.312 5.41547V5.22874L128.108 5.22874V5.41547Z" fill="#E0E0E0"/>
<path d="M186.909 28.9787C184.329 28.9787 183.081 26.4289 181.869 23.966C180.697 21.5771 179.591 19.3203 177.43 19.3203C175.269 19.3203 174.163 21.5739 172.991 23.966C171.783 26.4289 170.531 28.9787 167.951 28.9787C165.372 28.9787 164.123 26.4289 162.915 23.966C161.743 21.5771 160.634 19.3203 158.476 19.3203C156.318 19.3203 155.209 21.5739 154.037 23.966C152.829 26.4289 151.577 28.9787 149.001 28.9787C146.424 28.9787 145.17 26.4289 143.961 23.966C142.789 21.5771 141.684 19.3203 139.522 19.3203C137.361 19.3203 136.255 21.5739 135.083 23.966C133.875 26.4289 132.627 28.9787 130.047 28.9787C127.467 28.9787 126.219 26.4289 125.007 23.966C123.839 21.5771 122.73 19.3203 120.572 19.3203C118.414 19.3203 117.305 21.5739 116.133 23.966C114.924 26.4289 113.676 28.9787 111.096 28.9787C108.517 28.9787 107.268 26.4289 106.06 23.966C104.888 21.5771 103.779 19.3203 101.621 19.3203V18.6764C104.201 18.6764 105.449 21.2262 106.658 23.6891C107.829 26.0779 108.938 28.3348 111.096 28.3348C113.254 28.3348 114.363 26.0812 115.535 23.6891C116.744 21.2262 117.992 18.6764 120.572 18.6764C123.151 18.6764 124.4 21.2262 125.608 23.6891C126.78 26.0779 127.886 28.3348 130.047 28.3348C132.208 28.3348 133.314 26.0812 134.486 23.6891C135.694 21.2262 136.943 18.6764 139.522 18.6764C142.102 18.6764 143.35 21.2262 144.562 23.6891C145.734 26.0779 146.839 28.3348 149.001 28.3348C151.162 28.3348 152.264 26.0812 153.436 23.6891C154.648 21.2262 155.896 18.6764 158.476 18.6764C161.056 18.6764 162.304 21.2262 163.516 23.6891C164.688 26.0779 165.793 28.3348 167.951 28.3348C170.109 28.3348 171.222 26.0812 172.394 23.6891C173.602 21.2262 174.85 18.6764 177.43 18.6764C180.01 18.6764 181.261 21.2262 182.47 23.6891C183.642 26.0779 184.751 28.3348 186.909 28.3348V28.9787Z" fill="#FAFAFA"/>
<path d="M186.909 43.7914C184.329 43.7914 183.081 41.2448 181.869 38.7787C180.697 36.3899 179.591 34.133 177.43 34.133C175.269 34.133 174.163 36.3867 172.991 38.7787C171.783 41.2448 170.531 43.7914 167.951 43.7914C165.372 43.7914 164.123 41.2448 162.915 38.7787C161.743 36.3899 160.634 34.133 158.476 34.133C156.318 34.133 155.209 36.3867 154.037 38.7787C152.829 41.2448 151.577 43.7914 149.001 43.7914C146.424 43.7914 145.17 41.2448 143.961 38.7787C142.789 36.3899 141.684 34.133 139.522 34.133C137.361 34.133 136.255 36.3867 135.083 38.7787C133.875 41.2448 132.627 43.7914 130.047 43.7914C127.467 43.7914 126.219 41.2448 125.007 38.7787C123.839 36.3899 122.73 34.133 120.572 34.133C118.414 34.133 117.305 36.3867 116.133 38.7787C114.924 41.2448 113.676 43.7914 111.096 43.7914C108.517 43.7914 107.268 41.2448 106.06 38.7787C104.888 36.3899 103.779 34.133 101.621 34.133V33.4891C104.201 33.4891 105.449 36.0389 106.658 38.5018C107.829 40.8907 108.938 43.1475 111.096 43.1475C113.254 43.1475 114.363 40.8939 115.535 38.5018C116.744 36.0389 117.992 33.4891 120.572 33.4891C123.151 33.4891 124.4 36.0389 125.608 38.5018C126.78 40.8907 127.886 43.1475 130.047 43.1475C132.208 43.1475 133.314 40.8939 134.486 38.5018C135.694 36.0389 136.943 33.4891 139.522 33.4891C142.102 33.4891 143.35 36.0389 144.562 38.5018C145.734 40.8907 146.839 43.1475 149.001 43.1475C151.162 43.1475 152.264 40.8939 153.436 38.5018C154.648 36.0389 155.896 33.4891 158.476 33.4891C161.056 33.4891 162.304 36.0389 163.516 38.5018C164.688 40.8907 165.793 43.1475 167.951 43.1475C170.109 43.1475 171.222 40.8939 172.394 38.5018C173.602 36.0389 174.85 33.4891 177.43 33.4891C180.01 33.4891 181.261 36.0389 182.47 38.5018C183.642 40.8907 184.751 43.1475 186.909 43.1475V43.7914Z" fill="#FAFAFA"/>
<path d="M155 109.221C190.551 109.221 219.371 107.589 219.371 105.576C219.371 103.563 190.551 101.932 155 101.932C119.449 101.932 90.6284 103.563 90.6284 105.576C90.6284 107.589 119.449 109.221 155 109.221Z" fill="#F5F5F5"/>
<path d="M175.916 6.96399H158.22C157.597 6.96412 156.988 7.14632 156.473 7.48684C155.957 7.82736 155.56 8.31043 155.332 8.87313L153.755 12.7365H180.385L178.808 8.87313C178.579 8.30992 178.181 7.82649 177.665 7.48593C177.15 7.14537 176.54 6.96348 175.916 6.96399Z" fill="#38768A"/>
<path opacity="0.4" d="M175.916 6.96399H158.22C157.597 6.96412 156.988 7.14632 156.473 7.48684C155.957 7.82736 155.56 8.31043 155.332 8.87313L153.755 12.7365H180.385L178.808 8.87313C178.579 8.30992 178.181 7.82649 177.665 7.48593C177.15 7.14537 176.54 6.96348 175.916 6.96399Z" fill="white"/>
<path d="M125.678 6.96399H107.982C107.358 6.96392 106.748 7.14598 106.233 7.48649C105.717 7.827 105.319 8.31017 105.09 8.87313L103.513 12.7365H130.146L128.569 8.87313C128.341 8.31017 127.942 7.827 127.427 7.48649C126.911 7.14598 126.301 6.96392 125.678 6.96399Z" fill="#38768A"/>
<path opacity="0.2" d="M125.678 6.96399H107.982C107.358 6.96392 106.748 7.14598 106.233 7.48649C105.717 7.827 105.319 8.31017 105.09 8.87313L103.513 12.7365H130.146L128.569 8.87313C128.341 8.31017 127.942 7.827 127.427 7.48649C126.911 7.14598 126.301 6.96392 125.678 6.96399Z" fill="black"/>
<path d="M207.034 12.3115H155.093L153.692 8.87313C153.463 8.31043 153.065 7.8275 152.549 7.48705C152.033 7.1466 151.424 6.96436 150.8 6.96399H133.105C132.48 6.96348 131.871 7.14537 131.355 7.48593C130.839 7.82649 130.441 8.30992 130.213 8.87313L128.812 12.3115H102.966C102.004 12.3166 101.083 12.6893 100.403 13.3487C99.7231 14.0081 99.3387 14.9011 99.3335 15.8336V83.0303C99.3387 83.9628 99.7231 84.8557 100.403 85.5152C101.083 86.1746 102.004 86.5473 102.966 86.5524H207.034C207.996 86.5473 208.917 86.1746 209.597 85.5152C210.277 84.8557 210.661 83.9628 210.666 83.0303V15.8336C210.661 14.9011 210.277 14.0081 209.597 13.3487C208.917 12.6893 207.996 12.3166 207.034 12.3115Z" fill="#38768A"/>
<path d="M208.342 83.0979V22.4625C208.342 21.7993 207.788 21.2617 207.104 21.2617L102.899 21.2617C102.215 21.2617 101.661 21.7993 101.661 22.4625V83.0979C101.661 83.7611 102.215 84.2987 102.899 84.2987H207.104C207.788 84.2987 208.342 83.7611 208.342 83.0979Z" fill="white"/>
<path d="M156.149 37.9321H138.33V43.0542H156.149V37.9321Z" fill="#38768A"/>
<path d="M171.67 37.9321H159.163V43.0542H171.67V37.9321Z" fill="#38768A"/>
<path d="M98.5034 34.2586H98.1714V40.4947H98.5034V34.2586Z" fill="#38768A"/>
<path d="M98.5034 42.861H98.1714V45.1501H98.5034V42.861Z" fill="#38768A"/>
<path d="M116.833 23.3575H111.172V24.5809H116.833V23.3575Z" fill="#38768A"/>
<path d="M109.602 23.3575H103.941V24.5809H109.602V23.3575Z" fill="#38768A"/>
<path d="M182.39 57.4258H127.61V47.6516H182.39V57.4258ZM127.942 57.1039H182.058V47.9735H127.942V57.1039Z" fill="#38768A"/>
<path d="M129.824 50.0952H129.492V54.9855H129.824V50.0952Z" fill="#38768A"/>
<path d="M169.203 60.5391H140.797V61.7625H169.203V60.5391Z" fill="#38768A"/>
<path d="M176.274 54.4028C175.871 54.4032 175.474 54.3071 175.119 54.1232C174.763 53.9393 174.46 53.6732 174.236 53.3484C174.012 53.0236 173.874 52.6503 173.834 52.2614C173.794 51.8725 173.854 51.4801 174.008 51.119C174.162 50.7578 174.405 50.4391 174.717 50.191C175.028 49.9429 175.398 49.7732 175.793 49.6967C176.188 49.6203 176.597 49.6396 176.982 49.7529C177.368 49.8662 177.719 50.07 178.004 50.3463C178.347 50.6784 178.58 51.1015 178.675 51.5623C178.77 52.023 178.721 52.5006 178.536 52.9347C178.351 53.3689 178.037 53.7401 177.635 54.0014C177.232 54.2627 176.759 54.4024 176.274 54.4028ZM176.274 50.2948C175.861 50.2941 175.46 50.4325 175.14 50.6863C174.821 50.94 174.601 51.2935 174.52 51.6865C174.439 52.0794 174.501 52.4875 174.695 52.8412C174.889 53.1949 175.204 53.4723 175.586 53.6262C175.967 53.78 176.392 53.8008 176.788 53.685C177.183 53.5691 177.525 53.3238 177.755 52.9909C177.985 52.658 178.089 52.258 178.049 51.8591C178.009 51.4602 177.828 51.0871 177.536 50.8034C177.201 50.4785 176.748 50.2955 176.274 50.2948Z" fill="#38768A"/>
<path d="M179.448 55.4266C179.405 55.4269 179.361 55.4187 179.321 55.4027C179.281 55.3867 179.244 55.3631 179.213 55.3333L177.536 53.7074C177.474 53.6468 177.438 53.5646 177.438 53.4788C177.438 53.3931 177.474 53.3109 177.536 53.2503C177.599 53.1896 177.683 53.1556 177.772 53.1556C177.86 53.1556 177.945 53.1896 178.008 53.2503L179.684 54.8793C179.746 54.9396 179.781 55.0212 179.781 55.1063C179.781 55.1913 179.746 55.2729 179.684 55.3333C179.653 55.3631 179.616 55.3867 179.576 55.4027C179.535 55.4187 179.492 55.4269 179.448 55.4266Z" fill="#38768A"/>
<path opacity="0.6" d="M182.39 57.4258H127.61V47.6516H182.39V57.4258ZM127.942 57.1039H182.058V47.9735H127.942V57.1039Z" fill="white"/>
<path opacity="0.6" d="M129.824 50.0952H129.492V54.9855H129.824V50.0952Z" fill="white"/>
<path opacity="0.6" d="M169.203 60.5391H140.797V61.7625H169.203V60.5391Z" fill="white"/>
<path opacity="0.6" d="M116.833 23.3575H111.172V24.5809H116.833V23.3575Z" fill="white"/>
<path opacity="0.6" d="M109.602 23.3575H103.941V24.5809H109.602V23.3575Z" fill="white"/>
<g opacity="0.6">
<path opacity="0.6" d="M176.274 54.4028C175.871 54.4032 175.474 54.3071 175.119 54.1232C174.763 53.9393 174.46 53.6732 174.236 53.3484C174.012 53.0236 173.874 52.6503 173.834 52.2614C173.794 51.8725 173.854 51.4801 174.008 51.119C174.162 50.7578 174.405 50.4391 174.717 50.191C175.028 49.9429 175.398 49.7732 175.793 49.6967C176.188 49.6203 176.597 49.6396 176.982 49.7529C177.368 49.8662 177.719 50.07 178.004 50.3463C178.347 50.6784 178.58 51.1015 178.675 51.5623C178.77 52.023 178.721 52.5006 178.536 52.9347C178.351 53.3689 178.037 53.7401 177.635 54.0014C177.232 54.2627 176.759 54.4024 176.274 54.4028ZM176.274 50.2948C175.861 50.2941 175.46 50.4325 175.14 50.6863C174.821 50.94 174.601 51.2935 174.52 51.6865C174.439 52.0794 174.501 52.4875 174.695 52.8412C174.889 53.1949 175.204 53.4723 175.586 53.6262C175.967 53.78 176.392 53.8008 176.788 53.685C177.183 53.5691 177.525 53.3238 177.755 52.9909C177.985 52.658 178.089 52.258 178.049 51.8591C178.009 51.4602 177.828 51.0871 177.536 50.8034C177.201 50.4785 176.748 50.2955 176.274 50.2948Z" fill="white"/>
<path opacity="0.6" d="M179.448 55.4266C179.404 55.4269 179.361 55.4187 179.32 55.4027C179.28 55.3867 179.243 55.3631 179.212 55.3333L177.536 53.7074C177.473 53.6468 177.438 53.5646 177.438 53.4788C177.438 53.3931 177.473 53.3109 177.536 53.2503C177.598 53.1896 177.683 53.1556 177.771 53.1556C177.86 53.1556 177.945 53.1896 178.007 53.2503L179.684 54.8793C179.746 54.9396 179.78 55.0212 179.78 55.1063C179.78 55.1913 179.746 55.2729 179.684 55.3333C179.653 55.3631 179.616 55.3867 179.575 55.4027C179.535 55.4187 179.492 55.4269 179.448 55.4266Z" fill="white"/>
</g>
<path d="M193.964 19.2398C193.632 20.8495 192.968 24.069 194.113 25.1475C194.113 25.1475 193.665 26.7573 190.597 26.7573C187.224 26.7573 188.987 25.1475 188.987 25.1475C190.826 24.7226 190.78 23.3994 190.458 22.1534L193.964 19.2398Z" fill="#E4897B"/>
<path d="M188.795 25.6723C188.34 25.7367 188.761 24.729 188.951 24.6228C189.386 24.3717 194.927 23.8662 194.864 24.4328C194.826 24.7684 194.674 25.0822 194.432 25.3246C194.176 25.4953 192.782 25.051 188.795 25.6723Z" fill="#38768A"/>
<path opacity="0.6" d="M188.795 25.6723C188.34 25.7367 188.761 24.729 188.951 24.6228C189.386 24.3717 194.927 23.8662 194.864 24.4328C194.826 24.7684 194.674 25.0822 194.432 25.3246C194.176 25.4953 192.782 25.051 188.795 25.6723Z" fill="white"/>
<path d="M200.152 28.8982C200.325 29.5421 200.514 30.2504 200.72 30.9265C200.926 31.6025 201.122 32.2979 201.338 32.9805C201.553 33.663 201.772 34.352 202.002 35.0313L202.334 36.0551L202.42 36.3094L202.453 36.3995C202.458 36.4183 202.465 36.4366 202.473 36.4543C202.513 36.5466 202.565 36.6341 202.626 36.7151C202.994 37.1739 203.444 37.5654 203.954 37.8708C204.539 38.2452 205.151 38.5807 205.783 38.8753C207.1 39.4895 208.45 40.0344 209.827 40.5076L209.495 41.8372C207.954 41.6106 206.438 41.2463 204.966 40.749C204.205 40.4915 203.465 40.1794 202.752 39.8154C201.944 39.4124 201.221 38.8664 200.62 38.2057C200.446 38.0014 200.293 37.7802 200.166 37.5457C200.129 37.4845 200.099 37.4201 200.066 37.3525L199.996 37.1883L199.883 36.9308C199.734 36.5895 199.585 36.2482 199.445 35.9005C199.166 35.2083 198.887 34.5162 198.642 33.8111C198.396 33.106 198.15 32.401 197.928 31.6862L197.616 30.6045C197.513 30.2343 197.427 29.8866 197.337 29.4809L200.152 28.8982Z" fill="#E4897B"/>
<path d="M201.301 30.0379L198.509 32.195L196.832 33.4827C196.832 33.4827 196.656 33.0288 196.444 32.3785C196.039 31.1229 195.511 29.1332 195.876 28.2189C196.45 26.7702 197.536 25.4631 198.911 25.7528C200.066 26.0071 201.301 30.0379 201.301 30.0379Z" fill="#38768A"/>
<path opacity="0.2" d="M201.301 30.0379L198.509 32.195L196.832 33.4827C196.832 33.4827 196.656 33.0288 196.444 32.3785C196.039 31.1229 195.511 29.1332 195.876 28.2189C196.45 26.7702 197.536 25.4631 198.911 25.7528C200.066 26.0071 201.301 30.0379 201.301 30.0379Z" fill="white"/>
<path opacity="0.1" d="M198.509 32.1949L196.832 33.4827C196.832 33.4827 196.656 33.0288 196.444 32.3784L197.44 27.5975L198.509 32.1949Z" fill="black"/>
<path d="M184.286 25.8397C184.286 25.8397 182.958 26.2905 185.614 42.1141H196.902C196.712 37.6584 196.706 34.909 198.894 25.7592C197.312 25.4428 195.709 25.2383 194.096 25.1475C192.39 25.0283 190.677 25.0283 188.97 25.1475C186.782 25.3343 184.286 25.8397 184.286 25.8397Z" fill="#38768A"/>
<path opacity="0.2" d="M184.286 25.8397C184.286 25.8397 182.958 26.2905 185.614 42.1141H196.902C196.712 37.6584 196.706 34.909 198.894 25.7592C197.312 25.4428 195.709 25.2383 194.096 25.1475C192.39 25.0283 190.677 25.0283 188.97 25.1475C186.782 25.3343 184.286 25.8397 184.286 25.8397Z" fill="white"/>
<path d="M211.53 42.4908L210.667 44.1971L210.096 42.3974L211.357 40.7136L211.53 42.4908Z" fill="#E4897B"/>
<path d="M179.127 102.804L176.417 102.196L177.686 96.0691L180.395 96.6776L179.127 102.804Z" fill="#E4897B"/>
<path d="M197.443 102.824H194.661L194.88 96.5778H197.662L197.443 102.824Z" fill="#E4897B"/>
<path d="M177.685 96.0724L177.005 99.353L179.741 99.8359L180.398 96.6809L177.685 96.0724Z" fill="#CE6F64"/>
<path d="M197.662 96.5778H194.88L194.771 99.7973H197.553L197.662 96.5778Z" fill="#CE6F64"/>
<path d="M185.614 42.1141C185.614 42.1141 182.48 62.8796 181.378 71.0378C180.232 79.521 176.886 98.5416 176.886 98.5416L180.601 99.0922C180.601 99.0922 186.481 80.9505 188.117 72.6926C189.903 63.6942 193.884 42.1077 193.884 42.1077L185.614 42.1141Z" fill="#38768A"/>
<path opacity="0.7" d="M185.614 42.1141C185.614 42.1141 182.48 62.8796 181.378 71.0378C180.232 79.521 176.886 98.5416 176.886 98.5416L180.601 99.0922C180.601 99.0922 186.481 80.9505 188.117 72.6926C189.903 63.6942 193.884 42.1077 193.884 42.1077L185.614 42.1141Z" fill="black"/>
<path d="M188.595 42.1142C188.595 42.1142 190.212 60.6229 191.885 71.0539C193.237 79.4793 194.306 99.1759 194.306 99.1759H198.097C198.097 99.1759 199.903 80.1553 199.216 71.8105C197.48 50.7262 200.527 46.9916 196.908 42.1045L188.595 42.1142Z" fill="#38768A"/>
<path opacity="0.7" d="M188.595 42.1142C188.595 42.1142 190.212 60.6229 191.885 71.0539C193.237 79.4793 194.306 99.1759 194.306 99.1759H198.097C198.097 99.1759 199.903 80.1553 199.216 71.8105C197.48 50.7262 200.527 46.9916 196.908 42.1045L188.595 42.1142Z" fill="black"/>
<path d="M209.398 40.411L211.357 40.7136L210.112 42.3974C210.112 42.3974 208.193 41.7246 208.269 40.6074L209.398 40.411Z" fill="#E4897B"/>
<path d="M193.492 102.981C193.303 102.997 193.115 102.947 192.961 102.84C192.915 102.797 192.88 102.744 192.861 102.684C192.842 102.625 192.839 102.562 192.852 102.502C192.855 102.463 192.869 102.426 192.891 102.395C192.914 102.363 192.945 102.338 192.981 102.321C193.313 102.18 194.15 102.708 194.246 102.769C194.257 102.776 194.265 102.785 194.271 102.797C194.276 102.808 194.278 102.821 194.276 102.833C194.273 102.845 194.267 102.856 194.258 102.865C194.249 102.874 194.238 102.881 194.226 102.885C193.986 102.943 193.74 102.975 193.492 102.981ZM193.12 102.424C193.093 102.419 193.065 102.419 193.037 102.424C193.022 102.432 193.008 102.443 192.998 102.457C192.988 102.471 192.982 102.488 192.981 102.505C192.971 102.545 192.973 102.588 192.985 102.628C192.997 102.668 193.02 102.704 193.051 102.733C193.19 102.859 193.555 102.875 194.047 102.782C193.767 102.601 193.452 102.479 193.12 102.424Z" fill="#38768A"/>
<path d="M194.209 102.885C194.198 102.888 194.187 102.888 194.176 102.885C193.91 102.737 193.406 102.157 193.469 101.851C193.479 101.802 193.507 101.757 193.548 101.725C193.588 101.692 193.639 101.675 193.691 101.674C193.741 101.668 193.792 101.672 193.84 101.686C193.888 101.701 193.933 101.725 193.97 101.758C194.272 102.019 194.276 102.795 194.276 102.83C194.275 102.841 194.272 102.852 194.266 102.861C194.26 102.871 194.252 102.879 194.242 102.885C194.232 102.888 194.22 102.888 194.209 102.885ZM193.738 101.793H193.708C193.622 101.793 193.605 101.842 193.598 101.871C193.558 102.057 193.874 102.492 194.139 102.698C194.146 102.395 194.056 102.098 193.88 101.848C193.862 101.83 193.839 101.816 193.815 101.807C193.79 101.797 193.764 101.793 193.738 101.793Z" fill="#38768A"/>
<path d="M176.179 101.79C175.73 101.703 174.95 101.504 174.778 101.146C174.751 101.097 174.737 101.041 174.737 100.985C174.737 100.929 174.751 100.874 174.778 100.824C174.793 100.793 174.817 100.765 174.846 100.746C174.876 100.726 174.911 100.714 174.947 100.712C175.325 100.666 176.139 101.587 176.232 101.677C176.239 101.687 176.243 101.699 176.244 101.711C176.245 101.723 176.243 101.735 176.237 101.746C176.232 101.756 176.224 101.766 176.213 101.772C176.203 101.779 176.191 101.783 176.179 101.784V101.79ZM174.977 100.824H174.96C174.946 100.826 174.932 100.831 174.92 100.84C174.909 100.848 174.899 100.86 174.894 100.873C174.875 100.906 174.865 100.943 174.865 100.98C174.865 101.018 174.875 101.055 174.894 101.088C174.993 101.288 175.405 101.481 176.013 101.619C175.671 101.265 175.193 100.827 174.977 100.827V100.824Z" fill="#38768A"/>
<path d="M176.178 101.79C176.161 101.789 176.144 101.781 176.132 101.768C175.883 101.51 175.508 100.731 175.674 100.48C175.707 100.434 175.755 100.402 175.811 100.388C175.866 100.375 175.925 100.381 175.976 100.406C176.039 100.424 176.097 100.454 176.148 100.495C176.198 100.536 176.239 100.587 176.268 100.644C176.481 101.033 176.252 101.729 176.242 101.758C176.239 101.768 176.233 101.778 176.225 101.785C176.216 101.793 176.206 101.798 176.195 101.8L176.178 101.79ZM175.846 100.502C175.793 100.502 175.78 100.525 175.773 100.534C175.674 100.692 175.903 101.281 176.135 101.59C176.233 101.298 176.233 100.982 176.135 100.689C176.114 100.647 176.083 100.61 176.046 100.58C176.009 100.55 175.966 100.528 175.92 100.515C175.9 100.509 175.88 100.504 175.86 100.502H175.846Z" fill="#38768A"/>
<path d="M187.267 15.8079C187.246 15.8082 187.226 15.8036 187.207 15.7947C187.189 15.7857 187.173 15.7726 187.161 15.7564C187.067 15.6235 186.943 15.5139 186.798 15.4367C186.652 15.3595 186.49 15.3168 186.324 15.3121C186.305 15.315 186.286 15.3139 186.267 15.3089C186.249 15.3039 186.232 15.295 186.217 15.2829C186.202 15.2708 186.191 15.2558 186.183 15.2389C186.175 15.222 186.17 15.2036 186.17 15.1849C186.17 15.1663 186.175 15.1479 186.183 15.131C186.191 15.1141 186.202 15.099 186.217 15.087C186.232 15.0749 186.249 15.066 186.267 15.061C186.286 15.0559 186.305 15.0548 186.324 15.0578C186.533 15.062 186.737 15.1137 186.921 15.2088C187.105 15.3039 187.263 15.4396 187.383 15.6051C187.394 15.6188 187.401 15.6344 187.405 15.6509C187.409 15.6674 187.41 15.6845 187.407 15.7012C187.404 15.718 187.398 15.734 187.389 15.7485C187.38 15.7629 187.368 15.7755 187.353 15.7854C187.328 15.8026 187.298 15.8106 187.267 15.8079Z" fill="#263238"/>
<path d="M186.54 17.3436C186.361 17.8479 186.111 18.3257 185.796 18.7634C185.914 18.8375 186.047 18.886 186.185 18.9055C186.324 18.925 186.465 18.9149 186.6 18.876L186.54 17.3436Z" fill="#DE5753"/>
<path d="M186.716 16.9637C186.716 17.1826 186.613 17.3629 186.464 17.3661C186.314 17.3693 186.191 17.2019 186.185 16.983C186.178 16.7641 186.288 16.587 186.434 16.5806C186.58 16.5741 186.706 16.748 186.716 16.9637Z" fill="#263238"/>
<path d="M186.5 16.5902L185.956 16.4614C185.956 16.4614 186.248 16.8574 186.5 16.5902Z" fill="#263238"/>
<path d="M194.442 102.511H197.566C197.62 102.51 197.672 102.528 197.713 102.562C197.754 102.596 197.781 102.643 197.788 102.695L198.144 105.09C198.151 105.151 198.144 105.212 198.125 105.27C198.106 105.328 198.074 105.382 198.032 105.427C197.99 105.472 197.939 105.508 197.881 105.533C197.824 105.558 197.762 105.57 197.699 105.57C196.61 105.554 196.085 105.489 194.711 105.489C193.864 105.489 192.629 105.576 191.464 105.576C190.298 105.576 190.235 104.456 190.72 104.356C192.898 103.899 193.243 103.274 193.977 102.675C194.108 102.57 194.272 102.512 194.442 102.511Z" fill="#263238"/>
<path d="M176.471 101.504L179.356 102.666C179.406 102.685 179.447 102.721 179.471 102.767C179.496 102.813 179.502 102.867 179.488 102.917L178.871 105.264C178.853 105.322 178.823 105.377 178.783 105.423C178.742 105.47 178.691 105.507 178.635 105.533C178.578 105.559 178.516 105.574 178.453 105.575C178.39 105.576 178.328 105.565 178.27 105.541C177.274 105.119 176.809 104.868 175.541 104.356C174.761 104.034 173.111 103.471 172.032 103.036C170.953 102.601 171.341 101.545 171.829 101.632C174.02 102.025 175.063 101.764 175.976 101.484C176.138 101.434 176.313 101.441 176.471 101.504Z" fill="#263238"/>
<path d="M185.392 29.5196C184.74 31.1106 184 32.6668 183.177 34.1814C182.769 34.9412 182.337 35.6977 181.849 36.435C181.736 36.6217 181.603 36.8052 181.481 36.9887C181.358 37.1723 181.228 37.359 181.085 37.5393C180.943 37.7196 180.823 37.9063 180.664 38.0866L180.438 38.357L180.325 38.4922L180.249 38.5759L180.159 38.6693C179.718 39.0967 179.18 39.4186 178.589 39.6094C178.101 39.7664 177.598 39.8742 177.088 39.9313C176.16 40.0376 175.224 40.0527 174.293 39.9764C172.515 39.8394 170.755 39.531 169.041 39.0556L169.326 37.7163C170.149 37.7904 171.006 37.858 171.843 37.8902C172.679 37.9224 173.519 37.9449 174.339 37.9127C175.131 37.8941 175.919 37.8101 176.696 37.6616C177.038 37.5951 177.372 37.4948 177.692 37.3622C177.918 37.2757 178.12 37.1403 178.283 36.9662L178.579 36.567C178.692 36.4221 178.795 36.245 178.911 36.0905C179.123 35.7686 179.329 35.4241 179.532 35.0796C179.933 34.3874 180.309 33.6598 180.68 32.9354C181.052 32.2111 181.398 31.4609 181.746 30.714C182.095 29.9671 182.433 29.2073 182.742 28.4604L185.392 29.5196Z" fill="#E4897B"/>
<path d="M169.479 39.1779L166.64 38.7047L167.822 36.6925C167.822 36.6925 169.794 37.2044 170.246 38.2346L169.479 39.1779Z" fill="#E4897B"/>
<path d="M164.768 38.0512L165.508 36.8406L167.822 36.6861L166.64 38.7015L164.768 38.0512Z" fill="#E4897B"/>
<path d="M194.219 15.9302C194.159 18.6056 194.193 19.7388 192.858 21.1618C190.866 23.3028 187.473 22.646 186.709 20.006C186.022 17.6301 186.238 13.654 188.887 12.4886C189.471 12.2292 190.113 12.1188 190.752 12.1677C191.392 12.2166 192.008 12.4233 192.543 12.7681C193.077 13.1129 193.511 13.5844 193.805 14.1378C194.098 14.6913 194.241 15.3083 194.219 15.9302Z" fill="#E4897B"/>
<path d="M197.539 15.882C197.293 13.9503 196.321 12.0508 195.235 11.1172C192.619 8.86353 189.106 10.6664 187.373 12.0444C185.561 13.4867 186.809 15.7725 187.918 16.9186C187.936 17.3288 188 17.7359 188.11 18.1324C187.938 19.1884 187.211 20.2347 186.191 21.0782C189.641 22.044 194.691 22.1245 196.556 21.4516C198.967 20.5856 197.994 19.9031 197.539 15.882Z" fill="#263238"/>
<path d="M188.927 17.1697C188.88 17.6737 188.658 18.1472 188.297 18.5122C187.805 19.0048 187.301 18.7215 187.211 18.1388C187.135 17.614 187.297 16.7254 187.895 16.4453C188.492 16.1652 188.967 16.5741 188.927 17.1697Z" fill="#E4897B"/>
<path d="M176.338 98.5545L181.099 99.3401L181.64 97.5984L176.544 96.7516L176.338 98.5545Z" fill="#38768A"/>
<path d="M193.784 99.2467H198.615L198.867 97.6048L193.758 97.4374L193.784 99.2467Z" fill="#38768A"/>
<path d="M197.078 41.4735L197.586 42.4393C197.626 42.5166 197.533 42.5938 197.403 42.5938H185.544C185.445 42.5938 185.358 42.5455 185.352 42.4811L185.252 41.5153C185.252 41.4477 185.332 41.3897 185.445 41.3897H196.882C196.919 41.3842 196.958 41.3891 196.992 41.4039C197.027 41.4187 197.057 41.4429 197.078 41.4735Z" fill="#38768A"/>
<path opacity="0.6" d="M197.078 41.4735L197.586 42.4393C197.626 42.5166 197.533 42.5938 197.403 42.5938H185.544C185.445 42.5938 185.358 42.5455 185.352 42.4811L185.252 41.5153C185.252 41.4477 185.332 41.3897 185.445 41.3897H196.882C196.919 41.3842 196.958 41.3891 196.992 41.4039C197.027 41.4187 197.057 41.4429 197.078 41.4735Z" fill="white"/>
<path d="M195.54 42.7194H195.836C195.896 42.7194 195.942 42.6872 195.939 42.6518L195.793 41.364C195.793 41.3254 195.736 41.2964 195.676 41.2964H195.368C195.308 41.2964 195.261 41.3254 195.265 41.364L195.411 42.6518C195.427 42.6808 195.481 42.7194 195.54 42.7194Z" fill="#38768A"/>
<path d="M188.117 42.7194H188.422C188.482 42.7194 188.532 42.6872 188.525 42.6518L188.383 41.364C188.383 41.3254 188.326 41.2964 188.263 41.2964H187.958C187.898 41.2964 187.851 41.3254 187.855 41.364L187.997 42.6518C188.001 42.6808 188.054 42.7194 188.117 42.7194Z" fill="#38768A"/>
<path opacity="0.7" d="M195.54 42.7194H195.836C195.896 42.7194 195.942 42.6872 195.939 42.6518L195.793 41.364C195.793 41.3254 195.736 41.2964 195.676 41.2964H195.368C195.308 41.2964 195.261 41.3254 195.265 41.364L195.411 42.6518C195.427 42.6808 195.481 42.7194 195.54 42.7194Z" fill="black"/>
<path opacity="0.7" d="M188.117 42.7194H188.422C188.482 42.7194 188.532 42.6872 188.525 42.6518L188.383 41.364C188.383 41.3254 188.326 41.2964 188.263 41.2964H187.958C187.898 41.2964 187.851 41.3254 187.855 41.364L187.997 42.6518C188.001 42.6808 188.054 42.7194 188.117 42.7194Z" fill="black"/>
<path d="M184.286 25.8397C182.901 26.1617 181.202 29.8447 181.202 29.8447L184.492 33.9334C184.492 33.9334 187.891 29.2684 187.437 27.8454C186.965 26.3613 185.963 25.4437 184.286 25.8397Z" fill="#38768A"/>
<path opacity="0.2" d="M184.286 25.8397C182.901 26.1617 181.202 29.8447 181.202 29.8447L184.492 33.9334C184.492 33.9334 187.891 29.2684 187.437 27.8454C186.965 26.3613 185.963 25.4437 184.286 25.8397Z" fill="white"/>
<path d="M56.5322 127V114.22H59.0162V127H56.5322ZM70.2146 127H67.8026V121.708C67.8026 120.952 67.6706 120.4 67.4066 120.052C67.1426 119.704 66.7766 119.53 66.3086 119.53C65.9846 119.53 65.6546 119.614 65.3186 119.782C64.9946 119.95 64.7006 120.184 64.4366 120.484C64.1726 120.772 63.9806 121.108 63.8606 121.492V127H61.4486V117.568H63.6266V119.314C63.8666 118.906 64.1726 118.564 64.5446 118.288C64.9166 118 65.3426 117.784 65.8226 117.64C66.3146 117.484 66.8306 117.406 67.3706 117.406C67.9586 117.406 68.4386 117.514 68.8106 117.73C69.1946 117.934 69.4826 118.216 69.6746 118.576C69.8786 118.924 70.0166 119.32 70.0886 119.764C70.1726 120.208 70.2146 120.658 70.2146 121.114V127ZM72.8351 127V119.908H71.5931V118.072H72.8351V117.496C72.8351 116.716 72.9611 116.044 73.2131 115.48C73.4771 114.904 73.8431 114.46 74.3111 114.148C74.7911 113.836 75.3491 113.68 75.9851 113.68C76.3691 113.68 76.7531 113.728 77.1371 113.824C77.5331 113.92 77.9231 114.058 78.3071 114.238L77.8211 116.056C77.6411 115.96 77.4311 115.882 77.1911 115.822C76.9511 115.75 76.7231 115.714 76.5071 115.714C76.0991 115.714 75.7871 115.858 75.5711 116.146C75.3551 116.434 75.2471 116.854 75.2471 117.406V118.072H77.5511V119.908H75.2471V127H72.8351ZM83.1542 127.18C82.3862 127.18 81.6962 127.054 81.0842 126.802C80.4722 126.538 79.9502 126.178 79.5182 125.722C79.0982 125.266 78.7742 124.744 78.5462 124.156C78.3182 123.568 78.2042 122.95 78.2042 122.302C78.2042 121.642 78.3182 121.018 78.5462 120.43C78.7742 119.842 79.0982 119.32 79.5182 118.864C79.9502 118.408 80.4722 118.054 81.0842 117.802C81.6962 117.538 82.3862 117.406 83.1542 117.406C83.9222 117.406 84.6062 117.538 85.2062 117.802C85.8182 118.054 86.3402 118.408 86.7722 118.864C87.2042 119.32 87.5282 119.842 87.7442 120.43C87.9722 121.018 88.0862 121.642 88.0862 122.302C88.0862 122.95 87.9722 123.568 87.7442 124.156C87.5282 124.744 87.2042 125.266 86.7722 125.722C86.3522 126.178 85.8362 126.538 85.2242 126.802C84.6122 127.054 83.9222 127.18 83.1542 127.18ZM80.6882 122.302C80.6882 122.854 80.7962 123.346 81.0122 123.778C81.2282 124.198 81.5222 124.528 81.8942 124.768C82.2662 125.008 82.6862 125.128 83.1542 125.128C83.6102 125.128 84.0242 125.008 84.3962 124.768C84.7682 124.516 85.0622 124.18 85.2782 123.76C85.5062 123.328 85.6202 122.836 85.6202 122.284C85.6202 121.744 85.5062 121.258 85.2782 120.826C85.0622 120.394 84.7682 120.058 84.3962 119.818C84.0242 119.578 83.6102 119.458 83.1542 119.458C82.6862 119.458 82.2662 119.584 81.8942 119.836C81.5222 120.076 81.2282 120.412 81.0122 120.844C80.7962 121.264 80.6882 121.75 80.6882 122.302ZM95.3302 119.656C94.5982 119.656 93.9442 119.8 93.3682 120.088C92.7922 120.364 92.3782 120.766 92.1262 121.294V127H89.7142V117.568H91.9282V119.584C92.2642 118.936 92.6902 118.426 93.2062 118.054C93.7222 117.682 94.2682 117.478 94.8442 117.442C94.9762 117.442 95.0782 117.442 95.1502 117.442C95.2222 117.442 95.2822 117.448 95.3302 117.46V119.656ZM111.327 127H108.915V121.708C108.915 120.964 108.783 120.418 108.519 120.07C108.267 119.71 107.913 119.53 107.457 119.53C106.989 119.53 106.539 119.716 106.107 120.088C105.687 120.448 105.387 120.922 105.207 121.51V127H102.795V121.708C102.795 120.952 102.663 120.4 102.399 120.052C102.147 119.704 101.793 119.53 101.337 119.53C100.869 119.53 100.419 119.71 99.9871 120.07C99.5671 120.43 99.2671 120.904 99.0871 121.492V127H96.6751V117.568H98.8531V119.314C99.2131 118.702 99.6931 118.234 100.293 117.91C100.893 117.574 101.583 117.406 102.363 117.406C103.143 117.406 103.749 117.598 104.181 117.982C104.625 118.366 104.907 118.84 105.027 119.404C105.411 118.756 105.897 118.264 106.485 117.928C107.085 117.58 107.757 117.406 108.501 117.406C109.089 117.406 109.563 117.514 109.923 117.73C110.295 117.934 110.583 118.216 110.787 118.576C110.991 118.924 111.129 119.32 111.201 119.764C111.285 120.208 111.327 120.658 111.327 121.114V127ZM112.779 124.21C112.779 123.598 112.947 123.064 113.283 122.608C113.631 122.14 114.111 121.78 114.723 121.528C115.335 121.276 116.037 121.15 116.829 121.15C117.225 121.15 117.627 121.18 118.035 121.24C118.443 121.3 118.797 121.396 119.097 121.528V121.024C119.097 120.424 118.917 119.962 118.557 119.638C118.209 119.314 117.687 119.152 116.991 119.152C116.475 119.152 115.983 119.242 115.515 119.422C115.047 119.602 114.555 119.866 114.039 120.214L113.265 118.63C113.889 118.222 114.525 117.916 115.173 117.712C115.833 117.508 116.523 117.406 117.243 117.406C118.587 117.406 119.631 117.742 120.375 118.414C121.131 119.086 121.509 120.046 121.509 121.294V124.3C121.509 124.552 121.551 124.732 121.635 124.84C121.731 124.948 121.881 125.014 122.085 125.038V127C121.869 127.036 121.671 127.066 121.491 127.09C121.323 127.114 121.179 127.126 121.059 127.126C120.579 127.126 120.213 127.018 119.961 126.802C119.721 126.586 119.571 126.322 119.511 126.01L119.457 125.524C119.049 126.052 118.539 126.46 117.927 126.748C117.315 127.036 116.691 127.18 116.055 127.18C115.431 127.18 114.867 127.054 114.363 126.802C113.871 126.538 113.481 126.184 113.193 125.74C112.917 125.284 112.779 124.774 112.779 124.21ZM118.647 124.696C118.779 124.552 118.887 124.408 118.971 124.264C119.055 124.12 119.097 123.988 119.097 123.868V122.914C118.809 122.794 118.497 122.704 118.161 122.644C117.825 122.572 117.507 122.536 117.207 122.536C116.583 122.536 116.067 122.674 115.659 122.95C115.263 123.214 115.065 123.568 115.065 124.012C115.065 124.252 115.131 124.48 115.263 124.696C115.395 124.912 115.587 125.086 115.839 125.218C116.091 125.35 116.391 125.416 116.739 125.416C117.099 125.416 117.453 125.35 117.801 125.218C118.149 125.074 118.431 124.9 118.647 124.696ZM129.327 126.514C129.123 126.598 128.877 126.694 128.589 126.802C128.301 126.91 127.989 126.994 127.653 127.054C127.329 127.126 126.999 127.162 126.663 127.162C126.219 127.162 125.811 127.084 125.439 126.928C125.067 126.772 124.767 126.526 124.539 126.19C124.323 125.842 124.215 125.392 124.215 124.84V119.422H122.973V117.568H124.215V114.508H126.627V117.568H128.607V119.422H126.627V124.03C126.639 124.354 126.729 124.588 126.897 124.732C127.065 124.876 127.275 124.948 127.527 124.948C127.779 124.948 128.025 124.906 128.265 124.822C128.505 124.738 128.697 124.666 128.841 124.606L129.327 126.514ZM130.583 127V117.568H132.995V127H130.583ZM130.583 116.254V113.86H132.995V116.254H130.583ZM139.527 127.18C138.759 127.18 138.069 127.054 137.457 126.802C136.845 126.538 136.323 126.178 135.891 125.722C135.471 125.266 135.147 124.744 134.919 124.156C134.691 123.568 134.577 122.95 134.577 122.302C134.577 121.642 134.691 121.018 134.919 120.43C135.147 119.842 135.471 119.32 135.891 118.864C136.323 118.408 136.845 118.054 137.457 117.802C138.069 117.538 138.759 117.406 139.527 117.406C140.295 117.406 140.979 117.538 141.579 117.802C142.191 118.054 142.713 118.408 143.145 118.864C143.577 119.32 143.901 119.842 144.117 120.43C144.345 121.018 144.459 121.642 144.459 122.302C144.459 122.95 144.345 123.568 144.117 124.156C143.901 124.744 143.577 125.266 143.145 125.722C142.725 126.178 142.209 126.538 141.597 126.802C140.985 127.054 140.295 127.18 139.527 127.18ZM137.061 122.302C137.061 122.854 137.169 123.346 137.385 123.778C137.601 124.198 137.895 124.528 138.267 124.768C138.639 125.008 139.059 125.128 139.527 125.128C139.983 125.128 140.397 125.008 140.769 124.768C141.141 124.516 141.435 124.18 141.651 123.76C141.879 123.328 141.993 122.836 141.993 122.284C141.993 121.744 141.879 121.258 141.651 120.826C141.435 120.394 141.141 120.058 140.769 119.818C140.397 119.578 139.983 119.458 139.527 119.458C139.059 119.458 138.639 119.584 138.267 119.836C137.895 120.076 137.601 120.412 137.385 120.844C137.169 121.264 137.061 121.75 137.061 122.302ZM154.853 127H152.441V121.708C152.441 120.952 152.309 120.4 152.045 120.052C151.781 119.704 151.415 119.53 150.947 119.53C150.623 119.53 150.293 119.614 149.957 119.782C149.633 119.95 149.339 120.184 149.075 120.484C148.811 120.772 148.619 121.108 148.499 121.492V127H146.087V117.568H148.265V119.314C148.505 118.906 148.811 118.564 149.183 118.288C149.555 118 149.981 117.784 150.461 117.64C150.953 117.484 151.469 117.406 152.009 117.406C152.597 117.406 153.077 117.514 153.449 117.73C153.833 117.934 154.121 118.216 154.313 118.576C154.517 118.924 154.655 119.32 154.727 119.764C154.811 120.208 154.853 120.658 154.853 121.114V127ZM161.325 127.18C160.569 127.18 159.885 127.054 159.273 126.802C158.661 126.538 158.139 126.184 157.707 125.74C157.275 125.284 156.939 124.768 156.699 124.192C156.471 123.604 156.357 122.986 156.357 122.338C156.357 121.438 156.555 120.616 156.951 119.872C157.359 119.128 157.935 118.534 158.679 118.09C159.435 117.634 160.323 117.406 161.343 117.406C162.375 117.406 163.257 117.634 163.989 118.09C164.721 118.534 165.279 119.128 165.663 119.872C166.059 120.604 166.257 121.396 166.257 122.248C166.257 122.392 166.251 122.542 166.239 122.698C166.227 122.842 166.215 122.962 166.203 123.058H158.913C158.961 123.538 159.099 123.958 159.327 124.318C159.567 124.678 159.867 124.954 160.227 125.146C160.599 125.326 160.995 125.416 161.415 125.416C161.895 125.416 162.345 125.302 162.765 125.074C163.197 124.834 163.491 124.522 163.647 124.138L165.717 124.714C165.489 125.194 165.159 125.62 164.727 125.992C164.307 126.364 163.809 126.658 163.233 126.874C162.657 127.078 162.021 127.18 161.325 127.18ZM158.859 121.528H163.791C163.743 121.048 163.605 120.634 163.377 120.286C163.161 119.926 162.873 119.65 162.513 119.458C162.153 119.254 161.751 119.152 161.307 119.152C160.875 119.152 160.479 119.254 160.119 119.458C159.771 119.65 159.483 119.926 159.255 120.286C159.039 120.634 158.907 121.048 158.859 121.528ZM176.492 127H174.08V121.708C174.08 120.952 173.948 120.4 173.684 120.052C173.42 119.704 173.054 119.53 172.586 119.53C172.262 119.53 171.932 119.614 171.596 119.782C171.272 119.95 170.978 120.184 170.714 120.484C170.45 120.772 170.258 121.108 170.138 121.492V127H167.726V117.568H169.904V119.314C170.144 118.906 170.45 118.564 170.822 118.288C171.194 118 171.62 117.784 172.1 117.64C172.592 117.484 173.108 117.406 173.648 117.406C174.236 117.406 174.716 117.514 175.088 117.73C175.472 117.934 175.76 118.216 175.952 118.576C176.156 118.924 176.294 119.32 176.366 119.764C176.45 120.208 176.492 120.658 176.492 121.114V127ZM187.287 127.18C186.531 127.18 185.847 127.054 185.235 126.802C184.623 126.538 184.101 126.184 183.669 125.74C183.237 125.284 182.901 124.768 182.661 124.192C182.433 123.604 182.319 122.986 182.319 122.338C182.319 121.438 182.517 120.616 182.913 119.872C183.321 119.128 183.897 118.534 184.641 118.09C185.397 117.634 186.285 117.406 187.305 117.406C188.337 117.406 189.219 117.634 189.951 118.09C190.683 118.534 191.241 119.128 191.625 119.872C192.021 120.604 192.219 121.396 192.219 122.248C192.219 122.392 192.213 122.542 192.201 122.698C192.189 122.842 192.177 122.962 192.165 123.058H184.875C184.923 123.538 185.061 123.958 185.289 124.318C185.529 124.678 185.829 124.954 186.189 125.146C186.561 125.326 186.957 125.416 187.377 125.416C187.857 125.416 188.307 125.302 188.727 125.074C189.159 124.834 189.453 124.522 189.609 124.138L191.679 124.714C191.451 125.194 191.121 125.62 190.689 125.992C190.269 126.364 189.771 126.658 189.195 126.874C188.619 127.078 187.983 127.18 187.287 127.18ZM184.821 121.528H189.753C189.705 121.048 189.567 120.634 189.339 120.286C189.123 119.926 188.835 119.65 188.475 119.458C188.115 119.254 187.713 119.152 187.269 119.152C186.837 119.152 186.441 119.254 186.081 119.458C185.733 119.65 185.445 119.926 185.217 120.286C185.001 120.634 184.869 121.048 184.821 121.528ZM199.305 119.656C198.573 119.656 197.919 119.8 197.343 120.088C196.767 120.364 196.353 120.766 196.101 121.294V127H193.689V117.568H195.903V119.584C196.239 118.936 196.665 118.426 197.181 118.054C197.697 117.682 198.243 117.478 198.819 117.442C198.951 117.442 199.053 117.442 199.125 117.442C199.197 117.442 199.257 117.448 199.305 117.46V119.656ZM209.416 127H207.004V121.708C207.004 120.976 206.86 120.43 206.572 120.07C206.296 119.71 205.912 119.53 205.42 119.53C205.132 119.53 204.826 119.614 204.502 119.782C204.178 119.95 203.884 120.184 203.62 120.484C203.368 120.772 203.182 121.108 203.062 121.492V127H200.65V113.86H203.062V119.314C203.41 118.714 203.884 118.246 204.484 117.91C205.084 117.574 205.738 117.406 206.446 117.406C207.058 117.406 207.556 117.514 207.94 117.73C208.324 117.934 208.624 118.216 208.84 118.576C209.056 118.924 209.206 119.32 209.29 119.764C209.374 120.196 209.416 120.646 209.416 121.114V127ZM210.865 124.21C210.865 123.598 211.033 123.064 211.369 122.608C211.717 122.14 212.197 121.78 212.809 121.528C213.421 121.276 214.123 121.15 214.915 121.15C215.311 121.15 215.713 121.18 216.121 121.24C216.529 121.3 216.883 121.396 217.183 121.528V121.024C217.183 120.424 217.003 119.962 216.643 119.638C216.295 119.314 215.773 119.152 215.077 119.152C214.561 119.152 214.069 119.242 213.601 119.422C213.133 119.602 212.641 119.866 212.125 120.214L211.351 118.63C211.975 118.222 212.611 117.916 213.259 117.712C213.919 117.508 214.609 117.406 215.329 117.406C216.673 117.406 217.717 117.742 218.461 118.414C219.217 119.086 219.595 120.046 219.595 121.294V124.3C219.595 124.552 219.637 124.732 219.721 124.84C219.817 124.948 219.967 125.014 220.171 125.038V127C219.955 127.036 219.757 127.066 219.577 127.09C219.409 127.114 219.265 127.126 219.145 127.126C218.665 127.126 218.299 127.018 218.047 126.802C217.807 126.586 217.657 126.322 217.597 126.01L217.543 125.524C217.135 126.052 216.625 126.46 216.013 126.748C215.401 127.036 214.777 127.18 214.141 127.18C213.517 127.18 212.953 127.054 212.449 126.802C211.957 126.538 211.567 126.184 211.279 125.74C211.003 125.284 210.865 124.774 210.865 124.21ZM216.733 124.696C216.865 124.552 216.973 124.408 217.057 124.264C217.141 124.12 217.183 123.988 217.183 123.868V122.914C216.895 122.794 216.583 122.704 216.247 122.644C215.911 122.572 215.593 122.536 215.293 122.536C214.669 122.536 214.153 122.674 213.745 122.95C213.349 123.214 213.151 123.568 213.151 124.012C213.151 124.252 213.217 124.48 213.349 124.696C213.481 124.912 213.673 125.086 213.925 125.218C214.177 125.35 214.477 125.416 214.825 125.416C215.185 125.416 215.539 125.35 215.887 125.218C216.235 125.074 216.517 124.9 216.733 124.696ZM221.831 113.86H224.243V123.976C224.243 124.408 224.315 124.702 224.459 124.858C224.603 125.002 224.801 125.074 225.053 125.074C225.245 125.074 225.443 125.05 225.647 125.002C225.851 124.954 226.031 124.894 226.187 124.822L226.511 126.658C226.187 126.814 225.809 126.934 225.377 127.018C224.945 127.102 224.555 127.144 224.207 127.144C223.451 127.144 222.863 126.946 222.443 126.55C222.035 126.142 221.831 125.566 221.831 124.822V113.86ZM233.108 126.514C232.904 126.598 232.658 126.694 232.37 126.802C232.082 126.91 231.77 126.994 231.434 127.054C231.11 127.126 230.78 127.162 230.444 127.162C230 127.162 229.592 127.084 229.22 126.928C228.848 126.772 228.548 126.526 228.32 126.19C228.104 125.842 227.996 125.392 227.996 124.84V119.422H226.754V117.568H227.996V114.508H230.408V117.568H232.388V119.422H230.408V124.03C230.42 124.354 230.51 124.588 230.678 124.732C230.846 124.876 231.056 124.948 231.308 124.948C231.56 124.948 231.806 124.906 232.046 124.822C232.286 124.738 232.478 124.666 232.622 124.606L233.108 126.514ZM238.633 127.18C237.877 127.18 237.193 127.054 236.581 126.802C235.969 126.538 235.447 126.184 235.015 125.74C234.583 125.284 234.247 124.768 234.007 124.192C233.779 123.604 233.665 122.986 233.665 122.338C233.665 121.438 233.863 120.616 234.259 119.872C234.667 119.128 235.243 118.534 235.987 118.09C236.743 117.634 237.631 117.406 238.651 117.406C239.683 117.406 240.565 117.634 241.297 118.09C242.029 118.534 242.587 119.128 242.971 119.872C243.367 120.604 243.565 121.396 243.565 122.248C243.565 122.392 243.559 122.542 243.547 122.698C243.535 122.842 243.523 122.962 243.511 123.058H236.221C236.269 123.538 236.407 123.958 236.635 124.318C236.875 124.678 237.175 124.954 237.535 125.146C237.907 125.326 238.303 125.416 238.723 125.416C239.203 125.416 239.653 125.302 240.073 125.074C240.505 124.834 240.799 124.522 240.955 124.138L243.025 124.714C242.797 125.194 242.467 125.62 242.035 125.992C241.615 126.364 241.117 126.658 240.541 126.874C239.965 127.078 239.329 127.18 238.633 127.18ZM236.167 121.528H241.099C241.051 121.048 240.913 120.634 240.685 120.286C240.469 119.926 240.181 119.65 239.821 119.458C239.461 119.254 239.059 119.152 238.615 119.152C238.183 119.152 237.787 119.254 237.427 119.458C237.079 119.65 236.791 119.926 236.563 120.286C236.347 120.634 236.215 121.048 236.167 121.528ZM253.801 127H251.389V121.708C251.389 120.952 251.257 120.4 250.993 120.052C250.729 119.704 250.363 119.53 249.895 119.53C249.571 119.53 249.241 119.614 248.905 119.782C248.581 119.95 248.287 120.184 248.023 120.484C247.759 120.772 247.567 121.108 247.447 121.492V127H245.035V117.568H247.213V119.314C247.453 118.906 247.759 118.564 248.131 118.288C248.503 118 248.929 117.784 249.409 117.64C249.901 117.484 250.417 117.406 250.957 117.406C251.545 117.406 252.025 117.514 252.397 117.73C252.781 117.934 253.069 118.216 253.261 118.576C253.465 118.924 253.603 119.32 253.675 119.764C253.759 120.208 253.801 120.658 253.801 121.114V127Z" fill="#37474F"/>
</g>
<defs>
<filter id="filter0_d_426_838" x="2.37305" y="-11" width="305.254" height="202" filterUnits="userSpaceOnUse" color-interpolation-filters="sRGB">
<feFlood flood-opacity="0" result="BackgroundImageFix"/>
<feColorMatrix in="SourceAlpha" type="matrix" values="0 0 0 0 0 0 0 0 0 0 0 0 0 0 0 0 0 0 127 0" result="hardAlpha"/>
<feMorphology radius="1" operator="dilate" in="SourceAlpha" result="effect1_dropShadow_426_838"/>
<feOffset dy="10"/>
<feGaussianBlur stdDeviation="10"/>
<feComposite in2="hardAlpha" operator="out"/>
<feColorMatrix type="matrix" values="0 0 0 0 0.215686 0 0 0 0 0.278431 0 0 0 0 0.309804 0 0 0 0.25 0"/>
<feBlend mode="normal" in2="BackgroundImageFix" result="effect1_dropShadow_426_838"/>
<feBlend mode="normal" in="SourceGraphic" in2="effect1_dropShadow_426_838" result="shape"/>
</filter>
<clipPath id="clip0_426_838">
<rect width="310" height="160" fill="white"/>
</clipPath>
</defs>
</svg>
