<svg width="362" height="247" viewBox="0 0 362 247" fill="none" xmlns="http://www.w3.org/2000/svg">
<path d="M9.64307 204.324L51.1466 204.186L92.6502 204.135L175.657 204.037L258.664 204.135L300.168 204.186L341.672 204.324L300.168 204.467L258.664 204.513L175.657 204.61L92.6502 204.513L51.1466 204.461L9.64307 204.324Z" fill="#263238"/>
<path d="M176.749 247C265.526 247 337.494 238.945 337.494 229.009C337.494 219.072 265.526 211.017 176.749 211.017C87.9719 211.017 16.0039 219.072 16.0039 229.009C16.0039 238.945 87.9719 247 176.749 247Z" fill="#EBEBEB"/>
<path d="M34.4159 145.322C34.8249 148.308 34.6784 151.35 33.9846 154.278C33.6538 155.633 33.2154 156.956 32.6741 158.234C31.9916 159.878 31.2817 161.475 31.4565 163.268C31.6203 163.382 31.0524 163.365 31.036 163.193C26.4658 160.462 20.6069 159.964 17.0905 155.503C15.4524 153.39 14.5842 150.71 14.1856 148.059C13.7542 145.145 13.6396 141.915 14.3494 139.041C14.9555 136.607 16.3096 134.265 18.4883 133.074C20.6669 131.883 23.681 131.929 26.0453 132.719C31.1507 134.362 33.6897 140.14 34.4159 145.322Z" fill="#38768A"/>
<path d="M36.7584 180.789C36.1359 178.613 35.5134 176.432 34.8746 174.256C33.6187 170.001 32.3137 165.758 30.8722 161.561C30.0095 159.053 29.0994 156.572 28.142 154.117C28.2486 152.564 28.4309 151.018 28.6881 149.485C29.0703 147.63 29.6272 145.832 30.1405 144.017C30.1733 143.902 30.004 143.845 29.9603 143.954C28.9338 146.456 27.596 149.68 27.5578 152.629C26.4439 149.838 25.2481 147.09 23.9704 144.383C23.8221 142.091 23.8898 139.79 24.1724 137.512C24.172 137.492 24.1649 137.473 24.1525 137.458C24.1401 137.443 24.1232 137.433 24.1045 137.429C24.0858 137.426 24.0666 137.429 24.0501 137.439C24.0336 137.449 24.0209 137.465 24.0141 137.483C23.6234 139.469 23.4711 141.498 23.5609 143.524C22.578 141.491 21.546 139.481 20.4431 137.506C20.3448 137.323 20.11 137.506 20.1973 137.683C21.9173 141.148 23.5063 144.692 25.0024 148.277C22.9019 146.369 20.477 144.895 17.8549 143.931C17.7402 143.891 17.6529 144.062 17.773 144.114C20.6352 145.408 23.2522 147.231 25.4993 149.496C26.5695 152.119 27.5924 154.766 28.568 157.438C25.7122 154.495 21.7972 152.566 18.0132 151.529C17.8822 151.489 17.8494 151.701 17.975 151.735C22.3432 153.121 25.7559 155.744 29.0867 158.853C29.4762 159.929 29.8566 161.01 30.2279 162.094C31.6366 166.201 32.9799 170.334 34.2576 174.491C34.8764 176.48 35.4807 178.472 36.0704 180.469C36.7092 182.622 37.2116 184.889 38.0415 186.962C38.1234 187.162 38.462 187.117 38.4183 186.876C38.0579 184.821 37.3317 182.799 36.7584 180.789Z" fill="#263238"/>
<path d="M29.1796 141.125C28.3694 142.431 27.8128 143.893 27.5415 145.425C27.5415 145.434 27.545 145.443 27.5511 145.449C27.5572 145.456 27.5656 145.46 27.5743 145.46C27.583 145.46 27.5913 145.456 27.5974 145.449C27.6036 145.443 27.607 145.434 27.607 145.425C28.1182 143.982 28.7126 142.573 29.3871 141.205C29.4526 141.091 29.256 140.999 29.1796 141.125Z" fill="#263238"/>
<path d="M21.0271 151.111C19.7551 150.372 18.3657 149.881 16.9265 149.662C16.8882 149.662 16.8664 149.714 16.9265 149.731C17.5872 150.017 18.2806 150.218 18.9468 150.487C19.6129 150.756 20.2682 151.06 20.9452 151.329C20.9708 151.333 20.9968 151.327 21.019 151.314C21.0413 151.3 21.0586 151.279 21.0681 151.254C21.0775 151.229 21.0787 151.201 21.0712 151.175C21.0638 151.149 21.0483 151.127 21.0271 151.111Z" fill="#263238"/>
<path d="M18.7338 139.098C18.3206 138.769 17.8781 138.484 17.4124 138.245C17.3975 138.239 17.3812 138.239 17.3661 138.244C17.3511 138.249 17.3381 138.26 17.3293 138.273C17.3205 138.287 17.3164 138.304 17.3176 138.32C17.3188 138.337 17.3253 138.353 17.336 138.365C17.7404 138.705 18.1757 139.002 18.6355 139.252C18.7229 139.304 18.8157 139.155 18.7338 139.098Z" fill="#263238"/>
<path d="M49.8195 161.596C46.5434 162.621 43.218 163.565 39.931 164.579C39.6416 164.67 34.083 153.487 36.1088 147.733C37.0649 145.121 38.5651 142.767 40.4998 140.841C42.4344 138.915 44.7548 137.467 47.2914 136.601C49.6448 135.76 52.5333 135.061 55.0122 135.634C57.1964 136.143 58.7798 138.039 59.4951 140.214C60.4725 143.175 60.1504 146.702 59.6153 149.725C59.1958 152.562 58.0799 155.236 56.3773 157.484C54.6136 159.666 52.3859 160.8 49.8195 161.596Z" fill="#38768A"/>
<path d="M54.5918 150.968C52.5108 152.034 50.3527 152.926 48.1378 153.636C46.6602 154.051 45.2189 154.597 43.8296 155.268C45.222 152.022 46.7454 148.838 48.3616 145.689C50.4912 145.042 52.7299 144.034 54.3297 142.459C54.3486 142.442 54.3603 142.418 54.3623 142.393C54.3644 142.367 54.3566 142.341 54.3407 142.322C54.3247 142.302 54.302 142.29 54.2774 142.287C54.2528 142.285 54.2284 142.293 54.2096 142.31C52.4569 143.61 50.5239 144.389 48.5801 145.271C49.0169 144.423 49.461 143.576 49.9124 142.728C50.038 142.493 49.7267 142.259 49.5793 142.488C47.8487 145.122 46.2854 147.872 44.8998 150.722C44.5492 148.226 44.4358 145.7 44.5613 143.181C44.5639 143.173 44.5646 143.164 44.5635 143.156C44.5624 143.148 44.5595 143.14 44.5549 143.134C44.5504 143.127 44.5444 143.122 44.5374 143.118C44.5304 143.114 44.5227 143.112 44.5149 143.112C44.507 143.112 44.4993 143.114 44.4923 143.118C44.4854 143.122 44.4794 143.127 44.4748 143.134C44.4703 143.14 44.4673 143.148 44.4662 143.156C44.4651 143.164 44.4659 143.173 44.4685 143.181C44.056 145.93 44.0837 148.732 44.5504 151.472C43.3928 153.888 42.3663 156.368 41.3998 158.87C41.023 157.364 40.5371 155.881 40.2095 154.364C39.711 152.191 39.5506 149.948 39.7344 147.721C39.7344 147.658 39.6525 147.653 39.6416 147.721C39.0597 151.843 39.5366 156.053 41.023 159.918C40.477 161.424 39.931 162.941 39.4669 164.453C36.9866 172.192 35.5172 180.247 35.0986 188.399C35.105 188.433 35.1224 188.464 35.1478 188.485C35.1732 188.507 35.205 188.519 35.2379 188.519C35.2707 188.519 35.3025 188.507 35.3279 188.485C35.3533 188.464 35.3707 188.433 35.3771 188.399C36.2437 180.356 37.8903 172.426 40.2914 164.733C41.2469 161.727 42.3444 158.807 43.5675 155.938C45.5114 155.337 47.4443 154.518 49.3554 153.825C51.2651 153.224 53.0674 152.298 54.6901 151.083C54.7046 151.069 54.7133 151.05 54.7143 151.029C54.7153 151.009 54.7086 150.989 54.6956 150.974C54.6825 150.959 54.6643 150.949 54.6448 150.948C54.6254 150.947 54.6063 150.954 54.5918 150.968Z" fill="#263238"/>
<path d="M57.6603 147.721C55.6455 148.471 53.7399 149.525 51.725 150.287C51.6322 150.321 51.6868 150.476 51.7851 150.458C53.9091 149.995 56.0223 149.313 57.7368 147.842C57.8023 147.79 57.7149 147.698 57.6603 147.721Z" fill="#263238"/>
<path d="M41.225 143.169C41.225 143.055 41.094 142.992 41.0612 143.106C40.5152 145.053 40.1275 147.114 40.6626 149.107C40.6626 149.127 40.6701 149.146 40.6834 149.16C40.6967 149.174 40.7147 149.181 40.7336 149.181C40.7524 149.181 40.7705 149.174 40.7838 149.16C40.7971 149.146 40.8046 149.127 40.8046 149.107C40.9028 147.091 40.7882 145.145 41.225 143.169Z" fill="#263238"/>
<path d="M49.5242 138.674C48.8808 139.64 48.5724 140.808 48.6506 141.984C48.6506 142.058 48.7652 142.098 48.7871 142.012C49.0328 140.902 49.4423 139.882 49.7645 138.806C49.7763 138.773 49.7763 138.737 49.7645 138.704C49.7526 138.671 49.7297 138.644 49.7001 138.628C49.6705 138.612 49.6363 138.608 49.6038 138.616C49.5714 138.625 49.5431 138.645 49.5242 138.674Z" fill="#263238"/>
<path d="M10.6746 166.526C11.6356 169.738 13.9508 174.176 17.56 174.21C19.9134 174.21 22.2831 173.941 24.6584 173.907C27.1865 173.867 29.72 173.872 32.2372 174.033C32.4447 174.033 31.9369 166.096 25.8651 162.225C24.1615 161.143 22.0811 160.8 20.1536 160.364C17.944 159.813 15.6754 159.565 13.4047 159.626C12.0124 159.683 10.8493 159.992 10.3524 161.493C9.85555 162.993 10.2105 165.003 10.6746 166.526Z" fill="#38768A"/>
<path d="M13.2845 162.506C14.7588 162.907 16.2495 163.365 17.7292 163.857C17.3448 163.415 16.9364 162.996 16.5061 162.603C15.8727 162.031 15.1738 161.607 14.4913 161.12C14.4312 161.08 14.4913 160.966 14.5404 160.994C15.9759 161.623 17.2162 162.658 18.1224 163.983C19.9679 164.608 21.7917 165.3 23.5826 166.056C24.7966 166.58 25.9611 167.223 27.0608 167.974C26.7067 167.173 26.2845 166.406 25.7995 165.684C24.9968 164.59 23.9048 163.966 22.851 163.205C22.8292 163.192 22.8133 163.17 22.8066 163.145C22.8 163.12 22.8032 163.093 22.8155 163.07C22.8278 163.047 22.8482 163.031 22.8723 163.024C22.8963 163.017 22.9221 163.02 22.9438 163.033C24.0466 163.535 25.0373 164.273 25.8525 165.2C26.6677 166.127 27.2894 167.222 27.6778 168.415C28.942 169.368 30.098 170.468 31.1233 171.696C35.142 176.483 38.3035 182.851 38.3145 189.344C38.3145 189.499 38.0797 189.545 38.0524 189.384C37.0247 183.017 34.3845 177.057 30.408 172.126C30.1168 171.775 29.8219 171.437 29.5234 171.112C28.4226 170.958 27.3141 170.872 26.2036 170.855C24.9095 170.855 23.6263 171.055 22.3431 171.164C20.2246 171.347 17.8766 171.37 15.9655 170.253C15.8836 170.208 15.9655 170.053 16.0311 170.087C20.2955 171.714 24.7675 169.652 29.0374 170.62C27.212 168.796 25.074 167.35 22.7363 166.36L22.3486 166.194C19.6185 166.537 16.7245 167.287 14.0599 166.354C14.0453 166.348 14.0334 166.336 14.0264 166.321C14.0193 166.306 14.0177 166.289 14.0216 166.273C14.0256 166.257 14.035 166.243 14.0481 166.234C14.0611 166.224 14.077 166.22 14.0927 166.222C16.6699 166.898 19.138 166.05 21.677 165.913C18.9086 164.768 16.0911 163.886 13.3173 162.764C13.0388 162.661 13.0334 162.42 13.2845 162.506Z" fill="#263238"/>
<path d="M12.0777 165.335C13.3982 165.514 14.727 165.619 16.0582 165.65C16.091 165.65 16.1019 165.701 16.0582 165.707C14.718 165.968 13.3371 165.875 12.0394 165.438C11.9848 165.421 12.0121 165.323 12.0777 165.335Z" fill="#263238"/>
<path d="M21.0709 162.58C21.8081 162.926 22.4768 163.413 23.0421 164.018C23.1131 164.081 23.0421 164.212 22.9438 164.149C22.6107 163.897 22.2613 163.657 21.9173 163.422C21.5859 163.229 21.2651 163.017 20.9563 162.787C20.9398 162.767 20.9297 162.742 20.9273 162.716C20.9249 162.69 20.9305 162.663 20.9431 162.64C20.9558 162.618 20.9749 162.6 20.9978 162.589C21.0208 162.578 21.0463 162.575 21.0709 162.58Z" fill="#263238"/>
<path d="M42.5136 172.916C42.4699 173.025 42.6119 173.122 42.6665 173.008C42.6772 173.026 42.6915 173.041 42.7085 173.053C42.7254 173.065 42.7446 173.073 42.7648 173.076C45.2091 173.692 47.6873 174.149 50.1853 174.445C52.1947 174.628 54.5098 174.748 56.268 173.523C58.6487 171.868 60.2158 167.442 58.9272 164.63C57.4038 161.292 52.8117 163.102 50.5074 164.293C46.9644 166.1 44.1363 169.151 42.5136 172.916Z" fill="#38768A"/>
<path d="M40.7334 174.445C42.0717 173.087 43.5581 171.899 45.1617 170.906C46.3156 168.99 47.8457 167.355 49.65 166.108C49.7374 166.045 49.8138 166.188 49.7319 166.251C48.2967 167.459 47.0239 168.865 45.9479 170.431C47.7362 169.405 49.5941 168.519 51.5065 167.78C52.1879 166.452 53.224 165.361 54.4878 164.642C54.4878 164.642 54.5479 164.642 54.5206 164.682C53.4759 165.515 52.5653 166.519 51.8232 167.654C52.9535 167.207 54.0947 166.801 55.2359 166.4C55.3396 166.365 55.3778 166.531 55.2796 166.572C53.2483 167.402 51.1734 168.289 49.164 169.291C51.6169 169.698 54.1153 169.698 56.5682 169.291C56.5764 169.289 56.5851 169.288 56.5936 169.289C56.6022 169.291 56.6103 169.294 56.6173 169.299C56.6242 169.305 56.6299 169.312 56.6339 169.32C56.6378 169.328 56.6398 169.337 56.6398 169.346C56.6398 169.355 56.6378 169.364 56.6339 169.372C56.6299 169.38 56.6242 169.387 56.6173 169.392C56.6103 169.398 56.6022 169.401 56.5936 169.402C56.5851 169.404 56.5764 169.403 56.5682 169.4C54.0106 170.193 51.2948 170.234 48.7163 169.52C47.4358 170.177 46.1908 170.907 44.9869 171.708C45.9986 171.625 47.0164 171.714 48.001 171.971C49.7353 172.396 51.5111 172.605 53.292 172.595C53.3575 172.595 53.3794 172.71 53.292 172.721C50.2233 173.294 47.3185 171.811 44.2771 172.195C40.9067 174.584 38.2146 177.884 36.4853 181.746C35.2076 184.483 34.5087 187.38 33.4767 190.203C33.4694 190.23 33.4524 190.252 33.4294 190.266C33.4063 190.279 33.3792 190.282 33.3538 190.275C33.3285 190.267 33.307 190.249 33.2942 190.225C33.2814 190.201 33.2783 190.172 33.2856 190.146C34.2357 184.574 36.862 178.453 40.7334 174.445Z" fill="#263238"/>
<path d="M49.9885 166.824C50.193 166.444 50.4591 166.105 50.7748 165.821C51.0414 165.526 51.358 165.285 51.7085 165.111C51.7413 165.111 51.7576 165.146 51.7413 165.163C51.4901 165.466 51.1352 165.684 50.8676 165.97C50.6001 166.257 50.3653 166.6 50.0868 166.881C50.0796 166.894 50.0674 166.905 50.0531 166.909C50.0388 166.913 50.0234 166.911 50.0104 166.904C49.9973 166.896 49.9877 166.883 49.9836 166.868C49.9795 166.853 49.9813 166.837 49.9885 166.824Z" fill="#263238"/>
<path d="M55.0558 168.553C55.5091 168.433 55.9896 168.438 56.4537 168.341C56.9121 168.226 57.3642 168.084 57.8078 167.917C57.8203 167.914 57.8334 167.915 57.845 167.921C57.8565 167.927 57.8657 167.937 57.8709 167.949C57.8761 167.962 57.877 167.976 57.8735 167.989C57.8699 168.002 57.8622 168.013 57.8515 168.02C57.0148 168.559 56.0335 168.799 55.0558 168.702C55.037 168.702 55.019 168.694 55.0057 168.68C54.9923 168.666 54.9849 168.647 54.9849 168.627C54.9849 168.607 54.9923 168.589 55.0057 168.575C55.019 168.561 55.037 168.553 55.0558 168.553Z" fill="#263238"/>
<path d="M28.082 183.28L28.4861 188.079L29.8512 204.283H41.9511L43.6602 188.079L44.168 183.28H28.082Z" fill="#37474F"/>
<path d="M28.082 183.28L28.4861 188.079H43.6602L44.168 183.28H28.082Z" fill="#263238"/>
<path d="M26.8862 185.863H45.3638V181.969H26.8862V185.863Z" fill="#37474F"/>
<path d="M232.52 79.8558C232.329 79.0295 232.239 78.1809 232.252 77.3306C232.238 76.48 232.33 75.6311 232.525 74.8055C232.893 76.4668 232.893 78.1944 232.525 79.8558H232.52Z" fill="#263238"/>
<path d="M227.617 81.3389C226.512 80.0888 225.691 78.5934 225.214 76.9642C225.775 77.5775 226.258 78.2646 226.65 79.0084C227.066 79.7388 227.391 80.522 227.617 81.3389Z" fill="#263238"/>
<path d="M224.073 85.1925C223.296 84.951 222.552 84.6086 221.856 84.1733C221.148 83.7586 220.492 83.2506 219.907 82.6616C220.687 82.898 221.434 83.2406 222.129 83.6809C222.836 84.0957 223.489 84.6037 224.073 85.1925Z" fill="#263238"/>
<path d="M222.845 90.3861C222.056 90.5857 221.248 90.6819 220.437 90.6724C219.627 90.6828 218.82 90.5846 218.034 90.3804C218.822 90.1798 219.631 90.0855 220.442 90.0998C221.251 90.0899 222.058 90.1861 222.845 90.3861Z" fill="#263238"/>
<path d="M224.254 95.5281C223.669 96.1184 223.014 96.6265 222.304 97.0398C221.608 97.4738 220.861 97.8124 220.082 98.0476C220.67 97.4635 221.325 96.9577 222.031 96.5416C222.729 96.1082 223.476 95.7677 224.254 95.5281Z" fill="#263238"/>
<path d="M227.934 99.2443C227.708 100.059 227.383 100.841 226.967 101.569C226.573 102.313 226.089 103 225.526 103.613C225.752 102.796 226.077 102.013 226.492 101.283C226.89 100.543 227.374 99.858 227.934 99.2443Z" fill="#263238"/>
<path d="M232.892 100.533C233.083 101.359 233.173 102.208 233.159 103.058C233.174 103.909 233.082 104.757 232.886 105.583C232.518 103.922 232.518 102.194 232.886 100.533H232.892Z" fill="#263238"/>
<path d="M237.795 99.0496C238.352 99.6666 238.834 100.353 239.231 101.094C239.648 101.83 239.973 102.619 240.197 103.442C239.635 102.83 239.152 102.142 238.761 101.397C238.345 100.661 238.02 99.8725 237.795 99.0496Z" fill="#263238"/>
<path d="M241.333 95.196C242.112 95.4331 242.859 95.7737 243.555 96.2095C244.263 96.6277 244.918 97.1375 245.505 97.7269C243.95 97.2227 242.525 96.3576 241.333 95.196Z" fill="#263238"/>
<path d="M242.562 90.0025C244.146 89.6169 245.793 89.6169 247.377 90.0025C246.589 90.2031 245.78 90.2973 244.97 90.283C244.159 90.2944 243.35 90.2002 242.562 90.0025Z" fill="#263238"/>
<path d="M241.18 84.8547C242.372 83.6965 243.798 82.8352 245.352 82.3352C244.164 83.4988 242.736 84.3608 241.18 84.8547Z" fill="#263238"/>
<path d="M237.473 81.1442C237.705 80.3297 238.033 79.5488 238.45 78.8194C238.846 78.0782 239.33 77.3931 239.892 76.7809C239.666 77.597 239.339 78.3786 238.92 79.1057C238.522 79.8471 238.036 80.5321 237.473 81.1442Z" fill="#263238"/>
<path d="M271.056 126.568H135.86V229.34H271.056V126.568Z" fill="#38768A"/>
<path d="M183.626 115.929H135.86V126.568H186.373L183.626 115.929Z" fill="#38768A"/>
<g opacity="0.1">
<path d="M271.056 126.568H135.86V229.34H271.056V126.568Z" fill="black"/>
<path d="M183.626 115.929H135.86V126.568H186.373L183.626 115.929Z" fill="black"/>
</g>
<path d="M244.618 184.608C218.223 176.689 192.412 168.855 167.005 161.102C173.399 129.786 191.304 99.1061 192.505 67.3149C218.878 74.7588 244.672 82.2485 270.041 89.7497C263.598 121.575 245.715 152.565 244.618 184.608Z" fill="#EBEBEB"/>
<path d="M244.617 184.608C218.217 176.735 192.401 168.959 166.978 161.251L166.825 161.205L166.852 161.057C173.224 129.729 191.101 99.0431 192.248 67.2405C192.248 67.1603 192.248 67.0802 192.248 67L192.504 67.0744C218.899 74.5584 244.699 82.0539 270.095 89.5779L270.27 89.6295L270.231 89.8012C263.706 121.61 245.775 152.582 244.617 184.608ZM244.617 184.608C245.655 152.542 263.493 121.541 269.887 89.6982C269.937 89.7669 269.98 89.8413 270.029 89.9158C244.639 82.4432 218.856 74.9936 192.493 67.5554L192.761 67.3894C191.505 99.1691 173.574 129.844 167.163 161.154L167.038 160.959C192.439 168.758 218.222 176.637 244.617 184.608Z" fill="#DBDBDB"/>
<path d="M240.44 126.442C236.514 137.431 224.605 143.558 213.527 140.116C202.448 136.675 196.6 125.068 200.422 114.137C204.244 103.206 215.711 96.9588 226.926 100.36C238.141 103.761 244.41 115.414 240.44 126.442Z" fill="#455A64"/>
<path d="M220.45 120.247C215.902 125.698 211.299 131.126 206.799 136.572C203.552 134.064 201.173 130.514 200.025 126.459C198.877 122.405 199.022 118.068 200.438 114.108C204.206 103.229 215.782 96.9817 226.942 100.331C238.103 103.681 244.383 115.483 240.435 126.414C233.777 124.352 227.115 122.297 220.45 120.247Z" fill="#DBDBDB"/>
<path d="M220.45 120.247C224.42 125.841 228.346 131.436 232.354 137.047C229.619 138.968 226.516 140.237 223.263 140.762C220.009 141.287 216.686 141.057 213.527 140.088C202.442 136.681 196.638 124.971 200.422 114.108C204.206 103.246 215.766 96.9817 226.926 100.331C238.087 103.681 244.366 115.483 240.419 126.414C233.772 124.352 227.116 122.297 220.45 120.247Z" fill="#DBDBDB"/>
<path d="M220.451 120.247L199.483 123.911C199.016 120.611 199.346 117.24 200.444 114.108C204.212 103.229 215.788 96.9817 226.948 100.331C238.109 103.681 244.388 115.483 240.441 126.414C233.779 124.352 227.116 122.297 220.451 120.247Z" fill="#38768A"/>
<path d="M198.484 81.1033C209.197 84.226 219.835 87.3524 230.399 90.4826C230.213 91.29 230.022 92.1031 229.853 92.9162C219.326 89.786 208.733 86.6595 198.074 83.5369C198.2 82.7238 198.342 81.9164 198.484 81.1033Z" fill="#DBDBDB"/>
<path d="M196.07 143.724C210.187 148.087 224.384 152.477 238.66 156.894C238.447 157.701 238.24 158.514 238.038 159.322C223.707 154.912 209.47 150.522 195.328 146.152C195.568 145.335 195.815 144.525 196.07 143.724Z" fill="#DBDBDB"/>
<path d="M194.225 149.799C208.421 154.178 222.729 158.581 237.148 163.009C236.962 163.822 236.788 164.635 236.602 165.443C222.136 161.011 207.779 156.6 193.531 152.21C193.766 151.402 193.99 150.601 194.225 149.799Z" fill="#DBDBDB"/>
<path d="M192.57 155.88C206.898 160.285 221.344 164.712 235.908 169.159C235.767 169.972 235.63 170.785 235.504 171.604C220.853 167.141 206.343 162.706 191.975 158.297C192.166 157.489 192.368 156.682 192.57 155.88Z" fill="#DBDBDB"/>
<path d="M187.722 143.792L182.611 142.206C182.867 141.405 183.13 140.609 183.392 139.807L188.519 141.387C188.239 142.189 187.973 142.991 187.722 143.792Z" fill="#38768A"/>
<path d="M185.887 149.856L180.716 148.264C180.951 147.463 181.191 146.661 181.437 145.865L186.591 147.451C186.356 148.253 186.127 149.055 185.887 149.856Z" fill="#455A64"/>
<path d="M184.249 155.932L179.034 154.334C179.242 153.532 179.455 152.731 179.673 151.929L184.866 153.521C184.669 154.323 184.462 155.13 184.249 155.932Z" fill="#DBDBDB"/>
<path d="M269.052 112.906C268.783 149.48 268.455 185.646 268.07 221.404C225.294 224.043 179.766 208.858 137.864 217.143C138.126 180.573 138.453 144.405 138.847 108.64C181.622 106.006 227.145 121.192 269.052 112.906Z" fill="#38768A"/>
<path opacity="0.8" d="M269.052 112.906C268.783 149.48 268.455 185.646 268.07 221.404C225.294 224.043 179.766 208.858 137.864 217.143C138.126 180.573 138.453 144.405 138.847 108.64C181.622 106.006 227.145 121.192 269.052 112.906Z" fill="white"/>
<path d="M156.8 204.941C157.022 185.091 157.26 165.342 157.515 145.693C158.607 145.693 159.719 145.716 160.851 145.762C160.597 165.376 160.351 185.066 160.114 204.832C159.008 204.871 157.903 204.907 156.8 204.941Z" fill="#DBDBDB"/>
<path d="M165.176 204.792C165.423 185.102 165.682 165.49 165.951 145.957C167.07 146.008 168.184 146.071 169.304 146.14C169.031 165.639 168.765 185.203 168.507 204.832C167.398 204.809 166.284 204.792 165.176 204.792Z" fill="#DBDBDB"/>
<path d="M173.601 204.998C173.87 185.431 174.143 165.926 174.42 146.484L177.789 146.759C177.502 166.178 177.219 185.646 176.943 205.164C175.836 205.103 174.722 205.048 173.601 204.998Z" fill="#DBDBDB"/>
<path d="M182.064 205.491C182.479 176.983 182.907 148.56 183.348 120.224L186.728 120.585C186.287 148.917 185.856 177.307 185.433 205.754C184.32 205.663 183.2 205.571 182.064 205.491Z" fill="#DBDBDB"/>
<path d="M190.583 206.212C191.012 177.803 191.451 149.454 191.898 121.163L195.284 121.552C194.843 149.854 194.403 178.183 193.962 206.539C192.838 206.424 191.707 206.315 190.583 206.212Z" fill="#DBDBDB"/>
<path d="M199.117 207.083C199.554 178.742 199.996 150.429 200.444 122.142L203.835 122.526C203.387 150.847 202.941 179.157 202.497 207.455L199.117 207.083Z" fill="#DBDBDB"/>
<path d="M207.657 208.039C208.104 179.737 208.549 151.421 208.989 123.093L212.369 123.448C211.936 151.815 211.495 180.142 211.048 208.428L207.657 208.039Z" fill="#DBDBDB"/>
<path d="M216.208 209.018C216.652 180.708 217.088 152.353 217.518 123.952C218.643 124.055 219.768 124.152 220.892 124.244C220.467 152.702 220.033 181.086 219.593 209.396C218.463 209.276 217.338 209.15 216.208 209.018Z" fill="#DBDBDB"/>
<path d="M224.748 209.951C225.184 181.592 225.608 153.153 226.02 124.633C227.139 124.713 228.264 124.782 229.378 124.845C228.981 153.433 228.564 181.913 228.127 210.284L224.748 209.951Z" fill="#DBDBDB"/>
<path d="M233.271 210.765C233.693 182.317 234.099 153.762 234.489 125.097C235.603 125.143 236.716 125.177 237.83 125.2C237.466 153.956 237.07 182.571 236.64 211.045L233.271 210.765Z" fill="#DBDBDB"/>
<path d="M241.762 211.4C242.166 182.827 242.548 154.115 242.908 125.263C244 125.263 245.107 125.251 246.228 125.228C245.89 154.187 245.526 182.972 245.136 211.583C244.008 211.534 242.883 211.473 241.762 211.4Z" fill="#DBDBDB"/>
<path d="M250.22 211.761C250.584 183.027 250.935 154.118 251.274 125.034C252.366 124.977 253.458 124.914 254.55 124.833C254.244 154.036 253.905 183.033 253.534 211.824C252.442 211.828 251.337 211.807 250.22 211.761Z" fill="#DBDBDB"/>
<path d="M266.322 116.382H139.775V219.766H266.322V116.382Z" fill="#EBEBEB"/>
<path d="M266.328 116.382L266.497 219.777V219.961H266.328L139.775 220.058H139.507V219.777L139.573 116.399V116.181H139.775L266.328 116.382ZM266.328 116.382L139.775 116.594L139.982 116.382L140.021 219.777L139.753 219.497L266.306 219.6L266.153 219.777L266.328 116.382Z" fill="#DBDBDB"/>
<path d="M166.82 208.451L166.727 168.071L166.82 127.691L166.918 168.071L166.82 208.451Z" fill="#C7C7C7"/>
<path d="M169.965 208.451L169.866 168.071L169.965 127.691L170.058 168.071L169.965 208.451Z" fill="#C7C7C7"/>
<path d="M173.104 208.451L173.006 168.071L173.104 127.691L173.203 168.071L173.104 208.451Z" fill="#C7C7C7"/>
<path d="M176.244 208.451L176.146 168.071L176.244 127.691L176.343 168.071L176.244 208.451Z" fill="#C7C7C7"/>
<path d="M179.384 208.451L179.285 168.071L179.384 127.691L179.482 168.071L179.384 208.451Z" fill="#C7C7C7"/>
<path d="M182.524 208.451L182.431 168.071L182.524 127.691L182.622 168.071L182.524 208.451Z" fill="#C7C7C7"/>
<path d="M185.669 208.451L185.57 168.071L185.669 127.691L185.762 168.071L185.669 208.451Z" fill="#C7C7C7"/>
<path d="M188.808 208.451L188.709 168.071L188.808 127.691L188.901 168.071L188.808 208.451Z" fill="#C7C7C7"/>
<path d="M191.948 208.451L191.85 168.071L191.948 127.691L192.047 168.071L191.948 208.451Z" fill="#C7C7C7"/>
<path d="M195.088 208.451L194.989 168.071L195.088 127.691L195.186 168.071L195.088 208.451Z" fill="#C7C7C7"/>
<path d="M198.227 208.451L198.129 168.071L198.227 127.691L198.326 168.071L198.227 208.451Z" fill="#C7C7C7"/>
<path d="M201.367 208.451L201.274 168.071L201.367 127.691L201.466 168.071L201.367 208.451Z" fill="#C7C7C7"/>
<path d="M204.512 208.451L204.414 168.071L204.512 127.691L204.605 168.071L204.512 208.451Z" fill="#C7C7C7"/>
<path d="M207.652 208.451L207.553 168.071L207.652 127.691L207.75 168.071L207.652 208.451Z" fill="#C7C7C7"/>
<path d="M210.791 208.451L210.693 168.071L210.791 127.691L210.89 168.071L210.791 208.451Z" fill="#C7C7C7"/>
<path d="M201.269 193.781V199.908H214.45V193.781H201.269Z" fill="#38768A"/>
<path d="M194.241 182.421V188.547H214.449V182.421H194.241Z" fill="#38768A"/>
<path d="M186.367 171.066V177.193H214.449V171.066H186.367Z" fill="#38768A"/>
<path d="M182.987 159.699V165.826H214.449V159.699H182.987Z" fill="#38768A"/>
<path d="M176.97 148.339V154.466H214.455V148.339H176.97Z" fill="#38768A"/>
<path d="M171.013 136.978V143.105H214.449V136.978H171.013Z" fill="#38768A"/>
<path d="M164.619 206.264L177.074 206.104L189.534 205.995C197.839 205.92 206.145 205.897 214.45 205.88L214.089 206.264V186.618L214.133 166.977L214.253 147.331L214.466 127.691L214.684 147.331L214.799 166.977L214.843 186.618V206.264V206.642H214.482C206.177 206.642 197.872 206.602 189.567 206.527L177.107 206.419L164.619 206.264Z" fill="#C7C7C7"/>
<path d="M217.087 193.787V199.914H217.617V193.787H217.087Z" fill="#C7C7C7"/>
<path d="M217.082 182.426V188.553H217.611V182.426H217.082Z" fill="#C7C7C7"/>
<path d="M217.082 171.066V177.193H217.611V171.066H217.082Z" fill="#C7C7C7"/>
<path d="M217.082 159.699V165.826H217.611V159.699H217.082Z" fill="#C7C7C7"/>
<path d="M217.087 148.339V154.466H217.617V148.339H217.087Z" fill="#C7C7C7"/>
<path d="M217.087 136.978V143.105H217.617V136.978H217.087Z" fill="#C7C7C7"/>
<path d="M202.934 199.221C202.884 196.228 202.662 193.241 202.267 190.277C201.912 187.313 201.407 184.372 200.755 181.464C199.506 175.642 197.609 169.994 195.104 164.635C192.642 159.261 189.431 154.301 185.575 149.919L184.86 149.095L184.101 148.31L182.578 146.747C181.486 145.785 180.465 144.749 179.301 143.884C177.057 142.032 174.684 140.358 172.203 138.874L172.23 138.822C179.96 142.907 186.58 148.976 191.472 156.464C193.114 158.942 194.575 161.548 195.841 164.257C198.348 169.686 200.204 175.419 201.366 181.327C202.582 187.202 203.108 193.211 202.934 199.221Z" fill="#263238"/>
<path d="M176.299 137.133L176.501 137.98L172.515 139.023L173.798 143.117L173.001 143.386L171.444 138.398L176.299 137.133Z" fill="#263238"/>
<path d="M237.295 210.181V125.961H234.047V210.181H237.295Z" fill="#DBDBDB"/>
<path d="M245.497 210.175V162.763H242.248V210.175H245.497Z" fill="#DBDBDB"/>
<path d="M157.013 191.777V144.365H153.764V191.777H157.013Z" fill="#DBDBDB"/>
<path d="M289.659 121.392L289.61 224.776L163.057 224.708L163.095 147.95L187.219 121.34L289.659 121.392Z" fill="#38768A"/>
<path opacity="0.6" d="M289.659 121.392L289.61 224.776L163.057 224.708L163.095 147.95L187.219 121.34L289.659 121.392Z" fill="white"/>
<path d="M163.096 147.95L187.219 121.34L187.208 147.961L163.096 147.95Z" fill="#38768A"/>
<path opacity="0.4" d="M163.096 147.95L187.219 121.34L187.208 147.961L163.096 147.95Z" fill="white"/>
<path d="M187.542 214.634L187.571 157.156L184.322 157.154L184.293 214.633L187.542 214.634Z" fill="white"/>
<path d="M195.745 214.634L195.773 157.156L192.525 157.154L192.496 214.633L195.745 214.634Z" fill="white"/>
<path d="M203.947 214.64L203.976 157.162L200.727 157.16L200.699 214.638L203.947 214.64Z" fill="white"/>
<path d="M212.148 214.647L212.19 130.428L208.942 130.426L208.9 214.645L212.148 214.647Z" fill="white"/>
<path d="M220.351 214.653L220.393 130.434L217.144 130.432L217.102 214.651L220.351 214.653Z" fill="white"/>
<path d="M228.554 214.659L228.596 130.44L225.347 130.438L225.305 214.657L228.554 214.659Z" fill="white"/>
<path d="M236.756 214.659L236.798 130.44L233.549 130.438L233.507 214.657L236.756 214.659Z" fill="white"/>
<path d="M244.953 214.664L244.995 130.445L241.746 130.443L241.704 214.663L244.953 214.664Z" fill="white"/>
<path d="M253.161 214.664L253.203 130.445L249.954 130.443L249.912 214.663L253.161 214.664Z" fill="white"/>
<path d="M261.364 214.676L261.406 130.457L258.157 130.455L258.115 214.674L261.364 214.676Z" fill="white"/>
<path d="M269.56 214.681L269.603 130.462L266.354 130.461L266.312 214.68L269.56 214.681Z" fill="white"/>
<path d="M277.763 214.681L277.805 130.462L274.556 130.461L274.514 214.68L277.763 214.681Z" fill="white"/>
<path d="M270.701 229.34H135.505L125.076 135.094H260.272L270.701 229.34Z" fill="#38768A"/>
<path d="M171.767 125.337H124L125.076 135.094H175.589L171.767 125.337Z" fill="#38768A"/>
<path d="M172.2 241.65C170.568 242.18 123.954 241.766 122.184 240.626C121.513 240.19 121.18 233.366 121.007 225.103C120.971 223.325 120.942 221.473 120.92 219.607L117.446 194.574L148.608 194.762L151.245 219.789L151.057 225.285C151.057 225.285 168.834 233.467 170.64 234.927C172.446 236.386 173.861 241.141 172.2 241.65Z" fill="#EB9481"/>
<path d="M172.2 241.65C170.568 242.18 123.954 241.766 122.185 240.626C121.368 240.096 121.043 230.127 120.92 219.571L151.259 219.752L151.071 225.249C151.071 225.249 168.848 233.431 170.654 234.89C172.46 236.35 173.862 241.141 172.2 241.65Z" fill="white"/>
<path d="M172.2 241.65C170.567 242.18 123.954 241.766 122.184 240.626C121.512 240.19 121.18 233.366 121.007 225.103L151.057 225.285C151.057 225.285 168.834 233.467 170.64 234.927C172.445 236.386 173.861 241.141 172.2 241.65Z" fill="#38768A"/>
<path d="M171.55 239.769C163.734 239.508 132.203 239.188 124.46 239.53C124.402 239.53 124.402 239.573 124.46 239.573C132.196 240.009 163.734 240.067 171.55 239.893C171.694 239.893 171.694 239.769 171.55 239.769Z" fill="#263238"/>
<path d="M167.656 233.22C166.787 233.188 165.921 233.337 165.112 233.66C164.304 233.983 163.571 234.471 162.961 235.094C161.858 236.205 161.222 237.699 161.184 239.268C161.184 239.319 161.271 239.319 161.278 239.268C161.553 237.714 162.324 236.292 163.475 235.217C164.626 234.143 166.094 233.475 167.656 233.315C167.666 233.311 167.674 233.304 167.679 233.296C167.685 233.288 167.688 233.278 167.688 233.268C167.688 233.257 167.685 233.247 167.679 233.239C167.674 233.231 167.666 233.224 167.656 233.22Z" fill="#263238"/>
<path d="M154.084 226.091C150.956 226.018 147.322 227.1 145.35 229.648C145.278 229.75 145.415 229.859 145.509 229.808C148.259 228.394 151.15 227.277 154.134 226.475C154.179 226.463 154.218 226.434 154.244 226.395C154.27 226.355 154.281 226.308 154.275 226.261C154.269 226.214 154.246 226.171 154.211 226.14C154.176 226.109 154.131 226.091 154.084 226.091Z" fill="#263238"/>
<path d="M156.525 227.056C153.397 226.984 149.764 228.066 147.799 230.621C147.72 230.716 147.857 230.824 147.951 230.781C150.682 229.365 153.557 228.247 156.525 227.448C156.568 227.437 156.606 227.411 156.632 227.376C156.659 227.34 156.674 227.297 156.674 227.252C156.674 227.208 156.659 227.165 156.632 227.129C156.606 227.094 156.568 227.068 156.525 227.056Z" fill="#263238"/>
<path d="M158.895 228.029C155.767 227.957 152.133 229.031 150.169 231.587C150.089 231.681 150.234 231.79 150.32 231.747C153.067 230.327 155.959 229.21 158.945 228.414C158.99 228.401 159.03 228.373 159.055 228.333C159.081 228.294 159.092 228.246 159.086 228.2C159.08 228.153 159.057 228.11 159.022 228.079C158.987 228.047 158.942 228.03 158.895 228.029Z" fill="#263238"/>
<path d="M161.3 228.995C158.172 228.922 154.539 229.997 152.574 232.552C152.494 232.654 152.639 232.763 152.733 232.712C155.48 231.297 158.368 230.18 161.35 229.38C161.396 229.367 161.435 229.338 161.461 229.299C161.486 229.259 161.497 229.212 161.491 229.165C161.485 229.118 161.462 229.075 161.427 229.044C161.392 229.013 161.347 228.995 161.3 228.995Z" fill="#263238"/>
<path d="M126.519 232.088C123.008 232.088 122.972 237.548 126.483 237.569C129.993 237.591 130.029 232.11 126.519 232.088Z" fill="#263238"/>
<path d="M157.536 217.734C155.961 216.398 153.924 217.669 152.971 219.034C151.328 221.395 150.332 224.149 150.082 227.02C150.08 227.032 150.082 227.045 150.086 227.057C150.09 227.068 150.097 227.079 150.107 227.087C150.116 227.096 150.127 227.102 150.139 227.106C150.151 227.109 150.163 227.11 150.175 227.107C150.187 227.167 150.213 227.223 150.25 227.271C150.288 227.319 150.336 227.357 150.391 227.383C150.446 227.408 150.506 227.42 150.566 227.418C150.627 227.415 150.686 227.398 150.739 227.369C152.978 225.837 155.557 224.464 157.24 222.286C158.244 221.067 159.024 218.997 157.536 217.734ZM153.635 224.377C152.552 225.161 151.468 225.88 150.378 226.701C150.901 225.122 151.503 223.571 152.184 222.054C152.521 221.325 152.91 220.622 153.347 219.948C154.033 218.91 157.124 216.318 157.406 219.738C157.565 221.626 154.929 223.455 153.635 224.377Z" fill="#263238"/>
<path d="M142.28 228.145C144.996 228.588 147.813 227.833 150.493 227.419C150.551 227.404 150.604 227.375 150.65 227.336C150.695 227.296 150.73 227.247 150.753 227.192C150.776 227.136 150.786 227.076 150.782 227.016C150.779 226.956 150.761 226.898 150.732 226.846C150.742 226.838 150.751 226.829 150.756 226.817C150.762 226.806 150.765 226.793 150.765 226.78C150.765 226.768 150.762 226.755 150.756 226.744C150.751 226.732 150.742 226.722 150.732 226.715C148.611 224.761 146.014 223.403 143.205 222.78C141.558 222.446 139.225 222.874 138.965 224.922C138.704 226.969 140.691 227.884 142.28 228.145ZM140.402 226.338C138.314 223.622 142.338 223.433 143.544 223.731C144.319 223.937 145.079 224.194 145.82 224.501C147.365 225.118 148.796 225.953 150.262 226.679C148.94 226.795 147.633 227.02 146.311 227.18C144.729 227.39 141.558 227.833 140.402 226.338Z" fill="#263238"/>
<path d="M73.0791 78.5096C73.0791 78.5096 108.474 140.832 109.421 145.189C110.865 151.883 117.908 217.901 117.908 217.901L152.776 217.683C152.776 217.683 146.997 159.484 141.089 140.259C137.867 129.768 120.863 101.314 112.917 87.2584C112.194 86.0023 112.411 80.2594 112.411 80.2594L73.0791 78.5096Z" fill="#455A64"/>
<path d="M149.425 211.831C144.021 211.73 127.653 211.272 120.451 211.831C120.393 211.831 120.393 211.926 120.451 211.933C122.921 212.325 144.021 212.064 149.425 211.933C149.435 211.943 149.448 211.95 149.462 211.953C149.476 211.956 149.49 211.955 149.503 211.949C149.517 211.944 149.528 211.935 149.536 211.923C149.544 211.911 149.548 211.897 149.548 211.882C149.548 211.868 149.544 211.854 149.536 211.842C149.528 211.83 149.517 211.82 149.503 211.815C149.49 211.81 149.476 211.808 149.462 211.811C149.448 211.814 149.435 211.821 149.425 211.831Z" fill="#263238"/>
<path d="M79.183 84.2598C81.5089 88.0279 83.9649 91.7162 86.3415 95.4553C88.718 99.1944 91.0946 102.933 93.435 106.694C98.111 114.216 102.686 121.803 107.16 129.456C109.325 132.981 111.167 136.697 112.664 140.557C114.034 144.427 115.049 148.415 115.698 152.471C116.384 156.537 116.825 160.646 117.229 164.748C117.663 169.104 118.094 173.475 118.522 177.86C119.408 186.805 120.292 195.759 121.173 204.724C121.282 205.82 121.39 206.902 121.484 208.02C121.484 208.179 121.209 208.208 121.195 208.02C120.191 199.126 119.382 190.217 118.486 181.316L117.143 168.022C116.731 163.906 116.334 159.782 115.748 155.68C115.195 151.637 114.337 147.642 113.184 143.729C111.932 139.681 110.236 135.785 108.128 132.113C103.859 124.497 99.3366 117.004 94.8074 109.526C90.2783 102.048 85.6336 94.4751 80.8516 87.0696C80.2593 86.1548 79.6669 85.2472 79.0529 84.3469C79.0168 84.2526 79.1396 84.1872 79.183 84.2598Z" fill="#263238"/>
<path d="M87.0999 244.191C85.3807 244.046 41.2811 225.466 40.0675 223.717C40.0146 223.616 39.992 223.503 40.0025 223.39C40.0025 221.858 43.1664 216.529 45.7813 209.53C45.9475 209.08 47.1177 207.011 48.7358 204.208C53.1927 196.534 61.0808 183.378 61.0808 183.378L89.9098 195.307L75.7878 215.999L73.5702 221.023C73.5702 221.023 86.9915 235.311 88.1111 237.352C89.2308 239.392 88.8046 244.307 87.0999 244.191Z" fill="#EB9481"/>
<path d="M87.0999 244.191C85.3807 244.046 41.2811 225.466 40.0675 223.717C40.0146 223.616 39.992 223.503 40.0025 223.39C40.0025 221.858 43.1664 216.529 45.7813 209.53C45.9475 209.08 47.1177 207.011 48.7358 204.208L75.7878 215.999L73.5702 221.023C73.5702 221.023 86.9915 235.311 88.1111 237.352C89.2308 239.392 88.8046 244.307 87.0999 244.191Z" fill="white"/>
<path d="M87.0926 244.191C85.3806 244.067 41.2738 225.466 40.0675 223.738C39.6052 223.085 41.6567 217.023 45.8463 209.552L73.6352 221.045C73.6352 221.045 87.0637 235.333 88.1906 237.373C89.3174 239.413 88.8046 244.307 87.0926 244.191Z" fill="#38768A"/>
<path d="M87.1795 242.201C80.0354 239.014 50.9174 226.831 43.6217 224.225C43.5567 224.225 43.5422 224.225 43.6217 224.268C50.6357 227.586 79.8404 239.515 87.1506 242.318C87.2951 242.376 87.3384 242.267 87.1795 242.201Z" fill="#263238"/>
<path d="M86.0235 234.658C85.2265 234.306 84.3656 234.125 83.4952 234.125C82.6249 234.125 81.764 234.306 80.967 234.658C79.5288 235.272 78.3805 236.418 77.7598 237.86C77.7598 237.903 77.8176 237.94 77.8464 237.896C78.681 236.559 79.9264 235.531 81.3941 234.969C82.8618 234.407 84.4718 234.341 85.9801 234.781C85.9964 234.787 86.0143 234.786 86.0299 234.779C86.0455 234.771 86.0574 234.758 86.0632 234.741C86.0689 234.725 86.068 234.707 86.0605 234.691C86.0531 234.676 86.0397 234.664 86.0235 234.658Z" fill="#263238"/>
<path d="M76.1054 222.94C73.216 221.691 69.4598 221.321 66.7149 222.94C66.6065 223.005 66.7149 223.158 66.8016 223.143C69.8759 222.868 72.9707 222.924 76.0332 223.31C76.0756 223.307 76.1156 223.289 76.1473 223.261C76.179 223.232 76.2006 223.194 76.2087 223.152C76.2169 223.11 76.2113 223.067 76.1926 223.029C76.174 222.99 76.1434 222.959 76.1054 222.94Z" fill="#263238"/>
<path d="M77.9765 224.74C75.0871 223.499 71.3309 223.121 68.586 224.74C68.4776 224.806 68.586 224.958 68.6727 224.951C71.7466 224.67 74.8418 224.724 77.9043 225.111C77.9467 225.107 77.9867 225.09 78.0184 225.061C78.0501 225.033 78.0717 224.995 78.0799 224.953C78.088 224.911 78.0824 224.868 78.0637 224.829C78.0451 224.791 78.0145 224.76 77.9765 224.74Z" fill="#263238"/>
<path d="M79.8403 226.548C76.9509 225.299 73.2019 224.929 70.4497 226.548C70.3414 226.606 70.4497 226.759 70.5364 226.751C73.6132 226.477 76.7103 226.533 79.7753 226.918C79.8171 226.914 79.8563 226.895 79.887 226.866C79.9176 226.837 79.9382 226.799 79.9455 226.758C79.9528 226.716 79.9465 226.673 79.9275 226.635C79.9086 226.598 79.878 226.567 79.8403 226.548Z" fill="#263238"/>
<path d="M81.7109 228.349C78.8215 227.107 75.0653 226.73 72.3203 228.349C72.212 228.414 72.3203 228.566 72.407 228.559C75.4834 228.278 78.5809 228.332 81.6459 228.719C81.6877 228.714 81.7269 228.696 81.7576 228.667C81.7882 228.638 81.8088 228.6 81.8161 228.558C81.8234 228.517 81.8171 228.474 81.7981 228.436C81.7792 228.398 81.7486 228.368 81.7109 228.349Z" fill="#263238"/>
<path d="M48.3168 218.097C45.0735 216.761 42.9931 221.822 46.2365 223.179C49.4798 224.537 51.5674 219.448 48.3168 218.097Z" fill="#263238"/>
<path d="M82.4261 216.493C81.4654 214.663 79.1322 215.084 77.7091 215.977C75.2906 217.547 73.3271 219.731 72.017 222.308C72.0111 222.319 72.008 222.332 72.0078 222.344C72.0077 222.357 72.0105 222.37 72.0162 222.381C72.0218 222.392 72.0301 222.402 72.0403 222.41C72.0505 222.417 72.0623 222.422 72.0748 222.424C72.0627 222.483 72.0649 222.545 72.0812 222.603C72.0974 222.661 72.1274 222.714 72.1684 222.758C72.2094 222.802 72.2604 222.836 72.317 222.856C72.3736 222.876 72.4342 222.883 72.4938 222.874C75.1448 222.308 78.0414 222.025 80.4396 220.653C81.8338 219.854 83.329 218.22 82.4261 216.493ZM76.3439 221.183C75.0509 221.495 73.7507 221.742 72.4649 222.105C73.5773 220.878 74.6319 219.6 75.8671 218.475C76.4554 217.929 77.0779 217.422 77.7308 216.957C78.7565 216.231 82.5922 215.019 81.5809 218.293C81.0031 220.086 77.8753 220.812 76.3439 221.183Z" fill="#263238"/>
<path d="M64.3963 220.391C66.7511 221.843 69.6405 222.185 72.2699 222.831C72.5444 222.903 72.725 222.628 72.7105 222.395C72.7232 222.392 72.7351 222.386 72.7452 222.378C72.7554 222.37 72.7635 222.359 72.7691 222.348C72.7746 222.336 72.7774 222.323 72.7773 222.31C72.7772 222.296 72.7741 222.284 72.7683 222.272C71.5254 219.662 69.6224 217.426 67.2496 215.788C65.8554 214.859 63.5294 214.373 62.5254 216.173C61.5213 217.974 63.0238 219.549 64.3963 220.391ZM63.3416 218.01C62.417 214.699 66.231 216.05 67.2207 216.776C67.86 217.259 68.468 217.783 69.041 218.344C70.2473 219.498 71.2658 220.805 72.3421 222.061C71.0708 221.669 69.7778 221.386 68.492 221.038C66.9534 220.616 63.8473 219.832 63.3416 218.01Z" fill="#263238"/>
<path d="M78.0707 214.881L45.8032 201.318C45.8032 201.318 86.7389 142.393 87.0928 137.979C87.4035 134.066 70.1609 99.7534 69.5903 89.8067C68.969 79.0759 74.2061 70.8427 79.9127 65.7605L112.419 80.2812C112.419 80.2812 109.58 86.0894 103.981 89.2114C103.981 89.2114 120.653 128.824 119.526 140.934C118.4 153.044 78.0707 214.881 78.0707 214.881Z" fill="#455A64"/>
<path d="M79.5877 208.702C74.9285 206.618 76.2937 207.148 71.6057 205.116C69.3086 204.121 54.2692 197.601 51.9288 197.049C51.8782 197.049 51.8421 197.122 51.9288 197.151C53.9297 198.414 69.1208 204.673 71.4323 205.617C76.1565 207.562 74.8201 206.952 79.566 208.84C79.5816 208.838 79.5961 208.831 79.6074 208.82C79.6187 208.809 79.6262 208.795 79.6286 208.779C79.6311 208.764 79.6284 208.748 79.621 208.734C79.6136 208.72 79.6019 208.709 79.5877 208.702Z" fill="#263238"/>
<path d="M109.507 88.5434C106.013 89.3103 102.59 90.3792 99.2786 91.738C99.2568 91.7503 99.2399 91.7698 99.2307 91.7932C99.2215 91.8166 99.2207 91.8424 99.2283 91.8664C99.236 91.8903 99.2517 91.9109 99.2727 91.9245C99.2937 91.9382 99.3188 91.9441 99.3437 91.9413C102.775 90.9757 106.271 90.0826 109.637 88.9428C109.686 88.9228 109.726 88.8848 109.749 88.8363C109.771 88.7879 109.774 88.7327 109.758 88.682C109.741 88.6312 109.706 88.5887 109.66 88.563C109.613 88.5372 109.559 88.5303 109.507 88.5434Z" fill="#263238"/>
<path d="M105.556 87.1059C105.226 87.6851 104.932 88.284 104.675 88.8992C104.428 89.366 104.274 89.8763 104.22 90.4021C104.223 90.4232 104.232 90.443 104.246 90.4593C104.259 90.4756 104.277 90.4878 104.297 90.4946C104.318 90.5013 104.339 90.5024 104.36 90.4976C104.381 90.4928 104.4 90.4823 104.415 90.4674C104.77 90.0443 105.06 89.5694 105.274 89.0589C105.563 88.5071 105.867 87.9553 106.141 87.3963C106.329 87.026 105.766 86.7501 105.556 87.1059Z" fill="#263238"/>
<path d="M106.004 83.9549C106.213 83.4394 106.423 82.9239 106.647 82.4157C106.87 81.9075 107.145 81.3629 107.369 80.8184C107.369 80.7313 107.535 80.8184 107.499 80.8837C107.289 81.3992 107.152 81.9438 106.979 82.481C106.805 83.0183 106.625 83.541 106.444 84.071C106.105 85.0584 105.722 86.0313 105.26 86.9752C105.809 87.0087 106.359 86.9194 106.87 86.7138C107.384 86.3953 107.786 85.9231 108.019 85.3634C108.322 84.7826 108.597 84.1945 108.907 83.6282C109.281 83.0113 109.6 82.3626 109.861 81.6896C109.861 81.6025 110.02 81.6896 109.991 81.7477C109.52 83.1812 108.905 84.563 108.156 85.8716C107.846 86.3798 107.586 86.9098 107.015 87.1059C106.393 87.2738 105.744 87.3085 105.108 87.2075C105.028 87.2075 104.927 87.2075 104.956 87.0841C105.252 86.0236 105.601 84.9792 106.004 83.9549Z" fill="#263238"/>
<path d="M104.516 90.482C105.672 93.0303 106.683 95.5642 107.766 98.1053C108.85 100.646 109.811 103.093 110.764 105.613C112.69 110.709 114.412 115.879 115.929 121.121C116.671 123.71 117.35 126.319 117.966 128.947C118.634 131.572 119.117 134.241 119.411 136.934C119.67 139.621 119.407 142.333 118.638 144.92C117.842 147.478 116.824 149.961 115.597 152.34C114.874 153.843 114.607 153.64 114.968 152.877C115.994 150.699 118.688 144.165 118.58 138.633C118.453 135.964 118.071 133.314 117.439 130.719C116.861 128.062 116.196 125.426 115.474 122.805C114.029 117.643 112.346 112.575 110.598 107.522C109.616 104.69 108.554 101.881 107.557 99.0564C106.56 96.2322 105.513 93.6402 104.393 90.5328C104.393 90.5186 104.398 90.5047 104.406 90.493C104.414 90.4812 104.425 90.4721 104.438 90.4667C104.451 90.4612 104.465 90.4598 104.479 90.4625C104.493 90.4653 104.506 90.472 104.516 90.482Z" fill="#263238"/>
<path d="M79.9557 81.8131C80.5408 81.6025 81.3426 81.9655 81.935 82.0745C82.6917 82.2121 83.4566 82.2994 84.2248 82.3358C84.986 82.3698 85.7485 82.3528 86.5074 82.285C87.2626 82.2728 88.0046 82.0838 88.6745 81.7332C89.7867 80.9492 90.7444 79.9645 91.4989 78.8291C92.397 77.6615 93.1423 76.3829 93.7165 75.0246C93.7165 74.9448 93.861 75.0247 93.8321 75.0827C93.5793 75.8596 93.3914 76.6437 93.0664 77.406C92.7591 78.1197 92.3943 78.8068 91.9756 79.4607C91.2843 80.7765 90.276 81.8972 89.0429 82.7206C87.6921 83.4467 85.9584 83.4031 84.456 83.3015C83.5885 83.2372 82.7268 83.1111 81.8772 82.9239C81.2632 82.786 80.2374 82.6698 79.8474 82.1253C79.8249 82.1001 79.8096 82.0694 79.803 82.0363C79.7964 82.0032 79.7987 81.9689 79.8098 81.937C79.8209 81.9051 79.8402 81.8768 79.8659 81.855C79.8916 81.8332 79.9226 81.8187 79.9557 81.8131Z" fill="#263238"/>
<path d="M55.136 195.22C60.5681 187.18 65.9014 179.075 71.1361 170.905C76.3707 162.734 81.5379 154.487 86.6377 146.162C87.8513 144.179 89.2526 142.197 90.0472 139.998C90.9141 137.594 90.4662 135.264 89.7438 132.897C88.3749 128.571 86.7639 124.327 84.9185 120.184C83.0982 116.017 81.1334 111.922 79.2047 107.841C77.1702 103.796 75.3685 99.636 73.8088 95.3827C72.4363 91.2951 71.9451 87.0623 73.0864 82.8586C74.2277 78.6548 76.6187 74.9448 79.1108 71.4671C79.7682 70.545 80.4327 69.6375 81.0901 68.7227C81.1406 68.6501 81.249 68.7227 81.1984 68.8025C78.4535 72.4327 75.7736 76.2734 74.141 80.557C73.2985 82.6636 72.8102 84.8964 72.6963 87.164C72.6548 89.4672 72.9841 91.7621 73.6715 93.9596C74.9284 98.236 76.951 102.302 78.8291 106.302C80.7072 110.303 82.7298 114.514 84.6079 118.645C86.4981 122.809 88.1714 127.069 89.621 131.409C90.2567 133.347 90.9646 135.38 90.8924 137.442C90.8201 139.707 89.7149 141.733 88.5809 143.628C83.6255 151.883 78.4679 160.029 73.2959 168.131C68.1239 176.234 62.764 184.322 57.4042 192.33L55.3166 195.401C55.2371 195.496 55.0565 195.343 55.136 195.22Z" fill="#263238"/>
<path d="M127.056 11.8547C124.822 8.80947 120.414 7.69616 115.984 8.06944C111.554 8.44273 106.148 9.93587 104.867 16.4847C103.832 21.8024 105.024 27.1987 104.272 33.1712C103.52 39.1438 94.3836 52.9815 105.388 61.2331C115.269 68.653 137.577 64.9005 139.825 51.8355C141.605 41.4752 129.237 30.532 128.307 26.2949C127.376 22.0578 129.55 15.1946 127.056 11.8547Z" fill="#263238"/>
<path d="M127.631 18.9748C127.277 22.32 127.557 25.7024 128.455 28.9432C128.697 29.779 129.052 30.5777 129.509 31.3174C129.95 32.0434 130.427 32.7259 130.896 33.4083C131.857 34.766 132.803 36.1164 133.684 37.5032C135.491 40.2434 136.899 43.2284 137.867 46.368C138.791 49.5417 139.129 52.8589 138.864 56.155C139.172 54.5114 139.3 52.8388 139.246 51.1671C139.172 49.4868 138.93 47.8182 138.524 46.1865C137.675 42.9229 136.296 39.8224 134.443 37.0095C133.54 35.601 132.565 34.2433 131.597 32.9001C130.575 31.6388 129.735 30.2381 129.105 28.7399C128.559 27.1946 128.191 25.5918 128.007 23.9626C127.782 22.3091 127.657 20.6434 127.631 18.9748Z" fill="#263238"/>
<path d="M104.667 22.4234C104.386 25.8068 104.234 29.1901 103.793 32.5226C103.581 34.1849 103.272 35.8334 102.869 37.4596C102.457 39.0496 101.821 40.6251 101.258 42.2224C100.695 43.8197 100.174 45.446 99.7338 47.1014C99.3107 48.7686 99.0279 50.4687 98.8886 52.1836C98.7784 53.9038 98.9048 55.6311 99.2643 57.3167C99.6989 58.9743 100.46 60.5272 101.504 61.8834C100.623 60.4545 100.013 58.8742 99.7049 57.2223C99.4394 55.5777 99.4006 53.9042 99.5893 52.2489C100.065 48.9294 100.916 45.6751 102.125 42.5491C102.667 40.9518 103.302 39.3763 103.707 37.6847C104.095 36.0126 104.358 34.3138 104.494 32.6024C104.75 29.2158 104.808 25.8169 104.667 22.4234Z" fill="#263238"/>
<path d="M109.876 39.5361C108.886 45.2137 109.486 69.7827 112.332 77.6239C115.655 86.7646 123.088 102.861 125.681 102.846C128.151 102.846 141.616 94.9325 140.128 92.7326C138.64 90.5327 128.353 74.1534 126.909 71.1331C126.042 69.3398 120.725 51.2906 117.388 42.2587C114.354 34.0836 111.241 31.724 109.876 39.5361Z" fill="#EB9481"/>
<path d="M108.951 55.3636L124.676 56.9754C124.676 56.9754 118.24 40.7558 114.975 36.523C111.363 31.7602 109.702 34.6716 108.922 40.3347C108.142 45.9978 108.951 55.3636 108.951 55.3636Z" fill="#38768A"/>
<path d="M113.054 39.0932C113.056 39.2515 113.01 39.4066 112.924 39.5389C112.837 39.6711 112.714 39.7746 112.569 39.8362C112.424 39.8978 112.264 39.9146 112.109 39.8846C111.954 39.8546 111.812 39.7792 111.7 39.6678C111.588 39.5564 111.512 39.4141 111.481 39.259C111.449 39.1038 111.465 38.9429 111.525 38.7965C111.585 38.6502 111.686 38.525 111.817 38.4369C111.948 38.3489 112.102 38.3018 112.259 38.3018C112.469 38.3018 112.67 38.385 112.819 38.5332C112.968 38.6814 113.052 38.8827 113.054 39.0932ZM112.259 48.3574C112.102 48.3574 111.949 48.4042 111.818 48.492C111.687 48.5798 111.586 48.7045 111.525 48.8504C111.465 48.9963 111.45 49.1569 111.48 49.3119C111.511 49.4668 111.587 49.6091 111.698 49.7208C111.809 49.8325 111.95 49.9085 112.104 49.9393C112.259 49.9702 112.418 49.9543 112.564 49.8939C112.709 49.8334 112.833 49.7311 112.92 49.5997C113.007 49.4684 113.054 49.314 113.054 49.156C113.055 49.0509 113.035 48.9466 112.996 48.8493C112.956 48.7519 112.897 48.6635 112.824 48.5892C112.75 48.5148 112.662 48.456 112.565 48.4162C112.468 48.3764 112.364 48.3564 112.259 48.3574ZM119.172 48.3574C119.015 48.3574 118.862 48.4042 118.731 48.492C118.6 48.5798 118.498 48.7045 118.438 48.8504C118.378 48.9963 118.362 49.1569 118.393 49.3119C118.424 49.4668 118.499 49.6091 118.611 49.7208C118.722 49.8325 118.863 49.9085 119.017 49.9393C119.172 49.9702 119.331 49.9543 119.476 49.8939C119.622 49.8334 119.746 49.7311 119.833 49.5997C119.92 49.4684 119.967 49.314 119.967 49.156C119.967 48.9442 119.883 48.7411 119.734 48.5913C119.585 48.4415 119.383 48.3574 119.172 48.3574ZM108.807 43.3405H108.655C108.655 43.8487 108.612 44.3715 108.597 44.8942C108.667 44.9053 108.737 44.9053 108.807 44.8942C109.017 44.8942 109.219 44.8101 109.369 44.6603C109.518 44.5105 109.601 44.3074 109.601 44.0956C109.601 43.8838 109.518 43.6806 109.369 43.5309C109.219 43.3811 109.017 43.2969 108.807 43.2969V43.3405ZM115.72 43.3405C115.562 43.3391 115.408 43.3847 115.276 43.4716C115.145 43.5584 115.042 43.6827 114.98 43.8285C114.919 43.9743 114.902 44.1351 114.932 44.2905C114.962 44.4458 115.037 44.5888 115.148 44.7013C115.259 44.8137 115.4 44.8904 115.555 44.9219C115.709 44.9533 115.869 44.9379 116.015 44.8777C116.16 44.8174 116.285 44.7151 116.372 44.5836C116.46 44.4521 116.507 44.2974 116.507 44.1391C116.507 43.9286 116.424 43.7265 116.277 43.577C116.129 43.4274 115.929 43.3424 115.72 43.3405ZM108.85 53.4033C108.893 54.1294 108.929 54.6521 108.958 54.9861C109.15 54.9501 109.321 54.8447 109.441 54.6898C109.56 54.535 109.618 54.3416 109.605 54.1463C109.592 53.951 109.507 53.7674 109.368 53.6304C109.229 53.4935 109.045 53.4126 108.85 53.4033ZM115.756 53.4033C115.598 53.4019 115.443 53.4477 115.312 53.5349C115.18 53.6221 115.077 53.7468 115.016 53.893C114.955 54.0392 114.938 54.2004 114.969 54.356C114.999 54.5116 115.075 54.6546 115.187 54.7667C115.298 54.8788 115.44 54.955 115.595 54.9856C115.75 55.0162 115.91 54.9997 116.056 54.9384C116.201 54.8771 116.325 54.7736 116.412 54.6411C116.499 54.5087 116.544 54.3533 116.543 54.1947C116.543 54.0877 116.522 53.9817 116.48 53.8833C116.438 53.7848 116.377 53.6959 116.3 53.6219C116.223 53.5479 116.132 53.4904 116.032 53.4528C115.932 53.4153 115.826 53.3984 115.72 53.4033H115.756ZM122.661 53.4033C122.504 53.4034 122.35 53.4504 122.219 53.5385C122.088 53.6265 121.987 53.7517 121.927 53.8981C121.867 54.0444 121.851 54.2054 121.883 54.3605C121.914 54.5156 121.99 54.6579 122.102 54.7693C122.214 54.8807 122.356 54.9562 122.511 54.9862C122.665 55.0161 122.825 54.9993 122.97 54.9377C123.116 54.8762 123.239 54.7727 123.326 54.6404C123.412 54.5081 123.457 54.353 123.456 54.1947C123.456 54.087 123.434 53.9804 123.392 53.8815C123.35 53.7825 123.288 53.6932 123.21 53.6192C123.132 53.5451 123.04 53.4877 122.94 53.4506C122.839 53.4135 122.732 53.3974 122.625 53.4033H122.661Z" fill="white"/>
<path d="M122.748 53.9406C122.213 53.8027 117.323 53.2146 116.247 53.1202C115.17 53.0258 110.829 52.5539 109.746 52.5394C109.741 52.5394 109.736 52.5403 109.732 52.5421C109.727 52.5439 109.723 52.5466 109.72 52.55C109.717 52.5534 109.714 52.5574 109.712 52.5618C109.71 52.5662 109.709 52.5709 109.709 52.5757C109.709 52.5804 109.71 52.5851 109.712 52.5895C109.714 52.594 109.717 52.598 109.72 52.6013C109.723 52.6047 109.727 52.6074 109.732 52.6092C109.736 52.611 109.741 52.612 109.746 52.612C110.822 52.837 115.214 53.338 116.297 53.4469C117.381 53.5558 122.235 54.035 122.798 54.0132C122.798 54.0132 122.791 53.9479 122.748 53.9406Z" fill="#263238"/>
<path d="M122.033 56.7286L108.951 55.3927C108.951 55.3927 108.142 46.0196 108.951 40.3565C109.522 36.2254 110.54 33.5608 112.476 34.2796L122.033 56.7286Z" fill="#263238"/>
<path d="M113.068 83.3378L114.954 67.4884C114.954 67.4884 120.928 63.0378 120.234 57.3239C119.887 54.4198 116.008 39.6014 112.751 35.1145C109.688 30.9035 103.606 31.8909 100.911 33.7931C92.3369 39.8555 85.3156 46.4334 74.6826 69.2672L113.068 83.3378Z" fill="#38768A"/>
<path d="M99.2355 39.0932C99.237 39.2514 99.1916 39.4066 99.1051 39.5388C99.0187 39.6711 98.8951 39.7746 98.7501 39.8362C98.605 39.8977 98.445 39.9146 98.2904 39.8846C98.1358 39.8546 97.9935 39.7791 97.8817 39.6677C97.7698 39.5563 97.6935 39.4141 97.6622 39.2589C97.631 39.1038 97.6463 38.9429 97.7062 38.7965C97.7661 38.6502 97.8679 38.525 97.9988 38.4369C98.1296 38.3488 98.2835 38.3018 98.4409 38.3018C98.6504 38.3018 98.8515 38.3849 99.0003 38.5332C99.1491 38.6814 99.2336 38.8826 99.2355 39.0932ZM105.354 38.3018C105.196 38.3004 105.041 38.3462 104.91 38.4334C104.778 38.5206 104.675 38.6452 104.614 38.7914C104.553 38.9377 104.537 39.0989 104.567 39.2544C104.597 39.41 104.673 39.553 104.785 39.6651C104.896 39.7773 105.039 39.8535 105.193 39.8841C105.348 39.9146 105.509 39.8982 105.654 39.8369C105.8 39.7755 105.924 39.672 106.01 39.5396C106.097 39.4072 106.143 39.2518 106.141 39.0932C106.141 38.8833 106.058 38.682 105.911 38.5336C105.763 38.3852 105.563 38.3018 105.354 38.3018ZM112.26 38.3018C112.102 38.3018 111.948 38.3488 111.817 38.4369C111.687 38.525 111.585 38.6502 111.525 38.7965C111.465 38.9429 111.45 39.1038 111.481 39.2589C111.512 39.4141 111.588 39.5563 111.7 39.6677C111.812 39.7791 111.954 39.8546 112.109 39.8846C112.264 39.9146 112.424 39.8977 112.569 39.8362C112.714 39.7746 112.837 39.6711 112.924 39.5388C113.01 39.4066 113.056 39.2514 113.054 39.0932C113.054 38.9887 113.034 38.8851 112.994 38.7887C112.953 38.6922 112.895 38.6046 112.821 38.531C112.747 38.4574 112.659 38.3993 112.563 38.36C112.467 38.3206 112.364 38.3008 112.26 38.3018ZM101.894 33.2849C101.853 33.2779 101.812 33.2779 101.771 33.2849C101.615 33.3609 101.463 33.4457 101.316 33.539C101.183 33.6829 101.111 33.8728 101.114 34.069C101.114 34.2273 101.16 34.382 101.248 34.5135C101.336 34.645 101.46 34.7473 101.606 34.8075C101.751 34.8678 101.912 34.8832 102.066 34.8517C102.22 34.8203 102.362 34.7435 102.473 34.6311C102.583 34.5187 102.659 34.3757 102.688 34.2203C102.718 34.0649 102.701 33.9041 102.64 33.7583C102.579 33.6125 102.476 33.4883 102.344 33.4014C102.213 33.3146 102.058 33.2689 101.901 33.2704L101.894 33.2849ZM108.807 33.2849C108.65 33.2849 108.496 33.3317 108.365 33.4195C108.235 33.5073 108.133 33.632 108.073 33.7779C108.012 33.9239 107.997 34.0844 108.027 34.2394C108.058 34.3943 108.134 34.5366 108.245 34.6483C108.356 34.76 108.498 34.836 108.652 34.8668C108.806 34.8977 108.966 34.8818 109.111 34.8214C109.256 34.7609 109.38 34.6586 109.467 34.5272C109.555 34.3959 109.601 34.2415 109.601 34.0835C109.601 33.8717 109.518 33.6686 109.369 33.5188C109.22 33.369 109.017 33.2849 108.807 33.2849ZM91.5136 48.3574C91.3564 48.3574 91.2028 48.4042 91.0721 48.492C90.9415 48.5797 90.8396 48.7045 90.7795 48.8504C90.7193 48.9963 90.7036 49.1569 90.7343 49.3118C90.7649 49.4668 90.8406 49.6091 90.9517 49.7208C91.0629 49.8324 91.2044 49.9085 91.3586 49.9393C91.5127 49.9701 91.6725 49.9543 91.8177 49.8939C91.9629 49.8334 92.087 49.7311 92.1743 49.5997C92.2616 49.4684 92.3082 49.314 92.3082 49.156C92.3091 49.0509 92.2892 48.9466 92.2497 48.8493C92.2101 48.7519 92.1516 48.6635 92.0776 48.5891C92.0036 48.5148 91.9156 48.456 91.8188 48.4162C91.722 48.3764 91.6182 48.3564 91.5136 48.3574ZM98.4265 48.3574C98.2693 48.3574 98.1157 48.4042 97.9851 48.492C97.8544 48.5797 97.7525 48.7045 97.6924 48.8504C97.6322 48.9963 97.6165 49.1569 97.6472 49.3118C97.6778 49.4668 97.7535 49.6091 97.8646 49.7208C97.9758 49.8324 98.1174 49.9085 98.2715 49.9393C98.4256 49.9701 98.5854 49.9543 98.7306 49.8939C98.8758 49.8334 98.9999 49.7311 99.0872 49.5997C99.1745 49.4684 99.2211 49.314 99.2211 49.156C99.2211 48.9467 99.1394 48.7457 98.9935 48.5964C98.8476 48.447 98.6492 48.3612 98.4409 48.3574H98.4265ZM105.339 48.3574C105.182 48.356 105.028 48.4016 104.896 48.4884C104.764 48.5753 104.661 48.6995 104.6 48.8453C104.539 48.9911 104.522 49.1519 104.552 49.3073C104.582 49.4627 104.657 49.6057 104.768 49.7181C104.879 49.8305 105.02 49.9073 105.174 49.9387C105.329 49.9702 105.489 49.9548 105.635 49.8945C105.78 49.8343 105.905 49.732 105.992 49.6005C106.08 49.469 106.127 49.3143 106.127 49.156C106.127 48.9479 106.046 48.748 105.902 48.5989C105.757 48.4497 105.561 48.3631 105.354 48.3574H105.339ZM112.245 48.3574C112.088 48.3574 111.934 48.4042 111.804 48.492C111.673 48.5797 111.571 48.7045 111.511 48.8504C111.451 48.9963 111.435 49.1569 111.466 49.3118C111.496 49.4668 111.572 49.6091 111.683 49.7208C111.794 49.8324 111.936 49.9085 112.09 49.9393C112.244 49.9701 112.404 49.9543 112.549 49.8939C112.694 49.8334 112.818 49.7311 112.906 49.5997C112.993 49.4684 113.04 49.314 113.04 49.156C113.041 49.0521 113.021 48.949 112.983 48.8526C112.944 48.7562 112.887 48.6685 112.814 48.5943C112.742 48.5201 112.655 48.4611 112.56 48.4204C112.465 48.3798 112.363 48.3583 112.26 48.3574H112.245ZM94.9737 43.3405C94.8162 43.339 94.6619 43.3847 94.5303 43.4715C94.3986 43.5584 94.2957 43.6826 94.2344 43.8284C94.1732 43.9742 94.1564 44.135 94.1862 44.2904C94.2161 44.4458 94.2912 44.5888 94.402 44.7012C94.5128 44.8137 94.6544 44.8904 94.8087 44.9218C94.9631 44.9532 95.1232 44.9379 95.2688 44.8776C95.4144 44.8174 95.539 44.7151 95.6266 44.5836C95.7142 44.4521 95.761 44.2974 95.761 44.1391C95.7611 43.931 95.6804 43.7311 95.536 43.582C95.3916 43.4328 95.1951 43.3462 94.9881 43.3405H94.9737ZM101.879 43.3405C101.722 43.3405 101.569 43.3873 101.438 43.4751C101.307 43.5628 101.205 43.6876 101.145 43.8335C101.085 43.9794 101.069 44.14 101.1 44.2949C101.131 44.4499 101.206 44.5922 101.317 44.7039C101.429 44.8155 101.57 44.8916 101.724 44.9224C101.878 44.9532 102.038 44.9374 102.183 44.877C102.329 44.8165 102.453 44.7142 102.54 44.5828C102.627 44.4515 102.674 44.2971 102.674 44.1391C102.674 43.9298 102.592 43.7288 102.446 43.5795C102.3 43.4301 102.102 43.3443 101.894 43.3405H101.879ZM108.792 43.3405C108.635 43.3405 108.481 43.3873 108.351 43.4751C108.22 43.5628 108.118 43.6876 108.058 43.8335C107.998 43.9794 107.982 44.14 108.013 44.2949C108.044 44.4499 108.119 44.5922 108.23 44.7039C108.342 44.8155 108.483 44.8916 108.637 44.9224C108.791 44.9532 108.951 44.9374 109.096 44.877C109.242 44.8165 109.366 44.7142 109.453 44.5828C109.54 44.4515 109.587 44.2971 109.587 44.1391C109.585 43.9304 109.503 43.7305 109.357 43.5815C109.212 43.4325 109.014 43.3461 108.807 43.3405H108.792ZM115.705 43.3405C115.548 43.339 115.393 43.3847 115.262 43.4715C115.13 43.5584 115.027 43.6826 114.966 43.8284C114.905 43.9742 114.888 44.135 114.918 44.2904C114.948 44.4458 115.023 44.5888 115.134 44.7012C115.244 44.8137 115.386 44.8904 115.54 44.9218C115.695 44.9532 115.855 44.9379 116 44.8776C116.146 44.8174 116.27 44.7151 116.358 44.5836C116.446 44.4521 116.493 44.2974 116.493 44.1391C116.493 43.931 116.412 43.7311 116.267 43.582C116.123 43.4328 115.927 43.3462 115.72 43.3405H115.705ZM84.644 58.413C84.4866 58.4115 84.3322 58.4571 84.2006 58.544C84.069 58.6309 83.966 58.7551 83.9048 58.9009C83.8435 59.0467 83.8268 59.2075 83.8566 59.3629C83.8865 59.5183 83.9616 59.6613 84.0724 59.7737C84.1832 59.8861 84.3248 59.9629 84.4791 59.9943C84.6334 60.0257 84.7936 60.0104 84.9392 59.9501C85.0848 59.8899 85.2093 59.7875 85.297 59.656C85.3846 59.5246 85.4314 59.3699 85.4314 59.2116C85.4314 59.1055 85.4104 59.0004 85.3696 58.9026C85.3287 58.8047 85.2689 58.716 85.1936 58.6417C85.1183 58.5673 85.029 58.5088 84.9309 58.4695C84.8328 58.4303 84.7279 58.411 84.6224 58.413H84.644ZM91.5497 58.413C91.3926 58.413 91.2389 58.4598 91.1083 58.5476C90.9776 58.6353 90.8758 58.7601 90.8156 58.906C90.7555 59.0519 90.7397 59.2125 90.7704 59.3674C90.801 59.5223 90.8767 59.6646 90.9879 59.7763C91.099 59.888 91.2406 59.9641 91.3947 59.9949C91.5488 60.0257 91.7086 60.0099 91.8538 59.9494C91.999 59.889 92.1231 59.7866 92.2104 59.6553C92.2977 59.524 92.3443 59.3696 92.3443 59.2116C92.3454 59.1033 92.3245 58.9959 92.2827 58.8961C92.2408 58.7963 92.1791 58.7061 92.1012 58.6313C92.0233 58.5564 91.931 58.4984 91.8299 58.4608C91.7289 58.4233 91.6212 58.407 91.5136 58.413H91.5497ZM98.4626 58.413C98.3055 58.413 98.1518 58.4598 98.0212 58.5476C97.8905 58.6353 97.7887 58.7601 97.7285 58.906C97.6684 59.0519 97.6526 59.2125 97.6833 59.3674C97.714 59.5223 97.7896 59.6646 97.9008 59.7763C98.0119 59.888 98.1535 59.9641 98.3076 59.9949C98.4617 60.0257 98.6215 60.0099 98.7667 59.9494C98.9119 59.889 99.036 59.7866 99.1233 59.6553C99.2106 59.524 99.2572 59.3696 99.2572 59.2116C99.2572 59.1049 99.236 58.9992 99.1947 58.9009C99.1534 58.8025 99.093 58.7135 99.0169 58.639C98.9408 58.5646 98.8506 58.5062 98.7517 58.4674C98.6528 58.4286 98.5471 58.4101 98.4409 58.413H98.4626ZM105.376 58.413C105.218 58.4115 105.064 58.4571 104.932 58.544C104.801 58.6309 104.698 58.7551 104.636 58.9009C104.575 59.0467 104.558 59.2075 104.588 59.3629C104.618 59.5183 104.693 59.6613 104.804 59.7737C104.915 59.8861 105.056 59.9629 105.211 59.9943C105.365 60.0257 105.525 60.0104 105.671 59.9501C105.816 59.8899 105.941 59.7875 106.028 59.656C106.116 59.5246 106.163 59.3699 106.163 59.2116C106.163 59.1055 106.142 59.0004 106.101 58.9026C106.06 58.8047 106 58.716 105.925 58.6417C105.85 58.5673 105.76 58.5088 105.662 58.4695C105.564 58.4303 105.459 58.411 105.354 58.413H105.376ZM112.281 58.413C112.124 58.413 111.97 58.4598 111.84 58.5476C111.709 58.6353 111.607 58.7601 111.547 58.906C111.487 59.0519 111.471 59.2125 111.502 59.3674C111.533 59.5223 111.608 59.6646 111.719 59.7763C111.83 59.888 111.972 59.9641 112.126 59.9949C112.28 60.0257 112.44 60.0099 112.585 59.9494C112.73 59.889 112.855 59.7866 112.942 59.6553C113.029 59.524 113.076 59.3696 113.076 59.2116C113.077 59.1046 113.056 58.9985 113.015 58.8996C112.974 58.8008 112.914 58.7114 112.838 58.6367C112.761 58.5621 112.671 58.5038 112.571 58.4653C112.472 58.4268 112.366 58.409 112.26 58.413H112.281ZM119.194 58.413C119.037 58.413 118.883 58.4598 118.753 58.5476C118.622 58.6353 118.52 58.7601 118.46 58.906C118.4 59.0519 118.384 59.2125 118.415 59.3674C118.445 59.5223 118.521 59.6646 118.632 59.7763C118.743 59.888 118.885 59.9641 119.039 59.9949C119.193 60.0257 119.353 60.0099 119.498 59.9494C119.643 59.889 119.767 59.7866 119.855 59.6553C119.942 59.524 119.989 59.3696 119.989 59.2116C119.989 59.1049 119.967 58.9992 119.926 58.9009C119.885 58.8025 119.824 58.7135 119.748 58.639C119.672 58.5646 119.582 58.5062 119.483 58.4674C119.384 58.4286 119.279 58.4101 119.172 58.413H119.194ZM88.133 53.4033C87.9755 53.4033 87.8216 53.4504 87.6908 53.5384C87.56 53.6265 87.4581 53.7517 87.3982 53.898C87.3383 54.0444 87.323 54.2053 87.3542 54.3605C87.3855 54.5156 87.4619 54.6579 87.5737 54.7693C87.6856 54.8807 87.8278 54.9561 87.9825 54.9861C88.1371 55.0161 88.297 54.9993 88.4421 54.9377C88.5872 54.8761 88.7108 54.7727 88.7972 54.6404C88.8836 54.5081 88.929 54.353 88.9276 54.1947C88.9279 54.085 88.9056 53.9765 88.8621 53.876C88.8185 53.7754 88.7546 53.6851 88.6745 53.6107C88.5943 53.5363 88.4997 53.4794 88.3965 53.4437C88.2933 53.408 88.1839 53.3943 88.0752 53.4033H88.133ZM95.0459 53.4033C94.8881 53.4019 94.7335 53.4477 94.6018 53.5349C94.47 53.6221 94.367 53.7467 94.306 53.893C94.2449 54.0392 94.2286 54.2004 94.259 54.356C94.2895 54.5116 94.3653 54.6545 94.4768 54.7667C94.5884 54.8788 94.7306 54.955 94.8855 54.9856C95.0403 55.0162 95.2006 54.9997 95.3461 54.9384C95.4916 54.877 95.6156 54.7736 95.7024 54.6411C95.7891 54.5087 95.8347 54.3533 95.8333 54.1947C95.8335 54.0857 95.8114 53.9778 95.7683 53.8778C95.7252 53.7778 95.6619 53.6878 95.5826 53.6135C95.5032 53.5392 95.4095 53.4822 95.3072 53.446C95.2049 53.4099 95.0963 53.3953 94.9881 53.4033H95.0459ZM101.952 53.4033C101.794 53.4033 101.64 53.4504 101.509 53.5384C101.379 53.6265 101.277 53.7517 101.217 53.898C101.157 54.0444 101.142 54.2053 101.173 54.3605C101.204 54.5156 101.28 54.6579 101.392 54.7693C101.504 54.8807 101.646 54.9561 101.801 54.9861C101.956 55.0161 102.116 54.9993 102.261 54.9377C102.406 54.8761 102.529 54.7727 102.616 54.6404C102.702 54.5081 102.748 54.353 102.746 54.1947C102.747 54.085 102.724 53.9765 102.681 53.876C102.637 53.7754 102.573 53.6851 102.493 53.6107C102.413 53.5363 102.318 53.4794 102.215 53.4437C102.112 53.408 102.003 53.3943 101.894 53.4033H101.952ZM108.864 53.4033C108.707 53.4033 108.553 53.4504 108.422 53.5384C108.291 53.6265 108.19 53.7517 108.13 53.898C108.07 54.0444 108.054 54.2053 108.086 54.3605C108.117 54.5156 108.193 54.6579 108.305 54.7693C108.417 54.8807 108.559 54.9561 108.714 54.9861C108.869 55.0161 109.029 54.9993 109.174 54.9377C109.319 54.8761 109.442 54.7727 109.529 54.6404C109.615 54.5081 109.66 54.353 109.659 54.1947C109.658 54.0854 109.635 53.9773 109.591 53.8773C109.547 53.7773 109.484 53.6874 109.404 53.6132C109.324 53.539 109.23 53.4821 109.127 53.446C109.024 53.4099 108.915 53.3954 108.807 53.4033H108.864ZM115.777 53.4033C115.62 53.4019 115.465 53.4477 115.333 53.5349C115.201 53.6221 115.099 53.7467 115.037 53.893C114.976 54.0392 114.96 54.2004 114.991 54.356C115.021 54.5116 115.097 54.6545 115.208 54.7667C115.32 54.8788 115.462 54.955 115.617 54.9856C115.772 55.0162 115.932 54.9997 116.078 54.9384C116.223 54.877 116.347 54.7736 116.434 54.6411C116.521 54.5087 116.566 54.3533 116.565 54.1947C116.565 54.0857 116.543 53.9778 116.5 53.8778C116.457 53.7778 116.393 53.6878 116.314 53.6135C116.235 53.5392 116.141 53.4822 116.039 53.446C115.936 53.4099 115.828 53.3953 115.72 53.4033H115.777ZM77.7672 68.4685C77.6101 68.4685 77.4565 68.5154 77.3258 68.6031C77.1951 68.6909 77.0933 68.8156 77.0331 68.9616C76.973 69.1075 76.9573 69.2681 76.9879 69.423C77.0186 69.5779 77.0943 69.7202 77.2054 69.8319C77.3165 69.9436 77.4581 70.0197 77.6122 70.0505C77.7664 70.0813 77.9261 70.0655 78.0713 70.005C78.2165 69.9446 78.3406 69.8422 78.4279 69.7109C78.5152 69.5796 78.5618 69.4251 78.5618 69.2672C78.5621 69.1572 78.5398 69.0484 78.4963 68.9475C78.4528 68.8466 78.3891 68.7559 78.309 68.6809C78.229 68.6059 78.1345 68.5484 78.0313 68.5118C77.9281 68.4753 77.8186 68.4606 77.7095 68.4685H77.7672ZM84.6801 68.4685C84.5227 68.4671 84.3684 68.5127 84.2367 68.5996C84.1051 68.6865 84.0022 68.8107 83.9409 68.9565C83.8797 69.1023 83.8629 69.2631 83.8927 69.4185C83.9226 69.5739 83.9977 69.7169 84.1085 69.8293C84.2193 69.9417 84.3609 70.0185 84.5152 70.0499C84.6696 70.0813 84.8297 70.0659 84.9753 70.0057C85.1209 69.9455 85.2454 69.8431 85.3331 69.7116C85.4207 69.5801 85.4675 69.4255 85.4675 69.2672C85.4677 69.1579 85.4456 69.0497 85.4026 68.9494C85.3595 68.849 85.2964 68.7586 85.2172 68.6837C85.138 68.6088 85.0443 68.5511 84.942 68.5141C84.8397 68.4771 84.7309 68.4616 84.6224 68.4685H84.6801ZM91.5858 68.4685C91.4287 68.4685 91.2751 68.5154 91.1444 68.6031C91.0137 68.6909 90.9119 68.8156 90.8517 68.9616C90.7916 69.1075 90.7758 69.2681 90.8065 69.423C90.8372 69.5779 90.9128 69.7202 91.024 69.8319C91.1351 69.9436 91.2767 70.0197 91.4308 70.0505C91.5849 70.0813 91.7447 70.0655 91.8899 70.005C92.0351 69.9446 92.1592 69.8422 92.2465 69.7109C92.3338 69.5796 92.3804 69.4251 92.3804 69.2672C92.382 69.1556 92.3601 69.0449 92.3161 68.9424C92.2721 68.8399 92.207 68.7479 92.1252 68.6725C92.0433 68.5971 91.9465 68.5399 91.8411 68.5048C91.7357 68.4696 91.6241 68.4573 91.5136 68.4685H91.5858ZM98.4987 68.4685C98.3416 68.4685 98.188 68.5154 98.0573 68.6031C97.9266 68.6909 97.8248 68.8156 97.7646 68.9616C97.7045 69.1075 97.6888 69.2681 97.7194 69.423C97.7501 69.5779 97.8258 69.7202 97.9369 69.8319C98.048 69.9436 98.1896 70.0197 98.3437 70.0505C98.4979 70.0813 98.6576 70.0655 98.8028 70.005C98.948 69.9446 99.0721 69.8422 99.1594 69.7109C99.2467 69.5796 99.2933 69.4251 99.2933 69.2672C99.2936 69.1572 99.2713 69.0484 99.2278 68.9475C99.1843 68.8466 99.1206 68.7559 99.0406 68.6809C98.9605 68.6059 98.866 68.5484 98.7628 68.5118C98.6596 68.4753 98.55 68.4606 98.4409 68.4685H98.4987ZM105.412 68.4685C105.254 68.4671 105.1 68.5127 104.968 68.5996C104.837 68.6865 104.734 68.8107 104.672 68.9565C104.611 69.1023 104.594 69.2631 104.624 69.4185C104.654 69.5739 104.729 69.7169 104.84 69.8293C104.951 69.9417 105.092 70.0185 105.247 70.0499C105.401 70.0813 105.561 70.0659 105.707 70.0057C105.852 69.9455 105.977 69.8431 106.065 69.7116C106.152 69.5801 106.199 69.4255 106.199 69.2672C106.199 69.1579 106.177 69.0497 106.134 68.9494C106.091 68.849 106.028 68.7586 105.949 68.6837C105.869 68.6088 105.776 68.5511 105.673 68.5141C105.571 68.4771 105.462 68.4616 105.354 68.4685H105.412ZM112.317 68.4685C112.16 68.4685 112.007 68.5154 111.876 68.6031C111.745 68.6909 111.643 68.8156 111.583 68.9616C111.523 69.1075 111.507 69.2681 111.538 69.423C111.569 69.5779 111.644 69.7202 111.755 69.8319C111.867 69.9436 112.008 70.0197 112.162 70.0505C112.316 70.0813 112.476 70.0655 112.621 70.005C112.767 69.9446 112.891 69.8422 112.978 69.7109C113.065 69.5796 113.112 69.4251 113.112 69.2672C113.113 69.1569 113.092 69.0476 113.049 68.9462C113.005 68.8448 112.942 68.7535 112.861 68.6784C112.781 68.6032 112.686 68.5456 112.583 68.5095C112.479 68.4734 112.369 68.4594 112.26 68.4685H112.317ZM81.2201 63.4589C81.0626 63.4589 80.9087 63.5059 80.7779 63.594C80.6471 63.6821 80.5452 63.8073 80.4853 63.9536C80.4254 64.1 80.4101 64.2609 80.4413 64.416C80.4726 64.5712 80.549 64.7134 80.6608 64.8248C80.7727 64.9362 80.9149 65.0117 81.0695 65.0417C81.2241 65.0717 81.3841 65.0548 81.5292 64.9933C81.6743 64.9317 81.7978 64.8282 81.8843 64.6959C81.9707 64.5637 82.0161 64.4085 82.0147 64.2503C82.015 64.1406 81.9927 64.0321 81.9492 63.9316C81.9056 63.831 81.8417 63.7407 81.7616 63.6663C81.6814 63.5919 81.5868 63.535 81.4836 63.4993C81.3804 63.4636 81.271 63.4499 81.1623 63.4589H81.2201ZM88.133 63.4589C87.9755 63.4589 87.8216 63.5059 87.6908 63.594C87.56 63.6821 87.4581 63.8073 87.3982 63.9536C87.3383 64.1 87.323 64.2609 87.3542 64.416C87.3855 64.5712 87.4619 64.7134 87.5737 64.8248C87.6856 64.9362 87.8278 65.0117 87.9825 65.0417C88.1371 65.0717 88.297 65.0548 88.4421 64.9933C88.5872 64.9317 88.7108 64.8282 88.7972 64.6959C88.8836 64.5637 88.929 64.4085 88.9276 64.2503C88.9279 64.1406 88.9056 64.0321 88.8621 63.9316C88.8185 63.831 88.7546 63.7407 88.6745 63.6663C88.5943 63.5919 88.4997 63.535 88.3965 63.4993C88.2933 63.4636 88.1839 63.4499 88.0752 63.4589H88.133ZM95.0459 63.4589C94.8881 63.4575 94.7335 63.5033 94.6018 63.5905C94.47 63.6777 94.367 63.8023 94.306 63.9486C94.2449 64.0948 94.2286 64.256 94.259 64.4115C94.2895 64.5671 94.3653 64.7101 94.4768 64.8222C94.5884 64.9344 94.7306 65.0106 94.8855 65.0412C95.0403 65.0717 95.2006 65.0553 95.3461 64.994C95.4916 64.9326 95.6156 64.8291 95.7024 64.6967C95.7891 64.5643 95.8347 64.4089 95.8333 64.2503C95.8335 64.1413 95.8114 64.0334 95.7683 63.9334C95.7252 63.8334 95.6619 63.7434 95.5826 63.6691C95.5032 63.5948 95.4095 63.5378 95.3072 63.5016C95.2049 63.4654 95.0963 63.4509 94.9881 63.4589H95.0459ZM101.952 63.4589C101.794 63.4589 101.64 63.5059 101.509 63.594C101.379 63.6821 101.277 63.8073 101.217 63.9536C101.157 64.1 101.142 64.2609 101.173 64.416C101.204 64.5712 101.28 64.7134 101.392 64.8248C101.504 64.9362 101.646 65.0117 101.801 65.0417C101.956 65.0717 102.116 65.0548 102.261 64.9933C102.406 64.9317 102.529 64.8282 102.616 64.6959C102.702 64.5637 102.748 64.4085 102.746 64.2503C102.747 64.1406 102.724 64.0321 102.681 63.9316C102.637 63.831 102.573 63.7407 102.493 63.6663C102.413 63.5919 102.318 63.535 102.215 63.4993C102.112 63.4636 102.003 63.4499 101.894 63.4589H101.952ZM108.864 63.4589C108.707 63.4589 108.553 63.5059 108.422 63.594C108.291 63.6821 108.19 63.8073 108.13 63.9536C108.07 64.1 108.054 64.2609 108.086 64.416C108.117 64.5712 108.193 64.7134 108.305 64.8248C108.417 64.9362 108.559 65.0117 108.714 65.0417C108.869 65.0717 109.029 65.0548 109.174 64.9933C109.319 64.9317 109.442 64.8282 109.529 64.6959C109.615 64.5637 109.66 64.4085 109.659 64.2503C109.658 64.1409 109.635 64.0329 109.591 63.9329C109.547 63.8329 109.484 63.743 109.404 63.6688C109.324 63.5946 109.23 63.5377 109.127 63.5016C109.024 63.4655 108.915 63.451 108.807 63.4589H108.864ZM115.777 63.4589C115.62 63.4575 115.465 63.5033 115.333 63.5905C115.201 63.6777 115.099 63.8023 115.037 63.9486C114.976 64.0948 114.96 64.256 114.991 64.4115C115.021 64.5671 115.097 64.7101 115.208 64.8222C115.32 64.9344 115.462 65.0106 115.617 65.0412C115.772 65.0717 115.932 65.0553 116.078 64.994C116.223 64.9326 116.347 64.8291 116.434 64.6967C116.521 64.5643 116.566 64.4089 116.565 64.2503C116.565 64.1413 116.543 64.0334 116.5 63.9334C116.457 63.8334 116.393 63.7434 116.314 63.6691C116.235 63.5948 116.141 63.5378 116.039 63.5016C115.936 63.4654 115.828 63.4509 115.72 63.4589H115.777ZM105.354 78.5096C105.196 78.5082 105.042 78.5538 104.91 78.6407C104.779 78.7275 104.676 78.8518 104.615 78.9976C104.553 79.1434 104.537 79.3042 104.566 79.4596C104.596 79.615 104.671 79.7579 104.782 79.8703C104.893 79.9828 105.035 80.0596 105.189 80.091C105.343 80.1224 105.503 80.107 105.649 80.0468C105.795 79.9865 105.919 79.8842 106.007 79.7527C106.094 79.6212 106.141 79.4665 106.141 79.3083C106.141 79.0977 106.059 78.8956 105.911 78.7461C105.764 78.5965 105.563 78.5115 105.354 78.5096ZM112.26 78.5096C112.102 78.5096 111.949 78.5564 111.818 78.6442C111.687 78.732 111.586 78.8567 111.525 79.0026C111.465 79.1486 111.45 79.3091 111.48 79.4641C111.511 79.619 111.587 79.7613 111.698 79.873C111.809 79.9847 111.95 80.0607 112.105 80.0915C112.259 80.1224 112.418 80.1065 112.564 80.0461C112.709 79.9856 112.833 79.8833 112.92 79.7519C113.008 79.6206 113.054 79.4662 113.054 79.3083C113.054 79.0964 112.97 78.8933 112.821 78.7435C112.672 78.5938 112.47 78.5096 112.26 78.5096ZM88.0752 73.5C87.9282 73.4935 87.7824 73.5289 87.6546 73.6021C87.5268 73.6753 87.4222 73.7834 87.3529 73.9138L88.7976 74.4583C88.8014 74.4027 88.8014 74.3469 88.7976 74.2913C88.793 74.0953 88.7169 73.9078 88.5837 73.7645C88.4505 73.6213 88.2695 73.5323 88.0752 73.5145V73.5ZM94.9881 73.5C94.8303 73.4985 94.6757 73.5443 94.544 73.6315C94.4122 73.7187 94.3092 73.8434 94.2482 73.9896C94.1872 74.1358 94.1708 74.297 94.2012 74.4526C94.2317 74.6082 94.3075 74.7512 94.4191 74.8633C94.5306 74.9754 94.6729 75.0516 94.8277 75.0822C94.9825 75.1128 95.1428 75.0964 95.2883 75.035C95.4338 74.9737 95.5578 74.8702 95.6446 74.7378C95.7313 74.6053 95.7769 74.4499 95.7755 74.2913C95.7717 74.084 95.6871 73.8864 95.5398 73.7411C95.3926 73.5958 95.1944 73.5145 94.9881 73.5145V73.5ZM101.894 73.5C101.736 73.5 101.582 73.547 101.452 73.6351C101.321 73.7232 101.219 73.8483 101.159 73.9947C101.099 74.141 101.084 74.302 101.115 74.4571C101.146 74.6122 101.223 74.7545 101.335 74.8659C101.446 74.9773 101.589 75.0528 101.743 75.0828C101.898 75.1128 102.058 75.0959 102.203 75.0343C102.348 74.9728 102.472 74.8693 102.558 74.737C102.644 74.6047 102.69 74.4496 102.688 74.2913C102.685 74.0827 102.599 73.884 102.45 73.7386C102.301 73.5931 102.101 73.5125 101.894 73.5145V73.5ZM108.807 73.5C108.649 73.5 108.495 73.547 108.365 73.6351C108.234 73.7232 108.132 73.8483 108.072 73.9947C108.012 74.141 107.997 74.302 108.028 74.4571C108.059 74.6122 108.136 74.7545 108.247 74.8659C108.359 74.9773 108.502 75.0528 108.656 75.0828C108.811 75.1128 108.971 75.0959 109.116 75.0343C109.261 74.9728 109.384 74.8693 109.471 74.737C109.557 74.6047 109.603 74.4496 109.601 74.2913C109.596 74.0833 109.509 73.8857 109.361 73.7407C109.213 73.5956 109.014 73.5144 108.807 73.5145V73.5Z" fill="white"/>
<path d="M101.304 96.2028L104.344 103.629L147.459 85.803L144.42 78.3768L101.304 96.2028Z" fill="#C7C7C7"/>
<path d="M78.6123 103.362L83.2065 114.594L113.321 102.142L108.72 90.9103L78.6123 103.362Z" fill="#263238"/>
<path d="M146.224 50.3177C149.911 44.1005 155.349 39.1217 161.851 36.0111C168.353 32.9005 175.627 31.7977 182.752 32.8423C189.878 33.8869 196.535 37.0319 201.882 41.8795C207.229 46.7271 211.026 53.0597 212.792 60.0762C214.558 67.0928 214.215 74.4782 211.805 81.2985C209.395 88.1187 205.026 94.0674 199.252 98.3922C193.478 102.717 186.558 105.224 179.367 105.595C172.175 105.967 165.036 104.186 158.851 100.479C150.567 95.5029 144.585 87.4267 142.218 78.0228C139.851 68.6189 141.291 58.6552 146.224 50.3177ZM149.836 52.4958C146.571 57.9994 145.004 64.3524 145.332 70.7513C145.66 77.1503 147.869 83.3078 151.678 88.4451C155.488 93.5825 160.728 97.4689 166.735 99.613C172.743 101.757 179.248 102.062 185.428 100.49C191.608 98.9185 197.186 95.5399 201.455 90.7818C205.725 86.0237 208.495 80.0999 209.415 73.7595C210.335 67.4192 209.363 60.947 206.623 55.1616C203.884 49.3761 199.498 44.5372 194.022 41.2568C186.679 36.8578 177.899 35.5667 169.609 37.667C161.32 39.7673 154.198 45.0873 149.807 52.4595L149.836 52.4958Z" fill="#37474F"/>
<path d="M173.681 106.542C164.302 105.61 155.612 101.179 149.325 94.1222C143.037 87.0657 139.61 77.8969 139.719 68.4251C139.828 58.9532 143.465 49.8665 149.913 42.958C156.361 36.0496 165.151 31.8213 174.549 31.1077C183.946 30.394 193.269 33.2468 200.676 39.103C208.084 44.9593 213.038 53.3935 214.562 62.7414C216.086 72.0892 214.068 81.6716 208.907 89.5974C203.746 97.5233 195.816 103.217 186.683 105.554C182.44 106.647 178.039 106.982 173.681 106.542ZM181.085 33.7205C175.431 33.1365 169.72 33.9335 164.438 36.0437C159.156 38.1539 154.459 41.5149 150.746 45.841C147.033 50.167 144.415 55.3302 143.113 60.8915C141.812 66.4527 141.866 72.2477 143.27 77.7836C144.866 84.0662 148.145 89.789 152.75 94.3301C157.355 98.8711 163.11 102.057 169.39 103.54C175.671 105.024 182.235 104.75 188.371 102.746C194.507 100.743 199.979 97.088 204.192 92.178C208.406 87.2681 211.2 81.2912 212.271 74.897C213.342 68.5028 212.649 61.9358 210.267 55.9098C207.885 49.8838 203.906 44.6292 198.761 40.7172C193.616 36.8051 187.503 34.3853 181.085 33.7205ZM174.107 102.367C168.538 101.792 163.202 99.8155 158.592 96.6205C153.983 93.4256 150.249 89.115 147.735 84.0867C145.22 79.0584 144.007 73.4745 144.206 67.8504C144.406 62.2263 146.011 56.7434 148.876 51.9077C151.678 47.1742 155.599 43.2087 160.291 40.3626C164.983 37.5165 170.301 35.8778 175.774 35.5916C181.247 35.3055 186.706 36.3808 191.666 38.7222C196.627 41.0637 200.936 44.5989 204.212 49.0146C207.488 53.4303 209.63 58.5902 210.447 64.0368C211.264 69.4834 210.732 75.0485 208.898 80.239C207.064 85.4296 203.984 90.0851 199.931 93.793C195.878 97.5009 190.978 100.147 185.665 101.496C181.892 102.458 177.981 102.753 174.107 102.367ZM150.739 52.9968C147.037 59.2224 145.597 66.546 146.665 73.7192C147.734 80.8924 151.245 87.4711 156.599 92.3338C161.953 97.1965 168.82 100.042 176.028 100.386C183.236 100.73 190.34 98.5501 196.128 94.2186C201.916 89.8872 206.031 83.6721 207.77 76.6328C209.509 69.5935 208.766 62.1657 205.666 55.6158C202.567 49.0658 197.303 43.799 190.772 40.7133C184.242 37.6276 176.848 36.9139 169.853 38.6939C161.848 40.7374 154.977 45.8891 150.746 53.0185L150.739 52.9968Z" fill="#37474F"/>
<g opacity="0.2">
<path d="M189.414 40.3201C183.761 37.9519 177.537 37.3216 171.527 38.5087C165.518 39.6959 159.994 42.6473 155.654 46.9897C151.313 51.3321 148.351 56.8706 147.142 62.9049C145.933 68.9391 146.531 75.1982 148.861 80.8908C151.191 86.5834 155.148 91.4537 160.232 94.8862C165.315 98.3186 171.298 100.159 177.422 100.174C183.546 100.19 189.537 98.3801 194.638 94.9736C199.739 91.567 203.72 86.7168 206.079 81.0361C209.238 73.4155 209.258 64.8456 206.133 57.2104C203.008 49.5753 196.994 43.5 189.414 40.3201Z" fill="white"/>
<path d="M180.926 38.1058C172.811 37.2026 164.668 39.5537 158.267 44.6486C151.866 49.7434 147.723 57.1707 146.737 65.3176L180.926 38.1058Z" fill="#EBEBEB"/>
<path d="M205.992 56.8811L159.162 94.1484C161.147 95.6086 163.298 96.8271 165.569 97.7786C168.169 98.8799 170.909 99.6129 173.71 99.9567L208.289 72.44C208.865 67.1415 208.074 61.783 205.992 56.8811Z" fill="#EBEBEB"/>
<path d="M192.202 41.6634L147.59 77.1592C148.127 79.1298 148.852 81.0434 149.757 82.8731L197.259 45.0685C195.692 43.7649 193.998 42.6241 192.202 41.6634Z" fill="#EBEBEB"/>
<path d="M204.07 53.0984L155.918 91.404C156.193 91.6726 156.46 91.9268 156.742 92.1809L204.627 54.0786C204.453 53.7301 204.273 53.4034 204.07 53.0984Z" fill="#EBEBEB"/>
<path d="M205.443 82.4665L184.076 99.4703C184.981 99.2718 185.877 99.0298 186.763 98.7442L204.143 84.9496C204.612 84.1291 205.046 83.3087 205.443 82.4665Z" fill="#EBEBEB"/>
</g>
<path d="M98.0723 35.4848C93.536 38.6285 73.8375 54.6594 71.497 63.88C70.0523 69.5358 80.0786 89.4001 82.7874 94.1557C83.972 96.2249 98.1374 89.1388 98.6791 86.6412C99.2209 84.1437 88.9996 66.167 88.8118 64.2939C88.8118 64.2939 97.9351 49.5191 102.782 41.6488C107.362 34.2215 106.546 29.6184 98.0723 35.4848Z" fill="#EB9481"/>
<path d="M104.516 100.196C106.127 102.708 110.294 104.676 108.85 106.375C107.586 107.892 104.812 106.244 104.812 106.244C104.812 106.244 107.34 109.112 105.534 110.354C103.728 111.595 101.041 109.163 101.041 109.163C101.041 109.163 103.252 111.457 101.337 112.561C99.4231 113.664 96.7937 112.016 96.7937 112.016C96.7937 112.016 96.9743 113.112 95.2768 113.279C92.8497 113.526 89.1873 109.7 87.7499 107.253C86.3124 104.807 82.8523 94.7583 82.3467 93.2118L97.9206 83.7734C97.9206 83.7734 102.479 86.9461 104.595 88.8556C106.712 90.7651 111.963 98.9257 110.034 100.371C108.106 101.815 104.494 95.978 103.295 94.7438C102.096 93.5095 101.612 93.5749 101.72 94.555C101.778 95.2084 103.793 99.0854 104.516 100.196Z" fill="#EB9481"/>
<path d="M104.732 106.099C101.041 103.536 99.8638 101.743 98.1301 97.6842C98.1301 97.6043 97.9712 97.6334 98.0001 97.7205C99.3364 101.881 100.485 104.306 104.617 106.288C104.819 106.389 104.906 106.222 104.732 106.099Z" fill="#263238"/>
<path d="M101.207 109.235C97.5955 106.23 96.3169 104.327 94.186 100.182C94.186 100.124 94.056 100.182 94.0776 100.233C95.8257 104.473 97.0393 106.869 101.034 109.395C101.214 109.511 101.373 109.373 101.207 109.235Z" fill="#263238"/>
<path d="M96.7649 111.958C93.4782 108.8 91.9757 106.774 90.4226 102.476C90.4122 102.46 90.397 102.448 90.3792 102.442C90.3614 102.436 90.342 102.435 90.3241 102.441C90.3061 102.447 90.2905 102.458 90.2796 102.474C90.2687 102.489 90.2631 102.508 90.2637 102.527C91.4195 107.057 93.2831 109.598 96.6565 112.045C96.8877 112.212 96.9671 112.154 96.7649 111.958Z" fill="#263238"/>
<path d="M97.4006 52.7572L82.8452 46.4987C82.8452 46.4987 96.3315 35.4703 101.207 33.3503C106.697 30.9616 106.704 34.3014 104.66 39.6304C102.616 44.9595 97.4006 52.7572 97.4006 52.7572Z" fill="#38768A"/>
<path d="M92.3153 39.144C92.3007 39.343 92.211 39.5289 92.0647 39.6638C91.9185 39.7987 91.7265 39.8724 91.528 39.87C91.468 39.8776 91.4074 39.8776 91.3474 39.87L92.3153 39.144ZM98.4409 38.3018C98.2834 38.3018 98.1295 38.3489 97.9987 38.4369C97.8679 38.525 97.766 38.6502 97.7061 38.7965C97.6462 38.9429 97.6309 39.1038 97.6621 39.2589C97.6934 39.4141 97.7698 39.5563 97.8816 39.6677C97.9935 39.7791 98.1357 39.8546 98.2903 39.8846C98.445 39.9146 98.6049 39.8978 98.75 39.8362C98.8951 39.7746 99.0187 39.6711 99.1051 39.5388C99.1915 39.4066 99.2369 39.2515 99.2355 39.0932C99.2355 38.9887 99.2149 38.8851 99.1749 38.7887C99.1348 38.6922 99.0762 38.6046 99.0023 38.531C98.9284 38.4574 98.8408 38.3993 98.7444 38.36C98.6481 38.3206 98.5449 38.3008 98.4409 38.3018ZM104.559 39.0932C104.555 39.2611 104.608 39.4253 104.711 39.5579C104.87 39.1368 105.022 38.7229 105.144 38.3309C104.977 38.3756 104.829 38.4745 104.723 38.6123C104.617 38.7501 104.56 38.9191 104.559 39.0932ZM101.894 33.2849C101.737 33.2849 101.583 33.3318 101.452 33.4195C101.322 33.5073 101.22 33.632 101.16 33.7779C101.099 33.9239 101.084 34.0844 101.114 34.2394C101.145 34.3943 101.221 34.5366 101.332 34.6483C101.443 34.76 101.585 34.836 101.739 34.8668C101.893 34.8977 102.053 34.8818 102.198 34.8214C102.343 34.7609 102.467 34.6586 102.554 34.5272C102.642 34.3959 102.688 34.2415 102.688 34.0835C102.689 33.9784 102.669 33.8741 102.63 33.7768C102.59 33.6794 102.532 33.591 102.458 33.5167C102.384 33.4423 102.296 33.3835 102.199 33.3437C102.102 33.3039 101.998 33.2839 101.894 33.2849ZM91.5135 48.3574C91.3564 48.3574 91.2028 48.4042 91.0721 48.492C90.9414 48.5797 90.8396 48.7045 90.7794 48.8504C90.7193 48.9963 90.7036 49.1569 90.7342 49.3118C90.7649 49.4668 90.8406 49.6091 90.9517 49.7208C91.0628 49.8325 91.2044 49.9085 91.3585 49.9393C91.5127 49.9701 91.6724 49.9543 91.8176 49.8939C91.9628 49.8334 92.0869 49.7311 92.1742 49.5997C92.2615 49.4684 92.3081 49.314 92.3081 49.156C92.3091 49.0509 92.2892 48.9466 92.2496 48.8493C92.21 48.7519 92.1515 48.6635 92.0775 48.5891C92.0036 48.5148 91.9156 48.456 91.8188 48.4162C91.7219 48.3764 91.6182 48.3564 91.5135 48.3574ZM98.4264 48.3574C98.2693 48.3574 98.1157 48.4042 97.985 48.492C97.8543 48.5797 97.7525 48.7045 97.6923 48.8504C97.6322 48.9963 97.6165 49.1569 97.6471 49.3118C97.6778 49.4668 97.7535 49.6091 97.8646 49.7208C97.9757 49.8325 98.1173 49.9085 98.2714 49.9393C98.4256 49.9701 98.5853 49.9543 98.7305 49.8939C98.8757 49.8334 98.9998 49.7311 99.0871 49.5997C99.1744 49.4684 99.221 49.314 99.221 49.156C99.2211 48.9467 99.1393 48.7457 98.9934 48.5964C98.8475 48.447 98.6491 48.3612 98.4409 48.3574H98.4264ZM88.0607 43.3405C87.9035 43.3405 87.7499 43.3873 87.6192 43.4751C87.4886 43.5628 87.3867 43.6876 87.3266 43.8335C87.2665 43.9794 87.2507 44.14 87.2814 44.2949C87.312 44.4499 87.3877 44.5922 87.4988 44.7039C87.61 44.8155 87.7515 44.8916 87.9057 44.9224C88.0598 44.9532 88.2196 44.9374 88.3648 44.877C88.51 44.8165 88.6341 44.7142 88.7214 44.5828C88.8087 44.4515 88.8553 44.2971 88.8553 44.1391C88.8553 43.9298 88.7736 43.7288 88.6277 43.5795C88.4818 43.4301 88.2834 43.3443 88.0751 43.3405H88.0607ZM94.9736 43.3405C94.8161 43.3391 94.6618 43.3847 94.5302 43.4715C94.3986 43.5584 94.2956 43.6826 94.2344 43.8284C94.1731 43.9742 94.1564 44.135 94.1862 44.2904C94.216 44.4458 94.2911 44.5888 94.402 44.7012C94.5128 44.8137 94.6544 44.8904 94.8087 44.9218C94.963 44.9533 95.1231 44.9379 95.2688 44.8776C95.4144 44.8174 95.5389 44.7151 95.6265 44.5836C95.7142 44.4521 95.761 44.2974 95.761 44.1391C95.761 43.931 95.6803 43.7311 95.536 43.582C95.3916 43.4328 95.195 43.3462 94.988 43.3405H94.9736ZM101.879 43.3405C101.669 43.3405 101.466 43.4246 101.317 43.5744C101.168 43.7242 101.085 43.9273 101.085 44.1391C101.085 44.3509 101.168 44.5541 101.317 44.7039C101.466 44.8536 101.669 44.9378 101.879 44.9378C101.973 44.9389 102.066 44.9217 102.154 44.8869L102.652 43.9576C102.612 43.7846 102.516 43.63 102.378 43.5182C102.241 43.4065 102.07 43.3439 101.894 43.3405H101.879Z" fill="white"/>
<path d="M86.0163 44.7853C86.5581 44.9233 91.1161 46.8037 92.0985 47.232C93.0809 47.6604 97.1116 49.4102 98.0868 49.9111C98.1302 49.9111 98.0868 50.0055 98.0868 49.9837C97.0322 49.657 92.9653 47.929 91.954 47.5152C90.9428 47.1014 86.4786 45.1338 86.0163 44.8507C85.9441 44.8289 85.9802 44.7781 86.0163 44.7853Z" fill="#263238"/>
<path d="M96.2521 52.2562C96.6999 52.4159 97.3934 52.6846 97.3934 52.6846C98.4336 51.1671 102.999 43.0065 104.133 41.068H104.183C103.615 42.2151 103.037 43.355 102.45 44.4876L102.739 44.1028C103.086 43.6454 103.461 43.1953 103.779 42.7234C103.779 42.7234 103.873 42.7234 103.844 42.7669C103.557 43.271 103.239 43.756 102.89 44.219C102.645 44.5384 102.37 44.8434 102.096 45.141C101.756 45.7945 101.424 46.4407 101.063 47.0796C99.9722 49.0471 98.8959 51.1236 97.6607 53.004C97.1592 52.8276 96.6755 52.6039 96.216 52.3361C96.1365 52.3143 96.1871 52.2344 96.2521 52.2562Z" fill="#263238"/>
<path d="M140.33 97.9456C139.884 98.3651 139.318 98.6318 138.712 98.7075C138.105 98.7831 137.491 98.6638 136.957 98.3667C136.957 98.3667 137.361 101.104 135.433 102.331C134.443 102.962 132.543 101.924 132.543 101.924C132.543 101.924 132.767 104.102 130.983 105.112C129.538 105.903 127.898 104.741 127.898 104.741C127.898 104.741 127.133 106.956 125.435 107.29C121.982 107.972 114.029 96.5008 116.998 91.7815C118.385 89.6034 120.176 92.5076 120.176 92.5076C120.176 92.5076 118.609 87.7012 120.899 85.9732C123.189 84.2453 125.305 88.1514 125.305 88.1514C125.305 88.1514 123.824 83.483 126.396 81.951C129.076 80.361 130.513 84.6373 130.513 84.6373C130.513 84.6373 130.463 80.8837 132.68 80.165C136.379 78.9815 136.097 87.3745 138.459 89.48L143.848 87.2293C143.848 87.2293 142.179 96.2829 140.33 97.9456Z" fill="#EB9481"/>
<path d="M127.631 104.596C127.631 104.632 127.631 104.683 127.581 104.654C123.898 101.411 121.283 97.119 120.083 92.3479C120.083 92.1954 120.285 92.072 120.35 92.2317C122.168 96.6862 124.62 100.851 127.631 104.596Z" fill="#263238"/>
<path d="M132.579 101.997C132.615 102.04 132.579 102.098 132.5 102.062C128.888 98.8096 125.724 93.6184 125.153 88.1223C125.153 87.9336 125.305 87.7448 125.341 87.9626C125.998 91.5782 129.704 98.5264 132.579 101.997Z" fill="#263238"/>
<path d="M130.636 84.2598C131.358 89.5091 133.735 93.9887 136.805 98.2432C136.841 98.3013 136.761 98.3522 136.718 98.3159C134.652 96.646 132.976 93.7273 131.864 91.3532C130.774 89.1666 130.276 86.7302 130.419 84.2889C130.462 84.1945 130.621 84.1509 130.636 84.2598Z" fill="#263238"/>
<path d="M120.14 92.1954C119.797 91.2385 119.599 90.2349 119.555 89.2186C119.464 88.1659 119.756 87.1157 120.378 86.2637C120.723 85.8331 121.193 85.521 121.722 85.3706C122.274 85.2541 122.849 85.3583 123.326 85.6611C124.201 86.2533 124.908 87.0639 125.377 88.0134L124.915 88.1949C124.631 87.1876 124.519 86.1396 124.582 85.0948C124.626 84.0116 125.057 82.9805 125.796 82.1906C126.187 81.8012 126.673 81.521 127.205 81.3775C127.481 81.3142 127.768 81.3079 128.048 81.3591C128.327 81.4102 128.593 81.5178 128.83 81.6751C129.672 82.3234 130.298 83.2152 130.621 84.2308L130.282 84.2816C130.322 83.7898 130.412 83.3033 130.549 82.8295C130.678 82.3431 130.878 81.8783 131.141 81.4501C131.4 81.0114 131.765 80.6464 132.203 80.39C132.649 80.1619 133.153 80.0758 133.648 80.1432C133.162 80.1212 132.68 80.2423 132.261 80.4917C131.863 80.7589 131.54 81.1238 131.322 81.5517C130.888 82.4167 130.642 83.3646 130.6 84.3324L130.556 85.0585L130.26 84.3324C129.927 83.4205 129.334 82.6275 128.555 82.0527C128.372 81.9293 128.164 81.8461 127.946 81.8085C127.729 81.771 127.505 81.78 127.291 81.8349C126.843 81.9669 126.439 82.2177 126.121 82.5609C125.477 83.2711 125.113 84.1923 125.095 85.1528C125.028 86.1295 125.121 87.1105 125.37 88.057L125.883 90.0899L124.9 88.2457C124.48 87.3742 123.846 86.6246 123.058 86.0676C122.683 85.8143 122.225 85.7155 121.78 85.7917C121.327 85.9025 120.922 86.1571 120.624 86.5178C120.028 87.2961 119.719 88.2585 119.75 89.2404C119.745 90.2387 119.876 91.233 120.14 92.1954Z" fill="#263238"/>
<path d="M106.979 35.1363C106.921 35.8623 108.554 40.7631 111.905 41.3802C113.646 41.6997 114.737 36.9514 114.737 36.9514L114.961 36.5666L118.118 31.2012L112.758 24.6306L111.97 23.7375C111.97 23.7375 111.205 25.2622 110.266 27.1717L110.136 27.4476C110.077 27.5462 110.024 27.648 109.977 27.7525C109.832 28.0357 109.688 28.3261 109.551 28.6165C109.413 28.9069 109.334 29.0594 109.233 29.2917L108.915 30.0178C108.158 31.6793 107.512 33.3892 106.979 35.1363Z" fill="#EB9481"/>
<path d="M110.294 27.1717C110.35 28.9866 110.8 30.7674 111.61 32.39C112.421 34.0126 113.575 35.4379 114.99 36.5666L118.146 31.2012L112.787 24.6306L111.999 23.7375C111.999 23.7375 111.205 25.2622 110.294 27.1717Z" fill="#263238"/>
<path d="M129.379 25.5599C126.677 36.16 120.061 35.7244 117.821 35.1436C115.756 34.6136 108.792 32.5298 110.388 21.7046C111.985 10.8795 117.742 8.78849 122.524 9.76138C127.306 10.7343 132.081 14.9598 129.379 25.5599Z" fill="#EB9481"/>
<path d="M110.764 21.0367C113.206 21.9225 114.535 18.0309 114.535 18.0309C114.535 18.0309 117.424 18.757 119.172 14.3209C119.398 15.4181 119.874 16.4479 120.562 17.3296C121.25 18.2113 122.132 18.921 123.138 19.4031C123.86 19.8024 121.946 16.7894 121.946 16.7894C121.946 16.7894 124.113 20.8262 130.455 21.8136C130.903 21.8789 132.203 15.2792 128.288 11.4821C124.373 7.68492 119.75 7.43081 115.842 9.36932C114.867 9.51337 113.942 9.89769 113.151 10.488C112.359 11.0783 111.726 11.8563 111.306 12.7526C109.789 15.8528 109.818 20.6955 110.764 21.0367Z" fill="#263238"/>
<path d="M112.115 22.2565C112.115 22.2565 111.002 18.2487 109.225 18.5391C107.448 18.8296 107.549 24.0933 109.037 25.3348C109.216 25.5074 109.428 25.6418 109.66 25.7297C109.892 25.8177 110.14 25.8574 110.388 25.8466C110.635 25.8357 110.878 25.7745 111.102 25.6666C111.326 25.5586 111.525 25.4063 111.688 25.2187L112.115 22.2565Z" fill="#EB9481"/>
<path d="M109.319 20.0493V20.0929C110.352 21.0004 110.591 22.3363 110.627 23.6504C110.6 23.5049 110.542 23.3669 110.457 23.2462C110.371 23.1255 110.261 23.025 110.133 22.9517C110.005 22.8784 109.863 22.8341 109.716 22.8219C109.569 22.8096 109.421 22.8297 109.283 22.8808C109.247 22.8808 109.283 22.9534 109.283 22.9607C109.516 22.9663 109.742 23.0449 109.928 23.1855C110.115 23.326 110.253 23.5216 110.323 23.7448C110.443 24.1197 110.521 24.5069 110.554 24.8992C110.554 25.0299 110.786 25.0372 110.793 24.8992C111.342 23.331 110.901 20.7753 109.319 20.0493Z" fill="#263238"/>
<path d="M127.551 24.2603C127.328 24.1459 127.111 24.0199 126.901 23.8828C126.656 23.7303 126.439 23.6432 126.309 23.3673C126.282 23.2859 126.282 23.1978 126.309 23.1165C126.337 23.0352 126.39 22.9651 126.461 22.9171C126.614 22.8421 126.785 22.8099 126.955 22.8239C127.126 22.838 127.289 22.8977 127.429 22.997C127.736 23.1496 127.979 23.4069 128.115 23.723C128.15 23.8012 128.159 23.8884 128.143 23.9724C128.126 24.0564 128.084 24.1332 128.022 24.1921C127.96 24.2511 127.882 24.2893 127.798 24.3015C127.713 24.3137 127.627 24.2993 127.551 24.2603Z" fill="#263238"/>
<path d="M121.195 20.8189C121.433 20.8739 121.674 20.9151 121.917 20.9423C122.17 21.0332 122.445 21.0332 122.698 20.9423C122.771 20.8978 122.827 20.8304 122.859 20.7504C122.89 20.6703 122.894 20.5822 122.871 20.4995C122.798 20.3437 122.685 20.21 122.545 20.1119C122.404 20.0137 122.24 19.9546 122.069 19.9404C121.728 19.8604 121.37 19.9122 121.065 20.0856C121.002 20.1312 120.954 20.1937 120.925 20.2658C120.896 20.3379 120.888 20.4167 120.901 20.4932C120.915 20.5697 120.95 20.6409 121.002 20.6985C121.054 20.7561 121.121 20.7978 121.195 20.8189Z" fill="#263238"/>
<path d="M121.852 23.9771C121.852 23.9771 121.787 23.9771 121.78 24.0207C121.592 24.7467 121.253 25.5381 120.538 25.5744V25.618C121.332 25.7487 121.773 24.6887 121.852 23.9771Z" fill="#263238"/>
<path d="M121.433 23.0406C120.313 22.6049 119.533 24.8774 120.566 25.284C121.599 25.6906 122.365 23.4036 121.433 23.0406Z" fill="#263238"/>
<path d="M120.942 23.0043C120.703 23.0624 120.429 23.2221 120.183 23.164C119.938 23.1059 119.772 22.7865 119.67 22.496C119.67 22.496 119.67 22.496 119.627 22.496C119.519 22.691 119.49 22.9201 119.545 23.1362C119.6 23.3524 119.735 23.539 119.923 23.6577C120.132 23.7319 120.361 23.7246 120.564 23.6371C120.767 23.5497 120.931 23.3886 121.021 23.1858C121.072 23.1277 121.043 22.9825 120.942 23.0043Z" fill="#263238"/>
<path d="M123.701 28.0938C123.701 28.0938 123.499 29.1973 123.333 29.6983C123.333 29.7491 123.189 29.6983 123.022 29.6983C122.571 29.6359 122.146 29.4487 121.794 29.1578C121.442 28.8668 121.177 28.4834 121.029 28.0502C121.023 28.0377 121.022 28.0234 121.027 28.0105C121.032 27.9975 121.042 27.987 121.054 27.9812C121.066 27.9755 121.081 27.9749 121.094 27.9797C121.106 27.9844 121.117 27.9941 121.123 28.0067C121.613 28.6482 122.293 29.1162 123.066 29.3426C123.152 29.2191 123.355 27.4403 123.434 27.4621C123.809 27.6225 124.159 27.8352 124.474 28.0938C124.966 25.7995 125.088 23.4544 125.616 21.1819C125.62 21.1674 125.63 21.1547 125.642 21.1458C125.654 21.1368 125.669 21.132 125.684 21.132C125.699 21.132 125.714 21.1368 125.727 21.1458C125.739 21.1547 125.748 21.1674 125.753 21.1819C125.698 23.7061 125.393 26.2184 124.843 28.6819C124.742 28.965 123.875 28.2462 123.701 28.0938Z" fill="#263238"/>
<path d="M128.144 25.7269C127.812 25.4719 127.412 25.3227 126.995 25.2985C126.775 25.2861 126.555 25.3131 126.345 25.3784C126.133 25.4608 125.942 25.5869 125.782 25.7487L125.493 26.0463L125.897 26.1189C126.188 26.1707 126.474 26.251 126.75 26.3585C127.032 26.4663 127.281 26.6466 127.472 26.8813C127.39 26.5477 127.183 26.2588 126.894 26.0754C126.61 25.883 126.291 25.7497 125.955 25.6833L126.078 26.0536C126.327 25.8219 126.649 25.6857 126.988 25.6688C127.374 25.637 127.763 25.6565 128.144 25.7269Z" fill="#263238"/>
<path d="M126.555 26.9611C126.278 26.8047 126.02 26.6145 125.789 26.3948C125.739 26.3368 125.544 26.0899 125.573 26.0391C125.648 25.8997 125.74 25.7705 125.847 25.6543C125.705 25.7451 125.582 25.8636 125.486 26.0028C125.481 26.094 125.496 26.1851 125.531 26.2694C125.566 26.3537 125.62 26.4289 125.688 26.4892C125.93 26.7216 126.229 26.8846 126.555 26.9611Z" fill="#263238"/>
</svg>
