<svg width="196" height="95" viewBox="0 0 196 95" fill="none" xmlns="http://www.w3.org/2000/svg">
<path d="M166.493 0H140.369V5.08H166.493V0Z" fill="#F0F0F0"/>
<path d="M164.596 5.08032H142.26V7.68432H164.596V5.08032Z" fill="#E0E0E0"/>
<path d="M162.272 7.68359H144.58V123.996H162.272V7.68359Z" fill="#F0F0F0"/>
<path d="M160.112 7.68359H146.748V123.996H160.112V7.68359Z" fill="#E0E0E0"/>
<path d="M156.156 7.68359H150.704V123.996H156.156V7.68359Z" fill="#F0F0F0"/>
<path d="M59.6377 0H33.5137V5.08H59.6377V0Z" fill="#F0F0F0"/>
<path d="M57.7383 5.08032H35.4023V7.68432H57.7383V5.08032Z" fill="#E0E0E0"/>
<path d="M55.4166 7.68359H37.7246V123.996H55.4166V7.68359Z" fill="#F0F0F0"/>
<path d="M53.2566 7.68359H39.8926V123.996H53.2566V7.68359Z" fill="#E0E0E0"/>
<path d="M49.2997 7.68359H43.8477V123.996H49.2997V7.68359Z" fill="#F0F0F0"/>
<path d="M116 23.8799C116 23.8799 113.712 23.2359 107.572 24.1239C107.572 24.1239 107.744 34.0679 108.772 39.0599C111.098 39.2749 113.443 39.1482 115.732 38.6839C115.732 38.6839 114.556 27.4759 116 23.8799Z" fill="white"/>
<path opacity="0.1" d="M116 23.8799C116 23.8799 113.712 23.2359 107.572 24.1239C107.572 24.1239 107.744 34.0679 108.772 39.0599C111.098 39.2749 113.443 39.1482 115.732 38.6839C115.732 38.6839 114.556 27.4759 116 23.8799Z" fill="black"/>
<path d="M109.155 46.5318L107.635 40.4318C107.635 40.4318 105.963 39.4278 105.823 38.3118C105.683 37.1958 107.459 34.0878 107.803 34.0918C108.147 34.0958 110.391 35.7718 110.387 36.2678C110.383 36.7638 109.939 39.4118 109.939 39.4118L112.991 45.3278L109.155 46.5318Z" fill="#E2877B"/>
<path d="M108.206 44.2597L107.33 42.2077L111.646 39.6997L112.99 41.9797L108.206 44.2597Z" fill="#348DAA"/>
<path opacity="0.8" d="M108.206 44.2597L107.33 42.2077L111.646 39.6997L112.99 41.9797L108.206 44.2597Z" fill="white"/>
<path d="M127.9 37.0721C125.308 38.7921 119.552 47.1681 118.128 47.0441C116.288 46.8881 113.236 40.7161 113.236 40.7161L107.572 44.1281C107.572 44.1281 114.204 57.5201 117.904 56.6761C121.604 55.8321 128.616 45.5601 129.104 44.0481C129.592 42.5361 131.116 34.9361 127.9 37.0721Z" fill="#263238"/>
<path opacity="0.3" d="M127.9 37.0721C125.308 38.7921 119.552 47.1681 118.128 47.0441C116.288 46.8881 113.236 40.7161 113.236 40.7161L107.572 44.1281C107.572 44.1281 114.204 57.5201 117.904 56.6761C121.604 55.8321 128.616 45.5601 129.104 44.0481C129.592 42.5361 131.116 34.9361 127.9 37.0721Z" fill="black"/>
<path d="M141.652 65.3032H124.96C123.36 73.9672 118.624 107.271 122.188 134.591L127.84 133.891C127.84 133.891 127.096 94.9832 132.084 81.5752C132.66 88.7512 133.34 96.3752 133.932 100.447C135.384 110.447 138.628 134.135 138.628 134.135H144.4C144.4 134.135 143.088 111.383 142.544 101.555C141.928 90.8712 141.672 67.4952 141.652 65.3032Z" fill="#263238"/>
<g opacity="0.3">
<path d="M141.653 65.304H124.961C123.361 73.968 118.625 107.272 122.189 134.592L127.841 133.892C127.841 133.892 127.097 94.984 132.085 81.576C132.661 88.752 133.341 96.376 133.933 100.448C135.385 110.448 138.629 134.136 138.629 134.136H144.401C144.401 134.136 143.089 111.384 142.545 101.556C141.929 90.872 141.673 67.496 141.653 65.304Z" fill="black"/>
</g>
<path opacity="0.4" d="M124.288 69.3357C124.288 69.3357 129.208 70.4717 132.636 69.3357L132.328 66.6677H124.348L124.288 69.3357Z" fill="black"/>
<path opacity="0.1" d="M126.763 69.7239C127.815 69.8377 128.874 69.8672 129.931 69.8119V66.6719H126.763V69.7239Z" fill="white"/>
<path opacity="0.2" d="M132.082 81.5753C131.261 83.9258 130.637 86.3409 130.218 88.7953C129.75 82.3953 131.618 75.6353 131.618 75.6353L132.082 81.5753Z" fill="black"/>
<path d="M139.45 27.2719C139.45 27.2719 139.326 30.3359 136.938 29.6159C134.55 28.8959 137.342 26.1879 139.45 27.2719Z" fill="#263238"/>
<path d="M132.327 34.9359C132.821 34.5456 133.189 34.0182 133.384 33.4198C133.58 32.8214 133.595 32.1786 133.427 31.5719L137.747 28.0879C137.747 28.0879 137.187 32.3639 138.231 34.6279C138.231 34.6279 135.623 37.2719 133.635 36.6679C131.647 36.0639 132.327 34.9359 132.327 34.9359Z" fill="#E2877B"/>
<path opacity="0.2" d="M136.774 30.1758L135.066 30.2478L133.426 31.5718C133.574 32.1541 133.567 32.765 133.406 33.3438C136.022 32.9238 136.774 30.1758 136.774 30.1758Z" fill="black"/>
<path d="M136.662 38.0237L133.086 36.6677L130.082 36.8917C130.082 36.8917 126.906 44.1317 125.73 51.6077C124.984 56.8102 124.583 62.0563 124.53 67.3117C124.638 67.2877 128.93 68.2277 132.91 66.8757C132.91 66.8757 130.258 55.6757 131.71 50.5437C133.162 45.4117 136.646 38.0237 136.646 38.0237" fill="#348DAA"/>
<path opacity="0.8" d="M136.662 38.0237L133.086 36.6677L130.082 36.8917C130.082 36.8917 126.906 44.1317 125.73 51.6077C124.984 56.8102 124.583 62.0563 124.53 67.3117C124.638 67.2877 128.93 68.2277 132.91 66.8757C132.91 66.8757 130.258 55.6757 131.71 50.5437C133.162 45.4117 136.646 38.0237 136.646 38.0237" fill="white"/>
<path opacity="0.4" d="M131.687 36.7717L131.903 38.7397C131.903 38.7397 129.243 43.9117 128.303 47.3717C127.363 50.8317 126.587 61.3237 126.587 61.3237L128.251 64.1837L129.779 61.3237C129.779 61.3237 129.379 52.9237 130.603 47.2597C131.827 41.5957 132.503 39.0517 132.503 39.0517L134.343 37.7197L133.095 36.6677L131.687 36.7717Z" fill="black"/>
<path d="M132.326 34.9354L133.558 36.1594L138.226 34.6274L134.746 39.7794L133.022 37.0114L130.214 37.8074L132.326 34.9354Z" fill="white"/>
<path d="M132.328 34.936C132.328 34.936 125.9 36.34 124.528 42.136C123.156 47.932 122.348 73.244 122.148 75.284C121.948 77.324 125.976 77.576 125.976 77.576C125.976 77.576 125.76 64.484 126.088 61.008C126.208 59.752 126.392 55.512 126.96 52.208C127.964 46.36 129.708 38.84 132.328 34.936Z" fill="#263238"/>
<path d="M130.996 35.404C130.124 36.172 128.04 37.804 126.996 39.528L128.62 40.388L126.4 41.8C126.4 41.8 126.584 48.036 127.128 51.304C128.152 45.616 129.848 38.644 132.328 34.936C132.328 34.936 131.8 35.084 130.996 35.404Z" fill="#263238"/>
<path opacity="0.1" d="M130.996 35.404C130.124 36.172 128.04 37.804 126.996 39.528L128.62 40.388L126.4 41.8C126.4 41.8 126.584 48.036 127.128 51.304C128.152 45.616 129.848 38.644 132.328 34.936C132.328 34.936 131.8 35.084 130.996 35.404Z" fill="white"/>
<path d="M127.403 21.5116C127.403 21.5116 127.179 23.8636 129.003 24.3876C129.003 24.3876 130.047 21.7596 128.779 21.5116C127.511 21.2636 127.403 21.5116 127.403 21.5116Z" fill="#263238"/>
<path d="M128.983 28.1359C129.275 29.7999 130.523 33.2879 134.055 32.2239C137.587 31.1599 137.735 28.3719 137.795 27.5679C137.855 26.7639 137.103 20.5239 134.847 19.9279C132.591 19.3319 129.847 20.0679 128.983 21.3599C128.119 22.6519 128.983 28.1359 128.983 28.1359Z" fill="#E2877B"/>
<path d="M137.599 25.5557C137.655 25.6277 135.263 27.0597 135.339 22.1117C135.339 22.1117 133.607 22.8477 133.207 20.8837C133.207 20.8837 125.967 23.3797 126.687 20.5637C127.651 16.8037 133.507 16.5197 136.031 18.4877C136.031 18.4877 137.283 17.0837 138.463 18.5957C139.875 20.4037 139.851 25.3037 139.851 25.3037L137.599 25.5557Z" fill="#263238"/>
<path d="M139.398 24.9196C138.55 23.5876 134.762 24.9836 134.026 25.2716L134.002 25.0836C133.992 25.0154 133.968 24.9498 133.933 24.8907C133.897 24.8317 133.85 24.7803 133.794 24.7396C133.736 24.6998 133.671 24.6725 133.602 24.6594C133.533 24.6464 133.462 24.6478 133.394 24.6636L131.838 24.9996C131.711 25.024 131.598 25.0969 131.523 25.2028C131.449 25.3088 131.418 25.4396 131.438 25.5676C131.438 25.6156 131.458 25.6756 131.466 25.7276C131.341 25.6812 131.206 25.6667 131.074 25.6856C130.942 25.7045 130.817 25.756 130.71 25.8356V25.7076C130.69 25.5749 130.618 25.4555 130.51 25.3756C130.457 25.336 130.397 25.3074 130.333 25.2916C130.27 25.2758 130.203 25.2731 130.138 25.2836L128.83 25.4796C128.705 25.4985 128.591 25.5643 128.512 25.6639C128.433 25.7634 128.395 25.8892 128.406 26.0156C128.43 26.2996 128.458 26.5516 128.486 26.7556C128.496 26.8208 128.519 26.8833 128.553 26.9396C128.588 26.9959 128.633 27.0448 128.686 27.0836C128.771 27.1473 128.875 27.1811 128.982 27.1796H129.054L130.386 26.9836C130.451 26.9743 130.514 26.9522 130.571 26.9186C130.627 26.885 130.677 26.8405 130.716 26.7877C130.755 26.735 130.784 26.6749 130.8 26.6111C130.816 26.5472 130.82 26.4808 130.81 26.4156L130.762 26.0716C130.859 25.9722 130.987 25.9086 131.125 25.8911C131.263 25.8737 131.403 25.9035 131.522 25.9756C131.542 26.0836 131.562 26.1956 131.582 26.2996C131.608 26.4301 131.684 26.5451 131.794 26.6196C131.876 26.6744 131.972 26.7036 132.07 26.7036C132.105 26.7078 132.139 26.7078 132.174 26.7036L133.702 26.3916C133.827 26.3664 133.938 26.2945 134.012 26.1905C134.087 26.0866 134.119 25.9583 134.102 25.8316L134.054 25.4916C134.622 25.2716 138.454 23.8276 139.23 25.0436C139.237 25.0548 139.247 25.0643 139.258 25.0718C139.269 25.0792 139.281 25.0844 139.294 25.087C139.307 25.0896 139.321 25.0896 139.334 25.087C139.347 25.0843 139.359 25.0791 139.37 25.0716C139.384 25.065 139.395 25.0554 139.404 25.0434C139.414 25.0314 139.42 25.0175 139.422 25.0027C139.425 24.9879 139.424 24.9727 139.42 24.9583C139.416 24.9438 139.408 24.9306 139.398 24.9196ZM130.362 26.7836L129.03 26.9756C128.951 26.9874 128.871 26.9688 128.806 26.9236C128.775 26.9002 128.748 26.8709 128.728 26.8372C128.709 26.8036 128.695 26.7663 128.69 26.7276C128.662 26.5276 128.634 26.2796 128.61 25.9956C128.604 25.9198 128.627 25.8445 128.675 25.7851C128.722 25.7257 128.791 25.6866 128.866 25.6756L130.174 25.4796H130.218C130.282 25.4803 130.345 25.4998 130.398 25.5356C130.462 25.5844 130.503 25.6563 130.514 25.7356L130.618 26.4436C130.628 26.5225 130.607 26.6023 130.559 26.6659C130.512 26.7295 130.441 26.7717 130.362 26.7836ZM133.666 26.1796L132.138 26.4916C132.059 26.5077 131.977 26.4919 131.91 26.4476C131.877 26.4263 131.849 26.3987 131.827 26.3664C131.805 26.3341 131.79 26.2979 131.782 26.2596C131.738 26.0156 131.69 25.7476 131.658 25.5356C131.645 25.4599 131.662 25.3821 131.705 25.3187C131.749 25.2553 131.815 25.2111 131.89 25.1956L133.442 24.8596C133.463 24.856 133.485 24.856 133.506 24.8596C133.567 24.8585 133.628 24.8766 133.678 24.9116C133.713 24.9356 133.742 24.9664 133.764 25.0022C133.786 25.038 133.8 25.078 133.806 25.1196L133.902 25.8516C133.911 25.9259 133.891 26.0006 133.848 26.0613C133.804 26.122 133.739 26.1642 133.666 26.1796Z" fill="black"/>
<path d="M133.059 25.5841C133.119 25.8281 133.007 26.0561 132.839 26.0841C132.671 26.1121 132.511 25.9321 132.467 25.6841C132.423 25.4361 132.523 25.2081 132.687 25.1801C132.851 25.1521 133.015 25.3321 133.059 25.5841Z" fill="#263238"/>
<path d="M129.954 26.0722C130.014 26.3202 129.898 26.5482 129.734 26.5762C129.57 26.6042 129.406 26.4202 129.362 26.1762C129.318 25.9322 129.418 25.7042 129.582 25.6762C129.746 25.6482 129.914 25.8282 129.954 26.0722Z" fill="#263238"/>
<path d="M131.152 26.0354C130.987 26.8516 130.709 27.6407 130.324 28.3794C130.518 28.4704 130.73 28.5176 130.944 28.5176C131.159 28.5176 131.37 28.4704 131.564 28.3794L131.152 26.0354Z" fill="#DC5753"/>
<path d="M133.599 24.0961C133.583 24.1181 133.561 24.1351 133.535 24.145C133.51 24.155 133.482 24.1574 133.455 24.1521C133.272 24.1162 133.083 24.1236 132.903 24.1736C132.723 24.2235 132.558 24.3148 132.419 24.4401C132.407 24.4584 132.391 24.4739 132.372 24.4855C132.354 24.497 132.332 24.5044 132.311 24.507C132.289 24.5096 132.267 24.5074 132.246 24.5006C132.225 24.4938 132.205 24.4825 132.189 24.4675C132.173 24.4525 132.16 24.4342 132.152 24.4138C132.144 24.3935 132.14 24.3715 132.141 24.3495C132.142 24.3275 132.147 24.3059 132.158 24.2863C132.168 24.2668 132.182 24.2496 132.199 24.2361C132.371 24.0745 132.579 23.9561 132.806 23.8908C133.033 23.8254 133.272 23.8149 133.503 23.8601C133.542 23.8669 133.576 23.888 133.6 23.9191C133.624 23.9502 133.635 23.9891 133.631 24.0281C133.625 24.0527 133.615 24.0759 133.599 24.0961Z" fill="#263238"/>
<path d="M132.191 29.6234C132.558 29.6156 132.918 29.5199 133.24 29.3446C133.562 29.1692 133.838 28.9191 134.043 28.6154C134.054 28.5973 134.057 28.5759 134.051 28.5557C134.046 28.5355 134.033 28.5182 134.015 28.5074C134.001 28.4942 133.983 28.4868 133.963 28.4868C133.944 28.4868 133.926 28.4942 133.911 28.5074C133.716 28.7856 133.459 29.0143 133.159 29.1754C132.86 29.3365 132.527 29.4255 132.187 29.4354C132.177 29.4348 132.167 29.4364 132.158 29.44C132.148 29.4436 132.14 29.4492 132.132 29.4564C132.125 29.4635 132.12 29.4722 132.116 29.4816C132.112 29.4911 132.111 29.5013 132.111 29.5114C132.111 29.5316 132.119 29.5509 132.134 29.5651C132.148 29.5794 132.167 29.5874 132.187 29.5874L132.191 29.6234Z" fill="#263238"/>
<path d="M128.887 24.5435C128.86 24.5365 128.835 24.5205 128.818 24.498C128.8 24.4756 128.791 24.448 128.791 24.4195C128.791 24.3911 128.8 24.3635 128.818 24.341C128.835 24.3186 128.86 24.3026 128.887 24.2955C129.105 24.2032 129.342 24.1645 129.578 24.1826C129.814 24.2007 130.042 24.2751 130.243 24.3995C130.259 24.4107 130.273 24.425 130.284 24.4416C130.294 24.4581 130.302 24.4766 130.305 24.496C130.308 24.5153 130.308 24.5352 130.303 24.5543C130.299 24.5735 130.291 24.5916 130.279 24.6075C130.255 24.6385 130.221 24.6594 130.182 24.6661C130.144 24.6727 130.104 24.6647 130.071 24.6435C129.91 24.5491 129.728 24.4937 129.541 24.4819C129.354 24.4701 129.167 24.5022 128.995 24.5755C128.956 24.5795 128.918 24.568 128.887 24.5435Z" fill="#263238"/>
<path d="M138.231 34.6274C138.231 34.6274 142.507 37.1234 144.715 38.0594C146.923 38.9954 143.575 54.2314 143.491 56.8594C143.407 59.4874 145.795 77.5394 145.795 77.5394C145.795 77.5394 138.995 79.3114 133.423 77.9874C133.423 77.9874 129.487 62.9714 129.971 55.1034C130.439 47.5274 132.711 40.0714 138.231 34.6274Z" fill="#263238"/>
<path d="M140.001 35.6354C138.989 35.0634 138.253 34.6274 138.253 34.6274C132.913 39.8914 130.621 47.0274 130.053 54.3514C132.365 48.7074 137.753 43.5514 137.753 43.5514L136.089 41.1154L139.141 40.8754C139.2 39.099 139.489 37.3377 140.001 35.6354Z" fill="#263238"/>
<path opacity="0.1" d="M140.001 35.6354C138.989 35.0634 138.253 34.6274 138.253 34.6274C132.913 39.8914 130.621 47.0274 130.053 54.3514C132.365 48.7074 137.753 43.5514 137.753 43.5514L136.089 41.1154L139.141 40.8754C139.2 39.099 139.489 37.3377 140.001 35.6354Z" fill="white"/>
<path d="M138.152 44.5956C138.148 44.561 138.131 44.5292 138.104 44.5069C138.078 44.4845 138.043 44.4733 138.008 44.4756L128.408 45.2756V45.9476H127.396L128.684 61.4796C128.684 61.5516 128.736 61.5516 128.74 61.6036H128.844L128.928 61.4836L129.248 61.4556L129.352 61.5596L139.372 60.7156C139.39 60.7146 139.407 60.7102 139.422 60.7026C139.438 60.695 139.452 60.6844 139.464 60.6714C139.475 60.6584 139.484 60.6432 139.49 60.6268C139.495 60.6104 139.498 60.593 139.496 60.5756L138.152 44.5956Z" fill="#348DAA"/>
<path d="M127.768 60.4315C127.779 60.7071 127.878 60.9719 128.05 61.1876C128.222 61.4033 128.458 61.5588 128.724 61.6315C128.656 60.8115 128.56 60.0315 128.56 60.0315C128.56 60.0315 127.684 48.1155 127.456 45.3835C127.218 45.4323 127.003 45.559 126.845 45.7438C126.687 45.9286 126.595 46.1607 126.584 46.4035C126.616 46.7755 126.68 47.5315 126.68 47.5315C126.68 47.5315 127.516 57.4635 127.768 60.4315Z" fill="#348DAA"/>
<path opacity="0.2" d="M127.768 60.4315C127.779 60.7071 127.878 60.9719 128.05 61.1876C128.222 61.4033 128.458 61.5588 128.724 61.6315C128.656 60.8115 128.56 60.0315 128.56 60.0315C128.56 60.0315 127.684 48.1155 127.456 45.3835C127.218 45.4323 127.003 45.559 126.845 45.7438C126.687 45.9286 126.595 46.1607 126.584 46.4035C126.616 46.7755 126.68 47.5315 126.68 47.5315C126.68 47.5315 127.516 57.4635 127.768 60.4315Z" fill="black"/>
<path d="M128.728 61.2713L139.08 60.4313L138.48 58.6553L128.58 59.4913C128.415 59.5769 128.283 59.7149 128.205 59.8835C128.127 60.0522 128.107 60.242 128.148 60.4233C128.159 60.6038 128.219 60.7778 128.321 60.9271C128.423 61.0763 128.564 61.1953 128.728 61.2713Z" fill="#348DAA"/>
<path opacity="0.6" d="M128.728 61.2713L139.08 60.4313L138.48 58.6553L128.58 59.4913C128.415 59.5769 128.283 59.7149 128.205 59.8835C128.127 60.0522 128.107 60.242 128.148 60.4233C128.159 60.6038 128.219 60.7778 128.321 60.9271C128.423 61.0763 128.564 61.1953 128.728 61.2713Z" fill="white"/>
<path d="M138.895 58.6799L129.119 59.5039L129.043 59.4519L128.739 59.4799L128.675 59.5399H128.547C128.541 59.54 128.534 59.5376 128.529 59.5332C128.524 59.5288 128.52 59.5226 128.519 59.5159L127.319 45.3919C127.319 45.3919 127.319 45.3639 127.343 45.3639H127.491L127.551 45.4719L127.855 45.4479L127.927 45.3279L137.695 44.5039C137.702 44.505 137.708 44.5078 137.713 44.512C137.718 44.5163 137.721 44.5218 137.723 44.5279L138.923 58.6519C138.923 58.6593 138.92 58.6665 138.915 58.6717C138.91 58.677 138.903 58.6799 138.895 58.6799Z" fill="#348DAA"/>
<path opacity="0.3" d="M136.655 52.5238L129.787 53.0998L129.299 47.3158L136.167 46.7358L136.655 52.5238ZM130.111 52.6678L136.263 52.1518L135.843 47.1678L129.691 47.6718L130.111 52.6678Z" fill="black"/>
<path opacity="0.3" d="M126.763 48.5158C126.808 48.3168 126.9 48.1313 127.031 47.9742C127.162 47.8172 127.327 47.6931 127.515 47.6118C127.515 47.7198 127.515 47.7638 127.551 48.0598C127.184 48.3036 126.921 48.6739 126.811 49.0998L126.763 48.5158Z" fill="black"/>
<path opacity="0.3" d="M127.504 57.3274C127.55 57.1279 127.642 56.9419 127.772 56.7842C127.903 56.6265 128.068 56.5016 128.256 56.4194C128.256 56.5274 128.276 56.5754 128.296 56.8714C127.928 57.1136 127.664 57.4846 127.556 57.9114L127.504 57.3274Z" fill="black"/>
<path opacity="0.3" d="M127.86 45.4599L127.557 45.4854L128.735 59.4918L129.038 59.4664L127.86 45.4599Z" fill="black"/>
<path d="M135.788 54.2654L130.969 54.6709L131.025 55.3365L135.844 54.931L135.788 54.2654Z" fill="#348DAA"/>
<path d="M134.845 55.8082L132.15 56.0349L132.206 56.7006L134.901 56.4738L134.845 55.8082Z" fill="#348DAA"/>
<path opacity="0.3" d="M128.71 60.2678L137.966 59.4678C137.966 59.4678 135.146 59.6518 131.658 59.9478C130.178 60.0918 128.71 60.2678 128.71 60.2678Z" fill="black"/>
<path opacity="0.3" d="M128.738 60.6274L138.018 59.7634L131.686 60.2954C130.206 60.4194 128.738 60.6274 128.738 60.6274Z" fill="black"/>
<path opacity="0.3" d="M128.768 60.9513L138.092 60.0713L131.716 60.6113C130.236 60.7433 128.768 60.9513 128.768 60.9513Z" fill="black"/>
<path d="M130.606 59.7593L130.758 61.5793L130.106 60.9673L129.562 61.6713C129.562 61.6713 129.526 61.2233 129.41 59.8313C129.77 59.7993 130.314 59.7833 130.606 59.7593Z" fill="#348DAA"/>
<path opacity="0.3" d="M130.606 59.7593L130.758 61.5793L130.106 60.9673L129.562 61.6713C129.562 61.6713 129.526 61.2233 129.41 59.8313C129.77 59.7993 130.314 59.7833 130.606 59.7593Z" fill="black"/>
<path opacity="0.3" d="M128.684 59.9235L138.048 59.1875C138.048 59.1875 135.12 59.3235 131.648 59.6195C130.152 59.7435 128.684 59.9235 128.684 59.9235Z" fill="black"/>
<path d="M138.923 58.6753L138.375 58.7233C138.252 58.9987 138.24 59.3115 138.343 59.5953C138.378 59.7828 138.464 59.9571 138.591 60.0984C138.719 60.2397 138.884 60.3426 139.067 60.3953L138.923 58.6753Z" fill="#348DAA"/>
<path d="M136.182 59.592L130.47 56.952C130.47 56.952 128.638 57.628 127.67 57.04C126.702 56.452 125.398 53.12 125.618 52.852C125.838 52.584 128.55 51.888 128.93 52.2C129.31 52.512 131.102 54.52 131.102 54.52L137.626 55.848L136.182 59.592Z" fill="#E2877B"/>
<path d="M134.588 54.0354L132.3 53.8994L132.544 59.0474L134.976 59.4554L134.588 54.0354Z" fill="white"/>
<path d="M134.588 54.0354L132.3 53.8994L132.544 59.0474L134.976 59.4554L134.588 54.0354Z" fill="#348DAA"/>
<path opacity="0.8" d="M134.588 54.0354L132.3 53.8994L132.544 59.0474L134.976 59.4554L134.588 54.0354Z" fill="white"/>
<path d="M143.151 37.544C146.971 37.944 148.507 43.708 149.039 46.588C149.559 49.388 150.975 58.144 147.755 60.508C144.535 62.872 134.327 60.28 134.327 60.28L133.783 53.272C133.783 53.272 139.267 54.508 141.635 53.588C143.635 52.816 142.703 45.684 142.495 44.388C142.199 42.568 141.355 37.352 143.151 37.544Z" fill="#263238"/>
<path opacity="0.3" d="M143.151 37.544C146.971 37.944 148.507 43.708 149.039 46.588C149.559 49.388 150.975 58.144 147.755 60.508C144.535 62.872 134.327 60.28 134.327 60.28L133.783 53.272C133.783 53.272 139.267 54.508 141.635 53.588C143.635 52.816 142.703 45.684 142.495 44.388C142.199 42.568 141.355 37.352 143.151 37.544Z" fill="black"/>
<path d="M136.839 25.9401C136.839 25.9401 137.471 24.1921 139.087 24.1841C140.383 24.1841 140.571 25.8041 139.979 26.9241C139.527 27.7841 138.043 28.8601 137.099 27.7241C136.155 26.5881 136.839 25.9401 136.839 25.9401Z" fill="#E2877B"/>
<path d="M70.748 71.936C70.748 71.936 78.804 80.296 79.292 80.736C79.78 81.176 82.784 82.144 83.228 82.528C83.672 82.912 82.924 85.728 82.628 86.268C82.332 86.808 78.084 84.488 77.828 84.108C77.5824 83.6372 77.3815 83.1444 77.228 82.636L68.084 74.956L70.748 71.936Z" fill="#E9B076"/>
<path d="M63.9609 63.8438C63.9609 63.8438 63.9849 64.1678 64.0489 64.7038C64.1129 65.2398 64.2089 66.0478 64.3529 66.9438C64.7009 69.1238 65.3089 71.9278 66.2849 73.6238C66.5234 74.0736 66.8515 74.4697 67.2489 74.7878C68.5289 75.7398 74.1809 81.9598 74.1809 81.9598L77.1849 78.1398L73.1969 73.0918C73.1969 73.0918 70.5649 58.2238 66.5529 57.0638C64.8169 56.5598 63.9609 63.8438 63.9609 63.8438Z" fill="#348DAA"/>
<path opacity="0.6" d="M63.9609 63.8438C63.9609 63.8438 63.9849 64.1678 64.0489 64.7038C64.1129 65.2398 64.2089 66.0478 64.3529 66.9438C64.7009 69.1238 65.3089 71.9278 66.2849 73.6238C66.5234 74.0736 66.8515 74.4697 67.2489 74.7878C68.5289 75.7398 74.1809 81.9598 74.1809 81.9598L77.1849 78.1398L73.1969 73.0918C73.1969 73.0918 70.5649 58.2238 66.5529 57.0638C64.8169 56.5598 63.9609 63.8438 63.9609 63.8438Z" fill="black"/>
<path d="M67.7324 92.2801L66.9564 87.4081L49.0924 86.3401C49.0924 86.3401 47.1964 96.4721 48.6524 99.1761C51.2564 103.996 65.3004 101.576 69.4084 102.036C66.9524 112.072 67.1964 131.708 67.1964 131.708L73.0644 132.156C73.0644 132.156 77.5804 111.008 78.4924 100.956C79.1044 94.1761 73.4844 94.3441 67.7324 92.2801Z" fill="#348DAA"/>
<path d="M81.2626 130.568L75.5986 128.908C75.5986 128.908 78.9706 109.876 82.3986 103.276C82.1426 103.192 81.8026 103.084 81.3826 102.96C80.6266 102.732 79.6226 102.448 78.4426 102.12C70.2426 99.8439 53.5986 95.5759 53.5986 95.5759L61.1986 88.4719C61.1986 88.4719 91.4706 93.0879 92.0986 101.064C92.3986 104.912 81.2626 130.568 81.2626 130.568Z" fill="#348DAA"/>
<path opacity="0.2" d="M81.389 102.96C80.633 102.732 79.629 102.448 78.449 102.12C78.685 100.184 78.689 97.9635 77.757 96.8315C75.905 94.5755 71.141 93.2515 68.429 92.7715C66.161 92.3715 58.541 91.5715 58.541 91.5715C58.541 91.5715 68.429 90.6235 78.541 93.5715C83.533 95.0355 82.561 99.9195 81.389 102.96Z" fill="black"/>
<path d="M48.1025 91.4319C46.9025 90.5159 48.0545 81.9959 47.4425 73.6119C46.5105 60.8559 48.5145 56.6999 49.4425 56.2999C50.8188 56.0191 52.218 55.8651 53.6225 55.8399C56.1981 55.7445 58.7772 55.7993 61.3465 56.0039C63.1045 56.2228 64.843 56.5772 66.5465 57.0639C66.5465 57.0639 70.7585 70.4639 68.0665 89.7639L48.1025 91.4319Z" fill="#348DAA"/>
<g opacity="0.5">
<path d="M48.1025 91.4321C46.9025 90.5161 48.0545 81.9961 47.4425 73.6121C46.5105 60.8561 48.5145 56.7001 49.4425 56.3001C50.8188 56.0194 52.218 55.8654 53.6225 55.8401C56.1981 55.7447 58.7772 55.7995 61.3465 56.0041C63.1045 56.223 64.843 56.5774 66.5465 57.0641C66.5465 57.0641 70.7585 70.4641 68.0665 89.7641L48.1025 91.4321Z" fill="black"/>
</g>
<path d="M54.5848 47.1802C55.0168 49.6722 55.4048 54.2362 53.6328 55.8602C54.3515 56.6334 55.2166 57.2561 56.1779 57.6921C57.1393 58.1282 58.1777 58.3689 59.2328 58.4002C62.4328 58.5402 61.3528 56.0242 61.3528 56.0242C58.5968 55.3042 58.7128 53.2482 59.2368 51.3282L54.5848 47.1802Z" fill="#E2877B"/>
<path opacity="0.2" d="M56.4831 48.8721L59.2391 51.3321C59.1096 51.7779 59.0199 52.2344 58.9711 52.6961C57.9151 52.5201 56.4871 51.3281 56.3991 50.2161C56.3429 49.7668 56.3714 49.3109 56.4831 48.8721Z" fill="black"/>
<path d="M63.5225 43.8561C63.5225 43.8561 66.0545 44.392 66.4025 42.812C66.7505 41.232 66.1225 40.9601 66.8745 40.2C67.6265 39.44 67.1425 36.844 65.2025 37.356C63.2625 37.868 62.2465 35.2 60.6385 35.564C59.0305 35.928 58.7825 37.048 57.7705 37.312C56.7585 37.576 54.7505 36.268 53.4625 37.044C52.1745 37.82 53.1665 39.484 52.7305 40.12C52.2945 40.756 51.2305 42.376 52.7305 44.752C54.1065 46.928 52.3945 48.02 51.5065 47.816C51.4756 47.8076 51.4431 47.8068 51.4118 47.8135C51.3805 47.8202 51.3513 47.8344 51.3266 47.8548C51.3019 47.8752 51.2825 47.9012 51.2699 47.9306C51.2574 47.9601 51.2521 47.9921 51.2545 48.024C51.2785 48.276 51.4265 48.632 52.0305 48.856C53.0385 49.232 53.2305 48.684 53.4625 48.972C53.6945 49.26 54.1985 50.208 55.8625 49.236C57.5265 48.264 58.3385 42.116 63.5225 43.8561Z" fill="#263238"/>
<path d="M63.5563 47.4478C63.2683 49.1118 62.0203 52.5998 58.4883 51.5358C54.9563 50.4718 54.7963 47.6718 54.7483 46.8718C54.7003 46.0718 55.4363 39.8238 57.6963 39.2318C59.9563 38.6398 62.6963 39.3718 63.5563 40.6598C64.4163 41.9478 63.5563 47.4478 63.5563 47.4478Z" fill="#E2877B"/>
<path d="M59.4828 44.8958C59.4228 45.1398 59.5388 45.3718 59.7028 45.3998C59.8668 45.4278 60.0348 45.2438 60.0788 44.9998C60.1228 44.7558 60.0188 44.5238 59.8588 44.4998C59.6988 44.4758 59.5268 44.6438 59.4828 44.8958Z" fill="#263238"/>
<path d="M62.2758 45.3798C62.2158 45.6238 62.3318 45.8558 62.4958 45.8798C62.6598 45.9038 62.8238 45.7278 62.8678 45.4798C62.9118 45.2318 62.8118 45.0038 62.6478 44.9758C62.4838 44.9478 62.3158 45.1438 62.2758 45.3798Z" fill="#263238"/>
<path d="M61.3886 45.3481C61.5572 46.1633 61.8358 46.9519 62.2166 47.6921C62.0222 47.7821 61.8107 47.8287 61.5966 47.8287C61.3824 47.8287 61.1709 47.7821 60.9766 47.6921L61.3886 45.3481Z" fill="#DC5753"/>
<path d="M59.2114 43.8299C59.2354 43.8428 59.2622 43.8496 59.2894 43.8496C59.3167 43.8496 59.3435 43.8428 59.3674 43.8299C59.5201 43.7222 59.6958 43.6517 59.8805 43.6239C60.0652 43.5962 60.2539 43.6119 60.4314 43.6699C60.4493 43.6778 60.4685 43.6822 60.4881 43.6827C60.5076 43.6832 60.527 43.6798 60.5453 43.6727C60.5635 43.6657 60.5801 43.655 60.5942 43.6415C60.6083 43.628 60.6196 43.6118 60.6274 43.5939C60.6353 43.5758 60.6394 43.5563 60.6396 43.5366C60.6399 43.5169 60.6361 43.4973 60.6287 43.479C60.6212 43.4608 60.6102 43.4442 60.5962 43.4302C60.5823 43.4163 60.5657 43.4053 60.5474 43.3979C60.325 43.3188 60.0869 43.2943 59.853 43.3263C59.6192 43.3583 59.3964 43.446 59.2034 43.5819C59.1708 43.6032 59.1476 43.6363 59.1386 43.6743C59.1297 43.7123 59.1357 43.7522 59.1554 43.7859C59.1724 43.8026 59.1912 43.8173 59.2114 43.8299Z" fill="#263238"/>
<path d="M61.2001 49.1058C60.8531 49.2243 60.4828 49.2578 60.1201 49.2035C59.7575 49.1492 59.4132 49.0087 59.1161 48.7938C59.1084 48.7867 59.1022 48.778 59.0979 48.7684C59.0937 48.7587 59.0915 48.7483 59.0915 48.7378C59.0915 48.7273 59.0937 48.7169 59.0979 48.7072C59.1022 48.6976 59.1084 48.6889 59.1161 48.6818C59.1309 48.6683 59.1501 48.6608 59.1701 48.6608C59.1901 48.6608 59.2094 48.6683 59.2241 48.6818C59.5023 48.8769 59.8225 49.0039 60.1587 49.0526C60.495 49.1012 60.8381 49.0701 61.1601 48.9618C61.1798 48.9563 61.2008 48.9581 61.2192 48.9669C61.2376 48.9758 61.2521 48.991 61.2601 49.0098C61.2639 49.019 61.2658 49.0288 61.2656 49.0387C61.2654 49.0486 61.2632 49.0584 61.2591 49.0674C61.2549 49.0764 61.249 49.0845 61.2416 49.0911C61.2342 49.0977 61.2255 49.1027 61.2161 49.1058H61.2001Z" fill="#263238"/>
<path d="M63.4769 44.6085C63.5057 44.6165 63.5362 44.6165 63.5649 44.6085C63.5831 44.6014 63.5996 44.5908 63.6137 44.5774C63.6277 44.5639 63.639 44.5478 63.6468 44.5299C63.6546 44.5121 63.6588 44.4929 63.6592 44.4734C63.6595 44.454 63.6561 44.4346 63.6489 44.4165C63.5657 44.1952 63.4308 43.9969 63.2555 43.8383C63.0802 43.6796 62.8695 43.5652 62.6409 43.5045C62.6023 43.4973 62.5624 43.5054 62.5296 43.527C62.4967 43.5487 62.4736 43.5822 62.4649 43.6205C62.4578 43.6591 62.4658 43.699 62.4875 43.7319C62.5091 43.7647 62.5426 43.7878 62.5809 43.7965C62.7628 43.8475 62.93 43.9408 63.0691 44.0687C63.2081 44.1966 63.3149 44.3555 63.3809 44.5325C63.4019 44.5693 63.4363 44.5965 63.4769 44.6085Z" fill="#263238"/>
<path d="M65.2375 40.5324C65.9735 41.4004 63.5815 42.6244 62.6495 41.9604C61.8495 41.3844 60.9775 40.7204 59.9215 41.3524C58.8655 41.9844 58.7655 41.4324 58.0375 41.4324C57.3095 41.4324 58.3255 42.9924 57.3215 43.6804C56.7455 44.0804 55.9175 44.2764 56.1775 44.9764C56.4375 45.6764 56.0495 46.6524 55.0495 46.4724C55.0495 46.4724 55.9855 46.2084 55.4015 45.2524C54.8175 44.2964 54.3135 44.8524 54.3135 44.8524C54.3135 44.8524 54.5935 39.5844 57.1135 38.6164C59.6335 37.6484 64.0215 39.1004 65.2375 40.5324Z" fill="#263238"/>
<path d="M55.7012 45.2723C55.7012 45.2723 55.0692 43.5243 53.4572 43.5203C52.1572 43.5203 51.9732 45.1203 52.5612 46.2603C53.0172 47.1203 54.4212 48.1243 55.4412 47.0603C56.0452 46.4243 55.7012 45.2723 55.7012 45.2723Z" fill="#E2877B"/>
<path d="M60.2818 76.1885C60.2818 76.1885 71.3538 79.6805 71.9898 79.8285C72.6258 79.9765 75.7298 79.3925 76.3018 79.5205C76.8738 79.6485 77.5698 82.4765 77.5658 83.0925C77.5618 83.7085 72.7218 83.6965 72.3178 83.4925C71.8748 83.1964 71.4609 82.8589 71.0818 82.4845L59.3818 80.1085L60.2818 76.1885Z" fill="#E9B076"/>
<path d="M49.454 56.3003C43.222 56.8723 47.83 74.9763 50.358 77.5843C52.886 80.1923 61.558 81.1283 61.558 81.1283L62.658 76.2603C62.658 76.2603 56.134 74.5203 54.978 73.7683C53.822 73.0163 53.01 65.5083 52.322 61.8563C51.9608 59.7532 50.9592 57.8129 49.454 56.3003Z" fill="#348DAA"/>
<path opacity="0.6" d="M49.454 56.3003C43.222 56.8723 47.83 74.9763 50.358 77.5843C52.886 80.1923 61.558 81.1283 61.558 81.1283L62.658 76.2603C62.658 76.2603 56.134 74.5203 54.978 73.7683C53.822 73.0163 53.01 65.5083 52.322 61.8563C51.9608 59.7532 50.9592 57.8129 49.454 56.3003Z" fill="black"/>
<path opacity="0.3" d="M62.0234 62.3639L66.9954 61.8999L67.2474 63.1919L62.3274 63.8799L62.0234 62.3639Z" fill="white"/>
<path d="M33.248 76.8723H85.684V79.0763C85.684 79.3055 85.593 79.5252 85.431 79.6873C85.2689 79.8493 85.0492 79.9403 84.82 79.9403H34.116C33.8869 79.9403 33.6671 79.8493 33.5051 79.6873C33.3431 79.5252 33.252 79.3055 33.252 79.0763V76.8723H33.248Z" fill="#263238"/>
<path opacity="0.3" d="M33.248 76.8723H85.684V79.0763C85.684 79.3055 85.593 79.5252 85.431 79.6873C85.2689 79.8493 85.0492 79.9403 84.82 79.9403H34.116C33.8869 79.9403 33.6671 79.8493 33.5051 79.6873C33.3431 79.5252 33.252 79.3055 33.252 79.0763V76.8723H33.248Z" fill="white"/>
<path opacity="0.2" d="M85.68 76.8601H33.248V78.3961H85.68V76.8601Z" fill="black"/>
<path d="M87.2003 77.2722H31.7323C31.6185 77.2727 31.5057 77.2508 31.4004 77.2076C31.2951 77.1644 31.1994 77.1008 31.1187 77.0206C31.0381 76.9403 30.9741 76.8448 30.9304 76.7398C30.8867 76.6347 30.8643 76.522 30.8643 76.4082C30.8653 76.1787 30.9572 75.9589 31.1199 75.797C31.2826 75.6351 31.5027 75.5442 31.7323 75.5442H87.2003C87.4294 75.5442 87.6492 75.6352 87.8112 75.7973C87.9732 75.9593 88.0643 76.179 88.0643 76.4082C88.0648 76.5218 88.0428 76.6344 87.9996 76.7395C87.9563 76.8445 87.8927 76.94 87.8124 77.0203C87.732 77.1006 87.6366 77.1643 87.5315 77.2075C87.4265 77.2507 87.3139 77.2727 87.2003 77.2722Z" fill="#263238"/>
<path opacity="0.3" d="M87.2003 77.2722H31.7323C31.6185 77.2727 31.5057 77.2508 31.4004 77.2076C31.2951 77.1644 31.1994 77.1008 31.1187 77.0206C31.0381 76.9403 30.9741 76.8448 30.9304 76.7398C30.8867 76.6347 30.8643 76.522 30.8643 76.4082C30.8653 76.1787 30.9572 75.9589 31.1199 75.797C31.2826 75.6351 31.5027 75.5442 31.7323 75.5442H87.2003C87.4294 75.5442 87.6492 75.6352 87.8112 75.7973C87.9732 75.9593 88.0643 76.179 88.0643 76.4082C88.0648 76.5218 88.0428 76.6344 87.9996 76.7395C87.9563 76.8445 87.8927 76.94 87.8124 77.0203C87.732 77.1006 87.6366 77.1643 87.5315 77.2075C87.4265 77.2507 87.3139 77.2727 87.2003 77.2722Z" fill="white"/>
<path d="M34.5398 139.696H57.2158L57.2158 79.9323H34.5398L34.5398 139.696Z" fill="#263238"/>
<path opacity="0.2" d="M34.5398 139.696H57.2158L57.2158 79.9323H34.5398L34.5398 139.696Z" fill="white"/>
<path d="M103.832 79.9319H57.2158V139.696H103.832V79.9319Z" fill="#263238"/>
<path opacity="0.39" d="M103.832 79.9319H57.2158V139.696H103.832V79.9319Z" fill="white"/>
<path d="M56.2646 76.8723H104.697V79.0763C104.697 79.3055 104.606 79.5252 104.444 79.6873C104.282 79.8493 104.062 79.9403 103.833 79.9403H57.1286C56.8995 79.9403 56.6797 79.8493 56.5177 79.6873C56.3557 79.5252 56.2646 79.3055 56.2646 79.0763V76.8723Z" fill="#263238"/>
<path opacity="0.6" d="M56.2646 76.8723H104.697V79.0763C104.697 79.3055 104.606 79.5252 104.444 79.6873C104.282 79.8493 104.062 79.9403 103.833 79.9403H57.1286C56.8995 79.9403 56.6797 79.8493 56.5177 79.6873C56.3557 79.5252 56.2646 79.3055 56.2646 79.0763V76.8723Z" fill="white"/>
<path opacity="0.2" d="M104.697 76.8601H56.2646V78.3961H104.697V76.8601Z" fill="black"/>
<path d="M106.217 77.2722H54.7449C54.6314 77.2722 54.519 77.2498 54.4142 77.2064C54.3094 77.163 54.2142 77.0994 54.1339 77.0191C54.0537 76.9389 53.9901 76.8437 53.9466 76.7388C53.9032 76.634 53.8809 76.5217 53.8809 76.4082C53.8809 76.179 53.9719 75.9593 54.1339 75.7973C54.296 75.6352 54.5157 75.5442 54.7449 75.5442H106.217C106.33 75.5442 106.443 75.5665 106.548 75.61C106.652 75.6534 106.748 75.717 106.828 75.7973C106.908 75.8775 106.972 75.9727 107.015 76.0776C107.059 76.1824 107.081 76.2947 107.081 76.4082C107.081 76.5217 107.059 76.634 107.015 76.7388C106.972 76.8437 106.908 76.9389 106.828 77.0191C106.748 77.0994 106.652 77.163 106.548 77.2064C106.443 77.2498 106.33 77.2722 106.217 77.2722Z" fill="#263238"/>
<path opacity="0.6" d="M106.217 77.2722H54.7449C54.6314 77.2722 54.519 77.2498 54.4142 77.2064C54.3094 77.163 54.2142 77.0994 54.1339 77.0191C54.0537 76.9389 53.9901 76.8437 53.9466 76.7388C53.9032 76.634 53.8809 76.5217 53.8809 76.4082C53.8809 76.179 53.9719 75.9593 54.1339 75.7973C54.296 75.6352 54.5157 75.5442 54.7449 75.5442H106.217C106.33 75.5442 106.443 75.5665 106.548 75.61C106.652 75.6534 106.748 75.717 106.828 75.7973C106.908 75.8775 106.972 75.9727 107.015 76.0776C107.059 76.1824 107.081 76.2947 107.081 76.4082C107.081 76.5217 107.059 76.634 107.015 76.7388C106.972 76.8437 106.908 76.9389 106.828 77.0191C106.748 77.0994 106.652 77.163 106.548 77.2064C106.443 77.2498 106.33 77.2722 106.217 77.2722Z" fill="white"/>
<g opacity="0.3">
<path d="M95.0953 133.024H65.8633V84.7681H95.0953V133.024ZM68.4433 130.444H92.5153V87.3481H68.4433V130.444Z" fill="white"/>
<path d="M88.0021 92.8398H72.9541V124.952H88.0021V92.8398Z" fill="white"/>
</g>
<path d="M100.537 55.24H83.0966C82.2482 55.24 81.5605 55.9277 81.5605 56.776V69.008C81.5605 69.8563 82.2482 70.544 83.0966 70.544H100.537C101.385 70.544 102.073 69.8563 102.073 69.008V56.776C102.073 55.9277 101.385 55.24 100.537 55.24Z" fill="#348DAA"/>
<path fill-rule="evenodd" clip-rule="evenodd" d="M99.3841 61.3442C99.3841 61.3442 105.096 65.4522 112.148 59.9202C112.148 59.9202 105.748 69.0522 97.2441 64.6722L99.3841 61.3442Z" fill="#348DAA"/>
<path opacity="0.39" d="M100.477 68.9399V56.8359H83.1646V68.9399H100.477Z" fill="white"/>
<path fill-rule="evenodd" clip-rule="evenodd" d="M91.5355 67.896C91.1026 67.5145 90.6074 67.2101 90.0715 66.996C89.3739 66.7543 88.7618 66.3146 88.31 65.7307C87.8583 65.1468 87.5863 64.4439 87.5276 63.708C87.4708 63.1289 87.5775 62.5455 87.8355 62.024C87.9595 61.776 88.1236 61.56 88.2636 61.324C88.3934 61.1041 88.4619 60.8534 88.4619 60.598C88.4619 60.3426 88.3934 60.0919 88.2636 59.872C88.2156 59.796 88.1555 59.72 88.1115 59.64C88.0577 59.5528 88.0292 59.4524 88.0292 59.35C88.0292 59.2475 88.0577 59.1471 88.1115 59.06C88.1446 59.0102 88.1836 58.9645 88.2276 58.924L88.6956 58.468C88.7439 58.4166 88.7991 58.3722 88.8595 58.336C88.9328 58.2937 89.0145 58.2679 89.0987 58.2603C89.183 58.2527 89.2679 58.2635 89.3475 58.292C89.4035 58.292 89.4555 58.344 89.5155 58.364C89.8771 58.4845 90.2652 58.5012 90.6357 58.4121C91.0063 58.323 91.3444 58.1317 91.6115 57.86C91.6373 57.8329 91.6684 57.8113 91.7027 57.7965C91.7371 57.7818 91.7741 57.7742 91.8115 57.7742C91.849 57.7742 91.886 57.7818 91.9204 57.7965C91.9547 57.8113 91.9858 57.8329 92.0115 57.86C92.2761 58.1383 92.6152 58.3346 92.9883 58.4253C93.3614 58.5161 93.7527 58.4976 94.1155 58.372C94.1755 58.348 94.2276 58.32 94.2836 58.3C94.3632 58.2715 94.4481 58.2607 94.5324 58.2683C94.6166 58.2759 94.6982 58.3017 94.7715 58.344C94.832 58.3802 94.8872 58.4246 94.9355 58.476L95.4035 58.932C95.4475 58.9725 95.4865 59.0182 95.5196 59.068C95.5734 59.1551 95.6019 59.2555 95.6019 59.358C95.6019 59.4604 95.5734 59.5608 95.5196 59.648C95.4756 59.728 95.4155 59.804 95.3675 59.88C95.2377 60.0999 95.1692 60.3506 95.1692 60.606C95.1692 60.8614 95.2377 61.1121 95.3675 61.332C95.5035 61.568 95.6715 61.784 95.7915 62.032C96.0496 62.5535 96.1563 63.1369 96.0995 63.716C96.0408 64.4519 95.7688 65.1548 95.3171 65.7387C94.8653 66.3226 94.2532 66.7623 93.5555 67.004C93.0257 67.2175 92.535 67.5176 92.1035 67.892C92.0663 67.9301 92.0218 67.9603 91.9727 67.981C91.9236 68.0017 91.8708 68.0123 91.8175 68.0123C91.7643 68.0123 91.7115 68.0017 91.6624 67.981C91.6133 67.9603 91.5688 67.9301 91.5316 67.892L91.5355 67.896Z" fill="#348DAA"/>
<path opacity="0.3" fill-rule="evenodd" clip-rule="evenodd" d="M91.5355 67.896C91.1026 67.5145 90.6074 67.2101 90.0715 66.996C89.3739 66.7543 88.7618 66.3146 88.31 65.7307C87.8583 65.1468 87.5863 64.4439 87.5276 63.708C87.4708 63.1289 87.5775 62.5455 87.8355 62.024C87.9595 61.776 88.1236 61.56 88.2636 61.324C88.3934 61.1041 88.4619 60.8534 88.4619 60.598C88.4619 60.3426 88.3934 60.0919 88.2636 59.872C88.2156 59.796 88.1555 59.72 88.1115 59.64C88.0577 59.5528 88.0292 59.4524 88.0292 59.35C88.0292 59.2475 88.0577 59.1471 88.1115 59.06C88.1446 59.0102 88.1836 58.9645 88.2276 58.924L88.6956 58.468C88.7439 58.4166 88.7991 58.3722 88.8595 58.336C88.9328 58.2937 89.0145 58.2679 89.0987 58.2603C89.183 58.2527 89.2679 58.2635 89.3475 58.292C89.4035 58.292 89.4555 58.344 89.5155 58.364C89.8771 58.4845 90.2652 58.5012 90.6357 58.4121C91.0063 58.323 91.3444 58.1317 91.6115 57.86C91.6373 57.8329 91.6684 57.8113 91.7027 57.7965C91.7371 57.7818 91.7741 57.7742 91.8115 57.7742C91.849 57.7742 91.886 57.7818 91.9204 57.7965C91.9547 57.8113 91.9858 57.8329 92.0115 57.86C92.2761 58.1383 92.6152 58.3346 92.9883 58.4253C93.3614 58.5161 93.7527 58.4976 94.1155 58.372C94.1755 58.348 94.2276 58.32 94.2836 58.3C94.3632 58.2715 94.4481 58.2607 94.5324 58.2683C94.6166 58.2759 94.6982 58.3017 94.7715 58.344C94.832 58.3802 94.8872 58.4246 94.9355 58.476L95.4035 58.932C95.4475 58.9725 95.4865 59.0182 95.5196 59.068C95.5734 59.1551 95.6019 59.2555 95.6019 59.358C95.6019 59.4604 95.5734 59.5608 95.5196 59.648C95.4756 59.728 95.4155 59.804 95.3675 59.88C95.2377 60.0999 95.1692 60.3506 95.1692 60.606C95.1692 60.8614 95.2377 61.1121 95.3675 61.332C95.5035 61.568 95.6715 61.784 95.7915 62.032C96.0496 62.5535 96.1563 63.1369 96.0995 63.716C96.0408 64.4519 95.7688 65.1548 95.3171 65.7387C94.8653 66.3226 94.2532 66.7623 93.5555 67.004C93.0257 67.2175 92.535 67.5176 92.1035 67.892C92.0663 67.9301 92.0218 67.9603 91.9727 67.981C91.9236 68.0017 91.8708 68.0123 91.8175 68.0123C91.7643 68.0123 91.7115 68.0017 91.6624 67.981C91.6133 67.9603 91.5688 67.9301 91.5316 67.892L91.5355 67.896Z" fill="black"/>
<path opacity="0.3" fill-rule="evenodd" clip-rule="evenodd" d="M91.8151 66.4719C92.0037 66.3496 92.1987 66.2375 92.3991 66.1359C92.7231 65.9679 93.0671 65.8399 93.3911 65.6719C93.7795 65.4803 94.1157 65.1976 94.3711 64.8479C94.5163 64.6456 94.6284 64.4214 94.7031 64.1839C94.8252 63.8168 94.8568 63.4257 94.7952 63.0439C94.7155 62.7352 94.5799 62.4437 94.3952 62.1839C94.1502 61.8221 93.9826 61.4135 93.9031 60.9839C93.8376 60.5394 93.8844 60.0856 94.0392 59.6639C93.9069 59.688 93.7733 59.704 93.6392 59.7119C92.9983 59.7423 92.3619 59.5911 91.8031 59.2759C91.6141 59.3804 91.416 59.4674 91.2111 59.5359C90.6924 59.7092 90.1396 59.7558 89.5991 59.6719C89.7793 60.1639 89.8113 60.6979 89.6911 61.2079C89.596 61.5434 89.4489 61.8619 89.2551 62.1519C89.0319 62.4696 88.8866 62.8355 88.8311 63.2199C88.7881 63.6978 88.8868 64.1778 89.1151 64.5999C89.2847 64.9115 89.5177 65.184 89.7991 65.3999C90.0235 65.5574 90.2634 65.6914 90.5151 65.7999C90.7551 65.9079 90.9991 66.0239 91.2511 66.1519C91.5031 66.2799 91.6512 66.3639 91.8272 66.4839L91.8151 66.4719Z" fill="black"/>
<path opacity="0.5" fill-rule="evenodd" clip-rule="evenodd" d="M92.6192 66.5562C92.5232 66.6042 92.4312 66.6562 92.3392 66.7122C92.1807 66.8066 91.9996 66.8564 91.8152 66.8564C91.6307 66.8564 91.4497 66.8066 91.2912 66.7122C91.1992 66.6602 91.1112 66.6082 91.0152 66.5602C90.7912 66.4442 90.5432 66.3282 90.2992 66.2162C90.0172 66.0977 89.7489 65.9488 89.4992 65.7722C89.1681 65.5151 88.8954 65.1906 88.6992 64.8202C88.6584 64.7479 88.6223 64.6731 88.5912 64.5962C88.4004 64.1528 88.3221 63.6691 88.3632 63.1882C88.4267 62.7362 88.5937 62.305 88.8512 61.9282C89.0233 61.6828 89.1581 61.4132 89.2512 61.1282C89.3421 60.7449 89.3283 60.3443 89.2112 59.9682C89.1661 59.8293 89.1072 59.6953 89.0352 59.5682L88.9512 59.4162L89.2352 59.1402L89.3712 59.1842C89.9378 59.3536 90.5432 59.3425 91.1032 59.1522C91.2164 59.1135 91.3273 59.068 91.4352 59.0162C91.569 58.9531 91.7152 58.9204 91.8632 58.9204C92.0111 58.9204 92.1573 58.9531 92.2912 59.0162C92.7176 59.2191 93.1874 59.3139 93.6592 59.2922C93.9319 59.2729 94.2008 59.2177 94.4592 59.1282L94.7392 59.4042C94.6356 59.5825 94.5485 59.77 94.4792 59.9642C94.3801 60.285 94.3541 60.624 94.4032 60.9562C94.4723 61.327 94.6195 61.6788 94.8352 61.9882C95.0467 62.2959 95.1987 62.6405 95.2832 63.0042C95.3588 63.458 95.3231 63.9233 95.1792 64.3602C95.0871 64.6456 94.9522 64.9153 94.7792 65.1602C94.4771 65.5705 94.0824 65.9035 93.6272 66.1322C93.3032 66.2962 92.9592 66.4242 92.6352 66.5922L92.6192 66.5562Z" fill="black"/>
<path fill-rule="evenodd" clip-rule="evenodd" d="M91.8159 61.4841C92.1577 61.4841 92.4917 61.5855 92.7759 61.7754C93.0601 61.9652 93.2816 62.2351 93.4124 62.5509C93.5431 62.8666 93.5774 63.2141 93.5107 63.5492C93.444 63.8844 93.2794 64.1923 93.0378 64.434C92.7961 64.6757 92.4882 64.8403 92.153 64.9069C91.8178 64.9736 91.4704 64.9394 91.1546 64.8086C90.8389 64.6778 90.569 64.4563 90.3791 64.1722C90.1892 63.888 90.0879 63.5539 90.0879 63.2121C90.0879 62.7538 90.2699 62.3143 90.594 61.9903C90.9181 61.6662 91.3576 61.4841 91.8159 61.4841Z" fill="#348DAA"/>
<path opacity="0.5" fill-rule="evenodd" clip-rule="evenodd" d="M91.8159 61.4841C92.1577 61.4841 92.4917 61.5855 92.7759 61.7754C93.0601 61.9652 93.2816 62.2351 93.4124 62.5509C93.5431 62.8666 93.5774 63.2141 93.5107 63.5492C93.444 63.8844 93.2794 64.1923 93.0378 64.434C92.7961 64.6757 92.4882 64.8403 92.153 64.9069C91.8178 64.9736 91.4704 64.9394 91.1546 64.8086C90.8389 64.6778 90.569 64.4563 90.3791 64.1722C90.1892 63.888 90.0879 63.5539 90.0879 63.2121C90.0879 62.7538 90.2699 62.3143 90.594 61.9903C90.9181 61.6662 91.3576 61.4841 91.8159 61.4841Z" fill="black"/>
<path d="M181.751 47.9519H161.859C160.892 47.9519 160.107 48.7363 160.107 49.7039V63.6559C160.107 64.6235 160.892 65.4079 161.859 65.4079H181.751C182.719 65.4079 183.503 64.6235 183.503 63.6559V49.7039C183.503 48.7363 182.719 47.9519 181.751 47.9519Z" fill="#348DAA"/>
<path fill-rule="evenodd" clip-rule="evenodd" d="M163.284 54.3081C163.284 54.3081 159.36 60.1481 150.82 57.4161C150.82 57.4161 160 63.7481 166.448 56.6841L163.284 54.3081Z" fill="#348DAA"/>
<path opacity="0.39" d="M181.906 63.6521V49.7001C181.906 49.6161 181.838 49.5481 181.754 49.5481H161.858C161.774 49.5481 161.706 49.6161 161.706 49.7001V63.6521C161.706 63.736 161.774 63.8041 161.858 63.8041H181.754C181.838 63.8041 181.906 63.736 181.906 63.6521Z" fill="white"/>
<path d="M165.297 61.8642C165.062 61.8076 164.847 61.6901 164.673 61.5236C164.499 61.3571 164.372 61.1476 164.305 60.9162V60.8562L170.369 54.7922L171.377 55.8002L165.297 61.8642Z" fill="#348DAA"/>
<path opacity="0.5" d="M165.297 61.8642C165.062 61.8076 164.847 61.6901 164.673 61.5236C164.499 61.3571 164.372 61.1476 164.305 60.9162V60.8562L170.369 54.7922L171.377 55.8002L165.297 61.8642Z" fill="black"/>
<path d="M172.083 55.3407L170.811 54.0679L169.586 55.2926L170.859 56.5654L172.083 55.3407Z" fill="#348DAA"/>
<path opacity="0.7" d="M172.083 55.3407L170.811 54.0679L169.586 55.2926L170.859 56.5654L172.083 55.3407Z" fill="black"/>
<path d="M174.873 55.1087L171.043 51.2791L169.021 53.3014L172.85 57.1311L174.873 55.1087Z" fill="#348DAA"/>
<path opacity="0.3" d="M174.873 55.1087L171.043 51.2791L169.021 53.3014L172.85 57.1311L174.873 55.1087Z" fill="black"/>
<path d="M171.566 51.3239L170.966 50.7242C170.81 50.568 170.557 50.568 170.401 50.7242L168.466 52.6589C168.31 52.8151 168.31 53.0684 168.466 53.2246L169.066 53.8242C169.222 53.9804 169.475 53.9804 169.631 53.8242L171.566 51.8896C171.722 51.7333 171.722 51.4801 171.566 51.3239Z" fill="#348DAA"/>
<path d="M175.423 55.1857L174.824 54.5861C174.668 54.4299 174.414 54.4299 174.258 54.5861L172.324 56.5207C172.167 56.6769 172.167 56.9302 172.324 57.0864L172.923 57.686C173.079 57.8422 173.333 57.8422 173.489 57.686L175.423 55.7514C175.58 55.5952 175.58 55.3419 175.423 55.1857Z" fill="#348DAA"/>
<g opacity="0.5">
<path d="M171.567 51.3241L170.967 50.7245C170.811 50.5683 170.558 50.5683 170.402 50.7245L168.467 52.6591C168.311 52.8153 168.311 53.0686 168.467 53.2248L169.067 53.8244C169.223 53.9807 169.476 53.9807 169.632 53.8244L171.567 51.8898C171.723 51.7336 171.723 51.4803 171.567 51.3241Z" fill="black"/>
<path d="M175.424 55.1857L174.825 54.5861C174.669 54.4299 174.415 54.4299 174.259 54.5861L172.325 56.5207C172.168 56.6769 172.168 56.9302 172.325 57.0864L172.924 57.686C173.08 57.8422 173.334 57.8422 173.49 57.686L175.424 55.7514C175.581 55.5952 175.581 55.3419 175.424 55.1857Z" fill="black"/>
</g>
<path d="M172.07 58.9204H177.198C177.263 58.9204 177.328 58.9332 177.388 58.9582C177.448 58.9831 177.503 59.0196 177.549 59.0657C177.595 59.1117 177.632 59.1664 177.656 59.2266C177.681 59.2868 177.694 59.3513 177.694 59.4164V60.8724H171.574V59.4084C171.576 59.2783 171.629 59.1541 171.722 59.0628C171.815 58.9716 171.94 58.9204 172.07 58.9204Z" fill="#348DAA"/>
<path opacity="0.3" d="M172.07 58.9204H177.198C177.263 58.9204 177.328 58.9332 177.388 58.9582C177.448 58.9831 177.503 59.0196 177.549 59.0657C177.595 59.1117 177.632 59.1664 177.656 59.2266C177.681 59.2868 177.694 59.3513 177.694 59.4164V60.8724H171.574V59.4084C171.576 59.2783 171.629 59.1541 171.722 59.0628C171.815 58.9716 171.94 58.9204 172.07 58.9204Z" fill="black"/>
<path d="M177.815 60.7915H171.447C171.308 60.7915 171.174 60.8466 171.075 60.9447C170.976 61.0429 170.92 61.1762 170.919 61.3155C170.919 61.4555 170.975 61.5898 171.074 61.6889C171.173 61.7879 171.307 61.8435 171.447 61.8435H177.815C177.955 61.8435 178.089 61.7879 178.188 61.6889C178.287 61.5898 178.343 61.4555 178.343 61.3155C178.342 61.1762 178.286 61.0429 178.187 60.9447C178.088 60.8466 177.954 60.7915 177.815 60.7915Z" fill="#348DAA"/>
<path opacity="0.5" d="M177.815 60.7915H171.447C171.308 60.7915 171.174 60.8466 171.075 60.9447C170.976 61.0429 170.92 61.1762 170.919 61.3155C170.919 61.4555 170.975 61.5898 171.074 61.6889C171.173 61.7879 171.307 61.8435 171.447 61.8435H177.815C177.955 61.8435 178.089 61.7879 178.188 61.6889C178.287 61.5898 178.343 61.4555 178.343 61.3155C178.342 61.1762 178.286 61.0429 178.187 60.9447C178.088 60.8466 177.954 60.7915 177.815 60.7915Z" fill="black"/>
<path d="M94.7188 9.13232H67.8348C66.527 9.13232 65.4668 10.1925 65.4668 11.5003V30.3523C65.4668 31.6601 66.527 32.7203 67.8348 32.7203H94.7188C96.0266 32.7203 97.0868 31.6601 97.0868 30.3523V11.5003C97.0868 10.1925 96.0266 9.13232 94.7188 9.13232Z" fill="#348DAA"/>
<path fill-rule="evenodd" clip-rule="evenodd" d="M92.3144 28.2801C92.3144 28.2801 91.6584 35.2721 99.9984 38.5721C99.9984 38.5721 88.8824 37.6681 88.3584 28.1201L92.3144 28.2801Z" fill="#348DAA"/>
<path opacity="0.39" d="M95.4863 30.3519V11.4999C95.4863 11.0758 95.1425 10.7319 94.7183 10.7319L67.8343 10.7319C67.4102 10.7319 67.0663 11.0758 67.0663 11.4999V30.3519C67.0663 30.7761 67.4102 31.1199 67.8343 31.1199H94.7183C95.1425 31.1199 95.4863 30.7761 95.4863 30.3519Z" fill="white"/>
<path d="M77.8789 21.3838C77.7024 21.8427 77.3911 22.2373 76.9858 22.5157C76.5806 22.794 76.1005 22.943 75.6089 22.943C75.1172 22.943 74.6371 22.794 74.2319 22.5157C73.8267 22.2373 73.5153 21.8427 73.3389 21.3838H77.8789Z" fill="#348DAA"/>
<path opacity="0.5" d="M77.8789 21.3838C77.7024 21.8427 77.3911 22.2373 76.9858 22.5157C76.5806 22.794 76.1005 22.943 75.6089 22.943C75.1172 22.943 74.6371 22.794 74.2319 22.5157C73.8267 22.2373 73.5153 21.8427 73.3389 21.3838H77.8789Z" fill="black"/>
<path d="M77.8781 21.0642C77.8633 21.0638 77.8488 21.0596 77.8362 21.0518C77.8235 21.0441 77.8132 21.0332 77.8061 21.0202L75.5981 16.8242L73.3981 21.0202C73.3879 21.0396 73.3704 21.0543 73.3495 21.061C73.3285 21.0678 73.3058 21.066 73.2861 21.0562C73.2667 21.0459 73.252 21.0284 73.2452 21.0075C73.2385 20.9866 73.2403 20.9638 73.2501 20.9442L75.5221 16.6122C75.5301 16.5998 75.541 16.5896 75.554 16.5825C75.5669 16.5755 75.5814 16.5718 75.5961 16.5718C75.6108 16.5718 75.6253 16.5755 75.6383 16.5825C75.6512 16.5896 75.6621 16.5998 75.6701 16.6122L77.9421 20.9442C77.952 20.9638 77.9537 20.9866 77.947 21.0075C77.9403 21.0284 77.9256 21.0459 77.9061 21.0562L77.8781 21.0642Z" fill="#348DAA"/>
<g opacity="0.7">
<path d="M77.8781 21.0642C77.8633 21.0638 77.8488 21.0596 77.8362 21.0518C77.8235 21.0441 77.8132 21.0332 77.8061 21.0202L75.5981 16.8242L73.3981 21.0202C73.3879 21.0396 73.3704 21.0543 73.3495 21.061C73.3285 21.0678 73.3058 21.066 73.2861 21.0562C73.2667 21.0459 73.252 21.0284 73.2452 21.0075C73.2385 20.9866 73.2403 20.9638 73.2501 20.9442L75.5221 16.6122C75.5301 16.5998 75.541 16.5896 75.554 16.5825C75.5669 16.5755 75.5814 16.5718 75.5961 16.5718C75.6108 16.5718 75.6253 16.5755 75.6383 16.5825C75.6512 16.5896 75.6621 16.5998 75.6701 16.6122L77.9421 20.9442C77.952 20.9638 77.9537 20.9866 77.947 21.0075C77.9403 21.0284 77.9256 21.0459 77.9061 21.0562L77.8781 21.0642Z" fill="black"/>
</g>
<path d="M75.5987 21.2717C75.5878 21.2723 75.577 21.2706 75.5668 21.2668C75.5566 21.263 75.5473 21.2572 75.5395 21.2498C75.5316 21.2423 75.5254 21.2333 75.5211 21.2233C75.5168 21.2133 75.5146 21.2026 75.5146 21.1917V16.6477C75.5146 16.6369 75.5168 16.6261 75.5211 16.6162C75.5254 16.6062 75.5316 16.5972 75.5395 16.5897C75.5473 16.5822 75.5566 16.5764 75.5668 16.5726C75.577 16.5689 75.5878 16.5672 75.5987 16.5677C75.6199 16.5677 75.6402 16.5762 75.6552 16.5912C75.6702 16.6062 75.6786 16.6265 75.6786 16.6477V21.1837C75.6798 21.1949 75.6785 21.2062 75.675 21.2168C75.6715 21.2275 75.6658 21.2372 75.6582 21.2455C75.6507 21.2538 75.6415 21.2605 75.6312 21.265C75.621 21.2695 75.6099 21.2718 75.5987 21.2717Z" fill="#348DAA"/>
<g opacity="0.7">
<path d="M75.5957 21.2717C75.5849 21.2723 75.5741 21.2706 75.5639 21.2668C75.5537 21.263 75.5444 21.2572 75.5365 21.2498C75.5287 21.2423 75.5224 21.2333 75.5182 21.2233C75.5139 21.2133 75.5117 21.2026 75.5117 21.1917V16.6477C75.5117 16.6369 75.5139 16.6261 75.5182 16.6162C75.5224 16.6062 75.5287 16.5972 75.5365 16.5897C75.5444 16.5822 75.5537 16.5764 75.5639 16.5726C75.5741 16.5689 75.5849 16.5672 75.5957 16.5677C75.6169 16.5677 75.6373 16.5762 75.6523 16.5912C75.6673 16.6062 75.6757 16.6265 75.6757 16.6477V21.1837C75.6768 21.1949 75.6756 21.2062 75.6721 21.2168C75.6686 21.2275 75.6629 21.2372 75.6553 21.2455C75.6478 21.2538 75.6386 21.2605 75.6283 21.265C75.618 21.2695 75.6069 21.2718 75.5957 21.2717Z" fill="black"/>
</g>
<path d="M78.2067 20.98H73.0146V21.384H78.2067V20.98Z" fill="#348DAA"/>
<path opacity="0.3" d="M78.2067 20.98H73.0146V21.384H78.2067V20.98Z" fill="black"/>
<path d="M89.1202 21.3838C88.9428 21.8423 88.6309 22.2364 88.2254 22.5144C87.8199 22.7923 87.3398 22.9411 86.8482 22.9411C86.3565 22.9411 85.8764 22.7923 85.4709 22.5144C85.0654 22.2364 84.7535 21.8423 84.5762 21.3838H89.1202Z" fill="#348DAA"/>
<path opacity="0.5" d="M89.1202 21.3838C88.9428 21.8423 88.6309 22.2364 88.2254 22.5144C87.8199 22.7923 87.3398 22.9411 86.8482 22.9411C86.3565 22.9411 85.8764 22.7923 85.4709 22.5144C85.0654 22.2364 84.7535 21.8423 84.5762 21.3838H89.1202Z" fill="black"/>
<path d="M89.1176 21.0643C89.1026 21.0649 89.0877 21.061 89.0749 21.0532C89.0621 21.0453 89.0519 21.0339 89.0456 21.0203L86.8456 16.8243L84.6456 21.0203C84.6406 21.0297 84.6338 21.0381 84.6256 21.0449C84.6173 21.0518 84.6079 21.0569 84.5976 21.06C84.5874 21.0632 84.5767 21.0643 84.566 21.0633C84.5554 21.0623 84.5451 21.0593 84.5356 21.0543C84.5261 21.0493 84.5178 21.0425 84.5109 21.0342C84.5041 21.026 84.499 21.0165 84.4958 21.0063C84.4927 20.9961 84.4915 20.9854 84.4925 20.9747C84.4935 20.9641 84.4966 20.9537 84.5016 20.9443L86.7736 16.6123C86.7811 16.5998 86.7916 16.5896 86.8042 16.5824C86.8169 16.5753 86.8311 16.5715 86.8456 16.5715C86.8601 16.5715 86.8743 16.5753 86.887 16.5824C86.8996 16.5896 86.9101 16.5998 86.9176 16.6123L89.1976 20.9443C89.2075 20.9639 89.2092 20.9867 89.2025 21.0076C89.1957 21.0286 89.1811 21.046 89.1616 21.0563L89.1176 21.0643Z" fill="#348DAA"/>
<g opacity="0.7">
<path d="M89.1186 21.0633C89.1036 21.0639 89.0887 21.06 89.0759 21.0522C89.0631 21.0444 89.0529 21.0329 89.0466 21.0193L86.8466 16.8233L84.6466 21.0193C84.6416 21.0287 84.6348 21.0371 84.6266 21.0439C84.6183 21.0508 84.6088 21.0559 84.5986 21.0591C84.5884 21.0622 84.5777 21.0633 84.567 21.0624C84.5564 21.0614 84.546 21.0583 84.5366 21.0533C84.5271 21.0483 84.5187 21.0415 84.5119 21.0333C84.5051 21.025 84.5 21.0155 84.4968 21.0053C84.4936 20.9951 84.4925 20.9844 84.4935 20.9737C84.4945 20.9631 84.4976 20.9527 84.5026 20.9433L86.7746 16.6113C86.782 16.5989 86.7926 16.5886 86.8052 16.5814C86.8178 16.5743 86.8321 16.5706 86.8466 16.5706C86.8611 16.5706 86.8753 16.5743 86.8879 16.5814C86.9006 16.5886 86.9111 16.5989 86.9186 16.6113L89.1986 20.9433C89.2084 20.963 89.2102 20.9857 89.2035 21.0066C89.1967 21.0276 89.182 21.0451 89.1626 21.0553L89.1186 21.0633Z" fill="black"/>
</g>
<path d="M86.8477 21.2719C86.8261 21.2719 86.8053 21.2636 86.7896 21.2487C86.774 21.2338 86.7647 21.2135 86.7637 21.1919V16.6479C86.7647 16.6263 86.774 16.6059 86.7896 16.591C86.8053 16.5761 86.8261 16.5678 86.8477 16.5679C86.8689 16.5679 86.8892 16.5763 86.9042 16.5913C86.9192 16.6063 86.9277 16.6267 86.9277 16.6479V21.1839C86.9288 21.195 86.9276 21.2063 86.924 21.2169C86.9205 21.2276 86.9148 21.2374 86.9073 21.2457C86.8997 21.254 86.8905 21.2606 86.8803 21.2651C86.87 21.2696 86.8589 21.2719 86.8477 21.2719Z" fill="#348DAA"/>
<g opacity="0.7">
<path d="M86.8457 21.2726C86.8241 21.2726 86.8033 21.2643 86.7877 21.2494C86.772 21.2345 86.7627 21.2142 86.7617 21.1926V16.6486C86.7627 16.627 86.772 16.6067 86.7877 16.5918C86.8033 16.5769 86.8241 16.5686 86.8457 16.5686C86.8669 16.5686 86.8873 16.577 86.9023 16.592C86.9173 16.607 86.9257 16.6274 86.9257 16.6486V21.1846C86.9268 21.1958 86.9256 21.207 86.9221 21.2177C86.9186 21.2283 86.9129 21.2381 86.9053 21.2464C86.8978 21.2547 86.8886 21.2613 86.8783 21.2658C86.868 21.2704 86.8569 21.2727 86.8457 21.2726Z" fill="black"/>
</g>
<path d="M89.442 20.98H84.25V21.384H89.442V20.98Z" fill="#348DAA"/>
<path opacity="0.3" d="M89.442 20.98H84.25V21.384H89.442V20.98Z" fill="black"/>
<path d="M81.1984 15.272V16.108C80.3504 16.108 79.3904 16.588 78.6264 17.012C78.1275 17.2839 77.5615 17.4088 76.9944 17.372C76.3146 17.2663 75.6684 17.0048 75.1064 16.608V16.14C75.6497 16.5275 76.2921 16.7523 76.9584 16.788C77.564 16.7564 78.1457 16.5416 78.6264 16.172C79.3959 15.6633 80.2797 15.354 81.1984 15.272Z" fill="#348DAA"/>
<path opacity="0.3" d="M81.1984 15.272V16.108C80.3504 16.108 79.3904 16.588 78.6264 17.012C78.1275 17.2839 77.5615 17.4088 76.9944 17.372C76.3146 17.2663 75.6684 17.0048 75.1064 16.608V16.14C75.6497 16.5275 76.2921 16.7523 76.9584 16.788C77.564 16.7564 78.1457 16.5416 78.6264 16.172C79.3959 15.6633 80.2797 15.354 81.1984 15.272Z" fill="black"/>
<path d="M75.5977 16.324C75.5977 16.4189 75.5695 16.5117 75.5168 16.5907C75.4641 16.6696 75.3891 16.7311 75.3014 16.7675C75.2137 16.8038 75.1172 16.8133 75.024 16.7948C74.9309 16.7763 74.8454 16.7306 74.7783 16.6634C74.7112 16.5963 74.6654 16.5108 74.6469 16.4177C74.6284 16.3245 74.6379 16.228 74.6742 16.1403C74.7106 16.0526 74.7721 15.9776 74.851 15.9249C74.93 15.8722 75.0228 15.844 75.1177 15.844C75.1809 15.8435 75.2435 15.8555 75.302 15.8795C75.3605 15.9034 75.4136 15.9387 75.4583 15.9834C75.503 16.0281 75.5383 16.0812 75.5622 16.1397C75.5862 16.1982 75.5982 16.2608 75.5977 16.324Z" fill="#348DAA"/>
<path opacity="0.5" d="M75.5977 16.324C75.5977 16.4189 75.5695 16.5117 75.5168 16.5907C75.4641 16.6696 75.3891 16.7311 75.3014 16.7675C75.2137 16.8038 75.1172 16.8133 75.024 16.7948C74.9309 16.7763 74.8454 16.7306 74.7783 16.6634C74.7112 16.5963 74.6654 16.5108 74.6469 16.4177C74.6284 16.3245 74.6379 16.228 74.6742 16.1403C74.7106 16.0526 74.7721 15.9776 74.851 15.9249C74.93 15.8722 75.0228 15.844 75.1177 15.844C75.1809 15.8435 75.2435 15.8555 75.302 15.8795C75.3605 15.9034 75.4136 15.9387 75.4583 15.9834C75.503 16.0281 75.5383 16.0812 75.5622 16.1397C75.5862 16.1982 75.5982 16.2608 75.5977 16.324Z" fill="black"/>
<path d="M81.1992 15.272V16.108C82.0472 16.108 83.0072 16.588 83.7752 17.012C84.2741 17.2843 84.8401 17.4092 85.4072 17.372C86.0867 17.2649 86.7325 17.0036 87.2952 16.608V16.14C86.7502 16.5271 86.1067 16.7517 85.4392 16.788C84.8349 16.7564 84.2545 16.5415 83.7752 16.172C83.0039 15.6642 82.119 15.355 81.1992 15.272Z" fill="#348DAA"/>
<path opacity="0.3" d="M81.1992 15.272V16.108C82.0472 16.108 83.0072 16.588 83.7752 17.012C84.2741 17.2843 84.8401 17.4092 85.4072 17.372C86.0867 17.2649 86.7325 17.0036 87.2952 16.608V16.14C86.7502 16.5271 86.1067 16.7517 85.4392 16.788C84.8349 16.7564 84.2545 16.5415 83.7752 16.172C83.0039 15.6642 82.119 15.355 81.1992 15.272Z" fill="black"/>
<path d="M86.8457 16.324C86.8465 16.418 86.8751 16.5096 86.9279 16.5873C86.9807 16.6651 87.0553 16.7255 87.1423 16.7609C87.2294 16.7963 87.3249 16.8052 87.417 16.7864C87.5091 16.7675 87.5935 16.7219 87.6597 16.6552C87.7259 16.5884 87.7708 16.5036 87.7888 16.4114C87.8069 16.3192 87.7972 16.2237 87.7611 16.1369C87.725 16.0502 87.6639 15.9761 87.5858 15.9239C87.5076 15.8718 87.4157 15.844 87.3217 15.844C87.2589 15.844 87.1966 15.8564 87.1386 15.8806C87.0806 15.9048 87.028 15.9402 86.9837 15.9848C86.9395 16.0294 86.9045 16.0824 86.8808 16.1406C86.8571 16.1988 86.8452 16.2611 86.8457 16.324Z" fill="#348DAA"/>
<path opacity="0.5" d="M86.8457 16.324C86.8465 16.418 86.8751 16.5096 86.9279 16.5873C86.9807 16.6651 87.0553 16.7255 87.1423 16.7609C87.2294 16.7963 87.3249 16.8052 87.417 16.7864C87.5091 16.7675 87.5935 16.7219 87.6597 16.6552C87.7259 16.5884 87.7708 16.5036 87.7888 16.4114C87.8069 16.3192 87.7972 16.2237 87.7611 16.1369C87.725 16.0502 87.6639 15.9761 87.5858 15.9239C87.5076 15.8718 87.4157 15.844 87.3217 15.844C87.2589 15.844 87.1966 15.8564 87.1386 15.8806C87.0806 15.9048 87.028 15.9402 86.9837 15.9848C86.9395 16.0294 86.9045 16.0824 86.8808 16.1406C86.8571 16.1988 86.8452 16.2611 86.8457 16.324Z" fill="black"/>
<path d="M81.8097 13.8159H80.5977V26.2159H81.8097V13.8159Z" fill="#348DAA"/>
<path opacity="0.7" d="M81.8097 13.8159H80.5977V26.2159H81.8097V13.8159Z" fill="black"/>
<path d="M82.2308 15.84C82.2308 16.0433 82.1705 16.2421 82.0576 16.4111C81.9446 16.5802 81.784 16.712 81.5962 16.7898C81.4084 16.8676 81.2017 16.8879 81.0023 16.8483C80.8028 16.8086 80.6197 16.7107 80.4759 16.5669C80.3321 16.4232 80.2342 16.24 80.1946 16.0406C80.1549 15.8412 80.1753 15.6345 80.2531 15.4466C80.3309 15.2588 80.4626 15.0982 80.6317 14.9853C80.8007 14.8723 80.9995 14.812 81.2028 14.812C81.3379 14.8115 81.4719 14.8377 81.5968 14.8892C81.7218 14.9407 81.8353 15.0164 81.9309 15.1119C82.0265 15.2075 82.1022 15.321 82.1536 15.446C82.2051 15.571 82.2313 15.7049 82.2308 15.84Z" fill="#348DAA"/>
<path opacity="0.5" d="M82.2308 15.84C82.2308 16.0433 82.1705 16.2421 82.0576 16.4111C81.9446 16.5802 81.784 16.712 81.5962 16.7898C81.4084 16.8676 81.2017 16.8879 81.0023 16.8483C80.8028 16.8086 80.6197 16.7107 80.4759 16.5669C80.3321 16.4232 80.2342 16.24 80.1946 16.0406C80.1549 15.8412 80.1753 15.6345 80.2531 15.4466C80.3309 15.2588 80.4626 15.0982 80.6317 14.9853C80.8007 14.8723 80.9995 14.812 81.2028 14.812C81.3379 14.8115 81.4719 14.8377 81.5968 14.8892C81.7218 14.9407 81.8353 15.0164 81.9309 15.1119C82.0265 15.2075 82.1022 15.321 82.1536 15.446C82.2051 15.571 82.2313 15.7049 82.2308 15.84Z" fill="black"/>
<path d="M81.9984 13.092C81.9984 13.2502 81.9515 13.4049 81.8636 13.5364C81.7757 13.668 81.6508 13.7705 81.5046 13.8311C81.3584 13.8916 81.1975 13.9075 81.0424 13.8766C80.8872 13.8458 80.7446 13.7696 80.6328 13.6577C80.5209 13.5458 80.4447 13.4032 80.4138 13.2481C80.3829 13.0929 80.3988 12.932 80.4593 12.7858C80.5199 12.6397 80.6224 12.5147 80.754 12.4268C80.8855 12.3389 81.0402 12.292 81.1984 12.292C81.4106 12.292 81.6141 12.3763 81.7641 12.5263C81.9142 12.6763 81.9984 12.8798 81.9984 13.092Z" fill="#348DAA"/>
<path opacity="0.5" d="M81.9984 13.092C81.9984 13.2502 81.9515 13.4049 81.8636 13.5364C81.7757 13.668 81.6508 13.7705 81.5046 13.8311C81.3584 13.8916 81.1975 13.9075 81.0424 13.8766C80.8872 13.8458 80.7446 13.7696 80.6328 13.6577C80.5209 13.5458 80.4447 13.4032 80.4138 13.2481C80.3829 13.0929 80.3988 12.932 80.4593 12.7858C80.5199 12.6397 80.6224 12.5147 80.754 12.4268C80.8855 12.3389 81.0402 12.292 81.1984 12.292C81.4106 12.292 81.6141 12.3763 81.7641 12.5263C81.9142 12.6763 81.9984 12.8798 81.9984 13.092Z" fill="black"/>
<path d="M84.5269 28.072H77.8789V26.62C77.8789 26.5139 77.921 26.4121 77.9961 26.3371C78.0711 26.2621 78.1728 26.22 78.2789 26.22H84.1269C84.233 26.22 84.3347 26.2621 84.4097 26.3371C84.4848 26.4121 84.5269 26.5139 84.5269 26.62V28.072Z" fill="#348DAA"/>
<path opacity="0.3" d="M84.5269 28.072H77.8789V26.62C77.8789 26.5139 77.921 26.4121 77.9961 26.3371C78.0711 26.2621 78.1728 26.22 78.2789 26.22H84.1269C84.233 26.22 84.3347 26.2621 84.4097 26.3371C84.4848 26.4121 84.5269 26.5139 84.5269 26.62V28.072Z" fill="black"/>
<path d="M86.5468 29.4441H75.8628C75.6803 29.4441 75.5053 29.3716 75.3763 29.2426C75.2473 29.1136 75.1748 28.9386 75.1748 28.7561C75.1748 28.5736 75.2473 28.3986 75.3763 28.2696C75.5053 28.1406 75.6803 28.0681 75.8628 28.0681H86.5468C86.7293 28.0681 86.9043 28.1406 87.0333 28.2696C87.1623 28.3986 87.2348 28.5736 87.2348 28.7561C87.2348 28.9386 87.1623 29.1136 87.0333 29.2426C86.9043 29.3716 86.7293 29.4441 86.5468 29.4441Z" fill="#348DAA"/>
<path opacity="0.5" d="M86.5468 29.4441H75.8628C75.6803 29.4441 75.5053 29.3716 75.3763 29.2426C75.2473 29.1136 75.1748 28.9386 75.1748 28.7561C75.1748 28.5736 75.2473 28.3986 75.3763 28.2696C75.5053 28.1406 75.6803 28.0681 75.8628 28.0681H86.5468C86.7293 28.0681 86.9043 28.1406 87.0333 28.2696C87.1623 28.3986 87.2348 28.5736 87.2348 28.7561C87.2348 28.9386 87.1623 29.1136 87.0333 29.2426C86.9043 29.3716 86.7293 29.4441 86.5468 29.4441Z" fill="black"/>
<path d="M84.5269 26.6919H77.8789V27.1439H84.5269V26.6919Z" fill="#348DAA"/>
<path opacity="0.5" d="M84.5269 26.6919H77.8789V27.1439H84.5269V26.6919Z" fill="black"/>
<path d="M82.115 13.8762C82.115 13.9646 82.0802 14.0495 82.018 14.1124C81.9559 14.1753 81.8714 14.2111 81.783 14.2122H80.627C80.5382 14.2112 80.4534 14.1754 80.3906 14.1126C80.3278 14.0498 80.2921 13.965 80.291 13.8762C80.2921 13.7878 80.3279 13.7033 80.3908 13.6412C80.4537 13.579 80.5386 13.5442 80.627 13.5442H81.783C81.8711 13.5442 81.9555 13.5792 82.0178 13.6414C82.08 13.7037 82.115 13.7881 82.115 13.8762Z" fill="#348DAA"/>
<path opacity="0.3" d="M82.115 13.8762C82.115 13.9646 82.0802 14.0495 82.018 14.1124C81.9559 14.1753 81.8714 14.2111 81.783 14.2122H80.627C80.5382 14.2112 80.4534 14.1754 80.3906 14.1126C80.3278 14.0498 80.2921 13.965 80.291 13.8762C80.2921 13.7878 80.3279 13.7033 80.3908 13.6412C80.4537 13.579 80.5386 13.5442 80.627 13.5442H81.783C81.8711 13.5442 81.9555 13.5792 82.0178 13.6414C82.08 13.7037 82.115 13.7881 82.115 13.8762Z" fill="black"/>
<path d="M175.907 9.13232H152.743C151.616 9.13232 150.703 10.0457 150.703 11.1723V27.4163C150.703 28.543 151.616 29.4563 152.743 29.4563H175.907C177.034 29.4563 177.947 28.543 177.947 27.4163V11.1723C177.947 10.0457 177.034 9.13232 175.907 9.13232Z" fill="#348DAA"/>
<path fill-rule="evenodd" clip-rule="evenodd" d="M156.151 26.4715C156.151 26.4715 156.811 33.4795 148.467 36.7635C148.467 36.7635 159.583 35.8595 160.107 26.3115L156.151 26.4715Z" fill="#348DAA"/>
<path opacity="0.39" d="M176.347 27.4198V11.1758C176.347 10.9328 176.15 10.7358 175.907 10.7358L152.743 10.7358C152.5 10.7358 152.303 10.9328 152.303 11.1758V27.4198C152.303 27.6628 152.5 27.8598 152.743 27.8598H175.907C176.15 27.8598 176.347 27.6628 176.347 27.4198Z" fill="white"/>
<path d="M168.957 12.4722C169.088 12.4722 169.217 12.4981 169.339 12.5484C169.46 12.5987 169.57 12.6724 169.662 12.7653C169.755 12.8582 169.828 12.9685 169.878 13.0898C169.928 13.2111 169.953 13.341 169.953 13.4722V13.9522H167.229L168.957 12.4722Z" fill="#348DAA"/>
<path opacity="0.7" d="M168.957 12.4722C169.088 12.4722 169.217 12.4981 169.339 12.5484C169.46 12.5987 169.57 12.6724 169.662 12.7653C169.755 12.8582 169.828 12.9685 169.878 13.0898C169.928 13.2111 169.953 13.341 169.953 13.4722V13.9522H167.229L168.957 12.4722Z" fill="black"/>
<path d="M169.393 25.6722C171.357 21.7762 167.425 16.0442 168.957 12.4722H160.609C160.227 12.4728 159.858 12.617 159.577 12.8763C159.295 13.1355 159.121 13.4909 159.089 13.8722C158.765 17.5002 161.737 22.4922 159.721 25.9202H168.949C169.039 25.9232 169.128 25.9017 169.206 25.858C169.284 25.8143 169.349 25.75 169.393 25.6722Z" fill="#348DAA"/>
<path opacity="0.3" d="M169.393 25.6722C171.357 21.7762 167.425 16.0442 168.957 12.4722H160.609C160.227 12.4728 159.858 12.617 159.577 12.8763C159.295 13.1355 159.121 13.4909 159.089 13.8722C158.765 17.5002 161.737 22.4922 159.721 25.9202H168.949C169.039 25.9232 169.128 25.9017 169.206 25.858C169.284 25.8143 169.349 25.75 169.393 25.6722Z" fill="black"/>
<path d="M159.723 25.9237C159.49 25.9237 159.268 25.8314 159.103 25.6672C158.939 25.5029 158.847 25.2801 158.847 25.0477V24.7197H168.123V25.0477C168.123 25.2801 168.215 25.5029 168.379 25.6672C168.544 25.8314 168.766 25.9237 168.999 25.9237H159.723Z" fill="#348DAA"/>
<path opacity="0.5" d="M159.723 25.9237C159.49 25.9237 159.268 25.8314 159.103 25.6672C158.939 25.5029 158.847 25.2801 158.847 25.0477V24.7197H168.123V25.0477C168.123 25.2801 168.215 25.5029 168.379 25.6672C168.544 25.8314 168.766 25.9237 168.999 25.9237H159.723Z" fill="black"/>
<path opacity="0.3" d="M166.945 14.3315H160.373V14.8795H166.945V14.3315Z" fill="black"/>
<path opacity="0.3" d="M167.255 16.2676H160.683V16.8156H167.255V16.2676Z" fill="black"/>
<path opacity="0.3" d="M167.609 17.7319H161.037V18.2799H167.609V17.7319Z" fill="black"/>
<path opacity="0.3" d="M167.961 19.1997H161.389V19.7477H167.961V19.1997Z" fill="black"/>
<path opacity="0.3" d="M167.232 23.5719C167.791 23.5719 168.244 23.1188 168.244 22.5599C168.244 22.0009 167.791 21.5479 167.232 21.5479C166.673 21.5479 166.22 22.0009 166.22 22.5599C166.22 23.1188 166.673 23.5719 167.232 23.5719Z" fill="black"/>
</svg>
