<svg width="64" height="32" viewBox="0 0 64 32" fill="none" xmlns="http://www.w3.org/2000/svg">
<circle cx="10" cy="16" r="9.35" stroke="#38768A" stroke-width="1.3"/>
<circle cx="7.17272" cy="13.7242" r="5.5569" stroke="#38768A" stroke-width="1.3"/>
<circle cx="8.68969" cy="15.1034" r="3.48793" stroke="#38768A" stroke-width="1.3"/>
<path d="M25.7578 10.0508H27.9355V22.1602H34.459V23H25.7578V10.0508ZM36.5586 13.3809L37.9551 12.8145H38.5312V23H36.5586V13.3809ZM36.4023 9.17188C36.4023 9.01562 36.4316 8.86914 36.4902 8.73242C36.5488 8.5957 36.6302 8.47526 36.7344 8.37109C36.8385 8.26693 36.959 8.18555 37.0957 8.12695C37.2324 8.06836 37.3789 8.03906 37.5352 8.03906C37.6914 8.03906 37.8379 8.06836 37.9746 8.12695C38.1113 8.18555 38.2318 8.26693 38.3359 8.37109C38.4401 8.47526 38.5215 8.5957 38.5801 8.73242C38.6387 8.86914 38.668 9.01562 38.668 9.17188C38.668 9.32812 38.6387 9.47461 38.5801 9.61133C38.5215 9.74805 38.4401 9.86849 38.3359 9.97266C38.2318 10.0768 38.1113 10.1582 37.9746 10.2168C37.8379 10.2754 37.6914 10.3047 37.5352 10.3047C37.3789 10.3047 37.2324 10.2754 37.0957 10.2168C36.959 10.1582 36.8385 10.0768 36.7344 9.97266C36.6302 9.86849 36.5488 9.74805 36.4902 9.61133C36.4316 9.47461 36.4023 9.32812 36.4023 9.17188ZM44.1758 23H42.1836V8.46875L43.5996 7.90234H44.1758V23ZM52.3008 23.2148C51.5326 23.2148 50.8262 23.0814 50.1816 22.8145C49.5371 22.5475 48.9805 22.1862 48.5117 21.7305C48.043 21.2682 47.6751 20.7311 47.4082 20.1191C47.1478 19.5007 47.0176 18.8398 47.0176 18.1367C47.0176 17.401 47.1478 16.7109 47.4082 16.0664C47.6751 15.4154 48.043 14.849 48.5117 14.3672C48.9805 13.8854 49.5371 13.5078 50.1816 13.2344C50.8262 12.9544 51.5326 12.8145 52.3008 12.8145C53.0625 12.8145 53.7624 12.9414 54.4004 13.1953C55.0449 13.4492 55.6016 13.7975 56.0703 14.2402C56.5391 14.6829 56.9036 15.2038 57.1641 15.8027C57.431 16.3952 57.5645 17.0332 57.5645 17.7168C57.5645 18.472 57.431 19.1849 57.1641 19.8555C56.9036 20.5195 56.5391 21.1022 56.0703 21.6035C55.6016 22.0983 55.0449 22.4922 54.4004 22.7852C53.7624 23.0716 53.0625 23.2148 52.3008 23.2148ZM52.6816 22.4824C53.0723 22.4824 53.4303 22.3815 53.7559 22.1797C54.0814 21.9779 54.3613 21.7077 54.5957 21.3691C54.8301 21.0241 55.0124 20.627 55.1426 20.1777C55.2728 19.7285 55.3379 19.2533 55.3379 18.752C55.3379 18.0293 55.276 17.3522 55.1523 16.7207C55.0286 16.0892 54.8268 15.5391 54.5469 15.0703C54.2669 14.6016 53.9023 14.2337 53.4531 13.9668C53.0039 13.6934 52.457 13.5566 51.8125 13.5566C51.4805 13.5566 51.1582 13.6543 50.8457 13.8496C50.5332 14.0384 50.2565 14.2988 50.0156 14.6309C49.7812 14.9629 49.5924 15.3535 49.4492 15.8027C49.306 16.2454 49.2344 16.7174 49.2344 17.2188C49.2344 17.9479 49.3092 18.6315 49.459 19.2695C49.6152 19.9076 49.8398 20.4642 50.1328 20.9395C50.4323 21.4147 50.7936 21.7923 51.2168 22.0723C51.6465 22.3457 52.1348 22.4824 52.6816 22.4824Z" fill="#38768A"/>
</svg>
