<svg width="32" height="32" viewBox="0 0 32 32" fill="none" xmlns="http://www.w3.org/2000/svg">
<path d="M30.9772 22.6851C30.9772 22.6491 30.9842 22.6141 30.9842 22.5781V22.4691L30.8002 10.6851C30.8407 9.32517 30.4049 7.99385 29.5682 6.92106C29.1212 6.39445 28.5613 5.97528 27.9301 5.69466C27.2989 5.41404 26.6127 5.27917 25.9222 5.30006C25.5702 5.30006 25.1912 5.32306 24.8392 5.34406C24.174 5.41589 23.5025 5.4075 22.8392 5.31906H22.8232L22.7752 5.30006C22.7224 5.28163 22.6703 5.26094 22.6192 5.23806C22.4538 5.16458 22.2901 5.08722 22.1282 5.00606C21.0393 4.39728 19.8243 4.04853 18.5782 3.98706C17.5526 4.01476 16.5501 4.29762 15.6612 4.81006C14.7236 5.35878 13.6462 5.62188 12.5612 5.56706C11.5629 5.49692 10.5615 5.64927 9.62924 6.01311C8.69696 6.37696 7.85709 6.94323 7.17022 7.67106C6.58857 8.19799 5.88243 8.56827 5.11822 8.74706C4.60063 8.91038 4.09864 9.11954 3.61822 9.37206L3.60322 9.38106L3.58822 9.38806C2.78883 9.88545 2.13086 10.5802 1.67762 11.4054C1.22437 12.2306 0.991096 13.1586 1.00022 14.1001V20.7811C0.895693 22.2592 1.20748 23.7371 1.90022 25.0471C2.30249 25.6321 2.83721 26.1139 3.46087 26.4533C4.08452 26.7927 4.77949 26.98 5.48922 27.0001C6.36048 27.1181 7.24684 26.9608 8.02422 26.5501C8.26689 26.4149 8.4945 26.2543 8.70322 26.0711C8.89322 26.3381 9.10822 26.5861 9.34422 26.8131C10.0695 27.5353 11.0395 27.9589 12.0622 28.0001C12.4539 28.0021 12.8453 27.98 13.2342 27.9341H13.2942C13.7165 29.0003 14.5153 29.8746 15.5392 30.3911C16.1893 30.6919 16.8942 30.856 17.6103 30.8732C18.3264 30.8904 19.0384 30.7603 19.7022 30.4911L27.3272 27.8421C27.4212 27.8101 27.5142 27.7751 27.6052 27.7421C28.3604 27.5121 29.0385 27.0802 29.5662 26.4931C29.8532 26.2121 30.0982 25.8911 30.2932 25.5401C30.6138 24.9335 30.8203 24.2732 30.9022 23.5921C30.9152 23.5061 30.9242 23.4191 30.9342 23.3321C30.9572 23.0841 30.9732 22.8721 30.9772 22.6851ZM10.7112 25.3481C10.3709 25.0572 10.1202 24.6758 9.98822 24.2481C9.97451 24.2046 9.9578 24.1622 9.93822 24.1211V14.9381C9.93822 14.6728 9.83287 14.4185 9.64533 14.231C9.45779 14.0434 9.20344 13.9381 8.93822 13.9381C8.67301 13.9381 8.41865 14.0434 8.23112 14.231C8.04358 14.4185 7.93822 14.6728 7.93822 14.9381V24.0051C7.89922 24.0481 7.85122 24.0941 7.82022 24.1291C7.60782 24.3922 7.35134 24.6166 7.06222 24.7921C6.32222 25.1671 5.25422 25.1081 4.51622 24.7471C4.14808 24.5674 3.82872 24.3015 3.58522 23.9721C3.10615 22.9806 2.90402 21.878 3.00022 20.7811V14.1001C2.99162 13.5132 3.13072 12.9337 3.40472 12.4147C3.67871 11.8957 4.07882 11.454 4.56822 11.1301L4.59822 11.1141C4.97565 10.9202 5.36953 10.7603 5.77522 10.6361C6.88512 10.3485 7.89717 9.76748 8.70522 8.95406C9.19444 8.46303 9.7845 8.08415 10.4346 7.84363C11.0847 7.60312 11.7792 7.5067 12.4702 7.56106C13.8928 7.6331 15.3066 7.29985 16.5472 6.60006C17.1614 6.22667 17.8601 6.01476 18.5782 5.98406C19.5199 6.04904 20.4342 6.32849 21.2512 6.80106C21.6291 7.0061 22.0299 7.16587 22.4452 7.27706C23.2774 7.40247 24.122 7.42296 24.9592 7.33806C25.3262 7.31606 25.6422 7.29706 25.9222 7.29706C26.319 7.27603 26.7153 7.34622 27.0808 7.50223C27.4462 7.65825 27.771 7.89594 28.0302 8.19706C28.5702 8.91606 28.8422 9.80006 28.8002 10.6971V10.7131L28.9832 22.5001C28.9832 22.5611 28.9832 22.6321 28.9762 22.7001C28.9762 22.8311 28.9642 22.9581 28.9502 23.0821C28.9432 23.1561 28.9332 23.2321 28.9232 23.3081C28.83 23.9644 28.5526 24.581 28.1232 25.0861C28.0232 25.1871 27.9112 25.2771 27.7912 25.3531C27.3275 25.6035 26.8047 25.7237 26.2782 25.7011C25.8428 25.7221 25.4104 25.618 25.0322 25.4011C24.7682 25.2299 24.5584 24.9871 24.4272 24.7011C24.1391 23.9957 24.0133 23.2346 24.0592 22.4741C24.0557 22.4475 24.0507 22.4211 24.0442 22.3951V13.3751C24.0442 13.1098 23.9389 12.8555 23.7513 12.668C23.5638 12.4804 23.3094 12.3751 23.0442 12.3751C22.779 12.3751 22.5247 12.4804 22.3371 12.668C22.1496 12.8555 22.0442 13.1098 22.0442 13.3751V23.5941C22.0234 24.1542 21.822 24.6926 21.4702 25.1291C21.2614 25.3916 20.9939 25.6015 20.6893 25.7419C20.3847 25.8824 20.0515 25.9496 19.7162 25.9381C18.9747 26.0106 18.2297 25.8404 17.5932 25.4531C17.3715 25.2411 17.2006 24.9818 17.0933 24.6945C16.9859 24.4073 16.9449 24.0994 16.9732 23.7941C16.9732 23.7281 16.9892 23.6581 16.9892 23.5941V13.3751C16.9892 13.1098 16.8839 12.8555 16.6963 12.668C16.5088 12.4804 16.2544 12.3751 15.9892 12.3751C15.724 12.3751 15.4697 12.4804 15.2821 12.668C15.0946 12.8555 14.9892 13.1098 14.9892 13.3751V23.4751C14.9791 23.5132 14.9714 23.5519 14.9662 23.5911C14.9662 23.6411 14.9762 23.6841 14.9772 23.7341C14.9355 24.2548 14.7617 24.7562 14.4722 25.1911C14.3048 25.4492 14.0718 25.6583 13.7972 25.7971C13.7496 25.7983 13.7022 25.803 13.6552 25.8111C13.1342 25.9511 12.5952 26.0151 12.0552 25.9971C11.5433 25.951 11.0656 25.7203 10.7112 25.3481ZM19.0472 28.6031L19.0192 28.6131C18.6081 28.7898 18.1649 28.8795 17.7174 28.8765C17.27 28.8736 16.828 28.7781 16.4192 28.5961C15.8699 28.3185 15.4338 27.8591 15.1852 27.2961C15.4652 27.0911 15.7152 26.8511 15.9312 26.5801C16.0582 26.7401 16.2012 26.8891 16.3562 27.0221C17.3432 27.6941 18.5262 28.0171 19.7182 27.9371C20.3517 27.9486 20.9795 27.8147 21.5531 27.5457C22.1268 27.2766 22.6311 26.8796 23.0272 26.3851C23.0502 26.3571 23.0642 26.3251 23.0862 26.2971C23.2862 26.5471 23.5182 26.7701 23.7782 26.9571L19.0472 28.6001V28.6031Z" fill="#38768A"/>
</svg>
