<svg width="32" height="32" viewBox="0 0 32 32" fill="none" xmlns="http://www.w3.org/2000/svg">
<path d="M6 5.99994C6 4.93907 6.42143 3.92166 7.17157 3.17151C7.92172 2.42137 8.93913 1.99994 10 1.99994C11.0609 1.99994 12.0783 2.42137 12.8284 3.17151C13.5786 3.92166 14 4.93907 14 5.99994C14 7.06081 13.5786 8.07822 12.8284 8.82837C12.0783 9.57851 11.0609 9.99994 10 9.99994C8.93913 9.99994 7.92172 9.57851 7.17157 8.82837C6.42143 8.07822 6 7.06081 6 5.99994ZM10 3.99994C9.46957 3.99994 8.96086 4.21065 8.58579 4.58573C8.21071 4.9608 8 5.46951 8 5.99994C8 6.53037 8.21071 7.03908 8.58579 7.41415C8.96086 7.78923 9.46957 7.99994 10 7.99994C10.5304 7.99994 11.0391 7.78923 11.4142 7.41415C11.7893 7.03908 12 6.53037 12 5.99994C12 5.46951 11.7893 4.9608 11.4142 4.58573C11.0391 4.21065 10.5304 3.99994 10 3.99994ZM19.558 9.16794C19.139 8.84833 18.7873 8.44907 18.523 7.9931C18.2588 7.53713 18.0873 7.03344 18.0183 6.51098C17.9494 5.98851 17.9843 5.45757 18.1212 4.94866C18.2581 4.43975 18.4941 3.9629 18.8159 3.54552C19.1376 3.12813 19.5387 2.77844 19.996 2.51652C20.4533 2.25461 20.9578 2.08565 21.4806 2.01934C22.0034 1.95303 22.5342 1.99068 23.0424 2.13014C23.5506 2.26959 24.0263 2.50809 24.442 2.83194C25.2606 3.48675 25.7894 4.43673 25.9147 5.47748C26.04 6.51823 25.7517 7.56657 25.1119 8.39693C24.4721 9.22729 23.5319 9.77331 22.4936 9.91751C21.4553 10.0617 20.4019 9.79254 19.56 9.16794H19.558ZM22 3.99994C21.4696 3.99994 20.9609 4.21065 20.5858 4.58573C20.2107 4.9608 20 5.46951 20 5.99994C20 6.53037 20.2107 7.03908 20.5858 7.41415C20.9609 7.78923 21.4696 7.99994 22 7.99994C22.5304 7.99994 23.0391 7.78923 23.4142 7.41415C23.7893 7.03908 24 6.53037 24 5.99994C24 5.46951 23.7893 4.9608 23.4142 4.58573C23.0391 4.21065 22.5304 3.99994 22 3.99994ZM5 11.9999H10.34C10.12 12.6259 10 13.2999 10 13.9999H5C4.73478 13.9999 4.48043 14.1053 4.29289 14.2928C4.10536 14.4804 4 14.7347 4 14.9999C4 16.6339 4.65 17.8459 5.676 18.6699C6.148 19.0499 6.714 19.3559 7.354 19.5799C6.88402 20.0795 6.52184 20.6704 6.29 21.3159C5.61867 21.0463 4.9901 20.6804 4.424 20.2299C2.92 19.0199 2 17.2319 2 14.9999C2 14.2043 2.31607 13.4412 2.87868 12.8786C3.44129 12.316 4.20435 11.9999 5 11.9999ZM12.536 11.9999C12.0056 12.9192 11.862 14.0115 12.137 15.0366C12.4119 16.0616 13.0828 16.9355 14.002 17.4659C14.9212 17.9964 16.0135 18.1399 17.0386 17.865C18.0637 17.5901 18.9376 16.9192 19.468 15.9999C19.9984 15.0807 20.142 13.9884 19.867 12.9633C19.5921 11.9382 18.9212 11.0644 18.002 10.5339C17.0828 10.0035 15.9905 9.85997 14.9654 10.1349C13.9403 10.4098 13.0664 11.0807 12.536 11.9999ZM15.552 12.0499C15.845 11.9837 16.1492 11.9842 16.442 12.0513C16.7349 12.1184 17.0089 12.2504 17.2439 12.4376C17.4788 12.6248 17.6688 12.8623 17.7997 13.1328C17.9305 13.4032 17.999 13.6995 18 13.9999C17.9998 14.3762 17.8935 14.7449 17.6933 15.0635C17.493 15.3821 17.2069 15.6377 16.8679 15.801C16.5289 15.9643 16.1506 16.0286 15.7767 15.9866C15.4027 15.9446 15.0482 15.7979 14.7539 15.5635C14.4595 15.329 14.2373 15.0163 14.1128 14.6612C13.9882 14.3061 13.9663 13.9231 14.0497 13.5561C14.133 13.1891 14.3182 12.8531 14.584 12.5867C14.8497 12.3203 15.1853 12.1342 15.552 12.0499ZM26.324 18.6699C25.852 19.0499 25.286 19.3559 24.646 19.5799C25.1153 20.0797 25.4768 20.6706 25.708 21.3159C26.388 21.0379 27.018 20.6759 27.576 20.2299C29.08 19.0199 30 17.2319 30 14.9999C30 14.2043 29.6839 13.4412 29.1213 12.8786C28.5587 12.316 27.7956 11.9999 27 11.9999H21.66C21.88 12.6259 22 13.2999 22 13.9999H27C27.2652 13.9999 27.5196 14.1053 27.7071 14.2928C27.8946 14.4804 28 14.7347 28 14.9999C28 16.6339 27.35 17.8459 26.324 18.6699ZM21 19.9999C21.7956 19.9999 22.5587 20.316 23.1213 20.8786C23.6839 21.4412 24 22.2043 24 22.9999C24 25.2319 23.082 27.0199 21.576 28.2299C20.094 29.4199 18.106 29.9999 16 29.9999C13.894 29.9999 11.906 29.4199 10.424 28.2299C8.92 27.0199 8 25.2319 8 22.9999C7.99894 22.6057 8.07582 22.2151 8.22621 21.8506C8.3766 21.4862 8.59754 21.1551 8.87633 20.8763C9.15511 20.5975 9.48625 20.3765 9.8507 20.2262C10.2152 20.0758 10.6057 19.9989 11 19.9999H21ZM21 21.9999H11C10.7348 21.9999 10.4804 22.1053 10.2929 22.2928C10.1054 22.4804 10 22.7347 10 22.9999C10 24.6339 10.65 25.8459 11.676 26.6699C12.728 27.5139 14.24 27.9999 16 27.9999C17.76 27.9999 19.272 27.5139 20.324 26.6699C21.35 25.8459 22 24.6339 22 22.9999C22 22.7347 21.8946 22.4804 21.7071 22.2928C21.5196 22.1053 21.2652 21.9999 21 21.9999Z" fill="#545454"/>
</svg>
