<svg width="32" height="32" viewBox="0 0 32 32" fill="none" xmlns="http://www.w3.org/2000/svg">
<path d="M16.0002 4C14.3069 4 12.8002 5.06667 12.2402 6.66667H4.00023V9.33333H6.60023L2.6669 18.6667C2.04023 21.3333 4.00023 22.6667 7.33357 22.6667C10.6669 22.6667 12.7469 21.3333 12.0002 18.6667L8.0669 9.33333H12.2269C12.6669 10.4667 13.5336 11.3333 14.6669 11.7733V26.6667H2.6669V29.3333H29.3336V26.6667H17.3336V11.76C18.4669 11.3333 19.3336 10.4667 19.7602 9.33333H23.9336L20.0002 18.6667C19.3736 21.3333 21.3336 22.6667 24.6669 22.6667C28.0002 22.6667 30.0802 21.3333 29.3336 18.6667L25.4002 9.33333H28.0002V6.66667H19.7736C19.2002 5.06667 17.6936 4 16.0002 4ZM16.0002 6.66667C16.3539 6.66667 16.693 6.80714 16.943 7.05719C17.1931 7.30724 17.3336 7.64638 17.3336 8C17.3336 8.35362 17.1931 8.69276 16.943 8.94281C16.693 9.19286 16.3539 9.33333 16.0002 9.33333C15.6466 9.33333 15.3075 9.19286 15.0574 8.94281C14.8074 8.69276 14.6669 8.35362 14.6669 8C14.6669 7.64638 14.8074 7.30724 15.0574 7.05719C15.3075 6.80714 15.6466 6.66667 16.0002 6.66667ZM7.33357 13.6667L9.33357 18.6667H5.33357L7.33357 13.6667ZM24.6669 13.6667L26.6669 18.6667H22.6669L24.6669 13.6667Z" fill="#545454"/>
</svg>
