<svg width="20" height="20" viewBox="0 0 20 20" fill="none" xmlns="http://www.w3.org/2000/svg">
<path d="M8.83301 13.3333C8.83301 12.2083 8.93384 11.3992 9.13551 10.9058C9.33662 10.4131 9.76356 9.875 10.4163 9.29167C10.9858 8.79167 11.4197 8.3575 11.718 7.98917C12.0169 7.62139 12.1663 7.20139 12.1663 6.72917C12.1663 6.15972 11.9755 5.6875 11.5938 5.3125C11.2116 4.9375 10.6802 4.75 9.99967 4.75C9.29134 4.75 8.75301 4.96528 8.38467 5.39583C8.0169 5.82639 7.75662 6.26389 7.60384 6.70833L5.45801 5.79167C5.74967 4.90278 6.2844 4.13194 7.06217 3.47917C7.83995 2.82639 8.81912 2.5 9.99967 2.5C11.458 2.5 12.5797 2.90639 13.3647 3.71917C14.1491 4.53139 14.5413 5.50694 14.5413 6.64583C14.5413 7.34028 14.3922 7.93417 14.0938 8.4275C13.795 8.92028 13.3261 9.47917 12.6872 10.1042C12.0066 10.7569 11.5936 11.2533 11.448 11.5933C11.3019 11.9339 11.2288 12.5139 11.2288 13.3333H8.83301ZM9.99967 18.3333C9.54134 18.3333 9.14912 18.1703 8.82301 17.8442C8.49634 17.5175 8.33301 17.125 8.33301 16.6667C8.33301 16.2083 8.49634 15.8158 8.82301 15.4892C9.14912 15.1631 9.54134 15 9.99967 15C10.458 15 10.8505 15.1631 11.1772 15.4892C11.5033 15.8158 11.6663 16.2083 11.6663 16.6667C11.6663 17.125 11.5033 17.5175 11.1772 17.8442C10.8505 18.1703 10.458 18.3333 9.99967 18.3333Z" fill="#545454"/>
</svg>
